<svg xmlns="http://www.w3.org/2000/svg" width="768" height="2245" viewBox="0 0 768 2245" fill="none">
  <rect width="768" height="2245" fill="#F3F4F8"/>

  <rect x="0" y="0" width="768" height="300" fill="#DFE3F7"/>
  <ellipse cx="544" cy="253" rx="238" ry="76" fill="#ECEFF9"/>
  <ellipse cx="556" cy="245" rx="192" ry="58" fill="#E6EAF8"/>

  <path d="M-60 180 C140 110 340 130 520 180 C640 215 724 208 840 164" stroke="#A9B3EB" stroke-width="1.4"/>
  <path d="M-52 225 C156 165 350 182 520 223 C640 252 724 245 834 209" stroke="#B3BCEE" stroke-width="1.2"/>

  <path d="M-40 360 C130 320 305 340 462 360 C607 378 716 372 820 340" stroke="#AEB8EB" stroke-width="1.3"/>
  <path d="M-38 392 C128 352 301 370 462 389 C606 406 716 401 818 368" stroke="#B3BCEE" stroke-width="1.2"/>
  <path d="M-36 424 C126 384 299 402 462 420 C606 438 716 432 816 400" stroke="#B8C1EF" stroke-width="1.1"/>
  <path d="M-34 456 C124 416 297 434 462 451 C606 469 716 463 814 431" stroke="#BDC5F1" stroke-width="1.1"/>

  <path d="M-20 1128 C150 1172 285 1214 384 1230 C487 1246 620 1197 788 1135" stroke="#A7B0EA" stroke-width="1.8"/>
  <path d="M-22 1140 C146 1185 283 1226 384 1242 C489 1258 622 1210 790 1148" stroke="#ACB5EC" stroke-width="1.7"/>
  <path d="M-24 1153 C142 1197 281 1238 384 1254 C491 1270 624 1222 792 1161" stroke="#B0B9ED" stroke-width="1.6"/>
  <path d="M-26 1166 C138 1210 279 1251 384 1267 C493 1283 626 1235 794 1174" stroke="#B4BDEE" stroke-width="1.5"/>
  <path d="M-28 1179 C134 1222 277 1264 384 1280 C495 1296 628 1248 796 1187" stroke="#B8C1EF" stroke-width="1.5"/>
  <path d="M-30 1192 C130 1235 275 1277 384 1293 C497 1309 630 1261 798 1200" stroke="#BCC4F0" stroke-width="1.4"/>
  <path d="M-32 1205 C126 1247 273 1290 384 1306 C499 1322 632 1274 800 1213" stroke="#C0C8F1" stroke-width="1.4"/>
  <path d="M-34 1218 C122 1260 271 1303 384 1319 C501 1335 634 1287 802 1226" stroke="#C4CCF2" stroke-width="1.3"/>
  <path d="M-36 1231 C118 1272 269 1316 384 1332 C503 1348 636 1300 804 1239" stroke="#C8D0F3" stroke-width="1.3"/>
  <path d="M-38 1244 C114 1285 267 1329 384 1345 C505 1361 638 1313 806 1252" stroke="#CCD3F4" stroke-width="1.2"/>
  <path d="M-40 1257 C110 1297 265 1342 384 1358 C507 1374 640 1326 808 1265" stroke="#D0D7F5" stroke-width="1.2"/>
  <path d="M-42 1270 C106 1310 263 1355 384 1371 C509 1387 642 1339 810 1278" stroke="#D4DBF6" stroke-width="1.1"/>
</svg>
