<svg width="1920" height="3391" viewBox="0 0 1920 3391" fill="none" xmlns="http://www.w3.org/2000/svg">
<g clip-path="url(#clip0_2018_9874)">
<rect width="1920" height="3391" fill="white"/>
<rect y="1836" width="1920" height="851" fill="white"/>
<rect y="686" width="1920" height="1149" fill="white"/>
<rect width="1920" height="686" fill="white"/>
<path opacity="0.48" d="M2160.22 1670C1299.03 1993.38 93.3574 2682.39 2160.22 2851.43V1670Z" fill="#010268"/>
<path d="M2398.9 1752.98C1537.71 2076.36 332.037 2601.12 2398.9 2770.16V1752.98Z" fill="white"/>
<path opacity="0.48" d="M2539.3 1797.1C1678.1 2079.95 472.431 2538.95 2539.3 2686.81V1797.1Z" fill="#010268"/>
<path d="M2445.1 1960.01C1893.78 2165.62 1121.93 2499.28 2445.1 2606.76V1960.01Z" fill="white"/>
<mask id="mask0_2018_9874" style="mask-type:luminance" maskUnits="userSpaceOnUse" x="-197" y="-1" width="1955" height="1057">
<path d="M-197 -1H1758V1056H-197V-1Z" fill="white"/>
</mask>
<g mask="url(#mask0_2018_9874)">
<path d="M2996.49 1266.87C2974.17 1165.79 2848.08 1105.55 2726.38 1093.79C2604.68 1081.9 2480.7 1105.02 2357.7 1105.02C2028.12 1104.89 1717.43 920.967 1609.58 662.134C1575.04 579.16 1559.89 490.768 1526.17 407.529C1492.45 324.291 1435.26 243.298 1342.4 203.661C1208.81 146.715 1041.49 190.58 906.76 254.264C772.028 317.949 645.767 402.244 496.373 431.444C300.058 469.76 96.2493 403.83 -53.9598 297.469C-204.006 191.109 -310.065 48.1494 -413.68 -92.4316" stroke="#D4E8F7" stroke-miterlimit="10"/>
<path d="M3003.82 1257.09C2979.39 1156.55 2853.62 1096.43 2731.75 1084.27C2679.13 1078.99 2625.86 1080.31 2572.58 1083.88C2502.69 1088.5 2432.64 1096.69 2363.07 1097.88C2221.17 1100.39 2082.86 1070.93 1961.32 1013.72C1867.48 969.59 1783.9 911.323 1717.27 841.428C1669.54 791.749 1631.58 735.728 1605.02 674.951C1593.13 647.733 1583.35 619.855 1574.39 591.712C1556.15 534.502 1541.16 476.367 1517.54 421.007C1490.65 358.247 1450.09 297.47 1389.81 256.115C1371.07 243.166 1350.71 232.068 1328.39 223.348C1234.71 186.881 1126.37 199.433 1022.76 230.482C977.955 243.959 933.968 260.739 893.076 278.84C847.296 299.055 802.494 320.856 757.855 341.6C670.206 382.558 583.697 420.214 490.02 433.955C429.089 442.807 368.973 440.561 309.508 429.727C188.624 407.794 69.8577 349.263 -29.1956 274.612C-56.4027 254.133 -82.3064 232.596 -107.396 210.135C-218.831 110.381 -312.019 -4.96425 -403.904 -113.703" stroke="#D4E8F7" stroke-miterlimit="10"/>
<path d="M3011.16 1247.18C2984.44 1147.17 2859.15 1087.05 2737.13 1074.5C2684.35 1069.08 2631.07 1070.4 2577.63 1074.1C2507.74 1078.99 2437.69 1087.97 2368.29 1090.48C2226.71 1095.64 2088.56 1070.93 1965.88 1016.1C1871.07 973.818 1786.19 918.325 1716.95 851.073C1667.42 802.98 1627.99 747.884 1600.3 687.503C1587.92 660.549 1577.82 632.671 1568.37 604.528C1549.3 547.45 1533.5 489.183 1508.9 434.351C1480.88 371.988 1438.85 312.664 1376.61 273.291C1357.39 261.135 1336.86 250.697 1314.38 242.77C1220.21 209.607 1113.34 225.197 1009.89 256.379C964.923 269.856 920.609 286.107 879.228 303.019C832.96 321.913 787.669 341.732 743.193 359.965C655.87 396.167 571.642 428.009 483.341 435.937C426.157 441.09 371.58 435.144 316.677 421.403C205.405 393.26 92.5038 329.444 -4.9204 251.358C-31.6387 229.954 -57.5426 207.493 -82.7947 184.503C-195.37 81.7096 -295.564 -32.5785 -394.454 -135.504" stroke="#D4E8F7" stroke-miterlimit="10"/>
<path d="M3018.48 1237.28C2989.49 1137.79 2864.69 1077.67 2742.5 1064.85C2689.72 1059.3 2636.12 1060.49 2582.68 1064.46C2512.63 1069.74 2442.9 1079.52 2373.5 1083.22C2232.09 1091.01 2094.42 1071.06 1970.44 1018.61C1874.65 978.179 1788.3 925.461 1716.62 860.852C1665.14 814.344 1624.41 760.173 1595.57 700.056C1582.7 673.234 1572.11 645.62 1562.17 617.346C1542.3 560.4 1525.68 502 1500.1 447.565C1470.94 385.598 1427.6 327.728 1363.25 290.336C1343.54 278.973 1322.85 269.196 1300.36 262.194C1205.87 232.333 1100.3 251.095 997.014 282.277C951.886 295.886 907.41 311.476 865.54 327.199C818.783 344.772 773.167 362.609 728.69 378.464C641.693 409.645 559.583 435.938 476.821 438.052C423.221 439.373 374.184 429.992 324.168 413.212C222.508 379.124 115.472 309.626 19.8397 228.237C-6.38986 205.776 -32.1307 182.654 -57.5457 159.004C-171.099 53.1718 -278.298 -60.0593 -384.519 -157.039" stroke="#D4E8F7" stroke-miterlimit="10"/>
<path d="M3025.82 1227.37C2994.54 1128.54 2870.23 1068.29 2747.72 1055.21C2694.77 1049.53 2641.17 1050.58 2587.57 1054.94C2517.52 1060.49 2447.79 1071.06 2378.55 1076.08C2237.47 1086.39 2099.96 1071.33 1975.01 1021.38C1878.07 982.803 1790.26 932.992 1716.46 870.893C1662.86 825.97 1620.99 772.724 1591.18 713.003C1577.82 686.446 1566.74 658.832 1556.47 630.557C1535.78 573.612 1518.35 515.344 1491.63 461.173C1461.33 399.735 1416.69 343.053 1350.22 307.908C1330.02 297.206 1309.17 288.354 1286.52 282.012C1191.54 255.455 1087.6 277.387 984.148 308.569C939.021 322.31 894.056 337.24 851.86 351.906C804.614 368.289 758.509 384.012 714.358 397.489C627.687 423.914 547.695 444.261 470.635 440.694C420.62 438.316 377.121 425.235 331.83 405.416C239.619 365.25 138.774 290.336 44.6081 205.644C18.7043 182.257 -6.87366 158.211 -32.4516 133.9C-146.982 25.1607 -261.186 -87.2777 -374.576 -178.18" stroke="#D4E8F7" stroke-miterlimit="10"/>
<path d="M3033.15 1217.46C2999.59 1119.15 2875.77 1058.91 2753.09 1045.56C2700.15 1039.75 2646.38 1040.8 2592.62 1045.3C2522.57 1051.11 2452.84 1062.47 2383.76 1068.81C2243 1081.76 2105.83 1071.33 1979.57 1023.89C1881.65 987.162 1792.38 940.257 1716.13 880.801C1660.58 837.464 1617.4 785.01 1586.45 725.686C1572.6 699.261 1561.03 671.779 1550.44 643.637C1528.94 586.823 1510.69 528.424 1483 474.781C1451.55 413.739 1405.61 358.511 1337.02 325.347C1316.5 315.438 1295.32 307.246 1272.67 301.697C1177.36 278.575 1074.73 303.415 971.438 334.86C926.147 348.601 880.856 363.003 838.172 376.48C790.437 391.542 744.006 405.283 699.856 416.249C613.51 437.786 535.31 452.452 464.115 443.071C417.521 436.993 379.887 420.213 339.158 397.488C256.397 351.112 161.579 270.912 69.0425 182.785C43.6275 158.474 18.0496 133.634 -7.69125 108.662C-123.199 -3.11534 -244.572 -114.497 -365.131 -199.453" stroke="#D4E8F7" stroke-miterlimit="10"/>
<path d="M3040.64 1207.68C3004.8 1109.91 2881.47 1049.79 2758.64 1036.05C2705.52 1030.1 2651.6 1031.03 2597.84 1035.78C2527.62 1041.99 2458.22 1054.15 2389.14 1061.68C2248.54 1077.14 2111.69 1071.59 1984.29 1026.54C1885.4 991.786 1794.49 947.657 1715.97 890.711C1658.3 848.959 1613.98 797.431 1581.89 738.503C1567.71 712.21 1555.66 684.86 1544.42 656.717C1522.1 600.036 1502.87 541.504 1474.36 488.258C1441.78 427.745 1394.53 373.706 1323.83 342.656C1302.81 333.407 1281.47 326.009 1258.66 321.252C1163.03 301.433 1061.86 329.444 958.569 360.89C913.115 374.763 867.499 388.504 824.489 400.791C776.265 414.532 729.508 426.291 685.358 434.88C599.338 451.659 522.767 460.248 457.6 445.317C414.264 435.408 382.496 415.061 346.654 389.296C273.504 336.843 184.552 251.094 93.6444 159.663C68.7181 134.295 43.1402 108.663 17.2364 83.1628C-99.4119 -31.6538 -227.627 -141.978 -355.354 -221.121" stroke="#D4E8F7" stroke-miterlimit="10"/>
<path d="M3047.97 1197.77C3009.85 1100.66 2887.01 1040.41 2764.01 1026.27C2710.9 1020.19 2656.81 1021.12 2602.88 1026.14C2532.67 1032.61 2463.26 1045.56 2394.35 1054.42C2254.08 1072.52 2117.39 1071.72 1988.85 1029.05C1888.98 996.148 1796.45 954.925 1715.64 900.489C1656.01 860.323 1610.4 809.719 1577.16 751.188C1562.5 725.159 1549.95 697.81 1538.39 669.667C1515.25 612.985 1495.21 554.454 1465.73 501.604C1432 441.487 1383.45 388.769 1310.63 359.966C1289.29 351.51 1267.62 344.772 1244.81 340.808C1148.69 324.292 1048.98 355.474 945.858 386.919C900.405 400.792 854.299 414.005 810.964 425.104C762.414 437.523 715.006 447.301 671.018 453.378C585.324 465.27 510.382 467.78 451.406 447.433C411.166 433.56 385.588 409.777 354.308 381.106C290.608 322.442 207.683 231.408 118.405 136.542C93.8041 110.25 68.5521 83.8246 42.3225 57.6639C-75.3034 -60.1916 -210.687 -169.591 -345.582 -242.656" stroke="#D4E8F7" stroke-miterlimit="10"/>
<path d="M3055.3 1187.86C3014.9 1091.28 2892.55 1031.03 2769.22 1016.63C2715.95 1010.42 2661.7 1011.21 2607.77 1016.49C2537.56 1023.36 2468.15 1037.11 2399.57 1047.15C2259.62 1067.89 2123.26 1071.85 1993.41 1031.69C1892.57 1000.64 1798.57 962.322 1715.31 910.397C1653.57 871.817 1606.81 822.138 1572.44 763.871C1557.29 737.974 1544.25 710.756 1532.2 682.614C1508.25 626.064 1487.39 567.401 1456.93 514.947C1422.06 455.227 1372.38 403.83 1297.27 377.141C1275.44 369.345 1253.61 363.4 1230.64 360.361C1134.19 347.148 1035.95 381.369 932.826 412.947C887.209 426.952 840.778 439.504 796.953 449.545C747.916 460.776 700.181 468.439 656.194 472.139C570.825 479.273 497.187 475.442 444.565 449.81C407.42 431.841 387.87 404.755 361.477 373.177C307.389 308.304 230.329 211.985 142.843 113.684C118.731 86.4658 93.4793 59.1159 67.0867 32.4267C-51.5166 -88.4677 -193.905 -196.81 -335.969 -263.93" stroke="#D4E8F7" stroke-miterlimit="10"/>
<path d="M3062.64 1177.95C3019.95 1081.9 2898.09 1021.65 2774.6 1006.98C2721.33 1000.64 2666.91 1001.3 2612.82 1006.85C2542.61 1013.98 2473.37 1028.52 2404.78 1040.01C2265 1063.27 2128.96 1072.12 1997.98 1034.33C1896.15 1005.13 1800.52 969.723 1714.99 920.44C1651.13 883.577 1603.23 834.691 1567.71 776.82C1552.07 751.188 1538.71 723.97 1526.17 695.827C1501.24 639.41 1479.74 580.614 1448.3 528.689C1412.29 469.497 1361.3 419.29 1284.08 394.847C1261.92 387.844 1239.76 382.691 1216.79 380.313C1120.02 370.404 1023.08 407.795 920.119 439.373C874.34 453.378 827.746 465.401 783.432 474.254C733.906 484.163 685.845 489.845 642.021 491.034C556.978 493.28 484.969 482.842 438.375 452.321C404.488 430.124 390.966 399.867 369.135 365.251C324.496 294.167 253.627 192.431 167.607 90.8271C143.821 62.6845 118.732 34.5419 92.1767 7.05988C-27.4041 -116.873 -176.961 -224.159 -326.193 -285.465" stroke="#D4E8F7" stroke-miterlimit="10"/>
<path d="M3069.97 1168.04C3025.17 1072.52 2903.63 1012.4 2779.98 997.336C2726.54 990.862 2672.13 991.523 2618.04 997.204C2547.66 1004.74 2478.58 1019.93 2410.16 1032.75C2270.7 1058.64 2134.99 1072.12 2002.7 1036.84C1899.74 1009.49 1802.48 977.121 1714.83 930.217C1648.85 894.939 1599.81 846.978 1563.15 789.371C1547.02 763.871 1533.18 736.786 1520.31 708.643C1494.56 652.226 1472.24 593.43 1439.82 541.901C1402.68 483.106 1350.55 434.087 1271.04 411.89C1248.4 405.548 1226.08 401.188 1202.94 399.603C1105.68 393.129 1010.38 433.427 907.413 465.269C861.633 479.406 814.55 490.769 769.911 498.432C719.896 507.02 671.509 510.852 627.685 509.531C543.131 507.02 472.588 489.58 432.185 454.435C401.394 427.745 393.899 394.582 376.956 357.058C341.929 279.765 276.925 172.744 192.534 67.7046C169.237 38.505 144.311 9.70168 117.43 -18.4409C-3.29166 -145.413 -159.692 -251.642 -316.255 -307.002" stroke="#D4E8F7" stroke-miterlimit="10"/>
<path d="M3077.3 1158.26C3030.21 1063.4 2909.17 1003.15 2785.35 987.823C2731.91 981.217 2677.17 981.745 2623.09 987.823C2552.71 995.618 2483.63 1011.74 2415.37 1025.74C2276.07 1054.28 2140.69 1072.52 2007.26 1039.62C1903.32 1014.25 1804.43 984.652 1714.5 940.258C1646.56 906.698 1596.22 859.53 1558.42 802.32C1541.81 777.084 1527.47 749.998 1514.11 721.855C1487.56 665.57 1464.42 606.775 1430.86 555.51C1392.58 497.243 1339.3 449.414 1257.35 429.331C1234.38 423.649 1211.74 420.082 1188.44 419.289C1090.85 416.118 996.851 459.587 894.051 491.429C848.108 505.699 800.699 516.401 755.571 523.007C705.067 530.274 656.192 532.124 612.531 528.424C528.303 521.158 459.715 496.714 425.013 457.077C397.806 425.895 396.014 389.825 383.633 349.263C358.218 265.76 299.079 153.454 216.317 45.1112C193.509 14.9867 168.583 -14.7414 141.701 -43.4125C20.0026 -173.291 -143.403 -278.727 -307.134 -328.01" stroke="#D4E8F7" stroke-miterlimit="10"/>
<path d="M3084.63 1148.35C3035.27 1054.02 2914.71 993.769 2790.56 978.046C2736.96 971.307 2682.22 971.704 2627.97 978.046C2557.59 986.105 2488.68 1003.02 2420.42 1018.34C2281.45 1049.39 2146.23 1072.52 2011.82 1042.13C1906.9 1018.61 1806.38 992.051 1714.34 950.035C1644.28 918.061 1592.8 871.817 1553.86 815.004C1536.76 789.9 1521.93 762.946 1508.25 734.804C1480.88 678.651 1456.93 619.723 1422.39 568.987C1383.13 511.116 1328.55 464.476 1244.32 446.771C1220.86 441.883 1198.05 438.976 1174.76 438.976C1076.84 439.108 984.307 485.748 881.507 517.59C835.401 531.86 787.666 542.033 742.213 547.45C691.22 553.528 642.019 553.264 598.357 547.054C514.455 535.031 447.985 503.453 418.823 459.323C395.2 423.517 399.11 384.672 391.453 341.203C375.65 251.49 322.376 133.767 241.244 22.1214C218.761 -8.92793 193.998 -39.4488 166.954 -68.7806C44.2777 -201.698 -126.296 -306.077 -297.195 -349.414" stroke="#D4E8F7" stroke-miterlimit="10"/>
<path d="M3092.12 1138.45C3040.48 1044.64 2920.57 984.388 2796.11 968.401C2742.51 961.531 2687.44 961.927 2633.19 968.401C2562.65 976.857 2493.89 994.43 2425.8 1011.08C2287.15 1044.77 2152.26 1072.65 2016.55 1044.64C1910.65 1022.97 1808.5 999.318 1714.18 959.945C1642 929.689 1589.38 884.237 1549.3 827.688C1531.71 802.716 1516.56 775.895 1502.22 747.753C1474.04 691.599 1449.27 632.672 1413.76 582.332C1373.35 524.99 1317.64 479.407 1231.13 463.948C1207.34 459.72 1184.21 457.738 1160.75 458.531C1062.35 461.966 971.276 511.645 868.475 543.619C822.37 558.021 774.146 567.534 728.367 571.762C676.885 576.518 627.359 574.404 583.697 565.684C500.284 548.904 436.094 510.324 412.146 461.57C392.433 421.272 401.719 379.52 398.623 333.012C392.433 237.089 345.187 114.081 265.683 -0.999909C243.69 -33.1063 218.926 -64.4199 191.719 -94.2802C67.9025 -230.237 -109.514 -333.559 -287.582 -371.082" stroke="#D4E8F7" stroke-miterlimit="10"/>
<path d="M3099.46 1128.54C3045.53 1035.39 2926.11 975.007 2801.48 958.756C2747.72 951.753 2692.65 952.017 2638.24 958.888C2567.7 967.608 2499.11 986.105 2431.17 1003.94C2292.69 1040.28 2158.12 1072.91 2021.27 1047.28C1914.4 1027.46 1810.46 1006.85 1714.01 969.854C1639.72 941.315 1585.96 896.657 1544.74 840.504C1526.66 815.796 1511.02 788.975 1496.36 760.964C1467.36 704.943 1441.78 645.883 1405.29 595.94C1363.74 538.994 1306.88 494.6 1218.1 481.388C1193.82 477.82 1170.52 476.631 1147.06 478.217C1048.34 484.955 958.732 537.805 855.931 569.779C809.663 584.181 761.277 593.166 714.846 596.204C663.038 599.64 613.023 595.544 569.524 584.313C486.436 562.909 424.854 517.194 406.118 463.815C390.316 419.025 404.815 374.367 406.607 324.952C410.028 222.951 368.648 94.5258 290.773 -23.9904C269.105 -57.0216 244.668 -89.128 217.135 -119.781C92.341 -258.777 -92.2438 -361.173 -277.48 -392.619" stroke="#D4E8F7" stroke-miterlimit="10"/>
<path d="M3106.79 1118.63C3050.58 1026.01 2931.65 965.758 2806.86 949.11C2753.1 941.976 2697.71 942.24 2643.29 949.242C2572.75 958.359 2504.16 977.517 2436.39 996.675C2298.23 1035.52 2163.99 1072.91 2025.84 1049.92C1917.99 1032.08 1812.42 1014.38 1713.69 979.763C1637.12 952.942 1582.21 909.076 1540.02 853.187C1521.45 828.612 1505.32 802.055 1490.33 773.912C1460.52 718.024 1433.96 658.832 1396.65 609.417C1353.97 552.867 1295.81 509.53 1204.9 498.828C1180.3 495.921 1156.51 495.525 1133.05 497.903C1033.84 507.945 945.699 563.966 843.062 596.072C796.631 610.606 747.919 618.93 701.162 620.912C648.865 623.026 598.361 617.08 555.025 603.339C472.263 577.178 413.451 524.593 399.603 466.458C387.873 417.175 407.586 369.61 413.939 317.289C427.136 209.078 391.457 75.2355 315.212 -46.5837C294.033 -80.5399 269.595 -113.571 241.899 -144.753C116.128 -286.787 -75.4621 -388.127 -267.867 -413.627" stroke="#D4E8F7" stroke-miterlimit="10"/>
<path d="M3114.12 1108.85C3055.63 1016.76 2937.19 956.509 2812.07 939.597C2758.15 932.33 2702.76 932.463 2648.18 939.729C2577.47 949.11 2509.05 969.193 2441.44 989.54C2303.61 1031.03 2169.53 1073.18 2030.24 1052.56C1921.25 1036.58 1814.21 1021.91 1713.2 989.673C1634.51 964.569 1578.47 921.364 1535.13 866.004C1516.07 841.693 1499.45 815.135 1483.98 786.993C1453.35 731.104 1425.98 671.912 1387.69 622.894C1343.87 566.873 1284.57 524.46 1191.38 516.137C1166.45 513.89 1142.34 514.287 1118.88 517.458C1019.34 530.935 932.667 589.862 830.029 622.101C783.435 636.635 734.397 644.43 687.314 645.223C634.529 646.148 583.699 638.088 540.363 621.837C457.927 590.919 401.884 531.595 392.923 468.572C385.429 415.061 410.356 364.325 421.271 308.965C444.405 194.544 414.266 55.4167 339.65 -69.8378C318.959 -104.719 294.522 -138.543 266.663 -170.385C140.077 -315.458 -58.5186 -415.873 -258.255 -435.428" stroke="#D4E8F7" stroke-miterlimit="10"/>
<path d="M3121.45 1098.94C3060.68 1007.38 2942.73 947.128 2817.45 929.82C2763.52 922.421 2707.97 922.421 2653.23 929.952C2582.52 939.729 2514.26 960.473 2446.65 982.141C2308.98 1026.27 2175.39 1073.18 2034.79 1054.94C1924.83 1040.8 1816 1029.31 1712.87 999.318C1632.06 975.932 1574.88 933.519 1530.4 878.555C1511.02 854.376 1493.91 827.952 1477.95 799.809C1446.34 744.052 1418.32 684.86 1379.06 636.106C1334.09 580.481 1273.65 539.258 1178.18 533.181C1152.76 531.595 1128.49 532.916 1104.87 536.748C1005 553.528 919.63 615.627 817.156 647.865C770.561 662.531 721.035 669.666 673.626 669.269C620.352 668.873 569.197 658.964 525.861 640.202C443.751 604.528 390.477 538.466 386.567 470.553C383.309 412.683 413.285 358.908 428.762 300.641C461.346 180.143 437.397 35.5979 364.247 -93.0919C343.883 -129.03 319.771 -163.647 291.586 -196.017C164.023 -343.865 -41.5782 -443.223 -248.482 -456.832" stroke="#D4E8F7" stroke-miterlimit="10"/>
<path d="M3128.78 1089.03C3065.73 998.128 2948.27 937.747 2822.82 920.175C2768.74 912.643 2713.02 912.643 2658.28 920.439C2587.57 930.48 2519.31 952.017 2451.86 975.006C2314.52 1021.65 2181.09 1073.44 2039.36 1057.58C1928.41 1045.3 1817.95 1036.84 1712.55 1009.36C1629.62 987.69 1571.3 946.071 1525.68 891.371C1505.81 867.457 1488.21 841.032 1471.76 812.889C1439.34 757.265 1410.5 697.94 1370.1 649.715C1323.99 594.619 1262.41 554.188 1164.66 550.753C1138.92 549.828 1114.32 551.942 1090.69 556.699C990.337 576.782 906.598 642.051 804.123 674.29C757.366 689.088 707.514 695.562 659.616 693.977C605.854 692.259 554.209 680.5 511.036 659.228C429.252 618.93 378.748 546.129 379.725 473.196C380.54 411.097 415.567 354.151 435.931 292.845C478.127 166.137 460.043 16.1754 388.685 -115.685C368.81 -152.548 344.698 -187.958 316.35 -221.121C187.483 -372.14 -25.1229 -470.573 -239.195 -478.236" stroke="#D4E8F7" stroke-miterlimit="10"/>
<path d="M3136.11 1079.12C3070.95 988.749 2953.81 928.5 2828.2 910.531C2774.11 902.868 2718.23 902.735 2663.33 910.795C2592.62 921.101 2524.36 943.562 2457.08 967.741C2320.06 1017.02 2186.8 1073.57 2044.08 1060.23C1932.16 1049.79 1820.07 1044.37 1712.38 1019.27C1627.34 999.319 1567.88 958.492 1521.28 904.189C1500.92 880.406 1482.83 854.114 1466.05 825.971C1432.82 770.346 1403.17 711.022 1361.79 663.193C1314.54 608.493 1251.66 569.12 1151.79 568.063C1125.56 567.799 1100.8 570.705 1077.01 576.255C976.327 599.641 893.891 667.949 791.579 700.32C744.659 715.118 694.481 721.064 646.258 718.421C592.006 715.382 539.873 701.773 497.026 677.859C415.405 632.936 367.833 553.529 373.698 475.443C378.748 409.249 418.826 349 443.752 284.787C495.56 151.869 483.341 -3.37784 413.613 -138.674C394.226 -176.462 370.114 -212.664 341.766 -246.488C211.922 -400.546 -7.85304 -497.922 -229.094 -499.771" stroke="#D4E8F7" stroke-miterlimit="10"/>
<path d="M3143.61 1069.35C3076.16 979.501 2959.51 919.252 2833.58 901.018C2779.32 893.223 2723.28 892.959 2668.38 901.283C2597.51 911.985 2529.57 935.107 2462.45 960.607C2325.6 1012.53 2192.82 1073.71 2048.81 1062.87C1935.9 1054.42 1822.03 1052.17 1712.38 1029.18C1625.22 1011.21 1564.62 970.912 1516.88 916.873C1496.03 893.223 1477.62 867.062 1460.35 838.92C1426.3 783.427 1395.84 723.971 1353.48 676.538C1305.09 622.235 1241.06 583.918 1138.92 585.24C1112.36 585.636 1087.27 589.336 1063.49 595.678C962.477 622.367 881.508 693.846 779.196 726.349C732.276 741.279 681.772 746.564 633.06 742.733C578.32 738.505 525.86 722.782 483.013 696.489C401.718 646.81 356.916 560.929 367.831 477.69C377.118 407.267 422.245 343.979 451.896 276.728C513.316 137.732 506.962 -22.9317 438.863 -161.663C419.802 -200.376 396.016 -237.503 367.342 -271.855C236.52 -428.952 9.74028 -525.271 -218.669 -521.175" stroke="#D4E8F7" stroke-miterlimit="10"/>
<path d="M3150.94 1059.43C3051.07 931.67 2856.38 863.229 2673.43 891.636C2458.05 925.063 2269.72 1077.93 2053.37 1065.38C1939.49 1058.77 1823.98 1059.57 1712.06 1038.96C1583.84 1015.44 1512.32 944.354 1454.16 851.866C1379.38 733.086 1321.06 595.412 1125.56 602.546C984.146 607.699 892.424 712.21 766.163 752.376C666.132 784.218 549.158 769.552 468.189 715.117C387.219 660.681 345.023 568.326 360.989 479.934C374.348 405.416 424.527 338.825 458.902 268.534C549.81 82.7666 523.743 -137.222 391.781 -297.357C259.818 -457.493 26.1952 -552.887 -209.545 -542.713" stroke="#D4E8F7" stroke-miterlimit="10"/>
<path d="M3139.37 1077.67C3038.04 959.945 2844.49 896.26 2662.84 922.289C2571.93 935.237 2485.75 968.136 2400.71 999.978C2313.55 1032.75 2227.69 1064.59 2138.09 1073.84C2109.25 1076.88 2079.92 1077.54 2050.27 1075.03C1938.68 1065.64 1826.1 1063.4 1714.66 1042.13C1588.4 1018.08 1515.42 949.903 1455.3 862.568C1441.45 842.485 1428.09 822.006 1414.41 801.791C1374.33 742.335 1331.65 686.049 1264.04 654.736C1226.24 637.295 1180.79 627.386 1124.25 628.971C984.635 632.803 893.402 728.329 771.051 762.682C754.76 767.174 738.142 770.477 721.362 772.591C637.785 782.897 549.322 763.343 484.807 717.363C407.258 662.135 367.181 570.704 381.68 483.238C393.899 409.115 440.982 342.128 472.588 271.838C527.165 150.547 533.356 15.3829 494.093 -107.493C472.914 -173.159 438.864 -235.126 392.27 -289.826C307.39 -389.712 182.433 -463.57 42.1621 -502.547C-38.4817 -525.008 -124.176 -535.578 -210.033 -532.539" stroke="#D4E8F7" stroke-miterlimit="10"/>
<path d="M3127.8 1096.03C3025 988.219 2832.6 929.424 2652.25 953.206C2561.67 965.097 2475.81 994.958 2391.58 1023.23C2305.24 1052.3 2221.17 1079.91 2133.04 1086.26C2104.69 1088.37 2076.01 1088.11 2047.02 1084.93C1937.86 1072.91 1827.89 1067.63 1717.11 1045.43C1592.64 1020.85 1518.51 955.32 1456.28 873.271C1441.94 854.377 1427.93 835.219 1413.92 816.325C1372.54 760.832 1329.37 708.775 1261.76 679.972C1223.8 663.853 1178.67 654.472 1123.12 655.529C985.288 658.039 894.38 744.713 775.94 773.252C760.137 776.952 744.171 779.594 727.879 781.048C647.398 788.05 562.844 766.514 501.262 720.006C427.298 663.985 389.012 573.479 402.372 486.805C413.613 413.079 457.275 345.828 486.111 275.405C535.963 154.114 538.733 19.4789 497.352 -101.944C474.87 -167.082 439.68 -228.255 392.434 -282.03C306.251 -380.199 181.131 -452.472 40.6966 -491.316C-39.7842 -513.645 -125.152 -524.48 -210.846 -522.102" stroke="#D4E8F7" stroke-miterlimit="10"/>
<path d="M3116.4 1114.4C3012.13 1016.63 2820.87 962.454 2641.66 983.991C2551.57 994.693 2466.04 1021.65 2382.62 1046.49C2297.09 1071.85 2214.65 1095.37 2128.31 1098.68C2100.45 1099.73 2072.59 1098.68 2044.08 1094.84C1937.21 1080.05 1830.17 1071.59 1720.04 1048.73C1597.53 1023.36 1521.93 960.869 1457.91 883.972C1443.08 866.267 1428.58 848.43 1414.08 830.858C1371.4 779.461 1327.57 731.5 1260.13 705.207C1222 690.277 1177.04 681.557 1122.46 682.085C986.426 683.142 896.007 761.228 781.476 783.689C766.325 786.728 750.685 788.446 735.208 789.238C657.823 793.07 577.342 769.552 518.692 722.251C448.149 665.437 411.818 575.856 423.874 489.975C433.975 416.514 474.542 349.13 500.608 278.575C545.736 157.152 545.573 23.3097 501.749 -96.6598C478.126 -161.401 441.632 -221.65 393.735 -274.5C306.248 -371.083 180.966 -441.638 40.2055 -480.483C-40.1124 -502.68 -125.318 -513.646 -210.686 -511.929" stroke="#D4E8F7" stroke-miterlimit="10"/>
<path d="M3104.83 1132.76C2999.1 1045.03 2808.98 995.619 2631.07 1014.78C2541.3 1024.29 2456.26 1048.47 2373.66 1069.61C2289.11 1091.41 2208.14 1110.57 2123.42 1110.83C2096.21 1110.96 2068.84 1109.11 2040.99 1104.49C1936.56 1087.18 1832.13 1075.42 1722.65 1051.9C1602.09 1026.01 1525.03 966.287 1459.05 894.543C1443.73 878.028 1428.75 861.512 1413.76 845.393C1369.77 797.96 1325.29 754.226 1258.01 730.312C1219.72 716.703 1174.92 708.775 1121.32 708.511C987.078 707.983 896.985 777.348 786.527 793.996C771.865 796.242 756.877 797.299 741.888 797.431C667.598 797.96 591.027 772.46 535.31 724.63C468.351 667.024 434.139 578.368 444.728 493.412C453.851 420.346 490.996 352.566 514.293 281.879C554.697 160.457 551.276 27.1425 505.333 -91.2415C480.407 -155.586 442.936 -214.911 394.224 -266.968C305.434 -361.834 179.826 -430.803 39.0656 -469.515C-41.0895 -491.58 -125.969 -502.811 -211.175 -501.754" stroke="#D4E8F7" stroke-miterlimit="10"/>
<path d="M3093.27 1151.13C2985.9 1073.31 2797.25 1028.78 2620.48 1045.56C2531.2 1053.89 2446.32 1075.16 2364.54 1092.73C2280.8 1110.83 2201.62 1125.89 2118.37 1123.12C2091.65 1122.33 2064.94 1119.55 2037.89 1114.27C1935.74 1094.32 1834.25 1079.39 1725.42 1055.08C1606.81 1028.52 1528.29 971.572 1460.35 905.113C1444.55 889.655 1428.91 874.592 1413.59 859.794C1368.47 816.325 1323.34 776.952 1255.89 755.416C1217.44 743.128 1172.97 735.465 1120.18 734.936C987.731 733.615 898.127 793.6 791.579 804.434C777.405 805.887 763.069 806.152 748.732 805.623C677.537 802.849 604.876 775.499 552.091 727.009C488.554 668.477 456.297 580.879 465.583 496.715C473.566 424.046 507.615 356.002 527.98 285.183C563.496 163.76 556.979 31.1065 508.919 -85.9562C482.689 -149.905 444.078 -208.304 394.714 -259.436C304.784 -352.584 178.849 -419.836 37.7634 -458.549C-42.3916 -480.481 -126.782 -491.976 -211.662 -491.58" stroke="#D4E8F7" stroke-miterlimit="10"/>
<path d="M3081.86 1169.36C2973.03 1101.58 2785.51 1061.68 2609.89 1076.35C2520.94 1083.48 2436.55 1101.85 2355.58 1115.99C2272.65 1130.52 2195.1 1141.22 2113.65 1135.54C2087.42 1133.69 2061.35 1130.25 2034.96 1124.18C1935.25 1101.45 1836.36 1083.48 1728.18 1058.38C1611.54 1031.29 1531.54 977.122 1461.65 915.816C1445.36 901.546 1429.23 887.805 1413.43 874.329C1367 834.955 1321.22 799.678 1253.93 780.652C1215.16 769.686 1171.01 762.551 1119.2 761.494C988.543 758.851 899.265 809.984 796.79 814.872C783.105 815.533 769.42 815.137 755.735 813.947C687.636 807.87 618.885 778.67 569.033 729.52C509.079 670.195 478.777 583.654 486.76 500.151C493.765 427.878 524.556 359.437 542.151 288.618C572.943 167.196 563.168 35.2026 512.989 -80.4068C485.456 -143.827 445.705 -201.433 395.526 -251.641C304.293 -343.203 178.195 -408.737 36.9465 -447.318C-43.0455 -469.251 -127.273 -480.878 -211.827 -481.01" stroke="#D4E8F7" stroke-miterlimit="10"/>
<path d="M3070.29 1187.73C2960 1129.86 2773.62 1094.84 2599.3 1107.13C2510.84 1113.08 2426.61 1128.54 2346.62 1139.11C2264.51 1149.94 2188.75 1156.41 2108.76 1147.83C2083.18 1145.05 2057.6 1140.69 2031.86 1134.09C1934.44 1108.72 1838.48 1087.58 1730.95 1061.68C1616.1 1034.07 1534.8 982.67 1462.96 926.649C1446.18 913.569 1429.56 901.017 1413.27 888.993C1365.7 853.584 1319.1 822.667 1251.98 806.019C1213.04 796.374 1169.06 789.767 1118.39 788.182C989.521 784.218 900.569 826.498 802.167 825.441C788.971 825.309 775.774 824.12 762.741 822.27C697.9 812.889 632.896 781.708 585.976 732.029C529.444 671.912 501.097 586.295 507.776 503.717C513.641 431.841 541.012 363.136 556 292.185C581.741 170.63 568.87 39.2975 516.737 -74.7264C487.901 -137.75 447.171 -194.432 396.178 -243.846C303.642 -333.691 177.219 -397.64 35.8068 -436.22C-44.0223 -458.021 -127.924 -469.78 -212.315 -470.705" stroke="#D4E8F7" stroke-miterlimit="10"/>
<path d="M3058.73 1206.09C2946.97 1158.26 2761.73 1128.27 2588.71 1137.92C2500.57 1142.81 2416.83 1155.36 2337.49 1162.23C2256.36 1169.36 2182.07 1171.61 2103.71 1160.11C2078.62 1156.41 2053.69 1151.26 2028.6 1143.86C1933.46 1115.85 1840.27 1091.67 1733.4 1064.98C1620.5 1036.84 1537.57 988.219 1464.1 937.351C1446.83 925.46 1429.72 914.229 1412.94 903.527C1364.23 872.214 1316.82 845.392 1249.86 831.123C1210.76 822.799 1167.1 816.589 1117.25 814.607C990.173 809.322 901.547 842.75 807.218 835.879C794.673 834.954 781.966 833.105 769.584 830.594C707.839 817.91 646.908 784.879 602.757 734.407C549.809 673.498 523.254 588.805 528.793 507.02C533.681 435.408 557.792 366.571 570.011 295.488C591.027 173.933 574.899 43.2614 520.484 -69.4413C490.345 -132.069 448.475 -187.825 396.831 -236.315C302.991 -324.575 176.404 -386.806 34.8298 -425.254C-44.8365 -446.922 -128.413 -458.946 -212.641 -460.531" stroke="#D4E8F7" stroke-miterlimit="10"/>
<path d="M3047.32 1224.46C2934.1 1186.54 2750.16 1161.44 2578.12 1168.7C2490.47 1172.4 2406.9 1182.05 2328.54 1185.35C2248.22 1188.92 2175.72 1186.94 2098.99 1172.4C2074.39 1167.78 2050.11 1161.7 2025.67 1153.64C1932.97 1122.86 1842.56 1095.64 1736.17 1068.16C1625.22 1039.48 1540.83 993.505 1465.4 947.922C1447.65 937.22 1429.89 927.311 1412.78 917.93C1362.93 890.58 1314.71 868.119 1247.75 856.227C1208.48 849.225 1164.98 843.543 1116.11 841.033C990.827 834.427 902.526 858.87 812.107 846.186C800.051 844.468 787.996 841.826 776.103 838.655C717.453 822.668 660.432 787.654 619.214 736.654C569.687 674.952 545.25 591.185 549.323 510.324C553.07 439.109 573.923 369.875 583.372 298.66C599.664 177.105 580.114 47.0939 523.745 -64.1554C492.302 -126.254 449.292 -181.218 396.996 -228.783C302.015 -315.325 175.103 -375.97 33.2027 -414.287C-46.3007 -435.823 -129.714 -448.111 -213.616 -450.225" stroke="#D4E8F7" stroke-miterlimit="10"/>
<path d="M3035.75 1242.82C2921.06 1214.95 2738.27 1194.47 2567.53 1199.49C2480.21 1202 2397.12 1208.74 2319.57 1208.6C2240.07 1208.47 2169.2 1202.39 2094.1 1184.69C2070.15 1179.01 2046.36 1172.14 2022.58 1163.42C1932.16 1129.99 1844.51 1099.73 1738.94 1071.33C1629.78 1042.13 1543.93 998.922 1466.7 958.492C1448.46 948.979 1430.21 940.391 1412.62 932.331C1361.62 908.945 1312.58 890.844 1245.79 881.331C1206.2 875.649 1163.19 870.496 1115.13 867.458C991.638 859.53 903.663 875.121 817.317 856.491C805.75 853.981 794.346 850.678 783.105 846.846C727.55 827.556 674.44 790.693 636.154 739.032C590.212 676.537 567.566 593.695 570.499 513.627C573.105 442.808 590.863 373.31 597.543 301.963C608.947 180.408 586.302 50.925 527.815 -58.7388C494.905 -120.441 451.081 -174.48 397.97 -221.252C301.686 -306.077 174.611 -365.137 32.5479 -403.453C-46.7925 -424.857 -129.88 -437.277 -213.456 -440.184" stroke="#D4E8F7" stroke-miterlimit="10"/>
<path d="M3024.19 1261.06C2908.03 1243.22 2726.38 1227.5 2556.94 1230.27C2470.11 1231.72 2387.35 1235.42 2310.45 1231.72C2231.92 1228.02 2162.68 1217.59 2089.05 1196.98C2065.59 1190.37 2042.45 1182.71 2019.48 1173.19C1931.51 1136.99 1846.46 1103.7 1741.54 1074.63C1634.35 1044.9 1546.86 1004.47 1467.84 969.192C1449.11 960.868 1430.37 953.601 1412.29 946.863C1360.16 927.573 1310.3 913.7 1243.67 906.433C1203.92 902.073 1161.07 897.448 1114.15 893.881C992.453 884.5 904.804 891.238 822.531 866.927C811.453 863.624 800.538 859.528 790.111 855.036C737.652 832.443 688.451 793.73 653.261 741.409C610.74 678.121 590.049 596.203 591.678 516.928C593.145 446.506 607.644 376.744 611.554 305.264C618.234 183.709 592.167 54.8871 531.725 -53.4554C497.513 -114.629 452.548 -167.876 398.785 -213.723C301.198 -296.962 173.797 -354.304 31.5709 -392.488C-47.6066 -413.76 -130.531 -426.444 -213.782 -430.012" stroke="#D4E8F7" stroke-miterlimit="10"/>
<path d="M3012.79 1279.42C2895 1271.5 2714.65 1260.66 2546.35 1261.06C2459.85 1261.32 2377.41 1262.25 2301.49 1254.85C2223.78 1247.45 2156.17 1232.91 2084.32 1209.26C2061.35 1201.73 2038.87 1193.14 2016.55 1182.97C1930.86 1144.13 1848.75 1107.79 1744.48 1077.8C1639.07 1047.54 1550.12 1010.02 1469.31 979.763C1450.09 972.628 1430.86 966.683 1412.29 961.266C1359.02 945.939 1308.35 936.426 1241.88 931.537C1201.97 928.631 1159.28 924.27 1113.34 920.175C993.433 909.472 906.109 907.226 827.909 877.102C817.32 873.006 807.056 868.25 797.118 863.097C747.754 837.2 702.627 796.506 670.206 743.524C631.269 679.443 612.371 598.45 612.859 520.1C613.185 449.942 624.589 379.916 625.73 308.436C627.685 186.881 598.197 58.7196 535.8 -48.1696C500.284 -108.947 454.179 -161.269 399.602 -206.191C300.711 -287.712 173.147 -343.337 30.7581 -381.521C-48.2565 -402.793 -130.855 -415.609 -213.943 -419.705" stroke="#D4E8F7" stroke-miterlimit="10"/>
<path d="M3001.22 1297.79C2881.96 1299.9 2702.76 1293.69 2535.77 1291.84C2449.75 1290.92 2367.64 1288.94 2292.53 1278.1C2215.63 1267 2149.65 1248.24 2079.44 1221.68C2057.12 1213.23 2035.12 1203.72 2013.45 1192.88C1930.2 1151.26 1850.7 1112.02 1747.09 1081.1C1643.63 1050.32 1552.89 1015.57 1470.62 990.597C1450.74 984.652 1431.19 980.027 1412.13 976.064C1357.72 964.701 1306.07 959.68 1239.76 957.038C1199.52 955.452 1157.33 951.621 1112.2 946.996C993.922 934.973 907.088 923.742 832.961 887.804C822.86 882.916 813.248 877.366 803.962 871.553C757.693 842.353 716.475 799.809 686.987 746.166C651.471 681.293 634.528 601.225 633.714 523.668C633.062 453.906 641.045 383.615 639.416 312.004C636.646 190.316 603.9 62.9478 539.385 -42.4879C502.566 -102.869 455.483 -154.266 400.091 -198.263C300.06 -278.067 172.171 -332.106 29.4556 -370.158C-49.559 -391.298 -131.669 -404.378 -214.594 -409.135" stroke="#D4E8F7" stroke-miterlimit="10"/>
<path d="M2989.65 1316.15C2868.93 1328.18 2690.86 1326.86 2525.17 1322.63C2439.48 1320.51 2357.69 1315.63 2283.4 1301.22C2207.32 1286.56 2143.13 1263.57 2074.38 1233.97C2052.55 1224.59 2031.21 1214.15 2010.19 1202.66C1929.22 1158.26 1852.65 1115.98 1749.69 1084.41C1648.03 1053.09 1555.82 1021.25 1471.75 1001.3C1451.39 996.544 1431.35 993.241 1411.8 990.598C1356.25 983.067 1303.79 981.085 1237.64 982.142C1197.24 982.803 1155.21 978.575 1111.06 973.422C994.571 959.945 908.062 939.862 838.008 898.111C828.396 892.429 819.435 886.219 810.638 879.745C767.465 847.243 730.157 802.716 703.602 748.545C671.67 682.879 656.519 603.736 654.564 526.972C652.772 457.606 657.659 387.051 653.26 315.175C645.766 193.488 609.599 66.7802 542.966 -37.3343C504.68 -97.1869 456.62 -147.791 400.577 -190.996C299.242 -269.214 171.027 -321.535 28.3119 -359.587C-50.5397 -380.595 -132.487 -393.807 -215.086 -399.225" stroke="#D4E8F7" stroke-miterlimit="10"/>
<path d="M2978.25 1334.39C2856.06 1356.45 2679.29 1359.49 2514.59 1353.28C2429.38 1349.85 2347.92 1342.32 2274.45 1324.21C2199.34 1305.85 2136.62 1278.76 2069.66 1246C2048.32 1235.56 2027.63 1224.46 2007.26 1212.17C1928.74 1165.14 1854.77 1119.82 1752.46 1087.31C1652.76 1055.6 1558.92 1026.4 1473.06 1011.61C1452.21 1008.04 1431.68 1005.92 1411.64 1004.74C1355.11 1001.17 1301.67 1005.13 1235.69 1006.98C1194.96 1008.17 1153.42 1005.26 1110.24 999.583C995.55 984.785 909.367 955.718 843.223 908.285C834.263 901.81 825.628 894.808 817.645 887.673C777.568 851.867 744.17 805.491 720.547 750.66C692.037 684.201 679.003 605.983 675.745 530.143C672.812 461.174 674.767 390.223 667.273 318.347C655.38 196.659 615.466 70.6121 546.878 -32.049C507.289 -91.5052 458.088 -141.184 401.393 -183.464C298.756 -259.965 170.377 -310.701 27.3365 -348.621C-51.3522 -369.496 -132.974 -382.973 -215.247 -389.051" stroke="#D4E8F7" stroke-miterlimit="10"/>
<path d="M2966.68 1352.75C2843.03 1384.86 2667.4 1392.65 2504 1384.2C2419.12 1379.57 2338.15 1369.14 2265.49 1347.6C2191.2 1325.67 2130.27 1294.22 2064.77 1258.55C2044.08 1247.18 2024.04 1235.16 2004.17 1222.21C1927.92 1172.4 1856.73 1124.18 1755.07 1090.75C1657.16 1058.51 1561.85 1032.35 1474.2 1022.44C1452.86 1020.06 1431.84 1019.53 1411.31 1019.4C1353.64 1018.87 1299.39 1028.12 1233.57 1032.35C1192.68 1034.86 1151.3 1032.35 1109.1 1026.27C996.202 1010.02 910.508 971.968 848.274 918.854C839.802 911.587 831.819 903.924 824.488 896.129C787.506 857.02 758.018 808.662 737.328 753.302C712.401 686.05 701.16 608.757 696.599 533.71C692.526 465.005 691.222 393.922 681.121 321.913C664.341 200.226 621.168 74.8397 550.625 -26.5002C509.57 -85.4279 459.555 -134.314 402.045 -175.669C298.267 -250.452 169.563 -299.603 26.3593 -337.39C-52.1666 -358.134 -133.462 -371.875 -215.572 -378.613" stroke="#D4E8F7" stroke-miterlimit="10"/>
<path d="M2955.11 1371.12C2829.99 1413.13 2655.51 1425.82 2493.4 1414.98C2409.01 1409.17 2328.21 1395.82 2256.36 1370.72C2182.88 1345.09 2123.42 1309.68 2059.72 1270.83C2039.52 1258.55 2020.13 1245.6 2001.07 1231.99C1927.27 1179.4 1858.68 1128.27 1757.83 1093.92C1661.88 1061.28 1564.94 1037.9 1475.5 1033.01C1453.67 1031.82 1432.16 1032.35 1411.15 1033.8C1352.33 1038.03 1297.27 1050.98 1231.61 1057.32C1190.56 1061.28 1149.34 1059.17 1108.12 1052.56C997.013 1034.86 911.808 987.954 853.484 929.027C845.501 920.967 838.17 912.511 831.327 904.055C797.603 861.643 772.025 811.435 754.105 755.282C732.6 687.106 723.313 610.87 717.611 536.615C712.398 468.307 707.999 396.959 694.966 324.819C673.461 203.132 626.867 78.4059 554.369 -21.4806C512.01 -79.8799 460.854 -128.105 402.693 -168.536C297.612 -241.733 168.745 -289.166 25.2153 -326.821C-53.1477 -347.433 -134.28 -361.306 -216.065 -368.705" stroke="#D4E8F7" stroke-miterlimit="10"/>
<path d="M2943.71 1389.48C2817.12 1441.54 2643.78 1458.85 2482.82 1445.77C2398.75 1438.77 2318.43 1422.51 2247.4 1393.84C2174.9 1364.64 2117.07 1324.87 2054.83 1283.12C2035.12 1269.91 2016.39 1256.04 1997.98 1241.77C1926.78 1186.27 1860.64 1132.5 1760.44 1097.22C1666.28 1064.06 1567.88 1042.66 1476.81 1043.84C1454.32 1044.11 1432.33 1045.56 1410.82 1048.47C1350.87 1056.53 1294.99 1074.1 1229.33 1082.69C1188.12 1088.11 1147.22 1086.26 1106.82 1079.25C997.504 1060.23 912.625 1004.34 858.373 939.73C850.879 930.877 844.2 921.761 838.009 912.644C807.381 866.929 785.713 814.872 770.724 758.058C752.803 689.089 745.146 613.777 738.304 540.448C731.95 472.536 724.293 400.792 708.49 328.652C682.261 206.832 632.082 82.8992 557.792 -15.5339C513.968 -73.5368 461.834 -120.838 403.021 -160.343C296.637 -231.823 167.444 -277.67 23.9141 -315.326C-54.2859 -335.805 -135.093 -349.942 -216.714 -358.002" stroke="#D4E8F7" stroke-miterlimit="10"/>
<path d="M2932.14 1407.85C2803.93 1469.81 2631.89 1492.01 2472.23 1476.55C2388.65 1468.36 2308.5 1449.34 2238.28 1417.1C2166.6 1384.2 2110.39 1340.33 2049.95 1295.54C2030.72 1281.4 2012.64 1266.74 1994.88 1251.68C1925.97 1193.54 1862.59 1136.73 1763.21 1100.53C1670.84 1066.97 1570.97 1049.39 1478.11 1054.55C1455.14 1055.87 1432.66 1058.77 1410.66 1063C1349.41 1074.89 1293.04 1097.09 1227.38 1107.92C1186 1114.79 1145.27 1113.34 1106.01 1105.81C998.483 1085.33 914.092 1020.59 863.75 950.167C856.745 940.522 850.554 930.613 845.015 920.835C817.482 871.817 799.724 817.778 787.831 760.436C773.332 690.674 767.63 616.287 759.647 543.751C751.99 476.235 741.4 404.227 722.827 331.822C691.873 210.003 638.111 86.8624 562.029 -10.3816C516.738 -67.8559 463.79 -114.364 404 -152.944C296.312 -222.839 166.956 -266.836 23.1004 -304.492C-54.9367 -324.971 -135.58 -339.241 -216.713 -347.961" stroke="#D4E8F7" stroke-miterlimit="10"/>
<path d="M2920.57 1426.08C2790.89 1498.09 2620.15 1525.04 2461.63 1507.34C2378.38 1497.96 2298.72 1476.03 2229.31 1440.22C2158.45 1403.62 2103.87 1355.66 2045.06 1307.7C2026.48 1292.64 2008.89 1277.05 1991.78 1261.45C1925.31 1200.54 1864.54 1140.96 1765.82 1103.7C1675.24 1069.74 1574.06 1055.08 1479.25 1065.12C1455.79 1067.63 1432.82 1071.72 1410.33 1077.4C1347.94 1093.13 1290.75 1119.95 1225.26 1133.03C1183.55 1141.35 1143.31 1140.16 1104.86 1132.24C999.294 1110.17 915.392 1036.58 868.798 960.474C862.444 950.036 856.742 939.466 851.854 929.028C827.417 876.706 813.569 820.818 804.609 762.815C793.693 692.26 789.783 618.798 780.497 547.055C771.699 479.935 757.851 407.663 736.509 335.126C700.831 213.307 643.647 90.827 565.447 -4.96358C518.69 -61.9094 464.764 -107.625 404.322 -145.412C295.494 -213.589 165.812 -256.001 21.7939 -293.525C-56.2432 -313.872 -136.398 -328.406 -217.368 -337.654" stroke="#D4E8F7" stroke-miterlimit="10"/>
<path d="M2909.01 1444.45C2708.78 1569.57 2418.95 1577.5 2220.2 1463.34C2150.3 1423.18 2097.36 1370.85 2040.01 1319.99C1951.55 1241.37 1891.59 1154.7 1768.43 1106.87C1657.81 1063.93 1525.36 1056.13 1410.17 1091.94C1346.64 1111.62 1288.64 1142.94 1223.31 1158.13C1049.64 1198.43 905.133 1058.11 858.701 937.22C811.456 814.079 820.579 679.576 801.355 550.358C774.799 371.329 697.251 150.944 569.198 0.453788C434.629 -157.832 244.831 -224.291 20.821 -282.558C-57.0532 -302.773 -136.883 -317.439 -217.689 -327.48" stroke="#D4E8F7" stroke-miterlimit="10"/>
</g>
<g opacity="0.85">
<mask id="mask1_2018_9874" style="mask-type:luminance" maskUnits="userSpaceOnUse" x="-197" y="-1" width="1955" height="1057">
<path d="M-197 -1H1758V1056H-197V-1Z" fill="white"/>
</mask>
<g mask="url(#mask1_2018_9874)">
<path d="M-522.344 631.087C-477.542 565.685 -426.223 502.265 -358.287 451.661C-290.351 401.057 -204.331 363.798 -112.446 358.381C-20.5609 352.964 76.7004 382.824 130.463 443.601C160.114 477.029 175.102 517.195 194 555.379C212.899 593.563 237.662 632.012 279.695 655.001C321.727 677.991 384.939 679.973 418.988 649.452C456.133 616.024 445.055 560.532 479.594 525.255C518.368 485.617 592.82 490.241 654.403 498.565C715.986 506.889 790.276 511.91 829.538 472.669C860.981 441.223 852.673 391.412 818.623 361.816C784.574 332.22 731.137 321.254 681.447 325.085C631.758 328.917 585.001 345.565 540.85 364.326C484.481 388.241 418.663 416.648 361.316 394.583C329.547 382.427 308.694 356.795 295.986 330.238C283.279 303.681 277.088 275.406 265.684 248.453C229.19 162.439 135.025 94.2628 25.5446 74.444C-57.7059 59.3818 -148.288 70.3482 -225.673 41.4128C-288.07 18.1588 -332.546 -27.6886 -374.416 -71.8184L-522.344 631.087Z" fill="#002E58" fill-opacity="0.68"/>
</g>
</g>
<g opacity="0.7">
<mask id="mask2_2018_9874" style="mask-type:luminance" maskUnits="userSpaceOnUse" x="169" y="-118" width="1776" height="1116">
<path d="M169.822 -58.408L1908.8 -118L1945 938.38L206.022 997.972L169.822 -58.408Z" fill="white"/>
</mask>
<g mask="url(#mask2_2018_9874)">
<path d="M2253.02 1061.09C2116.31 1085.6 1969.9 1059.42 1854.19 989.614C1760.72 933.327 1683.39 848.723 1574.85 822.829C1518.53 809.423 1459.18 813.44 1401.18 818.469C1343.17 823.497 1284.33 829.612 1227.13 820.202C1169.94 810.793 1113.28 783.121 1086.14 736.326C1064.55 699.124 1064.39 652.065 1085.88 614.444C1107.37 576.823 1149.67 549.726 1195.62 544.186C1263.82 536.032 1327.59 572.053 1384.07 607.266C1440.56 642.479 1502.77 679.876 1571.23 674.886C1667.47 667.886 1736 580.4 1830.56 562.353C1913.15 546.566 1994.61 586.741 2067.17 625.369L2253.02 1061.09Z" fill="#D4E8F7"/>
</g>
</g>
<g opacity="0.4">
<mask id="mask3_2018_9874" style="mask-type:luminance" maskUnits="userSpaceOnUse" x="-145" y="-135" width="2593" height="1158">
<path d="M-145 -135H2448V1023H-145V-135Z" fill="white"/>
</mask>
<g mask="url(#mask3_2018_9874)">
<path d="M2539.62 958.153C2521.04 888.094 2414.94 846.261 2312.95 838.155C2210.96 830.049 2106.81 845.972 2003.52 845.972C1726.93 845.827 1466.12 718.302 1375.58 538.812C1346.62 481.346 1333.88 419.972 1305.57 362.217C1277.26 304.607 1229.29 248.299 1151.29 220.941C1039.14 181.425 898.684 211.822 785.456 255.971C672.229 300.119 566.348 358.598 441.02 378.863C276.364 405.497 105.01 359.612 -20.9667 285.934C-146.943 212.256 -235.97 113.103 -322.835 15.541" stroke="#FF4DC4" stroke-miterlimit="10"/>
<path d="M2545.89 951.349C2525.36 881.579 2419.69 839.891 2317.49 831.496C2273.19 827.877 2228.68 828.746 2183.95 831.206C2125.17 834.391 2066.4 840.036 2008.06 840.905C1888.99 842.642 1772.74 822.232 1670.75 782.57C1591.88 751.883 1521.87 711.498 1465.9 663.007C1425.93 628.556 1393.95 589.763 1371.69 547.641C1361.75 528.824 1353.54 509.427 1345.98 489.886C1330.63 450.224 1318.1 409.984 1298.22 371.625C1275.75 328.055 1241.61 285.933 1191.04 257.273C1175.27 248.298 1158.2 240.626 1139.4 234.547C1060.75 209.216 969.775 217.901 882.693 239.468C845.094 248.732 808.144 260.457 773.787 272.906C735.324 286.946 697.726 302 660.343 316.475C586.875 344.846 514.055 371.046 435.4 380.455C384.189 386.679 333.841 384.942 283.71 377.56C182.367 362.361 82.5364 321.831 -0.655676 270.011C-23.3444 255.825 -45.1689 240.771 -66.3451 225.283C-159.909 156.092 -238.131 76.1904 -315.273 0.630859" stroke="#F552C5" stroke-miterlimit="10"/>
<path d="M2551.94 944.547C2529.46 875.211 2424.23 833.523 2321.81 824.838C2277.51 821.075 2232.78 821.943 2187.84 824.549C2129.06 828.023 2070.5 834.247 2011.95 835.984C1893.1 839.603 1777.28 822.377 1674.21 784.453C1594.47 755.069 1523.38 716.565 1465.25 669.956C1423.77 636.518 1390.71 598.304 1367.37 556.472C1357 537.799 1348.35 518.402 1340.57 498.861C1324.58 459.344 1311.4 418.959 1290.66 380.89C1267.11 337.61 1231.88 296.501 1179.59 269.288C1163.39 260.892 1146.1 253.655 1127.3 248.154C1048.21 225.139 958.539 235.995 871.673 257.563C833.859 266.972 796.692 278.117 762.119 289.842C723.224 302.87 685.193 316.766 648.027 329.359C574.775 354.401 504.115 376.547 429.999 382.048C382.028 385.667 336.003 381.469 289.977 371.915C196.629 352.374 101.768 308.081 20.0889 254.089C-2.38379 239.18 -23.992 223.691 -45.1682 207.769C-139.597 136.552 -223.653 57.2289 -306.845 -14.1328" stroke="#EB57C7" stroke-miterlimit="10"/>
<path d="M2558.2 937.598C2533.79 868.697 2429.2 826.864 2326.56 818.034C2282.26 814.271 2237.32 814.995 2192.37 817.745C2133.6 821.364 2075.04 828.167 2016.7 830.772C1898.07 836.128 1782.46 822.377 1678.31 786.045C1597.93 757.963 1525.32 721.486 1465.25 676.614C1422.04 644.334 1387.9 606.699 1363.69 565.156C1352.89 546.628 1344.03 527.376 1335.6 507.835C1318.97 468.318 1304.92 427.933 1283.53 390.153C1259.11 347.163 1222.59 307.067 1168.79 281.157C1152.15 273.195 1134.86 266.537 1115.85 261.615C1036.54 240.916 947.95 253.943 861.085 275.511C823.27 284.92 785.888 295.776 750.666 306.632C711.339 318.791 673.092 331.095 635.926 342.241C562.89 363.954 493.959 382.047 424.596 383.495C379.651 384.508 338.379 377.85 296.459 366.27C211.106 342.675 121.215 294.474 41.0483 238.021C19.0078 222.533 -2.60049 206.321 -23.9927 189.964C-119.285 116.576 -209.392 37.9765 -298.418 -29.1875" stroke="#E15DC8" stroke-miterlimit="10"/>
<path d="M2564.47 930.795C2538.11 862.183 2433.95 820.495 2331.1 811.376C2286.59 807.468 2241.64 808.191 2196.69 811.231C2137.92 815.139 2079.36 822.377 2021.24 825.996C1902.82 833.089 1787.43 822.666 1682.42 788.071C1601.17 761.292 1527.27 726.842 1465.25 683.706C1420.31 652.585 1385.09 615.529 1360.02 574.275C1348.78 555.747 1339.49 536.64 1330.85 517.099C1313.56 477.727 1298.87 437.197 1276.4 399.707C1250.9 357.15 1213.52 317.778 1157.77 293.46C1140.91 286.078 1123.19 279.854 1104.39 275.511C1024.66 257.128 937.361 272.327 850.712 294.039C812.897 303.593 775.082 313.87 739.645 324.003C700.102 335.293 661.206 346.294 624.256 355.558C551.436 373.797 484.234 387.982 419.625 385.521C377.705 383.929 341.187 374.81 303.156 361.059C225.799 333.122 141.094 281.301 62.0074 222.533C40.3991 206.321 18.7907 189.675 -2.81759 172.884C-98.9747 97.4689 -194.916 19.5934 -289.992 -43.5176" stroke="#D762CA" stroke-miterlimit="10"/>
<path d="M2570.52 923.991C2542.43 855.814 2438.49 814.126 2335.42 804.717C2290.91 800.664 2245.75 801.388 2200.8 804.572C2142.03 808.625 2083.47 816.587 2025.56 820.929C1907.36 829.904 1792.19 822.666 1686.09 789.808C1603.98 764.332 1529 731.763 1464.82 690.509C1418.15 660.401 1382.06 624.069 1355.92 582.96C1344.25 564.577 1334.52 545.47 1325.66 525.929C1307.51 486.557 1292.17 446.027 1269.05 408.826C1242.69 366.559 1204.01 328.2 1146.53 305.185C1129.24 298.237 1111.52 292.592 1092.51 288.828C1012.56 272.761 926.342 289.986 839.692 311.843C801.661 321.397 763.631 331.385 727.761 340.649C687.785 351.071 648.674 360.624 611.724 368.296C539.12 383.205 473.647 393.338 413.792 386.824C374.681 382.626 343.132 371.046 308.991 355.124C239.628 322.989 159.894 267.26 82.3199 206.176C60.9277 189.24 39.5353 172.015 17.927 154.79C-79.0944 77.2037 -180.869 0.0519274 -282.213 -58.8613" stroke="#CD67CB" stroke-miterlimit="10"/>
<path d="M2576.79 917.044C2546.75 849.301 2443.25 807.468 2339.96 798.059C2295.45 794.006 2250.07 794.585 2205.13 797.915C2146.13 802.257 2087.79 810.653 2029.88 815.864C1911.9 826.575 1796.94 822.811 1689.98 791.545C1607.01 767.372 1530.73 736.83 1464.61 697.313C1416.21 668.363 1379.04 632.61 1352.03 591.79C1340.14 573.552 1329.99 554.59 1320.48 535.049C1301.68 495.677 1285.69 455.147 1261.71 418.235C1234.48 376.258 1194.72 338.768 1135.3 317.345C1117.58 310.976 1099.64 305.765 1080.63 302.58C1000.24 288.829 915.324 308.225 828.674 330.083C790.644 339.636 752.181 349.19 716.095 357.73C675.687 367.283 636.36 375.389 599.194 381.324C527.022 392.904 462.629 398.984 407.96 388.562C371.658 381.614 344.864 367.573 314.828 349.769C253.46 313.436 178.695 253.944 102.418 190.544C81.4579 173.029 60.0658 155.225 38.2414 137.565C-59.6444 57.9525 -167.47 -18.6202 -274.647 -73.4805" stroke="#C36CCD" stroke-miterlimit="10"/>
<path d="M2582.84 910.24C2550.86 842.931 2447.78 801.098 2344.5 791.4C2299.77 787.202 2254.39 787.781 2209.23 791.255C2150.24 795.743 2092.11 804.717 2034.2 810.941C1916.43 823.535 1801.69 822.956 1693.87 793.427C1610.03 770.556 1532.45 742.04 1464.6 704.261C1414.47 676.469 1376.23 641.294 1348.35 600.764C1336.03 582.671 1325.45 563.708 1315.72 544.167C1296.28 504.94 1279.64 464.265 1254.79 427.643C1226.48 385.955 1185.86 349.478 1124.49 329.358C1106.55 323.423 1088.4 318.791 1069.17 316.041C988.573 304.606 904.732 326.174 818.299 348.031C780.052 357.729 741.373 366.848 705.071 374.52C664.232 383.205 624.472 389.864 587.522 394.206C515.566 402.457 452.686 404.194 403.203 390.153C369.494 380.6 347.885 364.098 321.739 344.123C268.367 303.448 198.788 240.337 123.807 174.476C103.063 156.237 81.8869 137.854 59.8464 119.76C-38.9037 37.9763 -152.564 -37.7279 -265.791 -88.5352" stroke="#B972CE" stroke-miterlimit="10"/>
<path d="M2589.1 903.436C2555.18 836.417 2452.54 794.729 2349.03 784.741C2304.3 780.398 2258.71 780.978 2213.55 784.596C2154.56 789.373 2096.43 798.782 2038.74 805.874C1921.19 820.205 1806.66 822.955 1697.76 795.163C1613.05 773.595 1534.18 747.106 1464.39 711.063C1412.53 684.284 1373.42 649.834 1344.46 609.449C1331.71 591.5 1320.91 572.537 1310.75 552.996C1290.66 513.769 1273.15 473.094 1247.66 436.762C1218.48 395.363 1176.56 359.755 1113.68 341.227C1095.32 335.871 1076.95 331.673 1057.72 329.502C976.687 320.383 894.36 344.122 807.71 365.979C769.464 375.677 730.568 384.362 693.618 391.31C652.346 399.127 612.371 404.483 575.421 406.943C503.681 411.865 442.097 409.259 397.8 391.455C366.684 379.007 350.262 360.189 328.005 338.332C282.628 293.315 218.019 226.585 144.334 158.408C124.023 139.59 102.846 120.628 80.8058 101.955C-18.8086 18.1449 -138.303 -56.9803 -257.581 -103.59" stroke="#AF77CF" stroke-miterlimit="10"/>
<path d="M2595.15 896.49C2559.28 829.905 2457.08 788.072 2353.36 777.94C2308.63 773.597 2263.03 774.032 2217.65 777.795C2158.66 782.717 2100.54 792.849 2043.06 800.81C1925.73 817.022 1811.63 823.102 1701.65 796.902C1616.08 776.637 1535.91 752.174 1464.17 717.869C1410.58 692.248 1370.39 658.376 1340.57 618.281C1327.39 600.476 1316.16 581.659 1305.57 562.118C1284.61 523.035 1266.67 482.216 1240.09 446.173C1209.84 405.064 1167.06 370.324 1102.23 353.388C1083.65 348.467 1065.07 344.993 1045.62 343.256C964.371 336.452 883.124 362.363 796.475 384.22C758.012 393.918 718.901 402.314 681.734 408.393C640.03 415.196 599.839 419.249 562.888 420.118C491.581 421.71 431.078 414.473 391.967 393.339C363.444 377.996 352.207 357.007 333.84 332.978C296.458 283.763 236.819 213.125 164.647 142.777C144.767 123.236 123.591 103.694 101.334 84.7322C0.855602 -1.10454 -124.472 -75.6508 -249.801 -118.062" stroke="#A57CD1" stroke-miterlimit="10"/>
<path d="M2601.42 889.687C2563.82 823.536 2461.83 781.703 2357.9 771.281C2313.17 766.794 2267.36 767.228 2221.98 771.281C2162.99 776.492 2104.86 787.059 2047.38 795.888C1930.27 813.837 1816.39 823.246 1705.32 798.783C1618.89 779.821 1537.21 757.385 1463.74 724.816C1408.43 700.354 1367.15 667.061 1336.47 627.255C1322.86 609.595 1311.19 590.778 1300.38 571.237C1278.78 532.154 1259.98 491.335 1232.75 455.581C1201.63 414.907 1157.77 380.89 1091 365.402C1071.98 361.06 1053.18 358.02 1033.74 356.862C952.058 352.374 872.107 380.311 785.674 402.313C747.211 412.156 707.668 419.973 670.285 425.328C628.365 431.263 587.525 433.869 550.791 433C479.7 431.263 420.493 419.249 386.568 394.786C360.854 376.258 354.371 353.243 340.11 327.188C310.722 273.63 256.053 199.374 185.394 126.565C165.731 106.3 144.771 86.324 122.298 66.7828C20.9548 -21.2252 -110.424 -94.903 -241.803 -133.262" stroke="#9B81D2" stroke-miterlimit="10"/>
<path d="M2607.69 882.882C2568.14 817.021 2466.59 775.333 2362.65 764.621C2317.7 759.989 2271.89 760.424 2226.3 764.621C2167.31 769.977 2109.4 781.123 2051.92 790.821C1935.02 810.652 1821.36 823.245 1709.43 800.519C1622.13 782.86 1539.16 762.45 1463.74 731.618C1406.7 708.313 1364.34 675.6 1332.8 635.938C1318.75 618.424 1306.87 599.606 1295.63 580.065C1273.37 540.982 1253.93 500.308 1225.83 464.699C1193.85 424.314 1148.91 391.166 1080.19 377.27C1060.96 373.362 1041.73 370.901 1022.5 370.322C940.604 368.151 861.734 398.259 775.301 420.261C736.622 430.104 696.862 437.631 659.048 442.118C616.695 447.184 575.64 448.487 538.905 445.882C468.246 440.815 410.552 423.88 381.381 396.377C358.476 374.809 356.963 349.768 346.591 321.686C325.199 263.786 275.716 185.911 206.137 110.785C186.906 89.9414 165.945 69.2422 143.473 49.4115C41.2654 -40.623 -95.9476 -113.722 -233.377 -147.883" stroke="#9187D4" stroke-miterlimit="10"/>
<path d="M2613.73 875.935C2572.25 810.508 2471.12 768.675 2366.97 757.819C2322.02 753.187 2276 753.477 2230.4 757.819C2171.2 763.465 2113.5 775.189 2056.24 785.756C1939.55 807.324 1826.11 823.246 1713.1 802.257C1624.94 785.901 1540.66 767.517 1463.31 738.423C1404.53 716.276 1361.32 684.141 1328.69 644.769C1314.43 627.399 1301.89 608.727 1290.44 589.185C1267.54 550.248 1247.44 509.428 1218.48 474.254C1185.42 434.158 1139.61 401.734 1068.95 389.43C1049.29 385.956 1030.06 384.075 1010.61 384.075C928.284 384.219 850.711 416.499 764.277 438.645C725.598 448.488 685.623 455.581 647.376 459.345C604.592 463.542 563.32 463.398 526.586 459.055C456.142 450.804 400.393 428.802 375.975 398.115C356.095 373.363 359.337 346.295 353.071 316.187C339.89 253.944 295.16 172.305 227.094 94.8642C208.295 73.2964 187.551 52.163 164.646 31.7532C61.5743 -60.4525 -81.473 -132.828 -224.952 -162.936" stroke="#878CD5" stroke-miterlimit="10"/>
<path d="M2620 869.132C2576.57 804.139 2475.88 762.307 2371.51 751.306C2326.56 746.529 2280.32 746.818 2234.73 751.306C2175.52 757.096 2117.83 769.399 2060.78 780.835C1944.31 804.139 1831.08 823.536 1717.21 804.14C1628.4 789.086 1542.61 772.729 1463.31 745.371C1402.59 724.382 1358.51 692.827 1325.02 653.744C1310.32 636.519 1297.36 617.846 1285.47 598.305C1261.7 559.367 1240.96 518.548 1211.14 483.663C1177.22 443.857 1130.33 412.301 1057.94 401.59C1038.06 398.695 1018.39 397.247 998.947 397.826C916.403 400.287 839.909 434.738 753.692 456.884C715.013 466.872 674.605 473.386 636.143 476.426C592.926 479.755 551.438 478.307 514.704 472.228C444.693 460.648 390.888 433.724 370.792 399.997C354.154 372.061 361.933 343.111 359.556 310.832C354.37 244.391 314.61 158.989 247.841 79.2316C229.258 56.9401 208.73 35.2275 185.825 14.5283C81.8888 -79.7039 -66.9926 -151.355 -216.522 -177.41" stroke="#7D91D7" stroke-miterlimit="10"/>
<path d="M2626.05 862.329C2580.68 797.625 2480.41 755.937 2375.83 744.647C2330.67 739.725 2284.43 740.015 2238.83 744.647C2179.63 750.726 2121.93 763.464 2064.89 775.913C1948.63 801.099 1835.62 823.68 1720.67 806.021C1630.99 792.269 1543.69 778.084 1462.66 752.318C1400.21 732.488 1355.05 701.511 1320.7 662.573C1305.57 645.348 1292.39 626.82 1280.07 607.279C1255.65 568.486 1234.26 527.522 1203.58 492.926C1168.57 453.41 1120.82 422.578 1046.49 413.459C1026.17 410.998 1006.51 410.13 986.847 411.288C903.871 415.92 828.674 452.686 742.457 474.833C703.562 484.82 662.938 491.045 624.043 493.216C580.394 495.677 538.474 492.782 501.956 484.965C432.161 470.056 380.517 438.356 364.743 401.444C351.562 370.323 363.662 339.347 365.175 305.186C368.2 234.403 333.195 145.382 267.937 63.1637C249.786 40.2932 229.259 18.0017 206.138 -3.27656C101.337 -99.6801 -53.5947 -170.608 -209.175 -192.465" stroke="#7396D8" stroke-miterlimit="10"/>
<path d="M2632.32 855.381C2585.21 791.112 2485.17 749.279 2380.58 737.844C2335.42 732.923 2288.96 733.067 2243.15 737.989C2183.95 744.213 2126.25 757.675 2069.42 770.847C1953.39 797.771 1840.81 823.681 1724.77 807.758C1634.23 795.31 1545.64 783.151 1462.66 759.122C1398.48 740.449 1352.46 710.052 1317.02 671.404C1301.46 654.323 1287.85 635.94 1275.32 616.399C1250.25 577.606 1227.99 536.642 1196.66 502.336C1160.79 463.109 1112.17 433.145 1035.68 425.618C1014.94 423.592 995.057 423.302 975.393 425.039C892.201 431.987 818.085 470.78 732.083 493.072C693.188 503.204 652.133 508.85 613.022 510.297C569.157 511.745 526.804 507.692 490.286 498.138C420.707 480.044 371.44 443.567 359.772 403.182C350.048 369.021 366.471 336.018 371.873 299.686C382.893 224.561 353.073 131.921 288.897 47.3865C271.178 23.7923 250.65 0.921763 227.313 -20.646C121.648 -119.076 -39.1179 -189.424 -200.748 -207.084" stroke="#699CD9" stroke-miterlimit="10"/>
<path d="M2638.37 848.577C2589.32 784.742 2489.71 742.909 2384.91 731.185C2339.74 726.118 2293.07 726.263 2247.26 731.329C2188.05 737.843 2130.58 751.739 2073.75 765.78C1957.92 794.585 1845.56 823.825 1728.66 809.494C1637.26 798.349 1547.15 788.216 1462.45 765.925C1396.54 748.555 1349.43 718.591 1313.13 680.233C1297.14 663.297 1283.31 644.914 1270.13 625.372C1244.42 586.724 1221.51 545.615 1189.32 511.599C1152.58 472.806 1102.88 443.421 1024.44 437.631C1003.48 436.039 983.388 436.329 963.509 438.645C879.884 447.909 807.064 488.873 721.063 511.165C681.952 521.297 640.68 526.653 601.137 527.232C556.84 527.811 514.272 522.31 477.753 511.02C408.607 489.597 361.501 448.343 353.938 404.773C347.671 367.573 368.631 332.543 377.707 294.184C397.154 214.861 371.873 118.313 309.209 31.6076C291.706 7.43439 271.394 -16.0151 248.057 -38.1618C141.528 -138.763 -25.0726 -208.388 -192.753 -221.85" stroke="#5FA1DB" stroke-miterlimit="10"/>
<path d="M2644.64 841.775C2593.64 778.375 2494.46 736.542 2389.44 724.527C2344.06 719.316 2297.39 719.461 2251.58 724.672C2192.16 731.475 2134.9 745.806 2078.07 760.86C1962.46 791.402 1850.31 823.971 1732.33 811.378C1640.07 801.535 1548.66 793.573 1462.01 772.874C1394.16 756.662 1346.19 727.278 1309.03 689.208C1292.6 672.417 1278.34 654.034 1264.94 634.493C1238.58 595.845 1215.03 554.736 1181.97 521.009C1144.15 482.505 1093.37 453.845 1013.42 449.647C992.031 448.489 971.719 449.358 951.84 452.108C867.999 463.688 796.26 506.823 710.259 529.115C671.147 539.247 629.659 544.169 589.684 544.024C544.955 543.735 501.954 536.931 465.652 523.904C396.721 499.152 351.992 453.411 348.751 406.222C345.942 366.126 371.224 328.781 384.189 288.396C411.631 204.875 391.319 104.563 330.168 15.3972C313.097 -9.49982 292.786 -33.5284 269.233 -55.9646C161.839 -158.592 -10.5958 -227.493 -184.327 -237.047" stroke="#55A6DC" stroke-miterlimit="10"/>
<path d="M2650.9 834.824C2597.96 771.713 2499.43 729.881 2393.98 717.722C2348.6 712.511 2301.93 712.511 2255.9 717.866C2196.48 724.814 2139.22 739.868 2082.6 755.646C1967.21 788.07 1855.28 823.823 1736.44 812.967C1643.31 804.427 1550.61 798.637 1462.01 779.53C1392.43 764.476 1343.6 735.67 1305.35 697.746C1288.5 681.1 1273.8 662.861 1260.19 643.32C1232.96 604.672 1208.76 563.563 1174.84 530.126C1136.16 491.912 1084.3 463.975 1002.4 461.514C980.794 460.935 960.266 462.383 940.17 465.567C855.898 479.463 785.671 524.77 699.67 547.061C660.342 557.339 618.638 561.826 578.447 560.813C533.285 559.655 490.069 551.404 453.767 536.639C385.052 508.703 342.7 458.185 343.564 407.667C344.212 364.676 373.6 325.16 390.67 282.603C426.108 194.74 410.982 90.8092 350.911 -0.672773C334.273 -26.2935 313.961 -50.7563 290.192 -73.7715C181.934 -178.571 3.44891 -246.748 -176.116 -252.104" stroke="#4BABDE" stroke-miterlimit="10"/>
<path d="M2656.95 828.022C2602.28 765.345 2503.97 723.512 2398.52 711.064C2353.14 705.708 2306.25 705.708 2260.01 711.208C2200.59 718.446 2143.32 733.934 2086.93 750.725C1971.75 784.886 1860.04 824.113 1740.11 814.849C1646.12 807.612 1551.9 803.848 1461.8 786.478C1390.49 772.727 1340.57 744.356 1301.25 706.721C1284.18 690.22 1269.05 671.981 1254.79 652.44C1226.91 613.936 1202.06 572.683 1167.27 539.535C1127.52 501.61 1074.79 474.397 990.951 473.529C968.91 473.384 948.166 475.411 928.286 479.174C843.798 495.386 774.651 542.864 688.65 565.3C649.323 575.578 607.186 579.631 566.563 577.894C520.969 575.867 477.32 566.314 441.235 549.812C372.736 518.691 332.76 463.541 337.73 409.405C342.052 363.519 375.545 321.831 396.505 277.248C439.938 185.042 429.782 77.4929 371.223 -16.4499C354.801 -42.6496 334.705 -67.8362 310.936 -91.1409C201.814 -197.966 17.4949 -265.565 -168.337 -266.723" stroke="#41B1DF" stroke-miterlimit="10"/>
<path d="M2663.22 821.22C2606.6 758.977 2508.72 717.145 2403.05 704.551C2357.46 699.051 2310.57 699.051 2264.33 704.696C2204.91 712.078 2147.64 728.146 2091.46 745.805C1976.51 781.848 1865.01 824.26 1744.22 816.733C1649.36 810.798 1553.85 809.35 1461.8 793.428C1388.76 780.979 1337.76 753.043 1297.57 715.697C1280.07 699.34 1264.51 681.102 1250.03 661.561C1221.51 623.057 1195.8 581.803 1160.36 548.945C1119.74 511.31 1065.93 484.676 980.146 485.689C957.889 485.979 936.929 488.584 916.833 492.927C831.912 511.455 764.062 560.959 678.061 583.54C638.518 593.818 596.165 597.581 555.325 594.976C509.516 592.081 465.435 581.08 429.349 562.841C361.067 528.391 323.468 468.754 332.543 411.143C340.322 362.362 378.137 318.358 402.987 271.749C454.631 175.345 449.228 63.8879 391.966 -32.2261C375.976 -59.1496 355.881 -84.7704 331.896 -108.654C221.909 -217.651 31.7559 -284.381 -160.126 -281.486" stroke="#37B6E1" stroke-miterlimit="10"/>
<path d="M2669.27 814.271C2585.43 725.684 2421.85 678.206 2268.43 697.892C2087.57 721.052 1929.62 827.154 1747.89 818.324C1652.17 813.692 1555.36 814.271 1461.36 800.086C1353.75 783.874 1293.68 734.514 1244.85 670.39C1182.18 588.027 1133.13 492.492 968.91 497.558C850.28 501.177 773.354 573.552 667.257 601.489C583.417 623.491 485.099 613.358 417.033 575.579C348.967 537.799 313.745 473.819 326.926 412.59C338.163 360.914 380.299 314.739 409.038 265.958C485.315 137.131 463.491 -15.4357 352.64 -126.459C241.789 -237.482 45.5858 -303.633 -152.13 -296.54" stroke="#2DBBE2" stroke-miterlimit="10"/>
<path d="M2659.76 827.008C2574.62 745.369 2412.13 701.22 2259.79 719.314C2183.51 728.289 2111.13 751.159 2039.6 773.161C1966.35 795.887 1894.39 817.889 1819.2 824.403C1795 826.429 1770.36 827.008 1745.51 825.271C1651.95 818.757 1557.3 817.165 1463.74 802.401C1357.64 785.754 1296.49 738.421 1245.93 677.916C1234.26 664.02 1223.02 649.834 1211.57 635.793C1177.86 594.54 1141.99 555.457 1085.38 533.889C1053.61 521.73 1015.58 514.927 968.045 516.085C850.928 518.691 774.219 584.986 671.579 608.87C657.966 612.054 643.92 614.37 629.875 615.818C559.648 623.055 485.531 609.449 431.294 577.459C366.253 539.1 332.544 475.7 344.861 415.05C355.233 363.663 394.56 317.199 421.138 268.418C466.948 184.318 472.134 90.5202 439.073 5.40718C421.355 -40.0443 392.615 -83.0351 353.72 -120.96C282.413 -190.15 177.613 -241.392 59.8471 -268.46C-7.78696 -283.948 -79.743 -291.33 -151.915 -289.304" stroke="#33B4E3" stroke-miterlimit="10"/>
<path d="M2650.04 839.748C2563.82 765.057 2402.19 724.237 2250.72 740.739C2174.66 748.989 2102.7 769.688 2032.04 789.374C1959.65 809.495 1888.99 828.747 1815.09 833.089C1791.32 834.537 1767.34 834.392 1742.92 832.22C1651.3 823.825 1559.03 820.206 1466.12 804.863C1361.75 787.927 1299.3 742.331 1247.23 685.444C1235.13 672.272 1223.46 659.1 1211.57 645.927C1176.78 607.424 1140.48 571.381 1083.87 551.406C1051.89 540.26 1014.07 533.746 967.398 534.47C851.793 536.207 775.3 596.278 676.118 616.109C662.936 618.714 649.539 620.451 635.926 621.464C568.292 626.386 497.417 611.477 445.773 579.053C383.757 540.115 351.56 477.438 362.797 417.367C372.088 366.27 409.039 319.661 433.024 270.735C474.944 186.636 477.321 93.2718 442.532 9.17204C423.732 -35.99 394.129 -78.4017 354.369 -115.747C281.981 -183.78 176.965 -233.863 58.9835 -260.931C-8.65054 -276.42 -80.174 -283.947 -152.13 -282.21" stroke="#38ADE5" stroke-miterlimit="10"/>
<path d="M2640.32 852.486C2552.8 784.743 2392.25 747.108 2241.86 762.017C2166.23 769.4 2094.49 788.217 2024.48 805.298C1952.74 822.957 1883.38 839.169 1810.99 841.485C1787.65 842.209 1764.1 841.485 1740.33 838.88C1650.65 828.602 1560.76 822.668 1468.28 806.89C1365.42 789.375 1301.9 745.95 1248.09 692.682C1235.77 680.378 1223.46 668.075 1211.36 655.916C1175.49 620.307 1138.75 587.015 1082.14 568.776C1050.16 558.499 1012.34 552.275 966.535 552.709C852.443 553.433 776.382 607.569 680.225 623.202C667.476 625.229 654.511 626.531 641.33 627.11C576.288 629.716 508.654 613.504 459.387 580.646C400.181 541.274 369.713 479.176 379.869 419.684C388.296 368.732 422.437 321.977 444.262 273.052C482.076 188.952 482.076 96.0227 445.342 12.9362C425.462 -31.9363 394.995 -73.769 354.587 -110.391C281.119 -177.265 175.886 -226.191 57.9045 -253.259C-9.51349 -268.603 -81.0371 -276.274 -152.777 -275.116" stroke="#3EA6E6" stroke-miterlimit="10"/>
<path d="M2630.59 865.223C2541.78 804.283 2382.31 770.122 2232.78 783.439C2157.37 789.953 2086.06 806.744 2016.7 821.509C1945.61 836.563 1877.76 849.88 1806.66 850.169C1783.76 850.314 1760.85 849.011 1737.52 845.827C1649.79 833.812 1562.27 825.706 1470.22 809.35C1369.1 791.401 1304.27 750.002 1248.95 700.208C1236.2 688.773 1223.46 677.338 1210.92 666.047C1173.97 633.189 1136.81 602.791 1080.19 586.29C1048 576.881 1010.4 571.381 965.452 571.236C852.872 570.946 777.243 619.003 684.327 630.583C672.01 632.176 659.477 632.899 646.945 632.899C584.497 633.189 520.32 615.674 473.43 582.382C417.248 542.431 388.509 481.057 397.368 421.999C404.931 371.336 436.263 324.292 455.711 275.367C489.636 191.122 486.827 98.772 448.148 16.554C427.188 -28.029 395.64 -69.1381 354.8 -105.326C280.251 -171.042 174.803 -218.954 56.605 -245.733C-10.813 -261.077 -81.9046 -268.893 -153.428 -268.025" stroke="#43A0E8" stroke-miterlimit="10"/>
<path d="M2621.08 877.816C2530.98 823.825 2372.59 792.993 2224.14 804.573C2149.16 810.363 2077.85 825.127 2009.35 837.286C1939.12 849.88 1872.57 860.302 1802.77 858.42C1780.3 857.841 1757.83 855.959 1735.14 852.341C1649.36 838.445 1564.22 828.167 1472.82 811.232C1373.2 792.848 1307.3 753.332 1250.25 707.301C1237.07 696.59 1223.89 686.168 1210.92 675.89C1173.11 645.782 1135.08 618.425 1078.46 603.515C1046.05 594.975 1008.88 589.619 964.587 589.33C853.52 588.461 778.107 630.005 688.649 637.532C676.764 638.545 664.664 638.69 652.779 638.4C593.14 636.518 531.988 617.556 487.691 583.829C434.319 543.299 407.308 482.504 415.087 424.17C421.786 373.797 450.309 326.609 467.595 277.538C497.415 193.294 492.013 101.378 451.605 20.1729C429.565 -24.1206 397.153 -64.6506 355.665 -100.114C280.035 -164.673 174.37 -211.427 55.9565 -238.206C-11.2454 -253.405 -82.1205 -261.366 -153.428 -261.076" stroke="#4999E9" stroke-miterlimit="10"/>
<path d="M2611.36 890.554C2519.96 843.51 2362.65 815.863 2215.28 825.996C2140.73 830.917 2069.64 843.655 2001.79 853.498C1932.21 863.486 1867.17 871.013 1798.67 867.105C1776.63 865.802 1754.8 863.486 1732.55 859.288C1648.71 843.51 1565.95 831.062 1474.98 813.692C1377.09 794.874 1309.89 757.384 1251.33 714.828C1237.72 704.985 1224.1 695.431 1210.92 686.022C1172.03 658.665 1133.57 634.202 1076.95 621.03C1044.54 613.358 1007.37 608.436 963.94 607.713C854.169 605.831 779.188 641.295 693.187 644.769C681.735 645.203 670.282 644.913 658.614 644.045C601.568 639.847 543.658 619.582 501.737 585.421C451.39 544.312 425.892 484.241 432.591 426.486C438.425 376.402 464.355 328.924 479.049 279.854C504.979 195.609 496.551 104.127 454.631 23.9358C431.51 -20.0682 398.233 -60.0192 356.097 -94.9039C279.604 -158.304 173.723 -203.901 55.0929 -230.679C-12.109 -245.878 -82.7681 -253.984 -153.86 -254.129" stroke="#4F92EA" stroke-miterlimit="10"/>
<path d="M2601.64 903.293C2509.15 863.197 2352.49 838.879 2206.2 847.419C2131.87 851.472 2061.21 862.329 1994.01 869.566C1925.08 877.093 1861.34 881.58 1794.35 875.646C1772.74 873.764 1751.35 870.724 1729.74 866.092C1647.84 848.577 1567.25 833.813 1477.14 815.864C1380.77 796.757 1312.48 761.004 1252.2 722.211C1238.15 713.091 1224.11 704.551 1210.49 696.156C1170.52 671.693 1131.41 650.125 1075.01 638.545C1042.38 631.887 1005.43 627.255 962.861 626.097C854.603 623.346 780.054 652.731 697.294 652.007C686.274 651.862 675.254 651.138 664.233 649.836C609.78 643.322 555.328 621.754 515.784 587.159C468.462 545.471 444.477 486.123 450.095 428.802C455.065 378.864 477.97 331.241 490.719 282.026C512.327 197.781 501.523 106.734 457.658 27.5554C433.457 -16.1591 399.315 -55.3864 356.531 -89.6921C278.957 -151.935 172.86 -196.373 54.0142 -223.007C-12.9716 -238.061 -83.4146 -246.312 -154.29 -246.891" stroke="#548BEC" stroke-miterlimit="10"/>
<path d="M2591.91 916.032C2498.13 882.884 2342.55 862.04 2197.35 868.698C2123.45 872.172 2053 880.713 1986.45 885.634C1918.38 890.556 1855.93 892.148 1790.24 884.187C1769.07 881.581 1748.32 877.962 1727.15 872.896C1647.41 853.5 1568.98 836.709 1479.3 818.181C1384.44 798.639 1314.86 764.913 1253.06 729.594C1238.58 721.343 1224.11 713.671 1210.06 706.144C1169.22 684.432 1129.46 665.904 1073.06 655.916C1040.22 650.126 1003.49 645.928 961.781 644.481C855.036 640.862 780.703 664.022 701.401 659.245C690.813 658.666 680.224 657.363 669.852 655.626C617.992 646.797 566.781 623.926 529.83 588.897C485.317 546.63 463.06 487.861 467.814 431.264C471.92 381.615 492.016 333.847 502.388 284.487C520.106 200.243 506.493 109.629 460.9 31.4644C435.618 -11.9606 400.396 -50.6089 357.18 -84.1909C278.525 -145.275 172.212 -188.556 53.3664 -215.19C-13.4034 -230.244 -83.8463 -238.494 -154.289 -239.652" stroke="#5A84ED" stroke-miterlimit="10"/>
<path d="M2582.4 928.767C2487.33 902.567 2332.83 885.052 2188.48 890.119C2114.8 892.724 2044.79 899.383 1978.88 901.699C1911.46 904.159 1850.53 902.857 1786.14 892.724C1765.61 889.54 1745.08 885.342 1724.55 879.697C1646.76 858.418 1570.7 839.456 1481.67 820.494C1388.54 800.518 1317.67 768.818 1254.35 737.118C1239.44 729.736 1224.53 722.932 1210.06 716.274C1168.14 697.312 1127.73 681.679 1071.55 673.428C1038.49 668.506 1002.18 664.598 961.129 662.861C855.896 658.229 781.78 675.31 705.935 666.48C695.779 665.322 685.623 663.44 675.899 661.269C626.632 650.123 578.661 625.95 544.304 590.486C502.816 547.785 482.072 489.595 485.746 433.432C488.771 384.073 506.489 336.016 514.268 286.656C527.882 202.411 511.676 112.232 464.137 35.0805C437.775 -8.05503 401.689 -46.1243 357.824 -79.1273C278.089 -139.054 171.56 -181.176 52.4983 -207.81C-14.2715 -222.719 -84.2823 -231.26 -154.725 -232.707" stroke="#607DEE" stroke-miterlimit="10"/>
<path d="M2572.68 941.505C2476.31 922.109 2322.89 908.068 2179.62 911.542C2106.37 913.279 2036.58 917.911 1971.32 917.911C1904.55 917.911 1845.13 913.569 1782.03 901.41C1761.94 897.502 1742.06 892.725 1721.96 886.645C1646.11 863.485 1572.43 842.496 1483.84 822.81C1392.22 802.545 1320.04 772.582 1255.22 744.645C1239.88 737.987 1224.54 732.197 1209.84 726.552C1167.06 710.34 1125.79 697.746 1069.82 691.088C1036.54 687.18 1000.46 683.561 960.266 681.39C856.546 675.889 782.645 686.601 710.257 673.863C700.534 672.126 691.026 669.81 681.518 667.204C634.844 653.887 590.331 628.267 558.135 592.369C519.456 549.088 500.441 491.623 503.034 436.039C505.194 386.968 520.104 338.766 525.722 289.262C535.446 205.017 516.215 115.273 467.164 39.134C439.505 -3.56725 402.771 -41.2022 358.042 -73.4815C277.227 -132.25 170.481 -173.214 51.2035 -199.848C-15.3502 -214.757 -85.1453 -223.298 -155.372 -225.324" stroke="#6576F0" stroke-miterlimit="10"/>
<path d="M2562.96 954.1C2465.29 941.651 2312.95 930.795 2170.55 932.677C2097.51 933.69 2028.15 936.296 1963.76 933.69C1897.85 931.085 1839.73 923.847 1777.93 909.662C1758.26 905.03 1738.82 899.674 1719.37 893.16C1645.47 868.119 1574.16 844.958 1486 824.838C1395.89 804.139 1322.42 776.202 1256.3 751.739C1240.53 745.949 1224.97 740.883 1209.63 736.251C1165.76 722.789 1124.06 713.236 1068.09 708.17C1034.6 705.13 998.73 701.945 959.186 699.485C856.979 692.971 783.511 697.603 714.364 680.812C705.072 678.496 695.997 675.746 687.137 672.561C643.056 656.928 601.784 630.005 572.181 593.672C536.527 549.813 519.025 492.927 520.537 438.066C521.834 389.141 533.934 340.794 537.176 291.29C542.794 206.901 520.969 117.735 470.19 42.6093C441.451 0.197526 403.636 -36.7138 358.475 -68.5588C276.579 -126.169 169.618 -165.976 50.3396 -192.465C-16.2141 -207.229 -85.793 -216.059 -155.588 -218.375" stroke="#6B70F1" stroke-miterlimit="10"/>
<path d="M2553.23 966.837C2454.48 961.336 2303.01 953.809 2161.69 954.099C2089.08 954.244 2019.94 954.967 1956.19 949.756C1890.93 944.69 1834.11 934.558 1773.82 918.201C1754.59 912.99 1735.57 907.055 1716.77 899.962C1644.82 873.039 1575.89 847.852 1488.37 827.008C1399.99 806.02 1325.23 779.964 1257.38 759.12C1241.17 754.199 1225.18 750.001 1209.41 746.383C1164.68 735.671 1122.11 729.157 1066.36 725.828C1032.87 723.802 996.998 720.907 958.319 718.012C857.624 710.629 784.372 709.037 718.683 688.193C709.823 685.298 701.18 682.114 692.969 678.495C651.481 660.546 613.666 632.32 586.44 595.553C553.811 551.115 537.821 494.952 538.253 440.526C538.685 391.89 547.977 343.399 549.057 293.749C550.786 209.36 525.937 120.628 473.428 46.5164C443.609 4.39412 404.93 -31.9381 359.12 -63.0594C276.144 -119.657 168.967 -158.16 49.4727 -184.649C-16.8649 -199.414 -86.2279 -208.244 -156.023 -211.139" stroke="#7069F3" stroke-miterlimit="10"/>
<path d="M2543.73 979.576C2443.68 981.024 2293.29 976.681 2153.05 975.523C2080.88 974.799 2011.95 973.497 1948.85 965.97C1884.24 958.298 1828.92 945.271 1769.93 926.887C1751.13 920.953 1732.77 914.439 1714.61 906.912C1644.6 878.107 1578.05 850.749 1490.97 829.471C1404.1 808.192 1328.04 784.019 1258.89 766.649C1242.26 762.451 1225.83 759.267 1209.84 756.517C1164.25 748.555 1120.82 745.081 1065.28 743.344C1031.57 742.186 995.921 739.581 958.107 736.396C858.924 728.001 785.888 720.329 723.656 695.287C715.229 691.958 707.018 688.05 699.239 683.997C660.344 663.732 625.771 634.203 600.921 597.002C571.101 551.985 556.84 496.545 556.191 442.698C555.543 394.352 562.458 345.571 560.945 295.922C558.569 211.533 531.126 123.235 476.889 50.1365C445.989 8.30379 406.446 -27.4495 359.988 -57.9917C275.932 -113.431 168.538 -150.777 48.8279 -177.266C-17.5097 -191.886 -86.4404 -201.005 -156.019 -204.334" stroke="#7662F4" stroke-miterlimit="10"/>
<path d="M2534 992.313C2432.66 1000.71 2283.13 999.696 2143.97 996.801C2072.02 995.353 2003.52 992.024 1941.07 981.891C1877.33 971.759 1823.31 955.836 1765.61 935.282C1747.24 928.768 1729.31 921.531 1711.81 913.569C1643.96 882.882 1579.56 853.498 1493.13 831.496C1407.78 809.783 1330.42 787.637 1259.76 773.886C1242.69 770.556 1225.84 768.24 1209.41 766.358C1162.74 761.147 1118.87 759.7 1063.34 760.568C1029.42 761.003 994.194 758.108 957.028 754.489C859.358 745.225 786.754 731.184 727.763 702.234C719.768 698.326 712.206 693.984 704.859 689.496C668.557 666.915 637.225 636.084 614.968 598.449C588.174 552.852 575.425 497.992 573.696 444.869C572.183 396.812 576.289 347.742 572.616 298.092C566.349 213.703 535.882 125.84 480.132 53.6095C447.936 12.0663 407.744 -22.9632 360.638 -52.9264C275.501 -107.208 167.892 -143.395 48.1814 -169.74C-17.9401 -184.359 -86.8706 -193.479 -156.017 -197.242" stroke="#7C5BF5" stroke-miterlimit="10"/>
<path d="M2524.28 1005.05C2421.64 1020.4 2273.19 1022.42 2135.11 1018.22C2063.59 1015.76 1995.09 1010.55 1933.51 998.104C1870.41 985.366 1817.9 966.549 1761.5 943.968C1743.57 936.73 1726.28 929.058 1709.21 920.518C1643.31 887.805 1581.07 856.539 1495.29 833.958C1411.66 811.956 1332.79 791.835 1260.62 781.413C1243.12 778.953 1225.83 777.505 1208.98 776.637C1161.44 774.176 1116.71 776.926 1061.18 778.229C1027.04 779.097 992.03 776.926 955.728 773.163C859.571 762.885 787.183 742.765 731.65 709.762C724.087 705.275 716.956 700.498 710.258 695.577C676.549 670.824 648.674 638.545 628.794 600.476C604.809 554.301 593.789 500.164 591.196 447.475C588.603 399.563 590.331 350.493 584.065 300.554C574.125 216.165 540.632 128.736 482.938 57.5186C449.661 16.2648 408.389 -18.1857 360.851 -47.4252C274.633 -100.548 167.024 -135.723 46.8816 -161.922C-19.2399 -176.397 -87.7382 -185.806 -156.885 -190.004" stroke="#8154F7" stroke-miterlimit="10"/>
<path d="M2514.77 1017.79C2410.83 1040.08 2263.46 1045.44 2126.25 1039.5C2054.94 1036.32 1986.88 1029.08 1925.94 1014.03C1863.49 998.828 1812.28 977.115 1757.4 952.218C1739.89 944.402 1723.04 936.006 1706.62 927.032C1642.66 892.436 1582.8 859.144 1497.45 835.839C1415.34 813.548 1335.17 795.309 1261.7 788.506C1243.77 786.914 1226.05 786.479 1208.76 786.335C1160.36 785.9 1114.77 792.414 1059.45 795.309C1025.09 797.046 990.301 795.309 954.864 791.111C860.219 779.821 788.264 753.476 735.971 716.565C728.841 711.499 722.142 706.143 715.876 700.787C684.976 673.719 660.126 640.137 642.623 601.634C621.663 555.024 612.156 501.467 608.482 449.357C605.025 401.734 603.944 352.374 595.517 302.435C581.472 218.046 545.17 131.051 485.963 60.8475C451.606 20.028 409.469 -13.9882 361.283 -42.6487C274.201 -94.614 166.16 -128.63 45.8011 -154.83C-20.1043 -169.16 -88.3869 -178.714 -157.318 -183.346" stroke="#874DF8" stroke-miterlimit="10"/>
<path d="M2505.05 1030.53C2400.03 1059.62 2253.53 1068.45 2117.39 1060.92C2046.52 1056.87 1978.67 1047.61 1918.38 1030.24C1856.8 1012.43 1806.88 987.825 1753.29 960.902C1736.22 952.361 1720.02 943.387 1704.03 933.978C1642.01 897.501 1584.53 862.037 1499.83 838.298C1419.23 815.573 1337.76 799.505 1262.78 796.031C1244.42 795.163 1226.27 795.597 1208.76 796.61C1159.28 799.505 1113.25 808.48 1057.94 812.967C1023.36 815.717 988.79 814.27 954.217 809.638C861.085 797.334 789.345 764.91 740.51 723.946C733.812 718.301 727.545 712.511 721.927 706.721C693.62 677.336 672.012 642.452 657.102 603.514C639.167 556.325 631.172 503.347 626.418 451.961C622.096 404.627 618.207 355.123 607.403 305.039C589.468 220.65 550.141 134.234 489.421 64.8991C453.767 24.3691 410.983 -9.0681 361.932 -37.0048C273.77 -87.8121 165.512 -120.67 45.1539 -146.87C-20.7516 -161.2 -88.818 -170.899 -157.316 -175.965" stroke="#8D46F9" stroke-miterlimit="10"/>
<path d="M2495.32 1043.12C2389.01 1079.16 2243.59 1091.18 2108.54 1082.2C2038.09 1077.28 1970.46 1066.14 1910.82 1046.16C1849.88 1025.9 1801.26 998.394 1749.19 969.299C1732.55 960.18 1716.99 950.481 1701.43 940.638C1641.58 902.135 1586.26 864.789 1501.99 840.327C1422.9 817.311 1340.36 802.547 1263.87 803.271C1245.07 803.415 1226.48 804.429 1208.55 806.455C1158.2 812.1 1111.31 824.259 1056.21 830.194C1021.64 833.958 987.279 832.655 953.353 827.733C861.734 814.561 790.427 775.768 744.833 730.896C738.567 724.816 732.948 718.447 727.762 712.078C702.048 680.378 683.897 644.19 671.365 604.818C656.239 557.051 649.972 504.796 644.138 453.844C638.736 406.8 632.469 357.006 619.072 306.923C597.032 222.534 554.896 136.552 492.448 68.2301C455.713 27.9896 411.849 -4.72391 362.365 -32.2264C273.123 -81.8757 164.649 -113.576 44.0745 -139.631C-21.6148 -153.816 -89.4647 -163.659 -157.963 -169.305" stroke="#9240FB" stroke-miterlimit="10"/>
<path d="M2485.6 1055.86C2377.99 1098.85 2233.64 1114.19 2099.46 1103.48C2029.23 1097.83 1962.03 1084.52 1903.04 1062.23C1842.75 1039.36 1795.64 1008.96 1744.86 977.837C1728.87 967.994 1713.53 957.862 1698.62 947.44C1640.71 907.055 1587.56 867.683 1504.15 842.641C1426.57 819.336 1342.73 807.177 1264.73 810.796C1245.5 811.664 1226.7 813.691 1208.11 816.731C1156.69 824.981 1109.36 840.325 1054.26 847.852C1019.47 852.629 985.331 851.615 952.27 846.404C862.164 832.219 791.288 787.346 748.936 738.421C743.102 731.762 737.916 724.959 733.378 718.156C710.257 684.14 695.347 646.649 685.407 606.843C673.307 558.497 668.337 506.965 661.638 456.592C655.156 409.693 646.296 359.755 630.738 309.671C604.808 225.282 559.647 139.879 495.686 72.426C457.655 32.6197 413.142 0.340474 363.011 -26.4383C272.688 -74.9295 163.998 -105.472 43.2076 -131.527C-22.2656 -145.712 -89.8996 -155.555 -158.182 -161.635" stroke="#9839FC" stroke-miterlimit="10"/>
<path d="M2476.09 1068.6C2367.19 1118.54 2223.92 1137.21 2090.82 1124.9C2021.02 1118.39 1954.04 1103.19 1895.69 1078.3C1836.27 1052.96 1790.46 1019.67 1740.98 986.379C1725.42 975.957 1710.73 965.101 1696.25 954.244C1640.5 911.977 1589.5 870.724 1506.53 844.958C1430.47 821.509 1345.55 811.231 1266.03 818.179C1246.36 819.916 1227.13 822.811 1208.33 826.72C1156.04 837.576 1107.85 856.249 1052.97 865.223C1017.96 871.013 984.038 870.145 951.842 864.644C863.247 849.301 792.804 798.349 753.693 745.515C748.291 738.277 743.537 730.895 739.432 723.658C718.904 687.47 707.235 648.532 699.672 608.292C690.381 559.366 687.139 508.414 679.36 458.765C672.014 412.156 660.345 362.072 642.41 311.844C612.375 227.31 564.404 142.486 498.931 76.0462C459.82 36.5294 414.442 4.82919 363.663 -21.3706C272.259 -68.7038 163.353 -98.0881 42.5628 -124.143C-22.9105 -138.184 -90.3285 -148.316 -158.179 -154.83" stroke="#9D32FE" stroke-miterlimit="10"/>
<path d="M2466.37 1081.33C2298.25 1168.04 2054.94 1173.68 1888.13 1094.36C1829.35 1066.42 1785.06 1030.24 1736.87 994.918C1662.75 940.492 1612.41 880.276 1508.9 847.128C1415.99 817.309 1304.7 811.954 1208.11 836.706C1154.74 850.313 1106.12 872.025 1051.24 882.592C905.381 910.528 784.158 813.257 745.263 729.446C705.504 644.044 713.283 550.825 697.077 461.225C674.82 337.174 609.563 184.318 502.169 79.8083C389.158 -30.0569 229.904 -76.0875 41.6959 -116.328C-23.5613 -130.369 -90.7631 -140.501 -158.613 -147.449" stroke="#A32BFF" stroke-miterlimit="10"/>
</g>
</g>
<g opacity="0.4">
<mask id="mask4_2018_9874" style="mask-type:luminance" maskUnits="userSpaceOnUse" x="-27" y="411" width="1671" height="903">
<path d="M-27.0013 411H1643.16V1314H-27.0013V411Z" fill="white"/>
</mask>
<g mask="url(#mask4_2018_9874)">
<path d="M627.146 1171.78C625.609 1171.78 624.362 1170.77 624.362 1169.52C624.362 1168.27 625.609 1167.26 627.146 1167.26C628.683 1167.26 629.93 1168.27 629.93 1169.52C629.93 1170.77 628.683 1171.78 627.146 1171.78Z" fill="#2B3640"/>
<path d="M627.146 1145.82C625.609 1145.82 624.362 1144.81 624.362 1143.56C624.362 1142.31 625.609 1141.3 627.146 1141.3C628.683 1141.3 629.93 1142.31 629.93 1143.56C629.93 1144.81 628.683 1145.82 627.146 1145.82Z" fill="#2B3640"/>
<path d="M627.146 1119.86C625.609 1119.86 624.362 1118.85 624.362 1117.6C624.362 1116.35 625.609 1115.34 627.146 1115.34C628.683 1115.34 629.93 1116.35 629.93 1117.6C629.93 1118.85 628.683 1119.86 627.146 1119.86Z" fill="#2B3640"/>
<path d="M627.146 1093.89C625.609 1093.89 624.362 1092.88 624.362 1091.64C624.362 1090.39 625.609 1089.38 627.146 1089.38C628.683 1089.38 629.93 1090.39 629.93 1091.64C629.93 1092.88 628.683 1093.89 627.146 1093.89Z" fill="#2B3640"/>
<path d="M627.146 1067.93C625.609 1067.93 624.362 1066.92 624.362 1065.68C624.362 1064.43 625.609 1063.42 627.146 1063.42C628.683 1063.42 629.93 1064.43 629.93 1065.68C629.93 1066.92 628.683 1067.93 627.146 1067.93Z" fill="#2B3640"/>
<path d="M592.349 1171.78C590.812 1171.78 589.566 1170.77 589.566 1169.52C589.566 1168.27 590.812 1167.26 592.349 1167.26C593.887 1167.26 595.133 1168.27 595.133 1169.52C595.133 1170.77 593.887 1171.78 592.349 1171.78Z" fill="#2B3640"/>
<path d="M592.349 1145.82C590.812 1145.82 589.566 1144.81 589.566 1143.56C589.566 1142.31 590.812 1141.3 592.349 1141.3C593.887 1141.3 595.133 1142.31 595.133 1143.56C595.133 1144.81 593.887 1145.82 592.349 1145.82Z" fill="#2B3640"/>
<path d="M592.349 1119.86C590.812 1119.86 589.566 1118.85 589.566 1117.6C589.566 1116.35 590.812 1115.34 592.349 1115.34C593.887 1115.34 595.133 1116.35 595.133 1117.6C595.133 1118.85 593.887 1119.86 592.349 1119.86Z" fill="#2B3640"/>
<path d="M592.349 1093.89C590.812 1093.89 589.566 1092.88 589.566 1091.64C589.566 1090.39 590.812 1089.38 592.349 1089.38C593.887 1089.38 595.133 1090.39 595.133 1091.64C595.133 1092.88 593.887 1093.89 592.349 1093.89Z" fill="#2B3640"/>
<path d="M592.349 1067.93C590.812 1067.93 589.566 1066.92 589.566 1065.68C589.566 1064.43 590.812 1063.42 592.349 1063.42C593.887 1063.42 595.133 1064.43 595.133 1065.68C595.133 1066.92 593.887 1067.93 592.349 1067.93Z" fill="#2B3640"/>
<path d="M557.556 1171.78C556.019 1171.78 554.773 1170.77 554.773 1169.52C554.773 1168.27 556.019 1167.26 557.556 1167.26C559.094 1167.26 560.34 1168.27 560.34 1169.52C560.34 1170.77 559.094 1171.78 557.556 1171.78Z" fill="#2B3640"/>
<path d="M557.556 1145.82C556.019 1145.82 554.773 1144.81 554.773 1143.56C554.773 1142.31 556.019 1141.3 557.556 1141.3C559.094 1141.3 560.34 1142.31 560.34 1143.56C560.34 1144.81 559.094 1145.82 557.556 1145.82Z" fill="#2B3640"/>
<path d="M557.556 1119.86C556.019 1119.86 554.773 1118.85 554.773 1117.6C554.773 1116.35 556.019 1115.34 557.556 1115.34C559.094 1115.34 560.34 1116.35 560.34 1117.6C560.34 1118.85 559.094 1119.86 557.556 1119.86Z" fill="#2B3640"/>
<path d="M557.556 1093.89C556.019 1093.89 554.773 1092.88 554.773 1091.64C554.773 1090.39 556.019 1089.38 557.556 1089.38C559.094 1089.38 560.34 1090.39 560.34 1091.64C560.34 1092.88 559.094 1093.89 557.556 1093.89Z" fill="#2B3640"/>
<path d="M557.556 1067.93C556.019 1067.93 554.773 1066.92 554.773 1065.68C554.773 1064.43 556.019 1063.42 557.556 1063.42C559.094 1063.42 560.34 1064.43 560.34 1065.68C560.34 1066.92 559.094 1067.93 557.556 1067.93Z" fill="#2B3640"/>
<path d="M522.759 1171.78C521.222 1171.78 519.976 1170.77 519.976 1169.52C519.976 1168.27 521.222 1167.26 522.759 1167.26C524.297 1167.26 525.543 1168.27 525.543 1169.52C525.543 1170.77 524.297 1171.78 522.759 1171.78Z" fill="#2B3640"/>
<path d="M522.759 1145.82C521.222 1145.82 519.976 1144.81 519.976 1143.56C519.976 1142.31 521.222 1141.3 522.759 1141.3C524.297 1141.3 525.543 1142.31 525.543 1143.56C525.543 1144.81 524.297 1145.82 522.759 1145.82Z" fill="#2B3640"/>
<path d="M522.759 1119.86C521.222 1119.86 519.976 1118.85 519.976 1117.6C519.976 1116.35 521.222 1115.34 522.759 1115.34C524.297 1115.34 525.543 1116.35 525.543 1117.6C525.543 1118.85 524.297 1119.86 522.759 1119.86Z" fill="#2B3640"/>
<path d="M522.759 1093.89C521.222 1093.89 519.976 1092.88 519.976 1091.64C519.976 1090.39 521.222 1089.38 522.759 1089.38C524.297 1089.38 525.543 1090.39 525.543 1091.64C525.543 1092.88 524.297 1093.89 522.759 1093.89Z" fill="#2B3640"/>
<path d="M522.759 1067.93C521.222 1067.93 519.976 1066.92 519.976 1065.68C519.976 1064.43 521.222 1063.42 522.759 1063.42C524.297 1063.42 525.543 1064.43 525.543 1065.68C525.543 1066.92 524.297 1067.93 522.759 1067.93Z" fill="#2B3640"/>
<path d="M487.962 1171.78C486.425 1171.78 485.179 1170.77 485.179 1169.52C485.179 1168.27 486.425 1167.26 487.962 1167.26C489.5 1167.26 490.746 1168.27 490.746 1169.52C490.746 1170.77 489.5 1171.78 487.962 1171.78Z" fill="#2B3640"/>
<path d="M487.962 1145.82C486.425 1145.82 485.179 1144.81 485.179 1143.56C485.179 1142.31 486.425 1141.3 487.962 1141.3C489.5 1141.3 490.746 1142.31 490.746 1143.56C490.746 1144.81 489.5 1145.82 487.962 1145.82Z" fill="#2B3640"/>
<path d="M487.962 1119.86C486.425 1119.86 485.179 1118.85 485.179 1117.6C485.179 1116.35 486.425 1115.34 487.962 1115.34C489.5 1115.34 490.746 1116.35 490.746 1117.6C490.746 1118.85 489.5 1119.86 487.962 1119.86Z" fill="#2B3640"/>
<path d="M487.962 1093.89C486.425 1093.89 485.179 1092.88 485.179 1091.64C485.179 1090.39 486.425 1089.38 487.962 1089.38C489.5 1089.38 490.746 1090.39 490.746 1091.64C490.746 1092.88 489.5 1093.89 487.962 1093.89Z" fill="#2B3640"/>
<path d="M487.962 1067.93C486.425 1067.93 485.179 1066.92 485.179 1065.68C485.179 1064.43 486.425 1063.42 487.962 1063.42C489.5 1063.42 490.746 1064.43 490.746 1065.68C490.746 1066.92 489.5 1067.93 487.962 1067.93Z" fill="#2B3640"/>
<path d="M453.17 1171.78C451.632 1171.78 450.386 1170.77 450.386 1169.52C450.386 1168.27 451.632 1167.26 453.17 1167.26C454.707 1167.26 455.953 1168.27 455.953 1169.52C455.953 1170.77 454.707 1171.78 453.17 1171.78Z" fill="#2B3640"/>
<path d="M453.17 1145.82C451.632 1145.82 450.386 1144.81 450.386 1143.56C450.386 1142.31 451.632 1141.3 453.17 1141.3C454.707 1141.3 455.953 1142.31 455.953 1143.56C455.953 1144.81 454.707 1145.82 453.17 1145.82Z" fill="#2B3640"/>
<path d="M453.17 1119.86C451.632 1119.86 450.386 1118.85 450.386 1117.6C450.386 1116.35 451.632 1115.34 453.17 1115.34C454.707 1115.34 455.953 1116.35 455.953 1117.6C455.953 1118.85 454.707 1119.86 453.17 1119.86Z" fill="#2B3640"/>
<path d="M453.17 1093.89C451.632 1093.89 450.386 1092.88 450.386 1091.64C450.386 1090.39 451.632 1089.38 453.17 1089.38C454.707 1089.38 455.953 1090.39 455.953 1091.64C455.953 1092.88 454.707 1093.89 453.17 1093.89Z" fill="#2B3640"/>
<path d="M453.17 1067.93C451.632 1067.93 450.386 1066.92 450.386 1065.68C450.386 1064.43 451.632 1063.42 453.17 1063.42C454.707 1063.42 455.953 1064.43 455.953 1065.68C455.953 1066.92 454.707 1067.93 453.17 1067.93Z" fill="#2B3640"/>
<path d="M418.377 1171.78C416.839 1171.78 415.593 1170.77 415.593 1169.52C415.593 1168.27 416.839 1167.26 418.377 1167.26C419.914 1167.26 421.16 1168.27 421.16 1169.52C421.16 1170.77 419.914 1171.78 418.377 1171.78Z" fill="#2B3640"/>
<path d="M418.377 1145.82C416.839 1145.82 415.593 1144.81 415.593 1143.56C415.593 1142.31 416.839 1141.3 418.377 1141.3C419.914 1141.3 421.16 1142.31 421.16 1143.56C421.16 1144.81 419.914 1145.82 418.377 1145.82Z" fill="#2B3640"/>
<path d="M418.377 1119.86C416.839 1119.86 415.593 1118.85 415.593 1117.6C415.593 1116.35 416.839 1115.34 418.377 1115.34C419.914 1115.34 421.16 1116.35 421.16 1117.6C421.16 1118.85 419.914 1119.86 418.377 1119.86Z" fill="#2B3640"/>
<path d="M418.377 1093.89C416.839 1093.89 415.593 1092.88 415.593 1091.64C415.593 1090.39 416.839 1089.38 418.377 1089.38C419.914 1089.38 421.16 1090.39 421.16 1091.64C421.16 1092.88 419.914 1093.89 418.377 1093.89Z" fill="#2B3640"/>
<path d="M418.377 1067.93C416.839 1067.93 415.593 1066.92 415.593 1065.68C415.593 1064.43 416.839 1063.42 418.377 1063.42C419.914 1063.42 421.16 1064.43 421.16 1065.68C421.16 1066.92 419.914 1067.93 418.377 1067.93Z" fill="#2B3640"/>
<path d="M383.58 1171.78C382.042 1171.78 380.796 1170.77 380.796 1169.52C380.796 1168.27 382.042 1167.26 383.58 1167.26C385.117 1167.26 386.363 1168.27 386.363 1169.52C386.363 1170.77 385.117 1171.78 383.58 1171.78Z" fill="#2B3640"/>
<path d="M383.58 1145.82C382.042 1145.82 380.796 1144.81 380.796 1143.56C380.796 1142.31 382.042 1141.3 383.58 1141.3C385.117 1141.3 386.363 1142.31 386.363 1143.56C386.363 1144.81 385.117 1145.82 383.58 1145.82Z" fill="#2B3640"/>
<path d="M383.58 1119.86C382.042 1119.86 380.796 1118.85 380.796 1117.6C380.796 1116.35 382.042 1115.34 383.58 1115.34C385.117 1115.34 386.363 1116.35 386.363 1117.6C386.363 1118.85 385.117 1119.86 383.58 1119.86Z" fill="#2B3640"/>
<path d="M383.58 1093.89C382.042 1093.89 380.796 1092.88 380.796 1091.64C380.796 1090.39 382.042 1089.38 383.58 1089.38C385.117 1089.38 386.363 1090.39 386.363 1091.64C386.363 1092.88 385.117 1093.89 383.58 1093.89Z" fill="#2B3640"/>
<path d="M383.58 1067.93C382.042 1067.93 380.796 1066.92 380.796 1065.68C380.796 1064.43 382.042 1063.42 383.58 1063.42C385.117 1063.42 386.363 1064.43 386.363 1065.68C386.363 1066.92 385.117 1067.93 383.58 1067.93Z" fill="#2B3640"/>
<path d="M348.783 1171.78C347.245 1171.78 345.999 1170.77 345.999 1169.52C345.999 1168.27 347.245 1167.26 348.783 1167.26C350.32 1167.26 351.566 1168.27 351.566 1169.52C351.566 1170.77 350.32 1171.78 348.783 1171.78Z" fill="#2B3640"/>
<path d="M348.783 1145.82C347.245 1145.82 345.999 1144.81 345.999 1143.56C345.999 1142.31 347.245 1141.3 348.783 1141.3C350.32 1141.3 351.566 1142.31 351.566 1143.56C351.566 1144.81 350.32 1145.82 348.783 1145.82Z" fill="#2B3640"/>
<path d="M348.783 1119.86C347.245 1119.86 345.999 1118.85 345.999 1117.6C345.999 1116.35 347.245 1115.34 348.783 1115.34C350.32 1115.34 351.566 1116.35 351.566 1117.6C351.566 1118.85 350.32 1119.86 348.783 1119.86Z" fill="#2B3640"/>
<path d="M348.783 1093.89C347.245 1093.89 345.999 1092.88 345.999 1091.64C345.999 1090.39 347.245 1089.38 348.783 1089.38C350.32 1089.38 351.566 1090.39 351.566 1091.64C351.566 1092.88 350.32 1093.89 348.783 1093.89Z" fill="#2B3640"/>
<path d="M348.783 1067.93C347.245 1067.93 345.999 1066.92 345.999 1065.68C345.999 1064.43 347.245 1063.42 348.783 1063.42C350.32 1063.42 351.566 1064.43 351.566 1065.68C351.566 1066.92 350.32 1067.93 348.783 1067.93Z" fill="#2B3640"/>
<path d="M313.99 1171.78C312.452 1171.78 311.206 1170.77 311.206 1169.52C311.206 1168.27 312.452 1167.26 313.99 1167.26C315.527 1167.26 316.773 1168.27 316.773 1169.52C316.773 1170.77 315.527 1171.78 313.99 1171.78Z" fill="#2B3640"/>
<path d="M313.99 1145.82C312.452 1145.82 311.206 1144.81 311.206 1143.56C311.206 1142.31 312.452 1141.3 313.99 1141.3C315.527 1141.3 316.773 1142.31 316.773 1143.56C316.773 1144.81 315.527 1145.82 313.99 1145.82Z" fill="#2B3640"/>
<path d="M313.99 1119.86C312.452 1119.86 311.206 1118.85 311.206 1117.6C311.206 1116.35 312.452 1115.34 313.99 1115.34C315.527 1115.34 316.773 1116.35 316.773 1117.6C316.773 1118.85 315.527 1119.86 313.99 1119.86Z" fill="#2B3640"/>
<path d="M313.99 1093.89C312.452 1093.89 311.206 1092.88 311.206 1091.64C311.206 1090.39 312.452 1089.38 313.99 1089.38C315.527 1089.38 316.773 1090.39 316.773 1091.64C316.773 1092.88 315.527 1093.89 313.99 1093.89Z" fill="#2B3640"/>
<path d="M313.99 1067.93C312.452 1067.93 311.206 1066.92 311.206 1065.68C311.206 1064.43 312.452 1063.42 313.99 1063.42C315.527 1063.42 316.773 1064.43 316.773 1065.68C316.773 1066.92 315.527 1067.93 313.99 1067.93Z" fill="#2B3640"/>
<path d="M279.193 1171.78C277.656 1171.78 276.409 1170.77 276.409 1169.52C276.409 1168.27 277.656 1167.26 279.193 1167.26C280.73 1167.26 281.977 1168.27 281.977 1169.52C281.977 1170.77 280.73 1171.78 279.193 1171.78Z" fill="#2B3640"/>
<path d="M279.193 1145.82C277.656 1145.82 276.409 1144.81 276.409 1143.56C276.409 1142.31 277.656 1141.3 279.193 1141.3C280.73 1141.3 281.977 1142.31 281.977 1143.56C281.977 1144.81 280.73 1145.82 279.193 1145.82Z" fill="#2B3640"/>
<path d="M279.193 1119.86C277.656 1119.86 276.409 1118.85 276.409 1117.6C276.409 1116.35 277.656 1115.34 279.193 1115.34C280.73 1115.34 281.977 1116.35 281.977 1117.6C281.977 1118.85 280.73 1119.86 279.193 1119.86Z" fill="#2B3640"/>
<path d="M279.193 1093.89C277.656 1093.89 276.409 1092.88 276.409 1091.64C276.409 1090.39 277.656 1089.38 279.193 1089.38C280.73 1089.38 281.977 1090.39 281.977 1091.64C281.977 1092.88 280.73 1093.89 279.193 1093.89Z" fill="#2B3640"/>
<path d="M279.193 1067.93C277.656 1067.93 276.409 1066.92 276.409 1065.68C276.409 1064.43 277.656 1063.42 279.193 1063.42C280.73 1063.42 281.977 1064.43 281.977 1065.68C281.977 1066.92 280.73 1067.93 279.193 1067.93Z" fill="#2B3640"/>
<path d="M244.4 1171.78C242.863 1171.78 241.616 1170.77 241.616 1169.52C241.616 1168.27 242.863 1167.26 244.4 1167.26C245.937 1167.26 247.184 1168.27 247.184 1169.52C247.184 1170.77 245.937 1171.78 244.4 1171.78Z" fill="#2B3640"/>
<path d="M244.4 1145.82C242.863 1145.82 241.616 1144.81 241.616 1143.56C241.616 1142.31 242.863 1141.3 244.4 1141.3C245.937 1141.3 247.184 1142.31 247.184 1143.56C247.184 1144.81 245.937 1145.82 244.4 1145.82Z" fill="#2B3640"/>
<path d="M244.4 1119.86C242.863 1119.86 241.616 1118.85 241.616 1117.6C241.616 1116.35 242.863 1115.34 244.4 1115.34C245.937 1115.34 247.184 1116.35 247.184 1117.6C247.184 1118.85 245.937 1119.86 244.4 1119.86Z" fill="#2B3640"/>
<path d="M244.4 1093.89C242.863 1093.89 241.616 1092.88 241.616 1091.64C241.616 1090.39 242.863 1089.38 244.4 1089.38C245.937 1089.38 247.184 1090.39 247.184 1091.64C247.184 1092.88 245.937 1093.89 244.4 1093.89Z" fill="#2B3640"/>
<path d="M244.4 1067.93C242.863 1067.93 241.616 1066.92 241.616 1065.68C241.616 1064.43 242.863 1063.42 244.4 1063.42C245.937 1063.42 247.184 1064.43 247.184 1065.68C247.184 1066.92 245.937 1067.93 244.4 1067.93Z" fill="#2B3640"/>
<path d="M209.603 1171.78C208.066 1171.78 206.819 1170.77 206.819 1169.52C206.819 1168.27 208.066 1167.26 209.603 1167.26C211.14 1167.26 212.387 1168.27 212.387 1169.52C212.387 1170.77 211.14 1171.78 209.603 1171.78Z" fill="#2B3640"/>
<path d="M209.603 1145.82C208.066 1145.82 206.819 1144.81 206.819 1143.56C206.819 1142.31 208.066 1141.3 209.603 1141.3C211.14 1141.3 212.387 1142.31 212.387 1143.56C212.387 1144.81 211.14 1145.82 209.603 1145.82Z" fill="#2B3640"/>
<path d="M209.603 1119.86C208.066 1119.86 206.819 1118.85 206.819 1117.6C206.819 1116.35 208.066 1115.34 209.603 1115.34C211.14 1115.34 212.387 1116.35 212.387 1117.6C212.387 1118.85 211.14 1119.86 209.603 1119.86Z" fill="#2B3640"/>
<path d="M209.603 1093.89C208.066 1093.89 206.819 1092.88 206.819 1091.64C206.819 1090.39 208.066 1089.38 209.603 1089.38C211.14 1089.38 212.387 1090.39 212.387 1091.64C212.387 1092.88 211.14 1093.89 209.603 1093.89Z" fill="#2B3640"/>
<path d="M209.603 1067.93C208.066 1067.93 206.819 1066.92 206.819 1065.68C206.819 1064.43 208.066 1063.42 209.603 1063.42C211.14 1063.42 212.387 1064.43 212.387 1065.68C212.387 1066.92 211.14 1067.93 209.603 1067.93Z" fill="#2B3640"/>
</g>
</g>
</g>
<defs>
<clipPath id="clip0_2018_9874">
<rect width="1920" height="3391" fill="white"/>
</clipPath>
</defs>
</svg>
