<svg width="1920" height="3368" viewBox="0 0 1920 3368" fill="none" xmlns="http://www.w3.org/2000/svg">
<g clip-path="url(#clip0_2018_10659)">
<rect width="1920" height="3368" fill="white"/>
<rect y="1913" width="1920" height="750" fill="white"/>
<rect y="618" width="1920" height="1295" fill="white"/>
<rect width="1920" height="618" fill="white"/>
<mask id="mask0_2018_10659" style="mask-type:luminance" maskUnits="userSpaceOnUse" x="45" y="77" width="1388" height="931">
<path d="M1433 77H45V1007.45H1433V77Z" fill="white"/>
</mask>
<g mask="url(#mask0_2018_10659)">
<path d="M280.962 532.922C282.239 532.922 283.275 531.88 283.275 530.596C283.275 529.311 282.239 528.27 280.962 528.27C279.684 528.27 278.648 529.311 278.648 530.596C278.648 531.88 279.684 532.922 280.962 532.922Z" fill="#737373"/>
<path d="M254.36 532.922C255.638 532.922 256.674 531.88 256.674 530.596C256.674 529.311 255.638 528.27 254.36 528.27C253.083 528.27 252.047 529.311 252.047 530.596C252.047 531.88 253.083 532.922 254.36 532.922Z" fill="#737373"/>
<path d="M227.751 532.922C229.028 532.922 230.064 531.88 230.064 530.596C230.064 529.311 229.028 528.27 227.751 528.27C226.473 528.27 225.438 529.311 225.438 530.596C225.438 531.88 226.473 532.922 227.751 532.922Z" fill="#737373"/>
<path d="M201.149 532.922C202.427 532.922 203.463 531.88 203.463 530.596C203.463 529.311 202.427 528.27 201.149 528.27C199.872 528.27 198.836 529.311 198.836 530.596C198.836 531.88 199.872 532.922 201.149 532.922Z" fill="#737373"/>
<path d="M174.548 532.922C175.825 532.922 176.861 531.88 176.861 530.596C176.861 529.311 175.825 528.27 174.548 528.27C173.27 528.27 172.234 529.311 172.234 530.596C172.234 531.88 173.27 532.922 174.548 532.922Z" fill="#737373"/>
<path d="M280.962 503.845C282.239 503.845 283.275 502.804 283.275 501.519C283.275 500.234 282.239 499.193 280.962 499.193C279.684 499.193 278.648 500.234 278.648 501.519C278.648 502.804 279.684 503.845 280.962 503.845Z" fill="#737373"/>
<path d="M254.36 503.845C255.638 503.845 256.674 502.804 256.674 501.519C256.674 500.234 255.638 499.193 254.36 499.193C253.083 499.193 252.047 500.234 252.047 501.519C252.047 502.804 253.083 503.845 254.36 503.845Z" fill="#737373"/>
<path d="M227.751 503.845C229.028 503.845 230.064 502.804 230.064 501.519C230.064 500.234 229.028 499.193 227.751 499.193C226.473 499.193 225.438 500.234 225.438 501.519C225.438 502.804 226.473 503.845 227.751 503.845Z" fill="#737373"/>
<path d="M201.149 503.845C202.427 503.845 203.463 502.804 203.463 501.519C203.463 500.234 202.427 499.193 201.149 499.193C199.872 499.193 198.836 500.234 198.836 501.519C198.836 502.804 199.872 503.845 201.149 503.845Z" fill="#737373"/>
<path d="M174.548 503.845C175.825 503.845 176.861 502.804 176.861 501.519C176.861 500.234 175.825 499.193 174.548 499.193C173.27 499.193 172.234 500.234 172.234 501.519C172.234 502.804 173.27 503.845 174.548 503.845Z" fill="#737373"/>
<path d="M280.962 474.768C282.239 474.768 283.275 473.727 283.275 472.442C283.275 471.158 282.239 470.116 280.962 470.116C279.684 470.116 278.648 471.158 278.648 472.442C278.648 473.727 279.684 474.768 280.962 474.768Z" fill="#737373"/>
<path d="M254.36 474.768C255.638 474.768 256.674 473.727 256.674 472.442C256.674 471.158 255.638 470.116 254.36 470.116C253.083 470.116 252.047 471.158 252.047 472.442C252.047 473.727 253.083 474.768 254.36 474.768Z" fill="#737373"/>
<path d="M227.751 474.768C229.028 474.768 230.064 473.727 230.064 472.442C230.064 471.158 229.028 470.116 227.751 470.116C226.473 470.116 225.438 471.158 225.438 472.442C225.438 473.727 226.473 474.768 227.751 474.768Z" fill="#737373"/>
<path d="M201.149 474.768C202.427 474.768 203.463 473.727 203.463 472.442C203.463 471.158 202.427 470.116 201.149 470.116C199.872 470.116 198.836 471.158 198.836 472.442C198.836 473.727 199.872 474.768 201.149 474.768Z" fill="#737373"/>
<path d="M174.548 474.768C175.825 474.768 176.861 473.727 176.861 472.442C176.861 471.158 175.825 470.116 174.548 470.116C173.27 470.116 172.234 471.158 172.234 472.442C172.234 473.727 173.27 474.768 174.548 474.768Z" fill="#737373"/>
<path d="M280.962 445.692C282.239 445.692 283.275 444.65 283.275 443.366C283.275 442.081 282.239 441.04 280.962 441.04C279.684 441.04 278.648 442.081 278.648 443.366C278.648 444.65 279.684 445.692 280.962 445.692Z" fill="#737373"/>
<path d="M254.36 445.692C255.638 445.692 256.674 444.65 256.674 443.366C256.674 442.081 255.638 441.04 254.36 441.04C253.083 441.04 252.047 442.081 252.047 443.366C252.047 444.65 253.083 445.692 254.36 445.692Z" fill="#737373"/>
<path d="M227.751 445.692C229.028 445.692 230.064 444.65 230.064 443.366C230.064 442.081 229.028 441.04 227.751 441.04C226.473 441.04 225.438 442.081 225.438 443.366C225.438 444.65 226.473 445.692 227.751 445.692Z" fill="#737373"/>
<path d="M201.149 445.692C202.427 445.692 203.463 444.65 203.463 443.366C203.463 442.081 202.427 441.04 201.149 441.04C199.872 441.04 198.836 442.081 198.836 443.366C198.836 444.65 199.872 445.692 201.149 445.692Z" fill="#737373"/>
<path d="M174.548 445.692C175.825 445.692 176.861 444.65 176.861 443.366C176.861 442.081 175.825 441.04 174.548 441.04C173.27 441.04 172.234 442.081 172.234 443.366C172.234 444.65 173.27 445.692 174.548 445.692Z" fill="#737373"/>
<path d="M280.962 416.615C282.239 416.615 283.275 415.574 283.275 414.289C283.275 413.004 282.239 411.963 280.962 411.963C279.684 411.963 278.648 413.004 278.648 414.289C278.648 415.574 279.684 416.615 280.962 416.615Z" fill="#737373"/>
<path d="M254.36 416.615C255.638 416.615 256.674 415.574 256.674 414.289C256.674 413.004 255.638 411.963 254.36 411.963C253.083 411.963 252.047 413.004 252.047 414.289C252.047 415.574 253.083 416.615 254.36 416.615Z" fill="#737373"/>
<path d="M227.751 416.615C229.028 416.615 230.064 415.574 230.064 414.289C230.064 413.004 229.028 411.963 227.751 411.963C226.473 411.963 225.438 413.004 225.438 414.289C225.438 415.574 226.473 416.615 227.751 416.615Z" fill="#737373"/>
<path d="M201.149 416.615C202.427 416.615 203.463 415.574 203.463 414.289C203.463 413.004 202.427 411.963 201.149 411.963C199.872 411.963 198.836 413.004 198.836 414.289C198.836 415.574 199.872 416.615 201.149 416.615Z" fill="#737373"/>
<path d="M174.548 416.615C175.825 416.615 176.861 415.574 176.861 414.289C176.861 413.004 175.825 411.963 174.548 411.963C173.27 411.963 172.234 413.004 172.234 414.289C172.234 415.574 173.27 416.615 174.548 416.615Z" fill="#737373"/>
<path d="M280.962 387.538C282.239 387.538 283.275 386.497 283.275 385.212C283.275 383.928 282.239 382.886 280.962 382.886C279.684 382.886 278.648 383.928 278.648 385.212C278.648 386.497 279.684 387.538 280.962 387.538Z" fill="#737373"/>
<path d="M254.36 387.538C255.638 387.538 256.674 386.497 256.674 385.212C256.674 383.928 255.638 382.886 254.36 382.886C253.083 382.886 252.047 383.928 252.047 385.212C252.047 386.497 253.083 387.538 254.36 387.538Z" fill="#737373"/>
<path d="M227.751 387.538C229.028 387.538 230.064 386.497 230.064 385.212C230.064 383.928 229.028 382.886 227.751 382.886C226.473 382.886 225.438 383.928 225.438 385.212C225.438 386.497 226.473 387.538 227.751 387.538Z" fill="#737373"/>
<path d="M201.149 387.538C202.427 387.538 203.463 386.497 203.463 385.212C203.463 383.928 202.427 382.886 201.149 382.886C199.872 382.886 198.836 383.928 198.836 385.212C198.836 386.497 199.872 387.538 201.149 387.538Z" fill="#737373"/>
<path d="M174.548 387.538C175.825 387.538 176.861 386.497 176.861 385.212C176.861 383.928 175.825 382.886 174.548 382.886C173.27 382.886 172.234 383.928 172.234 385.212C172.234 386.497 173.27 387.538 174.548 387.538Z" fill="#737373"/>
<path d="M280.962 358.462C282.239 358.462 283.275 357.42 283.275 356.136C283.275 354.851 282.239 353.81 280.962 353.81C279.684 353.81 278.648 354.851 278.648 356.136C278.648 357.42 279.684 358.462 280.962 358.462Z" fill="#737373"/>
<path d="M254.36 358.462C255.638 358.462 256.674 357.42 256.674 356.136C256.674 354.851 255.638 353.81 254.36 353.81C253.083 353.81 252.047 354.851 252.047 356.136C252.047 357.42 253.083 358.462 254.36 358.462Z" fill="#737373"/>
<path d="M227.751 358.462C229.028 358.462 230.064 357.42 230.064 356.136C230.064 354.851 229.028 353.81 227.751 353.81C226.473 353.81 225.438 354.851 225.438 356.136C225.438 357.42 226.473 358.462 227.751 358.462Z" fill="#737373"/>
<path d="M201.149 358.462C202.427 358.462 203.463 357.42 203.463 356.136C203.463 354.851 202.427 353.81 201.149 353.81C199.872 353.81 198.836 354.851 198.836 356.136C198.836 357.42 199.872 358.462 201.149 358.462Z" fill="#737373"/>
<path d="M174.548 358.462C175.825 358.462 176.861 357.42 176.861 356.136C176.861 354.851 175.825 353.81 174.548 353.81C173.27 353.81 172.234 354.851 172.234 356.136C172.234 357.42 173.27 358.462 174.548 358.462Z" fill="#737373"/>
<path d="M280.962 329.385C282.239 329.385 283.275 328.344 283.275 327.059C283.275 325.774 282.239 324.733 280.962 324.733C279.684 324.733 278.648 325.774 278.648 327.059C278.648 328.344 279.684 329.385 280.962 329.385Z" fill="#737373"/>
<path d="M254.36 329.385C255.638 329.385 256.674 328.344 256.674 327.059C256.674 325.774 255.638 324.733 254.36 324.733C253.083 324.733 252.047 325.774 252.047 327.059C252.047 328.344 253.083 329.385 254.36 329.385Z" fill="#737373"/>
<path d="M227.751 329.385C229.028 329.385 230.064 328.344 230.064 327.059C230.064 325.774 229.028 324.733 227.751 324.733C226.473 324.733 225.438 325.774 225.438 327.059C225.438 328.344 226.473 329.385 227.751 329.385Z" fill="#737373"/>
<path d="M201.149 329.385C202.427 329.385 203.463 328.344 203.463 327.059C203.463 325.774 202.427 324.733 201.149 324.733C199.872 324.733 198.836 325.774 198.836 327.059C198.836 328.344 199.872 329.385 201.149 329.385Z" fill="#737373"/>
<path d="M174.548 329.385C175.825 329.385 176.861 328.344 176.861 327.059C176.861 325.774 175.825 324.733 174.548 324.733C173.27 324.733 172.234 325.774 172.234 327.059C172.234 328.344 173.27 329.385 174.548 329.385Z" fill="#737373"/>
<path d="M280.962 300.309C282.239 300.309 283.275 299.267 283.275 297.982C283.275 296.698 282.239 295.656 280.962 295.656C279.684 295.656 278.648 296.698 278.648 297.982C278.648 299.267 279.684 300.309 280.962 300.309Z" fill="#737373"/>
<path d="M254.36 300.309C255.638 300.309 256.674 299.267 256.674 297.982C256.674 296.698 255.638 295.656 254.36 295.656C253.083 295.656 252.047 296.698 252.047 297.982C252.047 299.267 253.083 300.309 254.36 300.309Z" fill="#737373"/>
<path d="M227.751 300.309C229.028 300.309 230.064 299.267 230.064 297.982C230.064 296.698 229.028 295.656 227.751 295.656C226.473 295.656 225.438 296.698 225.438 297.982C225.438 299.267 226.473 300.309 227.751 300.309Z" fill="#737373"/>
<path d="M201.149 300.309C202.427 300.309 203.463 299.267 203.463 297.982C203.463 296.698 202.427 295.656 201.149 295.656C199.872 295.656 198.836 296.698 198.836 297.982C198.836 299.267 199.872 300.309 201.149 300.309Z" fill="#737373"/>
<path d="M174.548 300.309C175.825 300.309 176.861 299.267 176.861 297.982C176.861 296.698 175.825 295.656 174.548 295.656C173.27 295.656 172.234 296.698 172.234 297.982C172.234 299.267 173.27 300.309 174.548 300.309Z" fill="#737373"/>
<path d="M280.962 271.232C282.239 271.232 283.275 270.19 283.275 268.906C283.275 267.621 282.239 266.58 280.962 266.58C279.684 266.58 278.648 267.621 278.648 268.906C278.648 270.19 279.684 271.232 280.962 271.232Z" fill="#737373"/>
<path d="M254.36 271.232C255.638 271.232 256.674 270.19 256.674 268.906C256.674 267.621 255.638 266.58 254.36 266.58C253.083 266.58 252.047 267.621 252.047 268.906C252.047 270.19 253.083 271.232 254.36 271.232Z" fill="#737373"/>
<path d="M227.751 271.232C229.028 271.232 230.064 270.19 230.064 268.906C230.064 267.621 229.028 266.58 227.751 266.58C226.473 266.58 225.438 267.621 225.438 268.906C225.438 270.19 226.473 271.232 227.751 271.232Z" fill="#737373"/>
<path d="M201.149 271.232C202.427 271.232 203.463 270.19 203.463 268.906C203.463 267.621 202.427 266.58 201.149 266.58C199.872 266.58 198.836 267.621 198.836 268.906C198.836 270.19 199.872 271.232 201.149 271.232Z" fill="#737373"/>
<path d="M174.548 271.232C175.825 271.232 176.861 270.19 176.861 268.906C176.861 267.621 175.825 266.58 174.548 266.58C173.27 266.58 172.234 267.621 172.234 268.906C172.234 270.19 173.27 271.232 174.548 271.232Z" fill="#737373"/>
<path d="M280.962 242.155C282.239 242.155 283.275 241.114 283.275 239.829C283.275 238.544 282.239 237.503 280.962 237.503C279.684 237.503 278.648 238.544 278.648 239.829C278.648 241.114 279.684 242.155 280.962 242.155Z" fill="#737373"/>
<path d="M254.36 242.155C255.638 242.155 256.674 241.114 256.674 239.829C256.674 238.544 255.638 237.503 254.36 237.503C253.083 237.503 252.047 238.544 252.047 239.829C252.047 241.114 253.083 242.155 254.36 242.155Z" fill="#737373"/>
<path d="M227.751 242.155C229.028 242.155 230.064 241.114 230.064 239.829C230.064 238.544 229.028 237.503 227.751 237.503C226.473 237.503 225.438 238.544 225.438 239.829C225.438 241.114 226.473 242.155 227.751 242.155Z" fill="#737373"/>
<path d="M201.149 242.155C202.427 242.155 203.463 241.114 203.463 239.829C203.463 238.544 202.427 237.503 201.149 237.503C199.872 237.503 198.836 238.544 198.836 239.829C198.836 241.114 199.872 242.155 201.149 242.155Z" fill="#737373"/>
<path d="M174.548 242.155C175.825 242.155 176.861 241.114 176.861 239.829C176.861 238.544 175.825 237.503 174.548 237.503C173.27 237.503 172.234 238.544 172.234 239.829C172.234 241.114 173.27 242.155 174.548 242.155Z" fill="#737373"/>
</g>
<mask id="mask1_2018_10659" style="mask-type:luminance" maskUnits="userSpaceOnUse" x="554" y="1314" width="1388" height="931">
<path d="M554 1314H1942V2244.45H554V1314Z" fill="white"/>
</mask>
<g mask="url(#mask1_2018_10659)">
<path d="M1706.04 1769.92C1704.76 1769.92 1703.72 1768.88 1703.72 1767.6C1703.72 1766.31 1704.76 1765.27 1706.04 1765.27C1707.32 1765.27 1708.35 1766.31 1708.35 1767.6C1708.35 1768.88 1707.32 1769.92 1706.04 1769.92Z" fill="#737373"/>
<path d="M1732.64 1769.92C1731.36 1769.92 1730.33 1768.88 1730.33 1767.6C1730.33 1766.31 1731.36 1765.27 1732.64 1765.27C1733.92 1765.27 1734.95 1766.31 1734.95 1767.6C1734.95 1768.88 1733.92 1769.92 1732.64 1769.92Z" fill="#737373"/>
<path d="M1759.25 1769.92C1757.97 1769.92 1756.94 1768.88 1756.94 1767.6C1756.94 1766.31 1757.97 1765.27 1759.25 1765.27C1760.53 1765.27 1761.56 1766.31 1761.56 1767.6C1761.56 1768.88 1760.53 1769.92 1759.25 1769.92Z" fill="#737373"/>
<path d="M1785.85 1769.92C1784.57 1769.92 1783.54 1768.88 1783.54 1767.6C1783.54 1766.31 1784.57 1765.27 1785.85 1765.27C1787.13 1765.27 1788.16 1766.31 1788.16 1767.6C1788.16 1768.88 1787.13 1769.92 1785.85 1769.92Z" fill="#737373"/>
<path d="M1812.45 1769.92C1811.17 1769.92 1810.14 1768.88 1810.14 1767.6C1810.14 1766.31 1811.17 1765.27 1812.45 1765.27C1813.73 1765.27 1814.77 1766.31 1814.77 1767.6C1814.77 1768.88 1813.73 1769.92 1812.45 1769.92Z" fill="#737373"/>
<path d="M1706.04 1740.85C1704.76 1740.85 1703.72 1739.8 1703.72 1738.52C1703.72 1737.23 1704.76 1736.19 1706.04 1736.19C1707.32 1736.19 1708.35 1737.23 1708.35 1738.52C1708.35 1739.8 1707.32 1740.85 1706.04 1740.85Z" fill="#737373"/>
<path d="M1732.64 1740.85C1731.36 1740.85 1730.33 1739.8 1730.33 1738.52C1730.33 1737.23 1731.36 1736.19 1732.64 1736.19C1733.92 1736.19 1734.95 1737.23 1734.95 1738.52C1734.95 1739.8 1733.92 1740.85 1732.64 1740.85Z" fill="#737373"/>
<path d="M1759.25 1740.85C1757.97 1740.85 1756.94 1739.8 1756.94 1738.52C1756.94 1737.23 1757.97 1736.19 1759.25 1736.19C1760.53 1736.19 1761.56 1737.23 1761.56 1738.52C1761.56 1739.8 1760.53 1740.85 1759.25 1740.85Z" fill="#737373"/>
<path d="M1785.85 1740.85C1784.57 1740.85 1783.54 1739.8 1783.54 1738.52C1783.54 1737.23 1784.57 1736.19 1785.85 1736.19C1787.13 1736.19 1788.16 1737.23 1788.16 1738.52C1788.16 1739.8 1787.13 1740.85 1785.85 1740.85Z" fill="#737373"/>
<path d="M1812.45 1740.85C1811.17 1740.85 1810.14 1739.8 1810.14 1738.52C1810.14 1737.23 1811.17 1736.19 1812.45 1736.19C1813.73 1736.19 1814.77 1737.23 1814.77 1738.52C1814.77 1739.8 1813.73 1740.85 1812.45 1740.85Z" fill="#737373"/>
<path d="M1706.04 1711.77C1704.76 1711.77 1703.72 1710.73 1703.72 1709.44C1703.72 1708.16 1704.76 1707.12 1706.04 1707.12C1707.32 1707.12 1708.35 1708.16 1708.35 1709.44C1708.35 1710.73 1707.32 1711.77 1706.04 1711.77Z" fill="#737373"/>
<path d="M1732.64 1711.77C1731.36 1711.77 1730.33 1710.73 1730.33 1709.44C1730.33 1708.16 1731.36 1707.12 1732.64 1707.12C1733.92 1707.12 1734.95 1708.16 1734.95 1709.44C1734.95 1710.73 1733.92 1711.77 1732.64 1711.77Z" fill="#737373"/>
<path d="M1759.25 1711.77C1757.97 1711.77 1756.94 1710.73 1756.94 1709.44C1756.94 1708.16 1757.97 1707.12 1759.25 1707.12C1760.53 1707.12 1761.56 1708.16 1761.56 1709.44C1761.56 1710.73 1760.53 1711.77 1759.25 1711.77Z" fill="#737373"/>
<path d="M1785.85 1711.77C1784.57 1711.77 1783.54 1710.73 1783.54 1709.44C1783.54 1708.16 1784.57 1707.12 1785.85 1707.12C1787.13 1707.12 1788.16 1708.16 1788.16 1709.44C1788.16 1710.73 1787.13 1711.77 1785.85 1711.77Z" fill="#737373"/>
<path d="M1812.45 1711.77C1811.17 1711.77 1810.14 1710.73 1810.14 1709.44C1810.14 1708.16 1811.17 1707.12 1812.45 1707.12C1813.73 1707.12 1814.77 1708.16 1814.77 1709.44C1814.77 1710.73 1813.73 1711.77 1812.45 1711.77Z" fill="#737373"/>
<path d="M1706.04 1682.69C1704.76 1682.69 1703.72 1681.65 1703.72 1680.37C1703.72 1679.08 1704.76 1678.04 1706.04 1678.04C1707.32 1678.04 1708.35 1679.08 1708.35 1680.37C1708.35 1681.65 1707.32 1682.69 1706.04 1682.69Z" fill="#737373"/>
<path d="M1732.64 1682.69C1731.36 1682.69 1730.33 1681.65 1730.33 1680.37C1730.33 1679.08 1731.36 1678.04 1732.64 1678.04C1733.92 1678.04 1734.95 1679.08 1734.95 1680.37C1734.95 1681.65 1733.92 1682.69 1732.64 1682.69Z" fill="#737373"/>
<path d="M1759.25 1682.69C1757.97 1682.69 1756.94 1681.65 1756.94 1680.37C1756.94 1679.08 1757.97 1678.04 1759.25 1678.04C1760.53 1678.04 1761.56 1679.08 1761.56 1680.37C1761.56 1681.65 1760.53 1682.69 1759.25 1682.69Z" fill="#737373"/>
<path d="M1785.85 1682.69C1784.57 1682.69 1783.54 1681.65 1783.54 1680.37C1783.54 1679.08 1784.57 1678.04 1785.85 1678.04C1787.13 1678.04 1788.16 1679.08 1788.16 1680.37C1788.16 1681.65 1787.13 1682.69 1785.85 1682.69Z" fill="#737373"/>
<path d="M1812.45 1682.69C1811.17 1682.69 1810.14 1681.65 1810.14 1680.37C1810.14 1679.08 1811.17 1678.04 1812.45 1678.04C1813.73 1678.04 1814.77 1679.08 1814.77 1680.37C1814.77 1681.65 1813.73 1682.69 1812.45 1682.69Z" fill="#737373"/>
<path d="M1706.04 1653.62C1704.76 1653.62 1703.72 1652.57 1703.72 1651.29C1703.72 1650 1704.76 1648.96 1706.04 1648.96C1707.32 1648.96 1708.35 1650 1708.35 1651.29C1708.35 1652.57 1707.32 1653.62 1706.04 1653.62Z" fill="#737373"/>
<path d="M1732.64 1653.62C1731.36 1653.62 1730.33 1652.57 1730.33 1651.29C1730.33 1650 1731.36 1648.96 1732.64 1648.96C1733.92 1648.96 1734.95 1650 1734.95 1651.29C1734.95 1652.57 1733.92 1653.62 1732.64 1653.62Z" fill="#737373"/>
<path d="M1759.25 1653.62C1757.97 1653.62 1756.94 1652.57 1756.94 1651.29C1756.94 1650 1757.97 1648.96 1759.25 1648.96C1760.53 1648.96 1761.56 1650 1761.56 1651.29C1761.56 1652.57 1760.53 1653.62 1759.25 1653.62Z" fill="#737373"/>
<path d="M1785.85 1653.62C1784.57 1653.62 1783.54 1652.57 1783.54 1651.29C1783.54 1650 1784.57 1648.96 1785.85 1648.96C1787.13 1648.96 1788.16 1650 1788.16 1651.29C1788.16 1652.57 1787.13 1653.62 1785.85 1653.62Z" fill="#737373"/>
<path d="M1812.45 1653.62C1811.17 1653.62 1810.14 1652.57 1810.14 1651.29C1810.14 1650 1811.17 1648.96 1812.45 1648.96C1813.73 1648.96 1814.77 1650 1814.77 1651.29C1814.77 1652.57 1813.73 1653.62 1812.45 1653.62Z" fill="#737373"/>
<path d="M1706.04 1624.54C1704.76 1624.54 1703.72 1623.5 1703.72 1622.21C1703.72 1620.93 1704.76 1619.89 1706.04 1619.89C1707.32 1619.89 1708.35 1620.93 1708.35 1622.21C1708.35 1623.5 1707.32 1624.54 1706.04 1624.54Z" fill="#737373"/>
<path d="M1732.64 1624.54C1731.36 1624.54 1730.33 1623.5 1730.33 1622.21C1730.33 1620.93 1731.36 1619.89 1732.64 1619.89C1733.92 1619.89 1734.95 1620.93 1734.95 1622.21C1734.95 1623.5 1733.92 1624.54 1732.64 1624.54Z" fill="#737373"/>
<path d="M1759.25 1624.54C1757.97 1624.54 1756.94 1623.5 1756.94 1622.21C1756.94 1620.93 1757.97 1619.89 1759.25 1619.89C1760.53 1619.89 1761.56 1620.93 1761.56 1622.21C1761.56 1623.5 1760.53 1624.54 1759.25 1624.54Z" fill="#737373"/>
<path d="M1785.85 1624.54C1784.57 1624.54 1783.54 1623.5 1783.54 1622.21C1783.54 1620.93 1784.57 1619.89 1785.85 1619.89C1787.13 1619.89 1788.16 1620.93 1788.16 1622.21C1788.16 1623.5 1787.13 1624.54 1785.85 1624.54Z" fill="#737373"/>
<path d="M1812.45 1624.54C1811.17 1624.54 1810.14 1623.5 1810.14 1622.21C1810.14 1620.93 1811.17 1619.89 1812.45 1619.89C1813.73 1619.89 1814.77 1620.93 1814.77 1622.21C1814.77 1623.5 1813.73 1624.54 1812.45 1624.54Z" fill="#737373"/>
<path d="M1706.04 1595.46C1704.76 1595.46 1703.72 1594.42 1703.72 1593.14C1703.72 1591.85 1704.76 1590.81 1706.04 1590.81C1707.32 1590.81 1708.35 1591.85 1708.35 1593.14C1708.35 1594.42 1707.32 1595.46 1706.04 1595.46Z" fill="#737373"/>
<path d="M1732.64 1595.46C1731.36 1595.46 1730.33 1594.42 1730.33 1593.14C1730.33 1591.85 1731.36 1590.81 1732.64 1590.81C1733.92 1590.81 1734.95 1591.85 1734.95 1593.14C1734.95 1594.42 1733.92 1595.46 1732.64 1595.46Z" fill="#737373"/>
<path d="M1759.25 1595.46C1757.97 1595.46 1756.94 1594.42 1756.94 1593.14C1756.94 1591.85 1757.97 1590.81 1759.25 1590.81C1760.53 1590.81 1761.56 1591.85 1761.56 1593.14C1761.56 1594.42 1760.53 1595.46 1759.25 1595.46Z" fill="#737373"/>
<path d="M1785.85 1595.46C1784.57 1595.46 1783.54 1594.42 1783.54 1593.14C1783.54 1591.85 1784.57 1590.81 1785.85 1590.81C1787.13 1590.81 1788.16 1591.85 1788.16 1593.14C1788.16 1594.42 1787.13 1595.46 1785.85 1595.46Z" fill="#737373"/>
<path d="M1812.45 1595.46C1811.17 1595.46 1810.14 1594.42 1810.14 1593.14C1810.14 1591.85 1811.17 1590.81 1812.45 1590.81C1813.73 1590.81 1814.77 1591.85 1814.77 1593.14C1814.77 1594.42 1813.73 1595.46 1812.45 1595.46Z" fill="#737373"/>
<path d="M1706.04 1566.39C1704.76 1566.39 1703.72 1565.34 1703.72 1564.06C1703.72 1562.77 1704.76 1561.73 1706.04 1561.73C1707.32 1561.73 1708.35 1562.77 1708.35 1564.06C1708.35 1565.34 1707.32 1566.39 1706.04 1566.39Z" fill="#737373"/>
<path d="M1732.64 1566.39C1731.36 1566.39 1730.33 1565.34 1730.33 1564.06C1730.33 1562.77 1731.36 1561.73 1732.64 1561.73C1733.92 1561.73 1734.95 1562.77 1734.95 1564.06C1734.95 1565.34 1733.92 1566.39 1732.64 1566.39Z" fill="#737373"/>
<path d="M1759.25 1566.39C1757.97 1566.39 1756.94 1565.34 1756.94 1564.06C1756.94 1562.77 1757.97 1561.73 1759.25 1561.73C1760.53 1561.73 1761.56 1562.77 1761.56 1564.06C1761.56 1565.34 1760.53 1566.39 1759.25 1566.39Z" fill="#737373"/>
<path d="M1785.85 1566.39C1784.57 1566.39 1783.54 1565.34 1783.54 1564.06C1783.54 1562.77 1784.57 1561.73 1785.85 1561.73C1787.13 1561.73 1788.16 1562.77 1788.16 1564.06C1788.16 1565.34 1787.13 1566.39 1785.85 1566.39Z" fill="#737373"/>
<path d="M1812.45 1566.39C1811.17 1566.39 1810.14 1565.34 1810.14 1564.06C1810.14 1562.77 1811.17 1561.73 1812.45 1561.73C1813.73 1561.73 1814.77 1562.77 1814.77 1564.06C1814.77 1565.34 1813.73 1566.39 1812.45 1566.39Z" fill="#737373"/>
<path d="M1706.04 1537.31C1704.76 1537.31 1703.72 1536.27 1703.72 1534.98C1703.72 1533.7 1704.76 1532.66 1706.04 1532.66C1707.32 1532.66 1708.35 1533.7 1708.35 1534.98C1708.35 1536.27 1707.32 1537.31 1706.04 1537.31Z" fill="#737373"/>
<path d="M1732.64 1537.31C1731.36 1537.31 1730.33 1536.27 1730.33 1534.98C1730.33 1533.7 1731.36 1532.66 1732.64 1532.66C1733.92 1532.66 1734.95 1533.7 1734.95 1534.98C1734.95 1536.27 1733.92 1537.31 1732.64 1537.31Z" fill="#737373"/>
<path d="M1759.25 1537.31C1757.97 1537.31 1756.94 1536.27 1756.94 1534.98C1756.94 1533.7 1757.97 1532.66 1759.25 1532.66C1760.53 1532.66 1761.56 1533.7 1761.56 1534.98C1761.56 1536.27 1760.53 1537.31 1759.25 1537.31Z" fill="#737373"/>
<path d="M1785.85 1537.31C1784.57 1537.31 1783.54 1536.27 1783.54 1534.98C1783.54 1533.7 1784.57 1532.66 1785.85 1532.66C1787.13 1532.66 1788.16 1533.7 1788.16 1534.98C1788.16 1536.27 1787.13 1537.31 1785.85 1537.31Z" fill="#737373"/>
<path d="M1812.45 1537.31C1811.17 1537.31 1810.14 1536.27 1810.14 1534.98C1810.14 1533.7 1811.17 1532.66 1812.45 1532.66C1813.73 1532.66 1814.77 1533.7 1814.77 1534.98C1814.77 1536.27 1813.73 1537.31 1812.45 1537.31Z" fill="#737373"/>
<path d="M1706.04 1508.23C1704.76 1508.23 1703.72 1507.19 1703.72 1505.91C1703.72 1504.62 1704.76 1503.58 1706.04 1503.58C1707.32 1503.58 1708.35 1504.62 1708.35 1505.91C1708.35 1507.19 1707.32 1508.23 1706.04 1508.23Z" fill="#737373"/>
<path d="M1732.64 1508.23C1731.36 1508.23 1730.33 1507.19 1730.33 1505.91C1730.33 1504.62 1731.36 1503.58 1732.64 1503.58C1733.92 1503.58 1734.95 1504.62 1734.95 1505.91C1734.95 1507.19 1733.92 1508.23 1732.64 1508.23Z" fill="#737373"/>
<path d="M1759.25 1508.23C1757.97 1508.23 1756.94 1507.19 1756.94 1505.91C1756.94 1504.62 1757.97 1503.58 1759.25 1503.58C1760.53 1503.58 1761.56 1504.62 1761.56 1505.91C1761.56 1507.19 1760.53 1508.23 1759.25 1508.23Z" fill="#737373"/>
<path d="M1785.85 1508.23C1784.57 1508.23 1783.54 1507.19 1783.54 1505.91C1783.54 1504.62 1784.57 1503.58 1785.85 1503.58C1787.13 1503.58 1788.16 1504.62 1788.16 1505.91C1788.16 1507.19 1787.13 1508.23 1785.85 1508.23Z" fill="#737373"/>
<path d="M1812.45 1508.23C1811.17 1508.23 1810.14 1507.19 1810.14 1505.91C1810.14 1504.62 1811.17 1503.58 1812.45 1503.58C1813.73 1503.58 1814.77 1504.62 1814.77 1505.91C1814.77 1507.19 1813.73 1508.23 1812.45 1508.23Z" fill="#737373"/>
<path d="M1706.04 1479.16C1704.76 1479.16 1703.72 1478.11 1703.72 1476.83C1703.72 1475.54 1704.76 1474.5 1706.04 1474.5C1707.32 1474.5 1708.35 1475.54 1708.35 1476.83C1708.35 1478.11 1707.32 1479.16 1706.04 1479.16Z" fill="#737373"/>
<path d="M1732.64 1479.16C1731.36 1479.16 1730.33 1478.11 1730.33 1476.83C1730.33 1475.54 1731.36 1474.5 1732.64 1474.5C1733.92 1474.5 1734.95 1475.54 1734.95 1476.83C1734.95 1478.11 1733.92 1479.16 1732.64 1479.16Z" fill="#737373"/>
<path d="M1759.25 1479.16C1757.97 1479.16 1756.94 1478.11 1756.94 1476.83C1756.94 1475.54 1757.97 1474.5 1759.25 1474.5C1760.53 1474.5 1761.56 1475.54 1761.56 1476.83C1761.56 1478.11 1760.53 1479.16 1759.25 1479.16Z" fill="#737373"/>
<path d="M1785.85 1479.16C1784.57 1479.16 1783.54 1478.11 1783.54 1476.83C1783.54 1475.54 1784.57 1474.5 1785.85 1474.5C1787.13 1474.5 1788.16 1475.54 1788.16 1476.83C1788.16 1478.11 1787.13 1479.16 1785.85 1479.16Z" fill="#737373"/>
<path d="M1812.45 1479.16C1811.17 1479.16 1810.14 1478.11 1810.14 1476.83C1810.14 1475.54 1811.17 1474.5 1812.45 1474.5C1813.73 1474.5 1814.77 1475.54 1814.77 1476.83C1814.77 1478.11 1813.73 1479.16 1812.45 1479.16Z" fill="#737373"/>
</g>
<mask id="mask2_2018_10659" style="mask-type:luminance" maskUnits="userSpaceOnUse" x="-280" y="767" width="2215" height="1095">
<path d="M1934.19 883.429L1881.77 1860.83L-279.474 1744.92L-227.059 767.526L1934.19 883.429Z" fill="white" stroke="white"/>
</mask>
<g mask="url(#mask2_2018_10659)">
<path d="M-281.95 1963.73C-225.443 1846.81 -22.8353 1748.39 180.61 1738.82C276.988 1734.3 375.143 1747.17 467.826 1723.93C568.209 1698.65 633.843 1637.29 667.58 1577.65C701.318 1518.01 712.211 1456.41 749.359 1397.2C786.507 1337.99 859.836 1278.02 962.8 1258.52C1034.91 1244.85 1109.09 1253.24 1181.91 1243.29C1281.85 1229.64 1366.55 1183.28 1431.72 1134.03C1496.7 1084.78 1549.32 1030.32 1622.06 984.671C1729.4 917.327 1879.24 872.868 2027.32 864.496" stroke="#737373" stroke-miterlimit="10"/>
<path d="M-298.253 1937.59C-256.275 1855.7 -143.772 1783 -9.72311 1743.21C46.2833 1726.59 106.319 1715.7 166.476 1712.67C226.632 1709.64 287.503 1713.52 346.667 1712.16C382.848 1711.4 418.234 1708.64 452.794 1701.05C512.227 1687.92 559.49 1662.49 596.404 1631.23C620.822 1610.59 640.133 1587.46 654.739 1564.45C673.503 1534.67 686.18 1503.83 699.391 1473.14C711.77 1444.49 724.515 1415.73 743.368 1387.68C759.661 1363.53 781.921 1339.34 809.808 1318.02C849.372 1287.88 900.187 1263.62 960.389 1252.99C1000.16 1246.05 1040.29 1245.63 1080.61 1245.21C1113.7 1244.9 1146.61 1244.58 1179.33 1240.82C1238.62 1233.82 1292.52 1215.98 1340.57 1192.8C1373.4 1177.02 1403.47 1158.76 1430.51 1139.85C1470.12 1112.17 1505.33 1082.42 1543.2 1053.42C1568.83 1033.82 1595.35 1014.39 1625.23 996.369C1668.56 970.115 1717.87 947.003 1770.75 928.129C1851.45 899.096 1940.13 879.69 2027.97 872.748" stroke="#737373" stroke-miterlimit="10"/>
<path d="M-314.57 1911.57C-270.456 1830.29 -157.793 1757.96 -23.9047 1717.8C32.1148 1700.93 91.8033 1689.78 152.153 1686.52C212.323 1683.24 273.747 1686.91 332.678 1686.51C368.834 1686.24 403.8 1684.56 437.754 1678.16C496.355 1667.08 542.746 1644.42 580.816 1615.19C605.883 1595.93 626.049 1573.7 641.704 1551.36C661.863 1522.52 675.762 1492.48 690.208 1462.34C703.642 1434.24 717.449 1405.91 737.176 1378.39C754.17 1354.65 777.131 1330.86 805.713 1310.07C846.319 1280.73 897.621 1257.48 957.958 1247.71C997.878 1241.27 1038.18 1241.22 1078.28 1241.41C1111.34 1241.59 1144.22 1241.76 1176.93 1238.48C1236.15 1232.7 1289.96 1216.58 1338.45 1195.14C1371.4 1180.47 1401.94 1163.59 1429.46 1145.81C1469.88 1119.89 1506.1 1091.54 1545.01 1063.57C1571.32 1044.62 1598.53 1025.85 1628.58 1008.08C1672.42 982.343 1722.09 959.25 1774.8 939.999C1855.36 910.467 1942.48 889.751 2029.15 881.03" stroke="#737373" stroke-miterlimit="10"/>
<path d="M-330.874 1885.43C-284.437 1804.64 -171.619 1732.81 -38.072 1692.26C17.7739 1675.26 77.482 1663.75 137.845 1660.24C198.208 1656.73 259.819 1660.28 318.517 1660.85C354.82 1661.2 389.194 1660.47 422.542 1655.27C480.13 1646.21 526.003 1626.48 565.243 1599.02C590.965 1581.02 611.986 1559.7 628.682 1538.15C650.051 1510.35 665.545 1480.89 680.866 1451.29C695.541 1423.63 710.223 1395.84 730.831 1368.73C748.713 1345.28 772.362 1322.14 801.458 1301.87C842.926 1273.31 894.89 1251.2 955.368 1242.18C995.255 1236.34 1035.72 1236.67 1075.8 1237.23C1108.84 1237.77 1141.69 1238.43 1174.18 1235.88C1233.15 1231.32 1287.23 1216.92 1335.81 1197.33C1369.06 1183.9 1399.89 1168.26 1428.07 1151.62C1469.13 1127.33 1506.53 1100.51 1546.46 1073.59C1573.46 1055.41 1601.18 1037.15 1631.57 1019.65C1676.12 994.315 1725.96 971.354 1778.33 951.84C1858.55 921.799 1944.48 899.67 2029.61 889.272" stroke="#737373" stroke-miterlimit="10"/>
<path d="M-347.185 1859.29C-298.605 1778.99 -185.634 1707.65 -52.0669 1666.73C3.7856 1649.61 63.3267 1637.84 123.883 1634.1C184.259 1630.35 246.411 1633.93 304.709 1635.21C340.986 1636.05 374.946 1636.28 407.688 1632.27C464.258 1625.37 509.62 1608.43 549.842 1582.86C576.213 1566.25 598.269 1545.84 615.84 1524.83C638.424 1497.96 655.147 1469.17 671.876 1440.26C687.426 1413.13 703.356 1385.65 724.833 1359.21C743.416 1336.17 767.765 1313.43 797.55 1293.81C839.879 1266.03 892.511 1244.94 953.13 1236.66C993.171 1231.32 1033.61 1232.14 1073.49 1233.18C1106.51 1234.09 1139.15 1235.35 1171.6 1233.41C1230.5 1230.07 1284.49 1217.39 1333.52 1199.54C1366.88 1187.34 1398.19 1172.95 1427.03 1157.45C1468.9 1134.92 1507.12 1109.5 1548.09 1083.61C1575.59 1066.07 1604.01 1048.34 1634.92 1031.35C1680.16 1006.55 1730.19 983.478 1782.21 963.699C1862.28 933.038 1946.83 909.73 2030.61 897.543" stroke="#737373" stroke-miterlimit="10"/>
<path d="M-363.489 1833.15C-312.767 1753.33 -199.642 1682.49 -66.2354 1641.2C-10.5565 1623.95 49.0043 1611.81 109.574 1607.82C170.143 1603.83 232.481 1607.3 290.547 1609.56C326.791 1611.01 360.339 1612.19 392.655 1609.39C448.392 1604.53 492.883 1590.36 534.442 1566.83C561.287 1551.47 584.372 1532.1 602.991 1511.76C626.964 1485.93 645.102 1457.72 662.88 1429.48C679.665 1402.91 696.476 1375.84 718.834 1349.81C738.299 1327.18 763.349 1304.86 793.648 1285.75C837.019 1258.77 890.139 1238.68 950.892 1231.27C991.087 1226.43 1031.5 1227.74 1071.35 1229.26C1104.34 1230.66 1136.96 1232.29 1169.37 1231.09C1228.04 1228.96 1282.11 1218 1331.41 1201.88C1365.06 1190.92 1396.67 1177.78 1425.99 1163.41C1468.67 1142.51 1507.9 1118.62 1549.9 1093.76C1578.08 1077 1607.01 1059.78 1638.27 1043.06C1684.21 1018.67 1734.41 995.725 1786.08 975.682C1865.82 944.512 1949 919.905 2031.61 905.937" stroke="#737373" stroke-miterlimit="10"/>
<path d="M-379.981 1807.12C-327.123 1727.91 -213.837 1657.45 -80.4111 1615.79C-24.7257 1598.41 34.4943 1585.89 95.2505 1581.79C155.826 1577.68 218.751 1580.32 276.378 1584.02C312.57 1586.45 345.724 1588.23 377.434 1586.62C432.159 1583.79 475.951 1572.52 518.68 1550.77C546.174 1536.79 570.12 1518.21 589.781 1498.66C614.963 1473.88 634.51 1446.35 653.349 1418.54C671.189 1392.52 689.061 1365.88 712.474 1340.39C732.82 1318.18 758.392 1296.25 789.378 1277.8C833.617 1251.47 887.399 1232.52 948.287 1225.97C988.629 1221.76 1029.03 1223.19 1068.85 1225.45C1101.81 1227.34 1134.41 1229.33 1166.61 1228.73C1225.22 1227.7 1279.19 1218.58 1328.93 1204.32C1362.7 1194.6 1394.96 1182.72 1424.76 1169.47C1468.08 1150.21 1508.49 1127.85 1551.51 1104.15C1580.38 1088.16 1609.83 1071.34 1641.42 1055.01C1687.89 1031.01 1738.45 1008.08 1789.77 987.777C1869.36 955.986 1951.17 930.078 2032.24 914.433" stroke="#737373" stroke-miterlimit="10"/>
<path d="M-396.292 1780.98C-341.292 1702.25 -227.672 1632.3 -94.5861 1590.25C-39.0744 1572.75 20.1654 1559.85 81.1149 1555.52C141.884 1551.17 205.143 1554.32 262.39 1558.37C298.755 1560.94 331.11 1564.14 362.4 1563.61C416.113 1562.81 459.207 1554.45 503.099 1534.61C531.248 1521.89 555.863 1504.32 576.932 1485.46C603.329 1461.61 624.285 1434.77 644.353 1407.63C663.254 1382.03 682.362 1355.95 706.476 1330.87C727.529 1308.95 753.795 1287.54 785.476 1269.62C830.577 1244.07 885.027 1226.14 946.055 1220.34C986.552 1216.62 1027.1 1218.67 1066.72 1221.29C1099.67 1223.42 1132.05 1226.14 1164.22 1226.15C1222.57 1226.33 1276.64 1218.93 1326.64 1206.4C1360.53 1197.92 1393.27 1187.29 1423.73 1175.18C1467.86 1157.68 1509.1 1136.71 1553.14 1114.05C1582.7 1098.71 1612.66 1082.53 1644.59 1066.58C1691.75 1043.11 1742.49 1020.2 1793.47 999.628C1872.91 967.338 1953.33 940.129 2033.06 922.695" stroke="#737373" stroke-miterlimit="10"/>
<path d="M-412.601 1754.84C-355.277 1676.6 -241.69 1607.26 -108.752 1564.59C-53.4075 1546.83 5.83885 1533.82 66.808 1529.12C127.771 1524.54 191.216 1527.57 248.23 1532.59C284.563 1535.77 316.511 1539.81 347.189 1540.6C400.062 1541.96 442.286 1536.37 487.527 1518.32C516.144 1506.97 541.801 1490.2 563.912 1472.13C591.518 1449.32 613.889 1423.05 635.185 1396.59C655.322 1371.55 675.311 1345.88 700.299 1321.34C722.234 1299.83 749.194 1278.95 781.39 1261.55C827.532 1236.79 882.651 1219.88 943.633 1214.93C984.284 1211.71 1024.81 1214.13 1064.21 1217.35C1097.14 1219.97 1129.5 1223.06 1161.45 1223.79C1219.75 1225.08 1273.54 1219.5 1324.17 1208.72C1358.35 1201.48 1391.38 1192.09 1422.33 1180.99C1467.1 1165.12 1509.52 1145.69 1554.59 1124.06C1584.83 1109.49 1615.31 1093.71 1647.77 1078.16C1695.45 1055.08 1746.36 1032.3 1797.18 1011.36C1876.28 978.557 1955.33 950.048 2033.71 930.702" stroke="#737373" stroke-miterlimit="10"/>
<path d="M-428.911 1728.7C-369.445 1650.94 -255.703 1582.1 -122.746 1539.07C-67.3945 1521.18 -8.30874 1507.79 52.667 1502.97C113.643 1498.14 177.629 1501.21 234.243 1506.94C270.549 1510.61 302.079 1515.73 332.15 1517.71C384.011 1521.11 425.543 1518.31 471.94 1502.27C501.033 1492.18 527.718 1476.44 550.884 1458.92C579.706 1437.04 603.485 1411.45 626.017 1385.55C647.208 1361.06 668.258 1335.82 694.121 1311.81C716.938 1290.71 744.419 1270.23 777.302 1253.48C824.306 1229.5 880.093 1213.61 941.216 1209.4C981.841 1206.68 1022.52 1209.59 1061.91 1213.18C1094.81 1216.17 1127.15 1219.74 1159.06 1221.21C1217.29 1223.72 1270.99 1219.85 1321.89 1210.81C1356.18 1204.8 1389.51 1196.65 1421.3 1186.7C1466.87 1172.59 1510.31 1154.56 1556.23 1133.96C1587.15 1120.04 1618.32 1104.91 1650.95 1089.61C1699.32 1067.06 1750.42 1044.17 1801.06 1023.09C1880.02 989.672 1957.69 959.863 2034.72 938.851" stroke="#737373" stroke-miterlimit="10"/>
<path d="M-445.214 1702.56C-383.612 1625.41 -269.71 1556.94 -136.913 1513.53C-81.7354 1495.52 -22.8101 1481.75 38.5391 1476.7C99.7081 1471.64 163.881 1474.59 220.263 1481.3C256.536 1485.57 287.653 1491.65 317.305 1494.72C368.334 1500.15 408.807 1500.24 456.547 1486.12C486.109 1477.4 513.835 1462.45 538.043 1445.72C568.074 1424.88 593.268 1399.87 616.848 1374.64C639.274 1350.7 661.206 1325.87 687.95 1302.28C711.468 1281.59 739.65 1261.52 773.228 1245.29C821.1 1221.97 877.549 1207.22 938.626 1203.87C979.404 1201.64 1020.06 1205.05 1059.42 1209.12C1092.3 1212.6 1124.43 1216.65 1156.31 1218.61C1214.3 1222.33 1268.08 1220.19 1319.42 1213.01C1353.84 1208.11 1387.63 1201.33 1420.09 1192.53C1466.3 1180.04 1510.73 1163.54 1557.86 1144.11C1589.46 1130.96 1621.14 1116.35 1654.12 1101.31C1703.19 1079.17 1754.65 1056.42 1804.77 1034.94C1883.56 1001.15 1959.87 969.916 2035.36 947.104" stroke="#737373" stroke-miterlimit="10"/>
<path d="M-461.526 1676.54C-397.782 1599.87 -283.726 1531.91 -150.909 1488.13C-95.725 1469.99 -36.9667 1455.97 24.3956 1450.68C85.5777 1445.37 150.291 1448.35 206.273 1455.77C242.694 1460.67 273.224 1467.58 302.263 1471.96C352.28 1479.42 392.062 1482.29 441.145 1470.08C471.362 1462.63 499.937 1448.71 525.193 1432.64C556.439 1412.73 583.216 1388.53 607.857 1363.73C631.345 1340.21 654.338 1315.81 681.951 1292.89C706.349 1272.61 735.226 1253.06 769.318 1237.35C818.232 1214.83 875.169 1201.08 936.38 1198.6C977.306 1196.99 1017.95 1200.64 1057.27 1205.33C1090.14 1209.17 1122.24 1213.72 1153.9 1216.4C1211.82 1221.34 1265.51 1220.91 1317.13 1215.46C1351.84 1211.8 1385.93 1206.15 1419.04 1198.6C1466.07 1187.76 1511.5 1172.78 1559.65 1154.38C1591.76 1142 1624.15 1127.79 1657.63 1113.28C1707.41 1091.54 1758.86 1068.91 1808.82 1047.06C1887.47 1012.64 1962.21 980.222 2036.53 955.63" stroke="#737373" stroke-miterlimit="10"/>
<path d="M-477.836 1650.4C-411.949 1574.21 -297.559 1506.76 -165.083 1462.59C-110.072 1444.32 -51.2945 1429.94 10.0809 1424.4C71.4564 1418.86 136.537 1421.74 192.106 1430.11C228.494 1435.62 258.611 1443.49 287.051 1448.94C336.055 1458.44 374.959 1464.2 425.385 1453.91C456.077 1447.7 485.507 1434.69 511.985 1419.42C544.44 1400.56 572.632 1376.93 598.502 1352.8C623.044 1329.84 647.279 1305.87 675.593 1283.35C700.879 1263.36 730.27 1244.33 765.057 1229.15C814.833 1207.41 872.438 1194.68 933.79 1192.94C974.869 1191.83 1015.67 1195.98 1054.78 1201.15C1087.62 1205.48 1119.7 1210.51 1151.14 1213.8C1208.83 1219.83 1262.61 1221.12 1314.66 1217.54C1349.49 1215.11 1384.06 1210.71 1417.65 1204.29C1465.3 1195.2 1511.93 1181.63 1560.93 1164.27C1593.72 1152.53 1626.62 1138.97 1660.45 1124.71C1710.74 1103.49 1762.55 1080.88 1812.16 1058.77C1890.48 1023.84 1964.03 990.009 2036.82 963.74" stroke="#737373" stroke-miterlimit="10"/>
<path d="M-494.14 1624.26C-426.117 1548.68 -311.567 1481.6 -179.251 1437.06C-124.234 1418.67 -65.6169 1403.9 -4.04817 1398.13C57.3404 1392.34 122.781 1395.24 178.124 1404.46C214.486 1410.46 244.184 1419.41 272.017 1426.06C320.182 1437.72 358.041 1446.12 409.985 1437.87C441.151 1432.92 471.61 1420.94 499.143 1406.23C532.813 1388.28 562.414 1365.34 589.332 1341.89C615.11 1319.48 640.226 1295.92 669.594 1273.95C695.581 1254.37 725.854 1235.76 761.149 1221.21C811.966 1200.27 870.059 1188.54 931.545 1187.67C972.779 1187.06 1013.55 1191.7 1052.46 1197.34C1085.28 1202.05 1117.33 1207.57 1148.74 1211.58C1206.35 1218.84 1260.04 1221.84 1312.37 1219.99C1347.31 1218.8 1382.35 1215.65 1416.61 1210.37C1464.89 1202.9 1512.52 1190.86 1562.73 1174.54C1596.21 1163.58 1629.62 1150.41 1663.79 1136.54C1714.78 1115.73 1766.78 1093.13 1816.04 1070.75C1894.2 1035.32 1966.38 1000.19 2037.82 972.134" stroke="#737373" stroke-miterlimit="10"/>
<path d="M-510.63 1598.11C-440.284 1523.02 -325.76 1456.43 -193.425 1411.52C-138.575 1392.88 -80.1244 1377.86 -18.3689 1371.97C43.213 1365.95 109.021 1368.75 163.958 1378.81C200.286 1385.41 229.578 1395.2 256.799 1403.16C303.951 1416.85 340.938 1428.04 394.225 1421.69C425.866 1417.99 457.36 1406.93 486.116 1393.02C520.994 1376.12 552.011 1353.74 580.164 1330.85C606.996 1308.98 633.174 1285.85 663.424 1264.3C690.292 1245.13 721.086 1226.91 757.068 1213.02C808.747 1192.86 867.508 1182.15 929.129 1182.14C970.51 1182.15 1011.27 1187.04 1050.15 1193.17C1082.94 1198.36 1114.79 1204.36 1146.16 1208.99C1203.71 1217.47 1257.13 1222.18 1310.08 1222.19C1345.31 1222.24 1380.65 1220.34 1415.57 1216.2C1464.49 1210.36 1513.3 1199.85 1564.54 1184.57C1598.7 1174.26 1632.81 1161.74 1667.15 1148.13C1718.83 1127.84 1771 1105.25 1819.92 1082.61C1897.93 1046.56 1968.55 1010.24 2038.64 980.272" stroke="#737373" stroke-miterlimit="10"/>
<path d="M-526.933 1571.97C-454.445 1497.36 -339.767 1431.27 -207.592 1385.99C-152.916 1367.21 -94.4521 1351.95 -32.6769 1345.69C29.0917 1339.56 95.2662 1342.25 149.977 1353.16C186.453 1360.39 215.152 1371.13 241.953 1380.17C288.094 1395.89 324.216 1409.72 378.832 1405.54C410.948 1403.09 443.291 1393.05 473.275 1379.82C509.369 1363.85 541.968 1342.29 571.175 1319.94C599.243 1298.63 626.302 1275.92 657.426 1254.9C685.176 1236.15 716.664 1218.46 753.168 1204.96C805.888 1185.59 865.138 1175.89 926.899 1176.63C968.254 1177.13 1009.17 1182.51 1048.02 1189.13C1080.79 1194.69 1112.61 1201.18 1143.77 1206.41C1201.08 1216.11 1254.59 1222.53 1307.8 1224.28C1343.16 1225.44 1378.96 1224.91 1414.36 1221.9C1464.1 1217.7 1513.92 1208.72 1565.99 1194.59C1600.84 1185.05 1635.46 1173.05 1670.32 1159.83C1722.7 1139.95 1775.05 1117.49 1823.63 1094.46C1901.3 1057.91 1970.73 1020.17 2039.47 988.535" stroke="#737373" stroke-miterlimit="10"/>
<path d="M-543.253 1545.95C-468.622 1471.83 -353.61 1406.24 -221.776 1360.57C-167.093 1341.67 -108.79 1326.03 -47.0084 1319.66C14.7733 1313.28 81.3083 1315.99 135.8 1327.62C172.243 1335.46 200.529 1347.16 226.724 1357.4C272.032 1375.16 307.282 1391.77 363.242 1389.49C395.84 1388.17 429.211 1379.17 460.237 1366.73C497.546 1351.68 531.554 1330.82 561.997 1309.02C591.126 1288.14 619.42 1265.98 651.239 1245.49C679.87 1227.16 711.878 1209.86 748.89 1197.01C802.472 1178.42 862.39 1169.73 924.285 1171.33C965.794 1172.33 1006.68 1178.21 1045.51 1185.32C1078.26 1191.37 1110.05 1198.34 1141.18 1204.18C1198.42 1215.1 1251.84 1223.12 1305.49 1226.73C1340.96 1229.13 1377.25 1229.72 1413.31 1227.98C1463.68 1225.4 1514.5 1217.95 1567.79 1204.86C1603.31 1196.1 1638.45 1184.49 1673.65 1171.66C1726.55 1152.3 1779.26 1129.73 1827.67 1106.57C1905.2 1069.4 1973.24 1030.49 2040.45 997.05" stroke="#737373" stroke-miterlimit="10"/>
<path d="M-559.557 1519.81C-482.79 1446.29 -367.617 1381.08 -235.763 1335.05C-181.254 1316.02 -122.931 1300.01 -60.9561 1293.4C1.01887 1286.79 67.9207 1289.39 121.999 1301.98C158.41 1310.44 186.289 1322.97 211.872 1334.52C256.167 1354.32 290.553 1373.58 347.842 1373.46C380.915 1373.39 415.141 1365.29 447.395 1353.53C485.914 1339.53 521.336 1319.23 552.828 1298.11C583.192 1277.78 612.367 1256.04 645.067 1235.96C674.406 1217.91 707.289 1201.15 744.815 1188.82C799.439 1171.02 860.018 1163.47 921.875 1165.81C963.531 1167.43 1004.4 1173.67 1043.02 1181.26C1075.75 1187.68 1107.33 1195.13 1138.42 1201.71C1195.42 1213.72 1248.93 1223.58 1302.84 1229.04C1338.61 1232.68 1375.01 1234.51 1411.91 1233.91C1462.92 1232.97 1514.92 1227.05 1569.23 1215C1605.45 1206.88 1641.09 1195.92 1676.64 1183.35C1730.24 1164.51 1782.96 1141.83 1831.2 1118.42C1908.4 1080.61 1975.06 1040.52 2041.1 1005.3" stroke="#737373" stroke-miterlimit="10"/>
<path d="M-575.868 1493.67C-496.958 1420.63 -381.631 1355.92 -249.938 1309.51C-195.422 1290.36 -137.267 1274.1 -75.272 1267.12C-13.2838 1260.26 53.9783 1262.89 107.837 1276.2C144.215 1285.27 171.501 1298.75 196.665 1311.38C240.121 1333.34 273.468 1355.12 332.268 1357.17C365.816 1358.35 401.071 1351.29 434.373 1340.2C473.927 1327.11 510.931 1307.63 543.658 1287.06C575.077 1267.29 605.314 1245.97 638.889 1226.43C669.109 1208.79 702.506 1192.56 740.726 1180.75C796.218 1163.61 857.46 1157.2 919.457 1160.28C961.267 1162.4 1002.29 1169.02 1040.71 1177.21C1073.4 1184.11 1104.97 1191.94 1135.84 1199.24C1192.78 1212.47 1246.19 1224.04 1300.55 1231.25C1336.44 1236 1373.31 1239.2 1410.7 1239.61C1462.52 1240.3 1515.52 1235.91 1570.69 1224.89C1607.58 1217.54 1643.74 1207.1 1679.81 1194.93C1734.11 1176.5 1787 1153.94 1834.89 1130.26C1911.76 1091.95 1977.23 1050.45 2041.91 1013.56" stroke="#737373" stroke-miterlimit="10"/>
<path d="M-592.176 1467.53C-510.944 1394.98 -395.643 1330.77 -263.93 1283.99C-209.582 1264.58 -151.593 1248.06 -89.4117 1240.97C-27.2303 1233.88 40.3923 1236.53 93.845 1250.68C130.37 1260.36 157.063 1274.8 181.621 1288.62C224.065 1312.61 256.442 1339 316.683 1341.12C350.771 1342.34 386.996 1337.41 421.34 1327.11C462.109 1314.95 500.703 1296.17 534.484 1276.15C566.958 1256.92 598.436 1236.04 632.893 1216.91C663.994 1199.69 698.093 1183.86 736.82 1172.69C793.354 1156.34 855.077 1151.06 917.035 1154.88C958.992 1157.62 1000 1164.6 1038.39 1173.16C1071.07 1180.43 1102.6 1188.87 1133.27 1196.65C1189.95 1211.22 1243.28 1224.26 1298.09 1233.33C1334.09 1239.31 1371.45 1243.64 1409.49 1245.31C1461.95 1247.63 1515.95 1244.77 1572.32 1234.79C1609.73 1228.08 1646.76 1218.17 1682.99 1206.38C1737.98 1188.48 1791.06 1165.81 1838.61 1141.87C1915.33 1102.93 1979.42 1060.25 2042.57 1021.57" stroke="#737373" stroke-miterlimit="10"/>
<path d="M-608.49 1441.51C-525.115 1369.45 -409.667 1305.85 -278.108 1258.57C-223.753 1239.04 -165.925 1222.15 -103.55 1214.82C-41.1752 1207.5 26.6276 1210.15 79.8542 1225.15C116.347 1235.45 142.634 1250.72 166.758 1265.87C208.19 1291.89 239.987 1318.98 301.273 1325.21C335.784 1328.66 372.916 1323.66 408.482 1314.16C450.466 1302.92 490.469 1284.83 525.299 1265.47C559.008 1246.8 591.367 1226.33 626.698 1207.75C658.681 1190.94 693.294 1175.63 732.723 1164.86C790.112 1149.42 852.509 1145.04 914.608 1149.6C956.719 1152.84 997.7 1160.31 1036.07 1169.36C1068.72 1177.12 1100.05 1186.03 1130.86 1194.43C1187.48 1210.1 1240.71 1224.98 1295.97 1235.79C1332.09 1242.88 1369.92 1248.58 1408.62 1251.4C1461.71 1255.35 1516.9 1254.01 1574.12 1245.19C1612.2 1239.26 1649.75 1229.86 1686.33 1218.33C1742.01 1200.96 1795.27 1178.3 1842.47 1154.1C1918.85 1114.65 1981.57 1070.67 2043.55 1030.21" stroke="#737373" stroke-miterlimit="10"/>
<path d="M-624.97 1415.36C-539.459 1343.9 -423.671 1280.69 -292.452 1233.03C-238.271 1213.36 -180.423 1196.11 -118.042 1188.66C-55.6538 1181.09 12.6895 1183.77 65.5164 1199.48C101.976 1210.39 127.85 1226.62 151.375 1242.85C191.975 1270.9 222.726 1300.64 285.529 1308.91C320.515 1313.61 358.682 1309.52 395.477 1300.7C438.677 1290.39 480.081 1273.11 516.146 1254.31C550.91 1236.19 584.331 1216.15 620.543 1197.97C653.227 1181.57 688.721 1166.67 728.658 1156.55C787.088 1141.9 849.974 1138.53 912.207 1143.95C954.292 1147.68 995.427 1155.65 1033.77 1165.19C1066.39 1173.44 1097.7 1182.72 1128.29 1191.84C1184.85 1208.73 1238 1225.2 1293.51 1237.99C1329.93 1246.32 1368.05 1253.15 1407.23 1257.21C1461.14 1262.8 1517.33 1262.99 1575.57 1255.2C1614.35 1249.92 1652.4 1241.17 1689.33 1229.9C1745.72 1212.93 1799.15 1190.41 1846 1165.82C1922.23 1125.87 1983.57 1080.59 2044.03 1038.21" stroke="#737373" stroke-miterlimit="10"/>
<path d="M-641.284 1389.22C-553.63 1318.25 -437.688 1255.53 -306.45 1207.5C-252.262 1187.72 -194.581 1170.21 -132.18 1162.39C-69.5988 1154.59 -1.06867 1157.16 51.5256 1173.84C87.9523 1185.36 113.414 1202.54 136.332 1219.96C175.92 1250.05 205.993 1282.33 269.939 1292.87C305.587 1298.71 344.422 1295.64 382.439 1287.62C426.674 1278.22 469.848 1261.64 506.967 1243.4C542.966 1225.83 577.449 1206.21 614.355 1188.57C647.92 1172.58 683.929 1158.2 724.567 1148.48C783.859 1134.61 847.413 1132.26 909.78 1138.54C952.013 1142.89 993.128 1151.23 1031.26 1161.25C1063.87 1169.87 1095.14 1179.76 1125.52 1189.49C1181.83 1207.59 1235.07 1225.78 1291.03 1240.31C1327.56 1249.87 1366.16 1257.95 1406 1263.15C1460.55 1270.37 1517.74 1272.09 1577.19 1265.34C1616.65 1260.84 1655.22 1252.6 1692.66 1241.73C1749.56 1225.28 1803.18 1202.65 1849.87 1177.92C1925.95 1137.36 1985.91 1090.78 2045.02 1046.72" stroke="#737373" stroke-miterlimit="10"/>
<path d="M-657.586 1363.08C-567.79 1292.59 -451.693 1230.38 -320.609 1181.84C-266.595 1161.93 -209.074 1144.04 -146.3 1136C-83.7057 1127.95 -14.635 1130.55 37.5595 1147.94C73.9534 1160.08 99.0084 1178.1 121.315 1196.83C160.063 1229.09 189.278 1263.89 254.554 1276.59C290.683 1283.56 330.547 1281.52 369.606 1274.3C415.056 1265.82 459.632 1250.06 497.987 1232.37C535.221 1215.35 570.584 1196.15 608.366 1179.05C642.812 1163.48 679.522 1149.5 720.667 1140.42C781.001 1127.35 845.043 1126 907.551 1133.03C949.938 1137.88 991.027 1146.7 1029.13 1157.21C1061.71 1166.32 1092.79 1176.57 1123.31 1187.04C1179.56 1206.37 1232.71 1226.14 1288.93 1242.53C1325.76 1253.21 1364.66 1262.53 1405.15 1269C1460.52 1277.73 1518.71 1281.1 1579.01 1275.38C1619.14 1271.64 1658.42 1263.81 1696.02 1253.32C1753.62 1237.27 1807.42 1214.77 1853.94 1189.67C1929.69 1148.59 1988.28 1100.71 2046.03 1054.87" stroke="#737373" stroke-miterlimit="10"/>
<path d="M-673.896 1336.94C-581.783 1267.06 -465.707 1205.22 -334.603 1156.32C-280.762 1136.27 -223.222 1118.01 -160.441 1109.85C-97.66 1101.69 -28.4026 1104.18 23.5658 1122.42C59.927 1135.16 84.5691 1154.14 106.456 1173.96C144.192 1208.24 172.722 1245.71 239.155 1260.43C275.758 1268.65 316.658 1267.53 356.758 1261.1C403.424 1253.54 449.408 1238.47 488.818 1221.33C527.107 1204.86 563.532 1186.08 602.195 1169.39C637.522 1154.24 674.753 1140.66 716.586 1132.23C777.788 1119.81 842.492 1119.6 905.135 1127.5C947.675 1132.85 988.924 1142.05 1026.83 1153.04C1059.39 1162.51 1090.43 1173.37 1120.74 1184.32C1176.74 1204.86 1229.99 1226.24 1286.65 1244.61C1323.6 1256.4 1362.96 1267.1 1404.12 1274.7C1460.12 1285.07 1519.5 1289.85 1580.82 1285.28C1621.65 1282.2 1661.43 1275.01 1699.38 1264.78C1757.68 1249.26 1811.66 1226.65 1857.82 1201.4C1933.43 1159.71 1990.63 1110.65 2047.04 1063.02" stroke="#737373" stroke-miterlimit="10"/>
<path d="M-690.208 1310.92C-595.953 1241.53 -479.542 1180.19 -348.779 1130.9C-294.925 1110.61 -237.559 1092.22 -174.758 1083.69C-111.964 1075.29 -42.3527 1077.92 9.40273 1096.76C45.7311 1110.11 69.9604 1130.06 91.2411 1151.07C127.965 1187.38 155.816 1227.39 223.392 1244.38C260.658 1253.74 302.226 1253.63 343.548 1248C391.429 1241.37 439.002 1227 479.46 1210.52C518.811 1194.48 556.471 1176.26 595.828 1160.1C632.037 1145.36 669.968 1132.18 712.316 1124.28C774.38 1112.64 839.932 1113.46 902.529 1122.21C945.217 1128.18 986.446 1137.75 1024.32 1149.22C1056.86 1159.19 1087.88 1170.42 1117.97 1182.09C1173.91 1203.73 1227.06 1226.94 1283.99 1247.04C1321.24 1260.08 1360.9 1271.9 1402.53 1280.75C1459.36 1292.63 1519.55 1299.05 1582.08 1295.65C1623.58 1293.34 1663.87 1286.67 1702.36 1276.72C1761.35 1261.6 1815.51 1239.12 1861.33 1213.49C1936.78 1171.3 1992.62 1120.82 2047.49 1071.51" stroke="#737373" stroke-miterlimit="10"/>
<path d="M-706.518 1284.78C-610.12 1215.87 -493.555 1155.03 -362.953 1105.37C-309.272 1084.94 -251.887 1066.19 -188.899 1057.55C-125.912 1048.91 -55.9336 1051.43 -4.59098 1071.23C94.7362 1109.43 99.1904 1198.22 207.986 1228.34C289.534 1250.99 392.796 1229.3 470.465 1199.61C548.134 1169.93 618.494 1131.63 708.409 1116.22C814.556 1097.99 928.899 1115.65 1022.01 1145.18C1115.11 1174.7 1193.51 1215.58 1281.7 1249.25C1369.89 1282.8 1473.79 1309.84 1583.71 1305.55C1690.55 1301.47 1789.92 1268.04 1865.04 1225.22C1940.16 1182.39 1994.61 1130.74 2048.31 1079.65" stroke="#737373" stroke-miterlimit="10"/>
<path d="M-690.116 1278.91C-595.02 1210.67 -480.29 1150.34 -351.676 1100.7C-296.688 1079.49 -237.654 1060.33 -173.232 1051.89C-110.631 1043.71 -41.5667 1046.44 9.42858 1065.97C107.701 1103.62 114.622 1190.22 221.976 1220.26C287.311 1238.61 366.26 1228.86 435.25 1209.38C451.582 1204.73 467.399 1199.57 482.329 1194.12C559.752 1165.64 629.886 1128.19 719.08 1112.74C779.637 1102.25 842.66 1103.05 902.953 1110.95C947.276 1116.76 989.954 1126.29 1029.08 1138.07C1121.38 1165.71 1199.55 1204.25 1287.09 1236.42C1312.26 1245.62 1338.72 1254.27 1366.13 1262C1434.5 1281.12 1509.17 1293.83 1586.64 1291.48C1600.39 1291.12 1614 1290.13 1627.44 1288.89C1717.54 1279.98 1800.56 1251.56 1866.28 1215.72C1941.31 1174.61 1996.78 1124.1 2050.09 1073.49" stroke="#737373" stroke-miterlimit="10"/>
<path d="M-673.541 1273.06C-579.738 1205.36 -466.843 1145.55 -340.224 1096.04C-284.109 1074.03 -223.241 1054.36 -157.21 1046.25C-94.9959 1038.54 -26.8393 1041.34 23.989 1060.62C121.393 1097.61 130.768 1182.26 236.507 1212.09C301.122 1230.39 379.111 1221.7 447.694 1203.05C464.013 1198.65 479.637 1193.73 494.56 1188.4C571.564 1161 641.639 1124.65 729.938 1109.03C789.781 1098.38 852.109 1098.66 911.728 1105.66C955.362 1110.82 997.719 1119.59 1036.53 1130.5C1127.86 1156.13 1205.78 1192.44 1292.87 1222.99C1317.88 1231.69 1344.17 1240.09 1371.43 1247.44C1439.65 1265.82 1513.42 1278.6 1590.14 1276.71C1603.7 1276.45 1617.12 1275.58 1630.38 1274.45C1719.35 1266.47 1802.09 1239.87 1867.91 1205.38C1943.03 1165.99 1999.53 1116.53 2052.28 1066.37" stroke="#737373" stroke-miterlimit="10"/>
<path d="M-657.137 1267.07C-564.635 1200.03 -453.748 1140.61 -329.125 1091.24C-271.889 1068.55 -209.006 1048.37 -141.72 1040.45C-79.8928 1033.22 -12.6502 1036.21 37.8308 1055.23C134.18 1091.68 146.022 1174.12 250.5 1203.89C314.574 1222.16 391.429 1214.39 459.773 1196.83C475.899 1192.67 491.516 1187.86 506.426 1182.78C583.011 1156.47 653.214 1121.11 740.432 1105.42C799.734 1094.74 861.187 1094.48 920.131 1100.59C963.258 1105.11 1005.11 1113.12 1043.61 1123.15C1134.13 1146.9 1211.82 1180.87 1298.09 1209.9C1323.12 1218.23 1349.08 1226.13 1376.17 1233.22C1444.07 1250.84 1517.11 1263.59 1592.89 1262.38C1606.27 1262.24 1619.68 1261.61 1632.75 1260.47C1720.77 1253.42 1802.88 1228.63 1868.98 1195.5C1944.19 1157.83 2001.53 1109.52 2053.89 1059.83" stroke="#737373" stroke-miterlimit="10"/>
<path d="M-640.563 1261.21C-549.362 1194.84 -440.303 1135.81 -317.668 1086.46C-259.125 1062.98 -194.588 1042.28 -125.694 1034.69C-64.2525 1027.93 2.08256 1030.99 52.2163 1049.75C147.697 1085.53 161.813 1166.01 264.856 1195.58C328.389 1213.83 404.105 1207.09 472.223 1190.39C488.335 1186.47 503.94 1181.91 518.656 1177.06C594.821 1151.83 664.972 1117.44 751.295 1101.59C809.877 1090.87 870.642 1089.96 928.911 1095.17C971.53 1099.05 1012.88 1106.3 1050.88 1115.45C1140.43 1137.18 1217.87 1169.05 1303.69 1196.34C1328.57 1204.18 1354.55 1211.7 1381.29 1218.53C1448.86 1235.53 1521.19 1248.11 1596.04 1247.47C1609.42 1247.33 1622.45 1246.92 1635.51 1246.03C1722.57 1240.02 1804.04 1216.92 1870.44 1185.16C1945.56 1149.08 2003.92 1102.04 2055.89 1052.83" stroke="#737373" stroke-miterlimit="10"/>
<path d="M-624.165 1255.35C-534.258 1189.52 -427.213 1130.99 -306.393 1081.79C-246.724 1057.51 -180.352 1036.3 -109.849 1029.04C-48.7943 1022.75 16.6267 1026.01 66.4132 1044.5C161.02 1079.75 177.422 1158.02 279.204 1187.52C342.01 1205.85 416.958 1199.93 484.664 1184.19C500.589 1180.38 516.174 1176.19 530.884 1171.46C606.803 1147.44 676.728 1113.9 762.331 1098.01C820.371 1087.26 880.269 1085.69 937.857 1090.13C979.788 1093.36 1020.64 1099.84 1058.51 1108.13C1147.27 1127.73 1224.27 1157.62 1309.63 1183.29C1334.35 1190.75 1360.17 1197.9 1386.75 1204.35C1454 1220.71 1525.79 1233.15 1599.7 1233.19C1612.89 1233.16 1625.92 1232.88 1638.79 1232.1C1724.72 1227.02 1805.73 1205.73 1872.24 1175.2C1947.45 1140.84 2006.83 1094.96 2058.24 1046.21" stroke="#737373" stroke-miterlimit="10"/>
<path d="M-607.764 1249.48C-519.157 1184.32 -413.934 1126.06 -295.296 1077.11C-234.493 1051.91 -166.299 1030.43 -94.3615 1023.37C-33.6872 1017.42 30.633 1020.99 80.2525 1039.23C173.811 1073.81 192.667 1150.13 293.014 1179.43C355.279 1197.73 429.088 1192.86 496.38 1178.07C512.293 1174.5 527.691 1170.42 542.381 1166.06C617.881 1143.13 687.753 1110.57 772.455 1094.63C829.775 1083.84 888.978 1081.74 945.71 1085.28C987.127 1087.99 1027.49 1093.59 1065.03 1101.12C1152.99 1118.84 1229.75 1146.38 1314.47 1170.55C1339.04 1177.51 1364.7 1184.28 1391.11 1190.48C1458.04 1206.09 1529.11 1218.49 1602.08 1219.09C1615.09 1219.17 1628.11 1219.01 1640.79 1218.47C1725.76 1214.44 1805.96 1194.82 1872.93 1165.66C1948.06 1132.9 2008.46 1088.18 2059.47 1040.02" stroke="#737373" stroke-miterlimit="10"/>
<path d="M-591.188 1243.62C-503.876 1179.01 -400.668 1121.25 -283.838 1072.33C-221.728 1046.34 -151.88 1024.33 -78.3333 1017.61C-18.0456 1012.13 45.3671 1015.78 94.8195 1033.76C187.503 1067.8 208.647 1141.91 307.552 1171.13C369.276 1189.4 441.945 1185.57 509.011 1171.63C524.73 1168.3 540.115 1164.47 554.799 1160.23C629.879 1138.37 699.699 1106.8 783.5 1090.81C840.099 1079.98 898.614 1077.23 954.672 1079.87C995.581 1081.94 1035.44 1086.78 1072.67 1093.44C1159.65 1109.14 1236.35 1134.47 1320.44 1157.01C1344.84 1163.59 1370.34 1169.99 1396.59 1175.81C1463.19 1190.79 1533.55 1203.03 1605.59 1204.19C1618.41 1204.39 1631.24 1204.34 1643.92 1203.92C1727.92 1200.94 1807.49 1183.01 1874.76 1155.22C1949.79 1124.16 2011.22 1080.6 2061.84 1032.91" stroke="#737373" stroke-miterlimit="10"/>
<path d="M-574.783 1237.63C-488.772 1173.68 -387.565 1116.19 -272.557 1067.53C-209.32 1040.75 -137.637 1018.23 -62.6622 1011.82C-2.75447 1006.69 59.7376 1010.66 108.843 1028.38C200.478 1061.75 224.075 1133.91 321.726 1162.94C382.723 1181.29 454.618 1178.4 521.272 1165.42C536.978 1162.34 552.169 1158.74 566.847 1154.62C641.681 1133.98 711.274 1103.25 794.181 1087.09C850.24 1076.23 907.887 1072.82 963.263 1074.69C1003.49 1075.99 1043.03 1080.07 1079.76 1085.97C1165.94 1099.66 1242.22 1122.77 1325.85 1143.81C1350.28 1149.9 1375.43 1155.91 1401.52 1161.48C1467.8 1175.71 1537.44 1187.9 1608.72 1189.76C1621.53 1190.08 1634.17 1190.15 1646.66 1189.84C1729.71 1187.79 1808.64 1171.66 1876.2 1145.24C1951.14 1115.89 2013.59 1073.49 2063.83 1026.27" stroke="#737373" stroke-miterlimit="10"/>
<path d="M-558.205 1231.78C-473.494 1168.49 -374.29 1111.26 -261.103 1062.87C-196.739 1035.3 -123.221 1012.25 -46.6378 1006.18C12.8833 1001.52 74.4679 1005.56 123.226 1023.02C213.986 1055.85 239.871 1125.8 336.079 1154.75C396.536 1173.08 467.291 1171.23 533.719 1159.1C549.231 1156.25 564.416 1152.77 579.074 1149.02C653.489 1129.46 723.03 1099.71 805.036 1083.5C860.374 1072.61 917.333 1068.55 972.028 1069.64C1011.74 1070.42 1050.78 1073.62 1087.2 1078.64C1172.41 1090.32 1248.63 1111.21 1331.43 1130.62C1355.7 1136.33 1380.89 1141.85 1406.62 1147.16C1472.76 1160.64 1541.5 1172.79 1611.85 1175.21C1624.47 1175.65 1636.93 1175.82 1649.4 1175.76C1731.32 1174.63 1809.79 1160.32 1877.64 1135.26C1952.67 1107.51 2016.14 1066.27 2065.63 1019.62" stroke="#737373" stroke-miterlimit="10"/>
<path d="M-541.807 1225.91C-458.39 1163.17 -361.194 1106.32 -250.002 1058.07C-184.511 1029.7 -108.978 1006.15 -30.9666 1000.4C27.9943 996.078 88.8384 1000.45 137.249 1017.64C227.141 1049.81 255.299 1117.8 350.073 1146.55C409.99 1164.85 479.604 1164.04 545.806 1152.75C561.305 1150.15 576.477 1146.92 590.948 1143.28C664.944 1124.8 734.432 1096.02 815.717 1079.78C870.521 1068.73 926.599 1064.26 980.446 1064.33C1019.65 1064.47 1058.01 1066.89 1094.28 1071.17C1178.69 1080.97 1254.5 1099.51 1336.84 1117.41C1360.96 1122.63 1385.97 1127.9 1411.73 1132.84C1477.54 1145.69 1545.56 1157.68 1614.97 1160.78C1627.41 1161.33 1639.86 1161.63 1652.15 1161.67C1733.11 1161.6 1810.95 1148.97 1878.9 1125.26C1953.85 1099.11 2018.33 1059.15 2067.43 1012.97" stroke="#737373" stroke-miterlimit="10"/>
<path d="M-525.232 1220.05C-443.116 1157.98 -347.922 1101.39 -238.552 1053.41C-171.927 1024.12 -94.5662 1000.18 -15.1327 994.87C43.4481 990.898 103.378 995.461 151.435 1012.51C240.272 1044.14 271.078 1109.93 364.41 1138.61C423.606 1156.87 492.447 1157.01 558.049 1146.79C573.355 1144.42 588.514 1141.43 602.972 1138.04C676.548 1120.64 746.164 1092.85 826.368 1076.55C880.451 1065.47 935.841 1060.34 989.007 1059.64C1027.7 1059.13 1065.56 1060.8 1101.52 1064.2C1184.95 1071.98 1260.69 1088.43 1342.4 1104.71C1366.35 1109.55 1391.21 1114.32 1416.8 1119C1482.29 1131.1 1549.79 1142.82 1618.25 1146.73C1630.68 1147.4 1642.94 1147.93 1655.05 1147.97C1735.05 1148.83 1812.07 1137.99 1880.49 1115.66C1955.35 1091.22 2020.86 1052.42 2069.57 1006.71" stroke="#737373" stroke-miterlimit="10"/>
<path d="M-508.834 1214.19C-428.018 1152.78 -334.826 1096.45 -227.277 1048.74C-159.525 1018.65 -80.33 994.194 0.712029 989.219C58.9062 985.716 117.922 990.476 165.638 1007.14C253.608 1038.1 286.687 1101.94 378.584 1130.42C437.233 1148.77 504.94 1149.83 570.316 1140.45C585.609 1138.33 600.581 1135.45 615.026 1132.3C688.176 1116.11 757.74 1089.3 837.056 1072.7C890.599 1061.59 945.114 1055.93 997.604 1054.33C1035.61 1053.18 1073.15 1054.09 1108.62 1056.61C1191.25 1062.39 1266.56 1076.6 1347.82 1091.27C1371.8 1095.62 1396.31 1100.12 1421.74 1104.55C1486.91 1115.9 1553.67 1127.82 1621.2 1132.17C1633.45 1132.95 1645.52 1133.6 1657.61 1133.88C1736.48 1135.66 1813.04 1126.64 1881.75 1105.67C1956.52 1082.82 2023.23 1045.31 2071.37 1000.06" stroke="#737373" stroke-miterlimit="10"/>
<path d="M-492.433 1208.32C-412.911 1147.46 -321.72 1091.39 -216.174 1043.94C-147.288 1012.93 -66.2583 987.957 16.3857 983.436C74.1999 980.281 132.302 985.236 179.844 1001.77C266.765 1032.06 302.305 1093.82 392.941 1122.23C451.049 1140.56 517.617 1142.66 582.766 1134.13C597.873 1132.12 612.825 1129.61 627.263 1126.58C700.174 1111.48 769.505 1085.64 847.921 1068.99C900.742 1057.84 954.569 1051.53 1006.38 1049.04C1043.89 1047.25 1080.92 1047.39 1116.07 1049.03C1197.72 1052.92 1272.98 1064.81 1353.6 1077.96C1377.42 1081.81 1401.96 1085.95 1427.03 1090.12C1492.05 1100.84 1557.92 1112.59 1624.52 1117.51C1636.58 1118.4 1648.65 1119.17 1660.55 1119.56C1738.46 1122.39 1814.39 1115.06 1883.39 1095.46C1958.08 1074.19 2025.8 1037.84 2073.55 993.183" stroke="#737373" stroke-miterlimit="10"/>
<path d="M-475.855 1202.34C-397.634 1142.14 -308.445 1086.34 -204.72 1039.16C-134.707 1007.35 -51.8425 981.863 32.2299 977.663C89.664 974.856 146.845 980.13 194.047 996.276C280.093 1026.03 317.913 1085.71 407.114 1113.92C464.502 1132.2 530.116 1135.23 595.026 1127.8C610.12 1126.03 624.879 1123.76 639.304 1120.97C711.796 1106.95 781.074 1082.09 858.588 1065.4C910.869 1054.22 963.829 1047.25 1014.78 1043.97C1051.78 1041.54 1088.13 1040.91 1123.15 1041.69C1204 1043.57 1279.02 1053.23 1358.81 1064.87C1382.48 1068.35 1406.86 1071.99 1431.76 1075.9C1496.46 1085.87 1561.61 1097.58 1627.46 1103.07C1639.33 1104.08 1651.21 1104.96 1663.11 1105.48C1740.07 1109.23 1815.18 1103.57 1884.47 1085.33C1959.06 1065.79 2027.81 1030.59 2075.18 986.402" stroke="#737373" stroke-miterlimit="10"/>
<path d="M-459.458 1196.47C-382.531 1136.82 -295.524 1081.27 -193.447 1034.49C-122.3 1001.76 -37.6009 975.758 48.0735 972.012C104.947 969.543 161.388 975.145 208.243 991.027C293.421 1020.13 333.521 1077.71 421.287 1105.72C478.127 1124.1 542.608 1128.05 607.112 1121.45C622.012 1119.92 636.765 1117.77 651.177 1115.23C723.249 1102.29 792.475 1078.41 869.269 1061.68C920.829 1050.46 973.094 1042.96 1023.37 1038.79C1059.68 1035.71 1095.71 1034.33 1130.41 1034.35C1210.28 1034.34 1285.06 1041.66 1364.39 1051.68C1387.91 1054.66 1412.13 1057.92 1436.87 1061.58C1501.25 1070.79 1565.68 1082.47 1630.58 1088.64C1642.45 1089.77 1654.14 1090.77 1665.84 1091.52C1741.67 1096.2 1816.33 1092.35 1885.9 1075.48C1960.41 1057.52 2030.17 1023.61 2077.15 979.885" stroke="#737373" stroke-miterlimit="10"/>
<path d="M-442.878 1190.62C-367.432 1131.62 -282.247 1076.33 -182.171 1029.82C-109.898 996.287 -23.364 969.775 63.7388 966.351C120.233 964.229 175.76 970.028 222.26 985.768C306.383 1014.32 348.944 1069.83 435.455 1097.65C491.755 1116 555.282 1120.88 619.374 1115.24C634.26 1113.96 648.82 1112.04 663.218 1109.74C734.871 1097.89 804.045 1074.98 879.944 1058.08C930.784 1046.82 982.36 1038.67 1031.96 1033.61C1067.76 1030.01 1103.3 1027.74 1137.5 1026.88C1216.57 1024.86 1291.12 1029.84 1369.8 1038.48C1393.34 1041.09 1417.39 1043.97 1441.8 1047.24C1505.85 1055.83 1569.55 1067.46 1633.53 1074.08C1645.21 1075.32 1656.72 1076.43 1668.41 1077.3C1743.29 1082.91 1817.13 1080.74 1887.17 1065.36C1961.59 1048.99 2032.55 1016.37 2078.96 973.113" stroke="#737373" stroke-miterlimit="10"/>
<path d="M-426.479 1184.75C-352.153 1126.43 -269.323 1071.26 -170.889 1025.03C-97.482 990.575 -9.11343 963.548 79.5914 960.578C135.712 958.681 190.131 964.911 236.472 980.275C319.727 1008.17 364.568 1061.59 449.638 1089.34C505.216 1107.65 567.784 1113.58 631.642 1108.91C646.336 1107.86 660.882 1106.18 675.274 1104.01C746.508 1093.24 815.629 1071.31 890.627 1054.36C940.926 1043.07 991.628 1034.39 1040.56 1028.42C1075.84 1024.18 1110.7 1021.15 1144.77 1019.42C1222.86 1015.51 1297.17 1018.15 1375.4 1025.16C1398.78 1027.27 1422.68 1029.78 1446.91 1032.8C1510.64 1040.63 1573.81 1052.24 1636.84 1059.54C1648.33 1060.9 1659.83 1062.13 1671.17 1063.1C1745.08 1069.76 1818.29 1069.27 1888.61 1055.26C1962.95 1040.48 2034.93 1009.02 2080.95 966.351" stroke="#737373" stroke-miterlimit="10"/>
<path d="M-409.902 1178.89C-336.87 1121.12 -256.042 1066.21 -159.436 1020.37C-84.8956 984.996 5.30775 957.453 95.6146 954.937C151.355 953.388 204.86 959.814 250.847 975.036C333.047 1002.38 380.348 1053.73 463.983 1081.28C519.021 1099.56 580.449 1106.53 644.081 1102.71C658.762 1101.9 673.301 1100.35 687.5 1098.41C758.314 1088.72 827.383 1067.77 901.48 1050.77C951.065 1039.33 1001.07 1030.11 1049.14 1023.37C1083.74 1018.48 1118.27 1014.69 1152.02 1012.08C1229.32 1006.17 1303.39 1006.58 1380.98 1012.09C1404.2 1013.71 1427.94 1015.84 1452.01 1018.6C1515.6 1025.69 1577.86 1037.25 1639.96 1045.12C1651.45 1046.59 1662.76 1047.93 1673.9 1049.14C1746.68 1056.73 1819.26 1057.92 1890.04 1045.4C1964.12 1032.2 2037.3 1002.03 2082.93 959.834" stroke="#737373" stroke-miterlimit="10"/>
<path d="M-393.503 1173.03C-321.773 1115.92 -243.12 1061.14 -148.342 1015.69C-72.8479 979.386 19.19 951.329 111.099 949.267C166.279 948.056 219.044 954.81 264.87 969.655C346.202 996.34 395.964 1045.62 478.157 1073.08C532.648 1091.46 592.949 1099.23 656.349 1096.37C670.842 1095.68 685.362 1094.5 699.548 1092.8C770.123 1084.2 839.139 1064.23 912.155 1047.17C961.199 1035.7 1010.33 1025.95 1057.73 1018.18C1091.82 1012.65 1125.86 1008.1 1159.11 1004.61C1235.43 996.806 1309.41 995.377 1386.38 998.892C1409.46 999.884 1433.03 1001.88 1456.93 1004.27C1520.2 1010.61 1581.75 1022.12 1642.91 1030.68C1654.21 1032.27 1665.33 1033.72 1676.47 1035.05C1748.29 1043.57 1820.23 1046.57 1891.12 1035.4C1965.11 1023.79 2039.31 994.903 2084.55 953.175" stroke="#737373" stroke-miterlimit="10"/>
<path d="M-377.098 1167.04C-306.668 1110.59 -230.017 1056.08 -137.054 1010.78C-60.4267 973.551 33.4459 944.979 126.957 943.37C181.757 942.507 233.608 949.458 279.08 964.162C359.537 990.308 411.586 1037.38 492.338 1064.77C546.108 1083.1 605.629 1091.94 668.436 1090.03C682.916 1089.58 697.243 1088.63 711.422 1087.06C781.577 1079.54 850.541 1060.55 922.837 1043.45C971.16 1031.94 1019.6 1021.54 1066.32 1013C1099.9 1006.83 1133.44 1001.52 1166.37 997.272C1241.89 987.462 1315.48 983.314 1391.79 985.689C1414.88 986.437 1438.3 987.815 1461.86 989.937C1524.81 995.521 1585.63 1007 1646.04 1016.13C1657.15 1017.83 1668.27 1019.4 1679.21 1020.97C1750.08 1030.41 1821.21 1035.09 1892.56 1025.42C1966.47 1015.4 2041.86 987.68 2086.54 946.535" stroke="#737373" stroke-miterlimit="10"/>
<path d="M-360.527 1161.18C-291.391 1105.28 -216.921 1051.02 -125.607 1006.12C-47.8454 967.972 47.8619 938.885 142.795 937.721C197.221 937.083 248.145 944.475 293.27 958.914C372.679 984.392 427.181 1029.51 506.679 1056.71C559.908 1075.01 618.295 1084.77 680.869 1083.83C695.157 1083.62 709.477 1082.79 723.636 1081.59C793.372 1075.15 862.277 1057.26 933.685 1039.87C981.468 1028.32 1029.04 1017.38 1075.09 1007.83C1107.97 1001.13 1141.19 994.943 1173.81 989.823C1248.35 978.121 1321.89 971.517 1397.55 972.508C1420.49 972.757 1443.75 973.759 1467.14 975.627C1529.76 980.579 1589.86 992.02 1649.34 1001.59C1660.27 1003.4 1671.2 1005.09 1682.13 1006.78C1751.87 1017.14 1822.55 1023.51 1894.18 1015.33C1968.01 1006.78 2044.41 980.46 2088.7 939.784" stroke="#737373" stroke-miterlimit="10"/>
<path d="M-344.128 1155.32C-276.293 1100.08 -203.999 1045.94 -114.332 1001.45C-35.6175 962.372 62.1112 932.658 158.633 932.192C212.679 931.901 262.689 939.489 307.467 953.665C386.001 978.605 442.79 1021.51 520.846 1048.63C573.529 1067.04 630.788 1077.59 693.13 1077.62C707.404 1077.65 721.531 1077.06 735.684 1075.98C805.001 1070.62 873.853 1053.7 944.36 1036.27C991.422 1024.69 1038.3 1013.1 1083.49 1002.76C1115.87 995.423 1148.41 988.46 1180.9 982.475C1254.63 968.89 1327.75 959.933 1402.95 959.428C1425.73 959.3 1448.83 959.804 1472.06 961.417C1534.54 965.626 1593.73 977.141 1652.28 987.272C1663.2 989.207 1673.94 991.132 1684.69 992.812C1753.48 1004.11 1823.34 1012.14 1895.44 1005.34C1969.18 998.379 2046.6 973.34 2090.5 933.134" stroke="#737373" stroke-miterlimit="10"/>
<path d="M-327.55 1149.46C-261.009 1094.77 -190.897 1040.88 -103.058 996.778C-23.3902 956.774 76.3534 926.554 174.477 926.542C227.97 926.467 277.233 934.505 321.663 948.417C399.329 972.697 458.392 1013.64 535.013 1040.56C586.975 1058.93 643.275 1070.53 705.384 1071.53C719.471 1071.67 733.585 1071.33 747.544 1070.48C816.442 1066.2 885.241 1050.27 954.847 1032.78C1001.19 1021.16 1047.38 1009.04 1091.89 997.818C1123.76 989.837 1155.8 982.111 1187.79 975.242C1260.55 959.642 1333.61 948.474 1408.17 946.34C1430.98 945.723 1453.73 945.962 1476.8 947.199C1538.95 950.655 1597.43 962.131 1655.22 972.835C1665.96 974.882 1676.69 976.93 1687.25 978.845C1755.08 991.068 1824.31 1000.79 1896.7 995.474C1970.35 990.102 2048.97 966.354 2092.3 926.486" stroke="#737373" stroke-miterlimit="10"/>
<path d="M-311.153 1143.59C-245.912 1089.57 -177.969 1035.69 -91.7782 991.986C-10.9702 950.938 90.6081 920.203 190.147 920.758C243.26 921.031 291.602 929.388 335.865 943.045C412.476 966.778 474.007 1005.52 549.366 1032.38C600.788 1050.71 655.954 1063.24 717.65 1065.2C731.724 1065.58 745.644 1065.47 759.591 1064.87C828.069 1061.67 896.816 1046.72 965.701 1029.19C1011.5 1017.55 1056.82 1004.77 1100.66 992.645C1132.02 984.024 1163.55 975.658 1195.23 967.913C1267.18 950.552 1339.84 936.787 1413.93 933.279C1436.58 932.163 1459.36 932.035 1482.07 933.008C1543.92 935.589 1601.67 947.149 1658.52 958.538C1669.07 960.698 1679.61 962.858 1690.16 964.896C1757.04 978.049 1825.46 989.445 1898.13 985.615C1971.7 981.711 2051.33 959.244 2094.28 919.968" stroke="#737373" stroke-miterlimit="10"/>
<path d="M-294.571 1137.74C-230.631 1084.38 -164.863 1030.63 -80.3203 987.326C1.44119 945.348 105.034 914.109 206.175 915.117C258.914 915.615 306.336 924.291 350.252 937.684C425.995 960.757 489.799 997.54 563.724 1024.19C614.598 1042.62 668.811 1056.08 730.101 1058.87C743.981 1059.5 757.889 1059.63 771.829 1059.15C839.887 1057.03 908.582 1043.06 976.573 1025.36C1021.65 1013.67 1066.28 1000.37 1109.44 987.351C1140.12 978.08 1171.33 968.839 1202.69 960.34C1273.84 940.975 1346.26 924.989 1419.54 919.842C1442.03 918.228 1464.65 917.723 1487.2 918.442C1548.71 920.392 1605.93 931.8 1661.67 943.743C1672.21 946.025 1682.56 948.298 1692.93 950.448C1758.67 964.522 1826.64 977.611 1899.59 975.268C1973.09 972.832 2053.73 951.767 2096.29 912.962" stroke="#737373" stroke-miterlimit="10"/>
<path d="M-278.167 1131.75C-215.522 1078.93 -151.935 1025.43 -69.2206 982.525C13.4942 939.617 119.109 907.75 221.665 909.325C425.689 912.539 541.369 1040.05 741.999 1052.64C867.891 1060.5 998.297 1021.25 1117.66 982.274C1237.03 943.294 1364.31 901.795 1491.93 904.224C1564.68 905.672 1630.51 921.468 1695.49 936.481C1760.28 951.485 1827.43 966.247 1900.84 965.401C1974.25 964.554 2055.91 944.771 2098.08 906.435" stroke="#737373" stroke-miterlimit="10"/>
</g>
<path d="M1974.45 776.896C2171.31 776.896 2330.9 617.309 2330.9 420.448C2330.9 223.587 2171.31 64 1974.45 64C1777.59 64 1618 223.587 1618 420.448C1618 617.309 1777.59 776.896 1974.45 776.896Z" stroke="black" stroke-miterlimit="10"/>
<g clip-path="url(#clip1_2018_10659)">
<rect x="1510" y="188" width="464" height="464" rx="232" fill="url(#paint0_linear_2018_10659)"/>
<path d="M1974.45 776.896C2171.31 776.896 2330.9 617.309 2330.9 420.448C2330.9 223.587 2171.31 64 1974.45 64C1777.59 64 1618 223.587 1618 420.448C1618 617.309 1777.59 776.896 1974.45 776.896Z" stroke="white" stroke-miterlimit="10"/>
</g>
</g>
<defs>
<linearGradient id="paint0_linear_2018_10659" x1="1742" y1="188" x2="1742" y2="652" gradientUnits="userSpaceOnUse">
<stop stop-color="#311996"/>
<stop offset="1" stop-color="#737373"/>
</linearGradient>
<clipPath id="clip0_2018_10659">
<rect width="1920" height="3368" fill="white"/>
</clipPath>
<clipPath id="clip1_2018_10659">
<rect x="1510" y="188" width="464" height="464" rx="232" fill="white"/>
</clipPath>
</defs>
</svg>
