<svg width="1920" height="4705" viewBox="0 0 1920 4705" fill="none" xmlns="http://www.w3.org/2000/svg">
<g clip-path="url(#clip0_2018_11022)">
<rect width="1920" height="4705" fill="white"/>
<path d="M-11 917C109.95 917 208 818.95 208 698C208 577.05 109.95 479 -11 479C-131.95 479 -230 577.05 -230 698C-230 818.95 -131.95 917 -11 917Z" fill="url(#paint0_linear_2018_11022)" fill-opacity="0.7"/>
<mask id="mask0_2018_11022" style="mask-type:luminance" maskUnits="userSpaceOnUse" x="-154" y="1" width="2074" height="1117">
<path d="M-154 1H1920V1118H-154V1Z" fill="white"/>
</mask>
<g mask="url(#mask0_2018_11022)">
<path d="M3233.88 1340.84C3210.2 1234.03 3076.43 1170.36 2947.33 1157.93C2818.22 1145.37 2686.69 1169.8 2556.2 1169.8C2206.56 1169.66 1876.97 975.302 1762.55 701.776C1725.91 614.092 1709.84 520.683 1674.06 432.719C1638.29 344.755 1577.62 259.165 1479.11 217.278C1337.38 157.099 1159.88 203.455 1016.95 270.754C874.016 338.053 740.07 427.134 581.582 457.991C373.318 498.482 157.104 428.81 -2.24882 316.411C-161.428 204.013 -273.943 52.9389 -383.865 -95.6221" stroke="#D4E8F7" stroke-miterlimit="10"/>
<path d="M3241.66 1330.51C3215.73 1224.25 3082.3 1160.72 2953.02 1147.88C2897.2 1142.29 2840.68 1143.69 2784.17 1147.46C2710.02 1152.35 2635.7 1161 2561.9 1162.26C2411.36 1164.91 2264.63 1133.78 2135.7 1073.32C2036.14 1026.68 1947.48 965.11 1876.79 891.248C1826.15 838.749 1785.88 779.548 1757.71 715.321C1745.09 686.558 1734.72 657.097 1725.22 627.357C1705.86 566.9 1689.96 505.465 1664.9 446.962C1636.38 380.64 1593.34 316.412 1529.4 272.71C1509.52 259.026 1487.92 247.298 1464.24 238.083C1364.86 199.546 1249.92 212.811 1140 245.623C1092.47 259.864 1045.81 277.597 1002.43 296.725C953.861 318.088 906.332 341.126 858.976 363.047C765.991 406.331 674.217 446.124 574.838 460.645C510.198 470 446.422 467.626 383.338 456.177C255.096 432.999 129.1 371.145 24.0177 292.257C-4.84547 270.615 -32.326 247.857 -58.9423 224.12C-177.16 118.703 -276.021 -3.18921 -373.499 -118.101" stroke="#D4E8F7" stroke-miterlimit="10"/>
<path d="M3249.44 1320.04C3221.09 1214.34 3088.18 1150.81 2958.73 1137.55C2902.73 1131.82 2846.22 1133.22 2789.53 1137.13C2715.38 1142.29 2641.06 1151.79 2567.44 1154.44C2417.24 1159.89 2270.68 1133.78 2140.54 1075.83C2039.95 1031.15 1949.9 972.51 1876.45 901.441C1823.91 850.618 1782.08 792.394 1752.7 728.585C1739.57 700.102 1728.85 670.641 1718.83 640.901C1698.6 580.583 1681.84 519.008 1655.74 461.064C1626.01 395.161 1581.42 332.469 1515.4 290.861C1495.01 278.016 1473.23 266.985 1449.38 258.608C1349.48 223.562 1236.1 240.038 1126.35 272.989C1078.65 287.231 1031.64 304.405 987.74 322.277C938.655 342.243 890.608 363.187 843.424 382.455C750.785 420.712 661.431 454.362 567.755 462.739C507.09 468.185 449.191 461.902 390.947 447.381C272.901 417.641 153.128 350.202 49.7734 267.683C21.4288 245.064 -6.05182 221.328 -32.841 197.033C-152.269 88.4048 -258.561 -32.3708 -363.471 -141.139" stroke="#D4E8F7" stroke-miterlimit="10"/>
<path d="M3257.21 1309.57C3226.45 1204.43 3094.06 1140.9 2964.43 1127.35C2908.43 1121.49 2851.57 1122.75 2794.88 1126.94C2720.56 1132.52 2646.59 1142.85 2572.96 1146.76C2422.94 1155 2276.9 1133.92 2145.37 1078.49C2043.75 1035.76 1952.15 980.05 1876.1 911.774C1821.48 862.626 1778.28 805.379 1747.68 741.85C1734.03 713.506 1722.8 684.324 1712.25 654.445C1691.17 594.266 1673.54 532.552 1646.4 475.027C1615.47 409.542 1569.49 348.387 1501.22 308.873C1480.31 296.865 1458.36 286.533 1434.51 279.133C1334.27 247.577 1222.27 267.404 1112.69 300.356C1064.82 314.737 1017.64 331.213 973.218 347.828C923.615 366.398 875.222 385.248 828.038 402.003C735.745 434.954 648.637 462.74 560.838 464.974C503.976 466.37 451.953 456.456 398.893 438.724C291.045 402.701 177.493 329.258 76.0402 243.249C48.214 219.513 20.9063 195.078 -6.05566 170.086C-126.52 58.2459 -240.245 -61.4127 -352.932 -163.897" stroke="#D4E8F7" stroke-miterlimit="10"/>
<path d="M3264.99 1299.09C3231.81 1194.65 3099.94 1130.99 2969.97 1117.16C2913.79 1111.16 2856.93 1112.28 2800.07 1116.88C2725.75 1122.75 2651.78 1133.92 2578.33 1139.22C2428.65 1150.11 2282.78 1134.2 2150.22 1081.42C2047.38 1040.65 1954.22 988.009 1875.93 922.385C1819.07 874.913 1774.65 818.644 1743.02 755.533C1728.85 727.469 1717.1 698.287 1706.21 668.407C1684.26 608.229 1665.77 546.654 1637.42 489.408C1605.27 424.482 1557.92 364.583 1487.4 327.443C1465.97 316.133 1443.85 306.779 1419.82 300.077C1319.06 272.012 1208.79 295.19 1099.04 328.141C1051.17 342.662 1003.47 358.44 958.704 373.938C908.582 391.252 859.67 407.867 812.833 422.109C720.885 450.034 636.024 471.536 554.274 467.766C501.214 465.253 455.067 451.43 407.02 430.486C309.196 388.04 202.212 308.873 102.315 219.373C74.8342 194.66 47.6993 169.248 20.5645 143.557C-100.937 28.6456 -222.093 -90.1753 -342.385 -186.237" stroke="#D4E8F7" stroke-miterlimit="10"/>
<path d="M3272.77 1288.62C3237.16 1184.74 3105.81 1121.07 2975.67 1106.97C2919.49 1100.82 2862.46 1101.94 2805.42 1106.69C2731.11 1112.83 2657.13 1124.84 2583.85 1131.54C2434.52 1145.22 2289 1134.19 2155.05 1084.07C2051.18 1045.25 1956.47 995.687 1875.58 932.855C1816.64 887.058 1770.84 831.627 1738.01 768.936C1723.31 741.011 1711.04 711.969 1699.81 682.229C1677 622.19 1657.64 560.475 1628.26 503.788C1594.9 439.281 1546.16 380.918 1473.4 345.872C1451.62 335.4 1429.15 326.743 1405.13 320.879C1304.02 296.445 1195.14 322.694 1085.56 355.925C1037.51 370.446 989.464 385.665 944.182 399.907C893.542 415.824 844.284 430.345 797.446 441.934C705.845 464.693 622.885 480.191 547.357 470.278C497.926 463.855 458.002 446.123 414.793 422.107C326.994 373.099 226.405 288.346 128.236 195.216C101.274 169.525 74.1391 143.276 46.8314 116.887C-75.7074 -1.23596 -204.469 -118.94 -332.365 -208.719" stroke="#D4E8F7" stroke-miterlimit="10"/>
<path d="M3280.72 1278.29C3242.7 1174.97 3111.86 1111.44 2981.54 1096.92C2925.2 1090.63 2867.99 1091.61 2810.96 1096.64C2736.47 1103.2 2662.84 1116.04 2589.56 1124C2440.4 1140.34 2295.22 1134.47 2160.07 1086.86C2055.16 1050.14 1958.72 1003.51 1875.41 943.328C1814.23 899.207 1767.22 844.753 1733.17 782.48C1718.13 754.695 1705.34 725.792 1693.42 696.052C1669.74 636.153 1649.34 574.299 1619.1 518.03C1584.53 454.082 1534.41 396.975 1459.4 364.164C1437.11 354.39 1414.46 346.571 1390.27 341.544C1288.81 320.601 1181.48 350.201 1071.91 383.432C1023.69 398.093 975.294 412.613 929.666 425.599C878.508 440.12 828.905 452.546 782.067 461.622C690.811 479.354 609.579 488.43 540.446 472.652C494.472 462.18 460.77 440.678 422.746 413.451C345.144 358.02 250.777 267.403 154.336 170.783C127.893 143.975 100.758 116.888 73.2772 89.9402C-50.4715 -31.394 -186.491 -147.981 -321.993 -231.616" stroke="#D4E8F7" stroke-miterlimit="10"/>
<path d="M3288.5 1267.82C3248.06 1165.19 3117.74 1101.53 2987.25 1086.59C2930.91 1080.16 2873.53 1081.14 2816.32 1086.45C2741.83 1093.29 2668.2 1106.97 2595.09 1116.33C2446.28 1135.45 2301.28 1134.62 2164.91 1089.52C2058.96 1054.75 1960.79 1011.19 1875.07 953.663C1811.81 911.217 1763.42 857.74 1728.16 795.886C1712.61 768.38 1699.3 739.478 1687.03 709.738C1662.48 649.838 1641.23 587.985 1609.94 532.135C1574.17 468.605 1522.66 412.895 1445.41 382.457C1422.76 373.521 1399.78 366.4 1375.58 362.211C1273.61 344.758 1167.83 377.709 1058.43 410.94C1010.21 425.601 961.299 439.563 915.325 451.292C863.821 464.416 813.526 474.749 766.861 481.172C675.951 493.738 596.448 496.391 533.882 474.888C491.192 460.228 464.057 435.095 430.873 404.797C363.295 342.803 275.323 246.601 180.61 146.351C154.513 118.565 127.723 90.6403 99.8973 62.9946C-24.8884 -61.5509 -168.513 -177.16 -311.619 -254.373" stroke="#D4E8F7" stroke-miterlimit="10"/>
<path d="M3296.27 1257.34C3253.41 1155.28 3123.61 1091.61 2992.78 1076.39C2936.26 1069.83 2878.71 1070.67 2821.5 1076.25C2747.01 1083.51 2673.38 1098.03 2600.62 1108.64C2452.16 1130.57 2307.49 1134.75 2169.75 1092.31C2062.76 1059.5 1963.04 1019.01 1874.72 964.132C1809.22 923.362 1759.61 870.863 1723.14 809.288C1707.07 781.922 1693.24 753.159 1680.45 723.419C1655.05 663.659 1632.93 601.666 1600.61 546.235C1563.62 483.124 1510.9 428.81 1431.23 400.606C1408.07 392.368 1384.91 386.085 1360.54 382.874C1258.22 368.911 1154 405.074 1044.6 438.444C996.207 453.245 946.95 466.509 900.457 477.12C848.435 488.989 797.795 497.087 751.13 500.996C660.565 508.536 582.444 504.487 526.619 477.4C487.213 458.411 466.473 429.788 438.474 396.417C381.093 327.861 299.343 226.075 206.532 122.194C180.952 93.431 154.163 64.5286 126.164 36.3243C0.341372 -91.4325 -150.715 -205.925 -301.425 -276.854" stroke="#D4E8F7" stroke-miterlimit="10"/>
<path d="M3304.05 1246.87C3258.77 1145.37 3129.49 1081.7 2998.49 1066.2C2941.97 1059.5 2884.24 1060.2 2826.86 1066.06C2752.37 1073.6 2678.92 1088.96 2606.15 1101.11C2457.86 1125.68 2313.55 1135.03 2174.59 1095.1C2066.57 1064.24 1965.11 1026.83 1874.38 974.745C1806.63 935.79 1755.81 884.128 1718.14 822.973C1701.54 795.885 1687.37 767.123 1674.06 737.383C1647.62 677.763 1624.81 615.63 1591.45 560.757C1553.25 498.205 1499.16 445.147 1417.23 419.317C1393.73 411.917 1370.22 406.471 1345.85 403.958C1243.19 393.486 1140.35 433 1031.12 466.37C982.557 481.171 933.127 493.877 886.116 503.231C833.575 513.703 782.589 519.707 736.097 520.964C645.878 523.337 569.485 512.307 520.055 480.054C484.106 456.597 469.761 424.623 446.601 388.041C399.245 312.923 324.062 205.411 232.806 98.0396C207.572 68.2995 180.956 38.5594 152.784 9.51743C25.9245 -121.451 -132.736 -234.826 -291.052 -299.612" stroke="#D4E8F7" stroke-miterlimit="10"/>
<path d="M3311.83 1236.4C3264.3 1135.45 3135.37 1071.92 3004.18 1056.01C2947.5 1049.16 2889.77 1049.86 2832.39 1055.87C2757.72 1063.82 2684.44 1079.88 2611.85 1093.43C2463.91 1120.79 2319.94 1135.03 2179.6 1097.75C2070.37 1068.85 1967.18 1034.64 1874.2 985.076C1804.2 947.797 1752.18 897.113 1713.29 836.236C1696.18 809.289 1681.49 780.665 1667.84 750.925C1640.53 691.305 1616.85 629.172 1582.46 574.719C1543.05 512.585 1487.74 460.785 1403.4 437.328C1379.38 430.626 1355.7 426.018 1331.16 424.343C1227.98 417.501 1126.87 460.086 1017.64 493.736C969.072 508.676 919.123 520.684 871.767 528.782C818.707 537.858 767.375 541.907 720.883 540.51C631.183 537.858 556.346 519.427 513.483 482.287C480.818 454.083 472.867 419.037 454.893 379.383C417.734 297.703 348.773 184.606 259.245 73.6044C234.53 42.7473 208.087 12.309 179.569 -17.4311C51.4996 -151.611 -114.42 -263.869 -280.513 -322.372" stroke="#D4E8F7" stroke-miterlimit="10"/>
<path d="M3319.6 1226.07C3269.65 1125.82 3141.24 1062.15 3009.88 1045.95C2953.19 1038.97 2895.12 1039.53 2837.74 1045.95C2763.08 1054.19 2689.8 1071.23 2617.38 1086.03C2469.61 1116.18 2325.98 1135.45 2184.43 1100.69C2074.16 1073.88 1969.25 1042.6 1873.85 995.688C1801.78 960.223 1748.37 910.377 1708.28 849.92C1690.65 823.251 1675.44 794.628 1661.27 764.888C1633.09 705.408 1608.55 643.275 1572.95 589.1C1532.33 527.526 1475.82 476.981 1388.88 455.758C1364.51 449.754 1340.49 445.984 1315.77 445.147C1212.24 441.796 1112.52 487.732 1003.46 521.382C954.723 536.462 904.428 547.771 856.554 554.752C802.975 562.432 751.125 564.387 704.806 560.477C615.451 552.798 542.688 526.967 505.875 485.08C477.011 452.128 475.11 414.01 461.975 371.145C435.013 282.902 372.275 164.221 284.475 49.7287C260.279 17.8942 233.835 -13.5214 205.317 -43.82C76.2109 -181.071 -97.1407 -292.492 -270.838 -344.572" stroke="#D4E8F7" stroke-miterlimit="10"/>
<path d="M3327.38 1215.6C3275.01 1115.91 3147.12 1052.24 3015.42 1035.62C2958.56 1028.5 2900.48 1028.92 2842.93 1035.62C2768.27 1044.14 2695.16 1062.01 2622.74 1078.21C2475.31 1111.02 2331.86 1135.45 2189.28 1103.34C2077.97 1078.49 1971.33 1050.42 1873.68 1006.02C1799.36 972.231 1744.75 923.362 1703.44 863.324C1685.29 836.795 1669.57 808.312 1655.05 778.571C1626.01 719.231 1600.6 656.958 1563.96 603.342C1522.31 542.186 1464.41 492.899 1375.06 474.189C1350.17 469.023 1325.97 465.951 1301.26 465.951C1197.38 466.091 1099.22 515.378 990.157 549.028C941.246 564.107 890.605 574.858 842.385 580.583C788.288 587.006 736.092 586.727 689.773 580.164C600.764 567.458 530.248 534.088 499.311 487.453C474.25 449.615 478.398 408.565 470.275 362.628C453.51 267.823 396.993 143.417 310.922 25.4341C287.071 -7.37776 260.801 -39.6311 232.11 -70.6279C101.967 -211.091 -78.9893 -321.394 -260.291 -367.191" stroke="#D4E8F7" stroke-miterlimit="10"/>
<path d="M3335.34 1205.13C3280.55 1105.99 3153.34 1042.32 3021.3 1025.43C2964.44 1018.17 2906.02 1018.59 2848.46 1025.43C2773.63 1034.36 2700.69 1052.93 2628.45 1070.53C2481.37 1106.13 2338.26 1135.59 2194.29 1105.99C2081.95 1083.09 1973.58 1058.1 1873.51 1016.49C1796.95 984.518 1741.12 936.487 1698.6 876.728C1679.94 850.339 1663.86 821.995 1648.66 792.255C1618.76 732.914 1592.48 670.641 1554.81 617.444C1511.94 556.847 1452.84 508.676 1361.06 492.34C1335.83 487.872 1311.28 485.778 1286.4 486.616C1182.01 490.246 1085.39 542.745 976.334 576.534C927.422 591.753 876.263 601.806 827.697 606.274C773.082 611.301 720.54 609.067 674.221 599.851C585.73 582.119 517.634 541.348 492.227 489.827C471.315 447.241 481.166 403.12 477.882 353.972C471.314 252.604 421.193 122.613 336.85 0.999792C313.518 -32.9291 287.247 -66.0202 258.384 -97.5755C127.03 -241.25 -61.185 -350.436 -250.092 -390.09" stroke="#D4E8F7" stroke-miterlimit="10"/>
<path d="M3343.11 1194.65C3285.9 1096.22 3159.21 1032.41 3027 1015.24C2969.96 1007.83 2911.54 1008.11 2853.82 1015.37C2778.98 1024.59 2706.22 1044.14 2634.15 1062.99C2487.24 1101.38 2344.48 1135.87 2199.3 1108.78C2085.92 1087.84 1975.65 1066.06 1873.33 1026.96C1794.52 996.805 1737.49 949.611 1693.76 890.271C1674.58 864.161 1657.98 835.817 1642.43 806.216C1611.66 747.015 1584.53 684.603 1545.82 631.825C1501.74 571.646 1441.42 524.732 1347.23 510.77C1321.48 507 1296.76 505.743 1271.87 507.419C1167.14 514.54 1072.08 570.39 963.021 604.179C913.937 619.398 862.605 628.893 813.348 632.104C758.387 635.734 705.327 631.406 659.18 619.538C571.035 596.919 505.704 548.608 485.829 492.2C469.064 444.867 484.446 397.674 486.347 345.454C489.976 237.663 446.077 101.948 363.462 -23.2958C340.476 -58.2021 314.551 -92.131 285.342 -124.524C152.952 -271.409 -42.8688 -379.619 -239.38 -412.85" stroke="#D4E8F7" stroke-miterlimit="10"/>
<path d="M3350.89 1184.18C3291.26 1086.31 3165.09 1022.64 3032.7 1005.04C2975.67 997.504 2916.91 997.783 2859.18 1005.18C2784.34 1014.82 2711.58 1035.06 2639.68 1055.31C2493.12 1096.36 2350.7 1135.87 2204.14 1111.58C2089.73 1092.73 1977.73 1074.02 1872.99 1037.44C1791.76 1009.09 1733.52 962.737 1688.75 903.676C1669.05 877.705 1651.94 849.641 1636.04 819.901C1604.41 760.839 1576.24 698.287 1536.66 646.068C1491.38 586.308 1429.68 540.511 1333.23 529.201C1307.14 526.13 1281.9 525.711 1257.01 528.224C1151.76 538.836 1058.26 598.037 949.371 631.965C900.114 647.324 848.437 656.121 798.834 658.215C743.354 660.449 689.776 654.166 643.802 639.645C556.003 611.999 493.61 556.428 478.919 494.993C466.475 442.913 487.388 392.648 494.128 337.357C508.128 223.004 470.277 81.5637 389.391 -47.1706C366.923 -83.0542 340.998 -117.96 311.616 -150.912C178.189 -301.009 -25.0627 -408.101 -229.179 -435.049" stroke="#D4E8F7" stroke-miterlimit="10"/>
<path d="M3358.66 1173.85C3296.62 1076.53 3170.97 1012.86 3038.23 994.991C2981.02 987.311 2922.26 987.451 2864.36 995.13C2789.35 1005.04 2716.76 1026.27 2645.04 1047.77C2498.82 1091.61 2356.58 1136.15 2208.8 1114.37C2093.18 1097.48 1979.63 1081.98 1872.47 1047.91C1788.99 1021.38 1729.54 975.722 1683.56 917.219C1663.34 891.528 1645.71 863.464 1629.29 833.724C1596.8 774.662 1567.76 712.11 1527.15 660.309C1480.66 601.108 1417.75 556.289 1318.88 547.492C1292.44 545.119 1266.86 545.538 1241.97 548.889C1136.37 563.13 1044.43 625.403 935.54 659.472C886.11 674.83 834.087 683.068 784.138 683.906C728.14 684.883 674.216 676.366 628.243 659.192C540.789 626.52 481.334 563.828 471.828 497.227C463.878 440.679 490.322 387.063 501.901 328.56C526.444 207.645 494.47 60.62 415.312 -71.7445C393.362 -108.606 367.437 -144.35 337.883 -177.999C203.591 -331.307 -7.09278 -437.422 -218.986 -458.087" stroke="#D4E8F7" stroke-miterlimit="10"/>
<path d="M3366.45 1163.38C3301.98 1066.62 3176.85 1002.95 3043.94 984.657C2986.73 976.838 2927.79 976.838 2869.72 984.797C2794.71 995.129 2722.3 1017.05 2650.57 1039.95C2504.53 1086.58 2362.8 1136.15 2213.65 1116.88C2096.98 1101.94 1981.53 1089.8 1872.13 1058.1C1786.4 1033.39 1725.74 988.567 1678.55 930.483C1657.99 904.932 1639.84 877.007 1622.9 847.266C1589.37 788.345 1559.65 725.793 1517.99 674.271C1470.29 615.489 1406.17 571.926 1304.89 565.503C1277.93 563.828 1252.17 565.224 1227.11 569.273C1121.17 587.005 1030.6 652.629 921.89 686.698C872.46 702.196 819.919 709.736 769.624 709.317C713.108 708.898 658.838 698.426 612.865 678.599C525.756 640.901 469.24 571.088 465.092 499.321C461.635 438.165 493.436 381.338 509.856 319.763C544.422 192.425 519.016 39.6754 441.414 -96.3194C419.81 -134.297 394.23 -170.879 364.33 -205.087C229.002 -361.328 10.8859 -466.326 -208.612 -480.707" stroke="#D4E8F7" stroke-miterlimit="10"/>
<path d="M3374.22 1152.91C3307.33 1056.84 3182.72 993.035 3049.64 974.465C2992.26 966.506 2933.15 966.506 2875.08 974.744C2800.07 985.355 2727.65 1008.11 2656.1 1032.41C2510.4 1081.7 2368.85 1136.43 2218.48 1119.67C2100.78 1106.69 1983.6 1097.75 1871.78 1068.71C1783.81 1045.81 1721.93 1001.83 1673.54 944.026C1652.45 918.754 1633.79 890.829 1616.33 861.089C1581.94 802.307 1551.35 739.615 1508.48 688.652C1459.57 630.429 1394.24 587.703 1290.54 584.073C1263.23 583.096 1237.13 585.33 1212.07 590.356C1105.61 611.579 1016.77 680.554 908.06 714.623C858.456 730.261 805.569 737.102 754.756 735.427C697.721 733.612 642.933 721.185 597.132 698.705C510.37 656.12 456.792 579.186 457.829 502.113C458.693 436.49 495.852 376.311 517.456 311.525C562.22 177.625 543.035 19.1506 467.334 -120.195C446.249 -159.151 420.669 -196.57 390.596 -231.616C253.885 -391.207 28.3377 -495.228 -198.765 -503.326" stroke="#D4E8F7" stroke-miterlimit="10"/>
<path d="M3382 1142.43C3312.87 1046.93 3188.6 983.262 3055.34 964.273C2997.96 956.175 2938.68 956.035 2880.44 964.552C2805.43 975.443 2733.01 999.179 2661.63 1024.73C2516.28 1076.81 2374.9 1136.57 2223.5 1122.47C2104.76 1111.44 1985.85 1105.71 1871.61 1079.18C1781.39 1058.1 1718.31 1014.96 1668.88 957.571C1647.27 932.439 1628.09 904.653 1610.29 874.913C1575.03 816.131 1543.57 753.44 1499.67 702.895C1449.55 645.091 1382.84 603.482 1276.89 602.365C1249.06 602.086 1222.79 605.158 1197.56 611.022C1090.75 635.736 1003.29 707.922 894.755 742.13C844.979 757.768 791.747 764.051 740.588 761.259C683.034 758.047 627.728 743.666 582.273 718.394C495.683 670.921 445.216 587.006 451.438 504.488C456.796 434.536 499.313 370.867 525.756 303.009C580.717 162.547 567.755 -1.51287 493.782 -144.489C473.215 -184.422 447.636 -222.679 417.563 -258.423C279.814 -421.226 46.6619 -524.129 -188.046 -526.084" stroke="#D4E8F7" stroke-miterlimit="10"/>
<path d="M3389.95 1132.1C3318.39 1037.16 3194.64 973.488 3061.04 954.22C3003.49 945.982 2944.04 945.703 2885.79 954.5C2810.61 965.809 2738.54 990.244 2667.33 1017.19C2522.15 1072.06 2381.29 1136.71 2228.51 1125.26C2108.73 1116.32 1987.92 1113.95 1871.6 1089.66C1779.14 1070.67 1714.84 1028.08 1664.2 970.975C1642.08 945.982 1622.55 918.337 1604.23 888.596C1568.11 829.954 1535.79 767.123 1490.85 716.997C1439.52 659.612 1371.6 619.12 1263.23 620.517C1235.06 620.936 1208.44 624.845 1183.21 631.547C1076.05 659.751 990.155 735.288 881.615 769.636C831.839 785.414 778.261 790.999 726.584 786.95C668.512 782.482 612.859 765.866 567.404 738.081C481.16 685.582 433.631 594.826 445.211 506.862C455.063 432.442 502.937 365.561 534.393 294.492C599.551 147.607 592.811 -22.1773 520.566 -168.784C500.345 -209.694 475.111 -248.928 444.692 -285.231C305.907 -451.245 65.3232 -553.032 -176.989 -548.703" stroke="#D4E8F7" stroke-miterlimit="10"/>
<path d="M3397.73 1121.63C3291.78 986.612 3085.24 914.286 2891.15 944.306C2662.67 979.631 2462.87 1141.18 2233.35 1127.91C2112.54 1120.93 1990 1121.77 1871.26 1099.99C1735.24 1075.13 1659.37 1000.02 1597.67 902.279C1518.34 776.756 1456.46 631.267 1249.06 638.806C1099.04 644.252 1001.74 754.695 867.792 797.141C761.672 830.791 637.578 815.292 551.68 757.767C465.782 700.241 421.018 602.643 437.955 509.234C452.128 430.486 505.36 360.115 541.828 285.834C638.269 89.5216 610.616 -142.954 470.621 -312.18C330.626 -481.405 82.7826 -582.214 -167.307 -571.463" stroke="#D4E8F7" stroke-miterlimit="10"/>
<path d="M3385.45 1140.9C3277.95 1016.49 3072.62 949.193 2879.92 976.699C2783.47 990.383 2692.05 1025.15 2601.83 1058.8C2509.36 1093.43 2418.28 1127.08 2323.22 1136.85C2292.63 1140.06 2261.52 1140.76 2230.06 1138.11C2111.67 1128.19 1992.24 1125.82 1874.03 1103.34C1740.08 1077.93 1662.65 1005.88 1598.87 913.589C1584.18 892.366 1570.01 870.724 1555.49 849.361C1512.98 786.53 1467.69 727.05 1395.97 693.959C1355.87 675.528 1307.65 665.056 1247.68 666.732C1099.56 670.781 1002.77 771.73 872.975 808.032C855.691 812.78 838.062 816.27 820.26 818.504C731.597 829.395 637.748 808.73 569.306 760.141C487.038 701.778 444.521 605.157 459.903 512.725C472.865 434.396 522.814 363.606 556.344 289.325C614.243 161.15 620.811 18.3133 579.158 -111.538C556.69 -180.932 520.567 -246.416 471.137 -304.22C381.091 -409.777 248.528 -487.827 99.7182 -529.017C14.1657 -552.753 -76.7446 -563.923 -167.828 -560.712" stroke="#D4E8F7" stroke-miterlimit="10"/>
<path d="M3373.19 1160.31C3264.13 1046.37 3060.01 984.239 2868.69 1009.37C2772.59 1021.94 2681.51 1053.49 2592.15 1083.37C2500.55 1114.09 2411.37 1143.27 2317.87 1149.97C2287.79 1152.21 2257.38 1151.93 2226.61 1148.58C2110.81 1135.87 1994.15 1130.29 1876.62 1106.83C1744.58 1080.86 1665.94 1011.61 1599.92 924.899C1584.71 904.932 1569.84 884.687 1554.98 864.721C1511.08 806.078 1465.28 751.066 1393.55 720.628C1353.28 703.593 1305.41 693.68 1246.47 694.797C1100.26 697.45 1003.82 789.044 878.166 819.203C861.401 823.112 844.463 825.905 827.18 827.441C741.8 834.841 652.099 812.082 586.768 762.934C508.302 703.733 467.686 608.09 481.859 516.496C493.784 438.585 540.103 367.516 570.695 293.096C623.582 164.92 626.52 22.6421 582.621 -105.673C558.77 -174.508 521.437 -239.155 471.316 -295.982C379.887 -399.724 247.151 -476.098 98.1686 -517.148C12.7889 -540.745 -77.7754 -552.194 -168.686 -549.681" stroke="#D4E8F7" stroke-miterlimit="10"/>
<path d="M3361.09 1179.71C3250.47 1076.39 3047.57 1019.14 2857.45 1041.9C2761.87 1053.21 2671.14 1081.7 2582.64 1107.95C2491.91 1134.75 2404.45 1159.61 2312.85 1163.1C2283.3 1164.21 2253.74 1163.1 2223.5 1159.05C2110.12 1143.41 1996.57 1134.47 1879.73 1110.32C1749.76 1083.51 1669.57 1017.47 1601.64 936.207C1585.91 917.497 1570.53 898.648 1555.15 880.077C1509.87 825.763 1463.38 775.08 1391.82 747.294C1351.38 731.517 1303.68 722.301 1245.78 722.86C1101.46 723.977 1005.54 806.495 884.038 830.231C867.965 833.443 851.373 835.258 834.954 836.096C752.858 840.145 667.478 815.292 605.258 765.306C530.421 705.267 491.879 610.601 504.669 519.845C515.385 442.213 558.42 371.005 586.074 296.445C633.948 168.13 633.775 26.6895 587.283 -100.09C562.222 -168.506 523.508 -232.175 472.695 -288.025C379.883 -390.091 246.974 -464.651 97.6463 -505.701C12.4395 -529.158 -77.9524 -540.747 -168.517 -538.931" stroke="#D4E8F7" stroke-miterlimit="10"/>
<path d="M3348.81 1199.12C3236.64 1106.41 3034.95 1054.19 2846.21 1074.44C2750.98 1084.49 2660.76 1110.04 2573.14 1132.38C2483.44 1155.42 2397.54 1175.67 2307.66 1175.94C2278.8 1176.08 2249.77 1174.13 2220.21 1169.24C2109.42 1150.95 1998.64 1138.52 1882.49 1113.67C1754.6 1086.31 1672.85 1023.19 1602.85 947.378C1586.6 929.925 1570.7 912.472 1554.8 895.438C1508.14 845.312 1460.95 799.096 1389.57 773.824C1348.96 759.443 1301.43 751.065 1244.57 750.786C1102.15 750.228 1006.57 823.531 889.394 841.124C873.839 843.497 857.938 844.614 842.037 844.754C763.225 845.312 681.993 818.365 622.884 767.82C551.85 706.944 515.555 613.256 526.789 523.477C536.468 446.264 575.874 374.636 600.589 299.937C643.452 171.622 639.822 30.7401 591.083 -94.3639C564.64 -162.361 524.888 -225.053 473.211 -280.065C379.017 -380.316 245.762 -453.2 96.434 -494.11C11.4 -517.428 -78.6463 -529.296 -169.038 -528.179" stroke="#D4E8F7" stroke-miterlimit="10"/>
<path d="M3336.55 1218.53C3222.65 1136.29 3022.51 1089.24 2834.98 1106.97C2740.27 1115.76 2650.23 1138.24 2563.46 1156.81C2474.63 1175.94 2390.63 1191.86 2302.31 1188.93C2273.97 1188.09 2245.62 1185.16 2216.93 1179.57C2108.57 1158.49 2000.89 1142.71 1885.44 1117.02C1759.62 1088.96 1676.31 1028.78 1604.24 958.547C1587.47 942.211 1570.88 926.293 1554.64 910.655C1506.76 864.719 1458.89 823.111 1387.33 800.352C1346.54 787.367 1299.36 779.268 1243.36 778.71C1102.85 777.314 1007.79 840.703 894.757 852.152C879.721 853.688 864.512 853.968 849.302 853.409C773.774 850.477 696.69 821.575 640.692 770.332C573.287 708.478 539.066 615.907 548.918 526.966C557.387 450.172 593.509 378.265 615.113 303.426C652.791 175.111 645.877 34.9275 594.892 -88.7803C567.065 -156.359 526.104 -218.073 473.735 -272.108C378.331 -370.543 244.731 -441.613 95.0574 -482.523C10.0234 -505.7 -79.504 -517.848 -169.55 -517.429" stroke="#D4E8F7" stroke-miterlimit="10"/>
<path d="M3324.45 1237.8C3208.99 1166.17 3010.06 1124 2823.75 1139.5C2729.38 1147.04 2639.85 1166.45 2553.95 1181.39C2465.98 1196.75 2383.71 1208.06 2297.3 1202.06C2269.47 1200.1 2241.82 1196.47 2213.82 1190.05C2108.04 1166.03 2003.13 1147.04 1888.37 1120.51C1764.62 1091.89 1679.76 1034.64 1605.62 969.859C1588.33 954.779 1571.22 940.258 1554.46 926.016C1505.2 884.408 1456.64 847.128 1385.26 827.022C1344.12 815.433 1297.28 807.894 1242.32 806.777C1103.71 803.984 1009 858.019 900.285 863.185C885.767 863.883 871.249 863.464 856.731 862.208C784.486 855.785 711.551 824.928 658.664 772.987C595.061 710.296 562.914 618.841 571.383 530.598C578.815 454.224 611.48 381.898 630.146 307.059C662.812 178.743 652.442 39.258 599.209 -82.9139C570 -149.934 527.829 -210.81 474.596 -263.868C377.81 -360.628 244.036 -429.882 94.1898 -470.652C9.32865 -493.83 -80.0261 -506.117 -169.727 -506.257" stroke="#D4E8F7" stroke-miterlimit="10"/>
<path d="M3312.17 1257.2C3195.16 1196.05 2997.44 1159.05 2812.51 1172.03C2718.66 1178.32 2629.31 1194.65 2544.45 1205.82C2457.34 1217.27 2376.97 1224.11 2292.11 1215.04C2264.97 1212.11 2237.84 1207.5 2210.53 1200.52C2107.18 1173.71 2005.38 1151.37 1891.31 1124C1769.46 1094.82 1683.22 1040.51 1607 981.306C1589.2 967.483 1571.57 954.219 1554.28 941.513C1503.82 904.093 1454.39 871.421 1383.18 853.828C1341.87 843.636 1295.21 836.654 1241.46 834.979C1104.74 830.79 1010.38 875.47 905.986 874.353C891.986 874.213 877.987 872.957 864.16 871.002C795.372 861.089 726.412 828.137 676.636 775.638C616.663 712.109 586.59 621.632 593.676 534.366C599.898 458.41 628.934 385.805 644.835 310.827C672.142 182.372 658.488 43.5844 603.182 -76.912C572.59 -143.513 529.382 -203.412 475.285 -255.632C377.116 -350.577 242.997 -418.156 92.9778 -458.926C8.28942 -481.964 -80.7198 -494.391 -170.248 -495.368" stroke="#D4E8F7" stroke-miterlimit="10"/>
<path d="M3299.91 1276.61C3181.34 1226.07 2984.83 1194.37 2801.28 1204.57C2707.78 1209.73 2618.94 1223 2534.77 1230.26C2448.7 1237.8 2369.89 1240.17 2286.76 1228.02C2260.14 1224.11 2233.7 1218.67 2207.08 1210.85C2106.15 1181.25 2007.29 1155.7 1893.91 1127.49C1774.13 1097.75 1686.16 1046.37 1608.21 992.616C1589.89 980.05 1571.75 968.182 1553.94 956.872C1502.27 923.781 1451.97 895.437 1380.94 880.358C1339.46 871.561 1293.14 864.999 1240.25 862.905C1105.44 857.32 1011.42 892.645 911.349 885.384C898.041 884.407 884.56 882.452 871.425 879.799C805.921 866.395 741.281 831.489 694.443 778.152C638.273 713.785 610.101 624.286 615.977 537.858C621.162 462.181 646.741 389.436 659.704 314.318C681.999 185.863 664.889 47.7739 607.163 -71.3262C575.188 -137.508 530.77 -196.43 475.982 -247.673C376.43 -340.942 242.139 -406.705 91.9463 -447.336C7.4308 -470.235 -81.2328 -482.941 -170.588 -484.616" stroke="#D4E8F7" stroke-miterlimit="10"/>
<path d="M3287.8 1296.02C3167.69 1255.95 2972.56 1229.42 2790.04 1237.1C2697.06 1241.01 2608.4 1251.2 2525.26 1254.69C2440.06 1258.46 2363.15 1256.37 2281.74 1241.01C2255.64 1236.12 2229.89 1229.7 2203.97 1221.18C2105.62 1188.65 2009.7 1159.89 1896.84 1130.85C1779.14 1100.55 1689.61 1051.96 1609.59 1003.79C1590.75 992.477 1571.92 982.006 1553.77 972.092C1500.88 943.19 1449.72 919.454 1378.69 906.887C1337.03 899.487 1290.89 893.483 1239.04 890.831C1106.13 883.849 1012.45 909.68 916.531 896.276C903.741 894.461 890.952 891.668 878.335 888.317C816.115 871.423 755.623 834.422 711.896 780.527C659.355 715.322 633.43 626.8 637.751 541.349C641.726 466.091 663.849 392.928 673.873 317.67C691.156 189.215 670.416 51.8239 610.616 -65.7403C577.259 -131.364 531.631 -189.448 476.152 -239.713C375.39 -331.167 240.753 -395.255 90.215 -435.747C5.8723 -458.505 -82.6186 -471.491 -171.628 -473.725" stroke="#D4E8F7" stroke-miterlimit="10"/>
<path d="M3275.53 1315.43C3153.86 1285.97 2959.94 1264.33 2778.81 1269.63C2686.17 1272.29 2598.02 1279.41 2515.76 1279.27C2431.41 1279.13 2356.23 1272.7 2276.55 1253.99C2251.15 1247.99 2225.91 1240.73 2200.68 1231.52C2104.76 1196.19 2011.77 1164.22 1899.78 1134.2C1783.98 1103.34 1692.9 1057.68 1610.97 1014.96C1591.62 1004.9 1572.26 995.828 1553.59 987.311C1499.5 962.598 1447.47 943.469 1376.61 933.416C1334.61 927.412 1288.98 921.967 1238 918.755C1106.99 910.378 1013.66 926.854 922.059 907.166C909.788 904.514 897.69 901.023 885.764 896.974C826.828 876.588 770.485 837.633 729.869 783.04C681.13 716.997 657.106 629.452 660.217 544.84C662.982 470.001 681.821 396.558 688.907 321.16C701.006 192.705 676.982 55.8728 614.935 -60.016C580.022 -125.221 533.53 -182.327 477.187 -231.755C375.042 -321.394 240.232 -383.806 89.5213 -424.298C5.35144 -446.917 -82.7936 -460.042 -171.457 -463.113" stroke="#D4E8F7" stroke-miterlimit="10"/>
<path d="M3263.27 1334.7C3140.04 1315.85 2947.33 1299.23 2767.58 1302.16C2675.46 1303.7 2587.66 1307.61 2506.08 1303.7C2422.78 1299.79 2349.32 1288.76 2271.2 1266.98C2246.31 1260 2221.77 1251.9 2197.4 1241.85C2104.07 1203.59 2013.85 1168.4 1902.55 1137.69C1788.82 1106.27 1696.01 1063.55 1612.19 1026.27C1592.31 1017.47 1572.44 1009.79 1553.25 1002.67C1497.95 982.284 1445.06 967.623 1374.37 959.944C1332.2 955.336 1286.74 950.449 1236.97 946.679C1107.86 936.766 1014.88 943.887 927.596 918.196C915.843 914.705 904.263 910.377 893.202 905.63C837.55 881.754 785.354 840.844 748.022 785.552C702.912 718.672 680.962 632.104 682.691 548.329C684.246 473.909 699.629 400.187 703.777 324.65C710.863 196.195 683.209 60.0605 619.088 -54.432C582.793 -119.078 535.091 -175.347 478.056 -223.797C374.529 -311.761 239.373 -372.358 88.4898 -412.71C4.49282 -435.189 -83.4793 -448.593 -171.797 -452.363" stroke="#D4E8F7" stroke-miterlimit="10"/>
<path d="M3251.16 1354.11C3126.21 1345.73 2934.88 1334.28 2756.34 1334.7C2664.57 1334.98 2577.11 1335.95 2496.57 1328.13C2414.13 1320.32 2342.41 1304.96 2266.19 1279.96C2241.82 1272.01 2217.97 1262.93 2194.29 1252.18C2103.38 1211.13 2016.27 1172.73 1905.66 1141.04C1793.83 1109.06 1699.47 1069.41 1613.74 1037.44C1593.35 1029.9 1572.95 1023.61 1553.25 1017.89C1496.73 1001.69 1442.98 991.639 1372.47 986.472C1330.12 983.401 1284.84 978.793 1236.1 974.465C1108.89 963.155 1016.26 960.781 933.296 928.947C922.062 924.618 911.173 919.592 900.631 914.147C848.262 886.78 800.387 843.776 765.993 787.786C724.686 720.068 704.637 634.478 705.156 551.68C705.502 477.539 717.6 403.538 718.81 328.001C720.884 199.546 689.601 64.1095 623.406 -48.8471C585.728 -113.075 536.816 -168.366 478.917 -215.839C374.007 -301.987 238.679 -360.769 87.6224 -401.121C3.79826 -423.601 -83.8284 -437.144 -171.973 -441.473" stroke="#D4E8F7" stroke-miterlimit="10"/>
<path d="M3238.89 1373.51C3112.38 1375.75 2922.26 1369.18 2745.11 1367.23C2653.85 1366.25 2566.74 1364.16 2487.07 1352.71C2405.49 1340.98 2335.49 1321.15 2261 1293.09C2237.32 1284.15 2213.99 1274.1 2191 1262.65C2102.68 1218.67 2018.34 1177.2 1908.42 1144.53C1798.67 1111.99 1702.4 1075.27 1615.12 1048.88C1594.04 1042.6 1573.3 1037.71 1553.07 1033.53C1495.35 1021.52 1440.56 1016.21 1370.22 1013.42C1327.53 1011.74 1282.76 1007.7 1234.89 1002.81C1109.41 990.102 1017.29 978.234 938.652 940.256C927.936 935.09 917.739 929.226 907.887 923.082C858.803 892.225 815.076 847.266 783.793 790.578C746.115 722.022 728.141 637.41 727.277 555.45C726.585 481.728 735.054 407.447 733.326 331.771C730.388 203.176 695.648 68.5774 627.206 -42.8434C588.146 -106.652 538.197 -160.966 479.433 -207.461C373.314 -291.795 237.64 -348.901 86.2376 -389.113C2.41341 -411.453 -84.6945 -425.276 -172.667 -430.303" stroke="#D4E8F7" stroke-miterlimit="10"/>
<path d="M3226.62 1392.92C3098.55 1405.63 2909.64 1404.23 2733.87 1399.76C2642.96 1397.53 2556.2 1392.36 2477.38 1377.14C2396.67 1361.65 2328.58 1337.35 2255.64 1306.07C2232.48 1296.16 2209.84 1285.13 2187.54 1272.98C2101.64 1226.07 2020.41 1181.39 1911.18 1148.02C1803.33 1114.93 1705.51 1081.28 1616.33 1060.19C1594.72 1055.17 1573.47 1051.68 1552.73 1048.89C1493.79 1040.93 1438.14 1038.83 1367.97 1039.95C1325.1 1040.65 1280.51 1036.18 1233.68 1030.73C1110.1 1016.49 1018.33 995.269 944.007 951.148C933.81 945.144 924.304 938.581 914.971 931.74C869.17 897.392 829.591 850.338 801.42 793.092C767.544 723.699 751.471 640.063 749.397 558.941C747.496 485.638 752.681 411.078 748.014 335.122C740.064 206.528 701.695 72.6273 631.006 -37.3972C590.39 -100.647 539.404 -154.124 479.95 -199.781C372.447 -282.439 236.427 -337.731 85.0253 -377.943C1.37395 -400.143 -85.5613 -414.105 -173.188 -419.83" stroke="#D4E8F7" stroke-miterlimit="10"/>
<path d="M3214.52 1412.19C3084.9 1435.51 2897.37 1438.72 2722.64 1432.16C2632.25 1428.53 2545.83 1420.57 2467.88 1401.44C2388.21 1382.03 2321.67 1353.41 2250.63 1318.78C2227.99 1307.75 2206.04 1296.02 2184.44 1283.04C2101.13 1233.33 2022.66 1185.44 1914.13 1151.09C1808.35 1117.58 1708.8 1086.72 1617.72 1071.09C1595.59 1067.32 1573.82 1065.08 1552.56 1063.83C1492.58 1060.06 1435.9 1064.24 1365.9 1066.2C1322.69 1067.46 1278.62 1064.38 1232.82 1058.38C1111.14 1042.74 1019.71 1012.02 949.543 961.899C940.037 955.057 930.877 947.657 922.408 940.117C879.891 902.279 844.46 853.271 819.399 795.326C789.153 725.095 775.327 642.437 771.87 562.292C768.759 489.408 770.833 414.429 762.883 338.473C750.266 209.879 707.922 76.6763 635.159 -31.8123C593.16 -94.6436 540.965 -147.143 480.819 -191.823C371.934 -272.665 235.741 -326.281 83.9934 -366.354C0.51486 -388.415 -86.0749 -402.656 -173.356 -409.079" stroke="#D4E8F7" stroke-miterlimit="10"/>
<path d="M3202.25 1431.6C3071.07 1465.53 2884.76 1473.76 2711.4 1464.83C2621.36 1459.94 2535.46 1448.91 2458.38 1426.15C2379.56 1402.97 2314.92 1369.74 2245.44 1332.04C2223.49 1320.04 2202.24 1307.33 2181.15 1293.65C2100.26 1241.01 2024.74 1190.05 1916.89 1154.72C1813.02 1120.65 1711.91 1093.01 1618.92 1082.53C1596.28 1080.02 1573.99 1079.46 1552.21 1079.32C1491.03 1078.76 1433.47 1088.54 1363.65 1093.01C1320.27 1095.66 1276.37 1093.01 1231.6 1086.58C1111.83 1069.41 1020.92 1029.2 954.898 973.069C945.91 965.389 937.442 957.291 929.664 949.053C890.431 907.724 859.148 856.621 837.198 798.119C810.755 727.049 798.829 645.369 793.99 566.062C789.669 493.457 788.286 418.339 777.571 342.243C759.769 213.648 713.968 81.1442 639.131 -25.9482C595.577 -88.2209 542.518 -139.882 481.507 -183.585C371.412 -262.613 234.874 -314.553 82.9534 -354.486C-0.352232 -376.407 -86.5961 -390.928 -173.704 -398.049" stroke="#D4E8F7" stroke-miterlimit="10"/>
<path d="M3189.98 1451C3057.24 1495.4 2872.14 1508.81 2700.17 1497.36C2610.64 1491.22 2524.91 1477.11 2448.69 1450.58C2370.75 1423.5 2307.66 1386.08 2240.08 1345.03C2218.65 1332.04 2198.09 1318.36 2177.86 1303.98C2099.57 1248.41 2026.81 1194.37 1919.82 1158.07C1818.03 1123.58 1715.19 1098.87 1620.3 1093.7C1597.14 1092.45 1574.33 1093.01 1552.03 1094.54C1489.64 1099.01 1431.22 1112.69 1361.57 1119.39C1318.02 1123.58 1274.29 1121.35 1230.56 1114.37C1112.69 1095.66 1022.3 1046.09 960.426 983.819C951.957 975.301 944.18 966.365 936.921 957.429C901.144 912.61 874.009 859.552 854.998 800.212C832.184 728.165 822.332 647.602 816.283 569.132C810.752 496.946 806.086 421.549 792.259 345.313C769.445 216.719 720.015 84.9128 643.104 -20.6437C598.167 -82.3579 543.897 -133.321 482.196 -176.046C370.718 -253.398 234.007 -303.524 81.741 -343.317C-1.3919 -365.099 -87.4631 -379.759 -174.225 -387.578" stroke="#D4E8F7" stroke-miterlimit="10"/>
<path d="M3177.88 1470.41C3043.59 1525.42 2859.7 1543.72 2688.94 1529.89C2599.76 1522.49 2514.55 1505.32 2439.19 1475.02C2362.28 1444.16 2300.93 1402.14 2234.9 1358.01C2213.99 1344.05 2194.12 1329.39 2174.59 1314.31C2099.06 1255.67 2028.89 1198.84 1922.59 1161.56C1822.7 1126.52 1718.31 1103.9 1621.69 1105.15C1597.84 1105.43 1574.51 1106.97 1551.69 1110.04C1488.09 1118.56 1428.81 1137.13 1359.16 1146.2C1315.43 1151.93 1272.05 1149.97 1229.19 1142.57C1113.22 1122.47 1023.17 1063.41 965.616 995.129C957.665 985.774 950.579 976.14 944.012 966.506C911.519 918.196 888.532 863.184 872.631 803.145C853.62 730.261 845.497 650.674 838.238 573.182C831.497 501.415 823.374 425.599 806.609 349.364C778.783 220.629 725.55 89.6611 646.738 -14.3596C600.246 -75.6549 544.939 -125.641 482.547 -167.389C369.686 -242.926 232.629 -291.376 80.3632 -331.169C-2.59679 -352.811 -88.3221 -367.75 -174.912 -376.268" stroke="#D4E8F7" stroke-miterlimit="10"/>
<path d="M3165.61 1489.82C3029.59 1555.3 2847.08 1578.76 2677.7 1562.43C2589.04 1553.77 2504 1533.66 2429.51 1499.59C2353.47 1464.83 2293.84 1418.47 2229.72 1371.14C2209.32 1356.2 2190.14 1340.7 2171.3 1324.78C2098.19 1263.35 2030.96 1203.31 1925.53 1165.05C1827.53 1129.59 1721.59 1111.02 1623.07 1116.46C1598.7 1117.86 1574.85 1120.93 1551.52 1125.4C1486.53 1137.97 1426.73 1161.42 1357.08 1172.87C1313.18 1180.13 1269.97 1178.6 1228.32 1170.64C1114.25 1149 1024.72 1080.58 971.317 1006.16C963.885 995.967 957.318 985.495 951.441 975.163C922.232 923.362 903.394 866.255 890.777 805.658C875.395 731.936 869.346 653.327 860.877 576.673C852.754 505.325 841.519 429.229 821.816 352.714C788.978 223.98 731.943 93.8496 651.23 -8.91437C603.182 -69.6512 547.011 -118.799 483.581 -159.57C369.339 -233.431 232.109 -279.926 79.497 -319.72C-3.29022 -341.361 -88.8426 -356.441 -174.914 -365.656" stroke="#D4E8F7" stroke-miterlimit="10"/>
<path d="M3153.34 1509.09C3015.76 1585.19 2834.63 1613.67 2666.46 1594.96C2578.15 1585.05 2493.63 1561.87 2420 1524.03C2344.82 1485.35 2286.92 1434.67 2224.53 1383.99C2204.83 1368.07 2186.16 1351.59 2168.01 1335.12C2097.5 1270.75 2033.03 1207.78 1928.29 1168.41C1832.2 1132.52 1724.87 1117.02 1624.28 1127.63C1599.39 1130.29 1575.02 1134.62 1551.17 1140.62C1484.98 1157.24 1424.31 1185.58 1354.83 1199.4C1310.59 1208.2 1267.9 1206.94 1227.11 1198.56C1115.11 1175.25 1026.1 1097.48 976.673 1017.05C969.932 1006.02 963.883 994.851 958.698 983.821C932.773 928.53 918.082 869.468 908.577 808.173C896.997 733.613 892.849 655.982 882.997 580.165C873.664 509.236 858.973 432.861 836.332 356.207C798.482 227.473 737.817 98.0402 654.857 -3.18795C605.254 -63.3663 548.046 -111.677 483.925 -151.609C368.472 -223.656 230.897 -268.475 78.1123 -308.129C-4.67486 -329.631 -89.7087 -344.99 -175.607 -354.764" stroke="#D4E8F7" stroke-miterlimit="10"/>
<path d="M3141.07 1528.5C2928.66 1660.72 2621.19 1669.1 2410.33 1548.46C2336.19 1506.02 2280.01 1450.73 2219.18 1396.97C2125.33 1313.89 2061.73 1222.3 1931.06 1171.76C1813.71 1126.38 1673.2 1118.14 1551 1155.98C1483.6 1176.78 1422.07 1209.87 1352.76 1225.93C1168.52 1268.52 1015.22 1120.23 965.963 992.477C915.841 862.346 925.52 720.208 905.125 583.655C876.954 394.463 794.685 161.568 658.838 2.53557C516.078 -164.735 314.727 -234.967 77.0809 -296.541C-5.53348 -317.904 -90.2221 -333.402 -175.947 -344.014" stroke="#D4E8F7" stroke-miterlimit="10"/>
</g>
<g opacity="0.85">
<mask id="mask1_2018_11022" style="mask-type:luminance" maskUnits="userSpaceOnUse" x="-154" y="94" width="1955" height="1057">
<path d="M-154 94H1801V1151H-154V94Z" fill="white"/>
</mask>
<g mask="url(#mask1_2018_11022)">
<path d="M-479 725.778C-434.835 660.388 -384.246 596.979 -317.276 546.385C-250.306 495.79 -165.51 458.537 -74.9319 453.121C15.6462 447.705 111.524 477.56 164.522 538.326C193.751 571.748 208.526 611.907 227.156 650.084C245.785 688.261 270.196 726.703 311.631 749.688C353.065 772.674 415.378 774.656 448.943 744.14C485.56 710.719 474.639 655.236 508.686 619.965C546.909 580.335 620.303 584.958 681.009 593.281C741.716 601.603 814.949 606.623 853.654 567.389C884.649 535.949 876.459 486.146 842.893 456.556C809.328 426.965 756.652 416.001 707.669 419.832C658.686 423.663 612.594 440.307 569.072 459.066C513.504 482.976 448.622 511.378 392.091 489.317C360.774 477.164 340.217 451.536 327.691 424.984C315.164 398.431 309.061 370.162 297.819 343.213C261.845 257.215 169.018 189.051 61.0957 169.236C-20.9705 154.176 -110.264 165.14 -186.548 136.21C-248.058 112.96 -291.902 67.1213 -333.176 22.9995L-479 725.778Z" fill="#002E58" fill-opacity="0.68"/>
</g>
</g>
<g opacity="0.7">
<mask id="mask2_2018_11022" style="mask-type:luminance" maskUnits="userSpaceOnUse" x="212" y="-23" width="1776" height="1116">
<path d="M212.818 36.592L1951.8 -23L1988 1033.38L249.018 1092.97L212.818 36.592Z" fill="white"/>
</mask>
<g mask="url(#mask2_2018_11022)">
<path d="M2296.01 1156.08C2159.31 1180.6 2012.89 1154.42 1897.19 1084.61C1803.71 1028.33 1726.38 943.722 1617.84 917.828C1561.52 904.422 1502.18 908.439 1444.17 913.468C1386.16 918.496 1327.32 924.611 1270.13 915.201C1212.93 905.792 1156.27 878.12 1129.13 831.325C1107.54 794.123 1107.38 747.064 1128.87 709.443C1150.36 671.822 1192.67 644.725 1238.61 639.185C1306.82 631.031 1370.58 667.052 1427.07 702.265C1483.55 737.479 1545.77 774.875 1614.22 769.885C1710.46 762.885 1778.99 675.399 1873.55 657.352C1956.14 641.565 2037.61 681.74 2110.17 720.368L2296.01 1156.08Z" fill="#D4E8F7"/>
</g>
</g>
<g opacity="0.4">
<mask id="mask3_2018_11022" style="mask-type:luminance" maskUnits="userSpaceOnUse" x="-102" y="-40" width="2593" height="1158">
<path d="M-102 -40H2491V1118H-102V-40Z" fill="white"/>
</mask>
<g mask="url(#mask3_2018_11022)">
<path d="M2582.62 1053.15C2564.04 983.093 2457.94 941.26 2355.95 933.154C2253.96 925.048 2149.81 940.971 2046.52 940.971C1769.94 940.826 1509.12 813.301 1418.58 633.811C1389.63 576.345 1376.88 514.972 1348.57 457.216C1320.27 399.606 1272.3 343.298 1194.29 315.94C1082.14 276.424 941.688 306.821 828.46 350.97C715.232 395.118 609.352 453.598 484.024 473.863C319.368 500.497 148.014 454.611 22.0372 380.933C-103.939 307.255 -192.966 208.102 -279.831 110.54" stroke="#FF4DC4" stroke-miterlimit="10"/>
<path d="M2588.89 1046.35C2568.36 976.579 2462.7 934.891 2360.49 926.496C2316.19 922.877 2271.68 923.746 2226.95 926.206C2168.18 929.391 2109.4 935.036 2051.06 935.905C1932 937.642 1815.74 917.232 1713.75 877.57C1634.88 846.883 1564.87 806.498 1508.91 758.007C1468.93 723.556 1436.95 684.763 1414.69 642.641C1404.75 623.824 1396.54 604.427 1388.98 584.886C1373.64 545.224 1361.1 504.984 1341.23 466.625C1318.75 423.055 1284.61 380.933 1234.05 352.273C1218.27 343.298 1201.2 335.626 1182.4 329.547C1103.75 304.216 1012.78 312.901 925.697 334.468C888.098 343.732 851.148 355.457 816.791 367.906C778.328 381.946 740.73 397 703.347 411.475C629.879 439.846 557.059 466.046 478.404 475.455C427.193 481.679 376.845 479.942 326.714 472.56C225.371 457.361 125.54 416.831 42.3482 365.011C19.6595 350.825 -2.16499 335.771 -23.3412 320.283C-116.905 251.092 -195.127 171.19 -272.269 95.6309" stroke="#F552C5" stroke-miterlimit="10"/>
<path d="M2594.94 1039.55C2572.46 970.21 2467.23 928.522 2364.81 919.837C2320.51 916.074 2275.78 916.942 2230.84 919.548C2172.06 923.022 2113.5 929.246 2054.95 930.983C1936.1 934.602 1820.28 917.376 1717.21 879.452C1637.47 850.068 1566.38 811.564 1508.25 764.955C1466.77 731.517 1433.71 693.303 1410.37 651.471C1400 632.798 1391.35 613.401 1383.57 593.86C1367.58 554.343 1354.4 513.958 1333.66 475.889C1310.11 432.609 1274.88 391.5 1222.59 364.287C1206.39 355.891 1189.1 348.654 1170.3 343.153C1091.21 320.138 1001.54 330.994 914.673 352.562C876.859 361.971 839.692 373.116 805.119 384.841C766.224 397.869 728.193 411.765 691.027 424.358C617.775 449.4 547.115 471.546 472.999 477.047C425.028 480.666 379.003 476.468 332.977 466.914C239.629 447.373 144.768 403.08 63.0889 349.088C40.6162 334.179 19.008 318.69 -2.16819 302.768C-96.5966 231.551 -180.653 152.228 -263.845 80.8662" stroke="#EB57C7" stroke-miterlimit="10"/>
<path d="M2601.2 1032.6C2576.79 963.697 2472.2 921.864 2369.56 913.034C2325.26 909.271 2280.32 909.995 2235.37 912.745C2176.6 916.364 2118.04 923.167 2059.7 925.772C1941.07 931.128 1825.46 917.377 1721.31 881.045C1640.93 852.963 1568.32 816.486 1508.25 771.614C1465.04 739.334 1430.9 701.699 1406.69 660.156C1395.89 641.628 1387.03 622.376 1378.6 602.835C1361.97 563.318 1347.92 522.933 1326.53 485.153C1302.11 442.163 1265.59 402.067 1211.79 376.157C1195.15 368.195 1177.86 361.537 1158.85 356.615C1079.54 335.916 990.95 348.943 904.085 370.511C866.27 379.92 828.888 390.776 793.666 401.632C754.339 413.791 716.092 426.095 678.926 437.241C605.89 458.954 536.959 477.047 467.596 478.495C422.651 479.508 381.379 472.85 339.459 461.27C254.106 437.675 164.215 389.474 84.0483 333.021C62.0078 317.533 40.3995 301.321 19.0073 284.964C-76.2855 211.576 -166.392 132.977 -255.418 65.8125" stroke="#E15DC8" stroke-miterlimit="10"/>
<path d="M2607.48 1025.79C2581.11 957.183 2476.96 915.495 2374.11 906.376C2329.59 902.468 2284.65 903.191 2239.7 906.231C2180.93 910.139 2122.37 917.377 2064.24 920.996C1945.83 928.089 1830.44 917.666 1725.42 883.071C1644.18 856.292 1570.28 821.842 1508.26 778.706C1463.32 747.585 1428.09 710.529 1403.03 669.275C1391.79 650.747 1382.5 631.64 1373.86 612.099C1356.57 572.727 1341.88 532.197 1319.4 494.707C1293.91 452.15 1256.52 412.778 1200.77 388.46C1183.92 381.078 1166.2 374.854 1147.4 370.511C1067.67 352.128 980.369 367.327 893.719 389.039C855.905 398.593 818.09 408.87 782.653 419.003C743.109 430.293 704.214 441.294 667.264 450.558C594.444 468.797 527.242 482.982 462.633 480.521C420.713 478.929 384.195 469.81 346.164 456.059C268.806 428.122 184.102 376.301 105.015 317.533C83.4069 301.321 61.7986 284.675 40.1902 267.884C-55.9669 192.469 -151.908 114.593 -246.985 51.4824" stroke="#D762CA" stroke-miterlimit="10"/>
<path d="M2613.52 1018.99C2585.43 950.814 2481.5 909.126 2378.42 899.717C2333.91 895.664 2288.75 896.388 2243.8 899.572C2185.03 903.625 2126.47 911.587 2068.56 915.929C1950.36 924.904 1835.19 917.666 1729.09 884.808C1646.98 859.332 1572 826.763 1507.82 785.509C1461.15 755.401 1425.07 719.069 1398.92 677.96C1387.25 659.577 1377.53 640.47 1368.67 620.929C1350.52 581.557 1335.17 541.027 1312.05 503.826C1285.69 461.559 1247.01 423.2 1189.53 400.185C1172.25 393.237 1154.53 387.592 1135.51 383.828C1055.56 367.761 969.345 384.986 882.696 406.843C844.665 416.397 806.635 426.385 770.765 435.649C730.789 446.071 691.678 455.624 654.728 463.296C582.124 478.205 516.651 488.338 456.796 481.824C417.684 477.626 386.136 466.046 351.995 450.124C282.632 417.989 202.898 362.26 125.324 301.176C103.932 284.24 82.5392 267.015 60.9309 249.79C-36.0905 172.204 -137.866 95.0519 -239.209 36.1387" stroke="#CD67CB" stroke-miterlimit="10"/>
<path d="M2619.79 1012.04C2589.75 944.3 2486.25 902.468 2382.96 893.059C2338.45 889.006 2293.07 889.585 2248.13 892.914C2189.13 897.257 2130.79 905.652 2072.88 910.863C1954.9 921.575 1839.94 917.811 1732.98 886.545C1650.01 862.372 1573.73 831.83 1507.61 792.313C1459.21 763.363 1422.04 727.61 1395.03 686.79C1383.14 668.552 1372.99 649.589 1363.48 630.048C1344.68 590.676 1328.69 550.146 1304.71 513.235C1277.48 471.257 1237.72 433.767 1178.3 412.344C1160.58 405.975 1142.64 400.764 1123.63 397.58C1043.24 383.828 958.324 403.225 871.674 425.082C833.644 434.636 795.181 444.189 759.095 452.729C718.687 462.283 679.36 470.389 642.194 476.324C570.022 487.904 505.629 493.983 450.96 483.561C414.658 476.613 387.864 462.572 357.828 444.768C296.46 408.436 221.695 348.944 145.418 285.543C124.458 268.028 103.066 250.224 81.2414 232.565C-16.6444 152.952 -124.47 76.3793 -231.647 21.519" stroke="#C36CCD" stroke-miterlimit="10"/>
<path d="M2625.84 1005.24C2593.86 937.932 2490.79 896.099 2387.5 886.401C2342.77 882.203 2297.4 882.782 2252.24 886.256C2193.24 890.743 2135.12 899.718 2077.21 905.942C1959.44 918.535 1844.7 917.956 1736.88 888.427C1653.04 865.557 1575.46 837.041 1507.61 799.261C1457.48 771.469 1419.23 736.295 1391.36 695.765C1379.04 677.671 1368.45 658.709 1358.73 639.168C1339.28 599.94 1322.64 559.266 1297.8 522.644C1269.49 480.956 1228.86 444.479 1167.5 424.359C1149.56 418.424 1131.41 413.792 1112.18 411.042C1031.58 399.606 947.74 421.174 861.307 443.031C823.06 452.73 784.381 461.849 748.079 469.521C707.239 478.206 667.48 484.864 630.53 489.207C558.574 497.457 495.694 499.194 446.211 485.154C412.502 475.6 390.893 459.099 364.747 439.123C311.375 398.448 241.796 335.337 166.815 269.476C146.071 251.238 124.895 232.854 102.854 214.761C4.10411 132.977 -109.556 57.2726 -222.784 6.46533" stroke="#B972CE" stroke-miterlimit="10"/>
<path d="M2632.11 998.436C2598.18 931.417 2495.54 889.729 2392.04 879.741C2347.31 875.399 2301.72 875.978 2256.56 879.597C2197.57 884.374 2139.44 893.782 2081.74 900.875C1964.2 915.205 1849.67 917.955 1740.77 890.163C1656.06 868.596 1577.19 842.106 1507.4 806.064C1455.54 779.285 1416.42 744.834 1387.47 704.449C1374.72 686.5 1363.92 667.538 1353.76 647.997C1333.66 608.769 1316.16 568.095 1290.66 531.762C1261.49 490.364 1219.57 454.755 1156.69 436.227C1138.33 430.872 1119.96 426.674 1100.73 424.503C1019.7 415.383 937.368 439.122 850.718 460.98C812.471 470.678 773.576 479.363 736.626 486.311C695.354 494.127 655.379 499.483 618.428 501.944C546.689 506.865 485.105 504.26 440.808 486.456C409.692 474.007 393.27 455.19 371.013 433.332C325.636 388.315 261.027 321.585 187.342 253.408C167.03 234.591 145.854 215.628 123.814 196.956C24.1992 113.145 -95.2948 38.0201 -214.573 -8.58936" stroke="#AF77CF" stroke-miterlimit="10"/>
<path d="M2638.16 991.489C2602.29 924.904 2500.08 883.071 2396.36 872.938C2351.63 868.596 2306.04 869.03 2260.66 872.794C2201.67 877.715 2143.54 887.848 2086.06 895.809C1968.73 912.021 1854.64 918.101 1744.65 891.901C1659.08 871.636 1578.92 847.173 1507.18 812.867C1453.59 787.246 1413.4 753.375 1383.58 713.279C1370.4 695.475 1359.16 676.657 1348.57 657.116C1327.61 618.034 1309.68 577.214 1283.1 541.171C1252.85 500.062 1210.06 465.323 1145.24 448.387C1126.65 443.465 1108.07 439.991 1088.62 438.254C1007.38 431.451 926.128 457.361 839.479 479.218C801.016 488.917 761.905 497.312 724.738 503.392C683.034 510.195 642.843 514.248 605.892 515.116C534.585 516.709 474.082 509.471 434.97 488.338C406.447 472.994 395.211 452.005 376.844 427.977C339.462 378.762 279.823 308.124 207.651 237.776C187.771 218.234 166.595 198.693 144.338 179.731C43.8595 93.894 -81.4683 19.3478 -206.797 -23.064" stroke="#A57CD1" stroke-miterlimit="10"/>
<path d="M2644.42 984.685C2606.82 918.534 2504.83 876.702 2400.9 866.28C2356.17 861.792 2310.36 862.227 2264.98 866.28C2205.99 871.491 2147.86 882.057 2090.38 890.887C1973.27 908.836 1859.39 918.245 1748.32 893.782C1661.89 874.82 1580.21 852.384 1506.74 819.815C1451.43 795.352 1410.15 762.06 1379.47 722.253C1365.86 704.594 1354.19 685.776 1343.38 666.235C1321.78 627.153 1302.98 586.333 1275.75 550.58C1244.63 509.905 1200.77 475.889 1134 460.401C1114.98 456.058 1096.18 453.018 1076.74 451.86C995.058 447.373 915.107 475.31 828.674 497.312C790.211 507.155 750.668 514.971 713.285 520.327C671.365 526.262 630.525 528.867 593.791 527.999C522.7 526.262 463.493 514.248 429.568 489.785C403.854 471.257 397.371 448.242 383.11 422.187C353.722 368.629 299.053 294.372 228.394 221.563C208.731 201.298 187.771 181.323 165.298 161.781C63.9548 73.7733 -67.4238 0.0955662 -198.803 -38.2632" stroke="#9B81D2" stroke-miterlimit="10"/>
<path d="M2650.69 977.882C2611.14 912.021 2509.59 870.333 2405.65 859.621C2360.7 854.989 2314.89 855.424 2269.3 859.621C2210.31 864.977 2152.4 876.123 2094.92 885.821C1978.02 905.652 1864.36 918.245 1752.43 895.519C1665.13 877.86 1582.16 857.45 1506.74 826.618C1449.7 803.313 1407.34 770.6 1375.8 730.938C1361.75 713.424 1349.87 694.606 1338.63 675.065C1316.37 635.982 1296.93 595.308 1268.83 559.699C1236.85 519.314 1191.91 486.166 1123.19 472.27C1103.96 468.362 1084.73 465.901 1065.5 465.322C983.604 463.151 904.734 493.259 818.301 515.261C779.622 525.104 739.862 532.631 702.048 537.118C659.695 542.184 618.64 543.487 581.905 540.882C511.246 535.815 453.552 518.88 424.381 491.377C401.476 469.809 399.963 444.768 389.591 416.686C368.199 358.786 318.716 280.911 249.137 205.785C229.906 184.941 208.945 164.242 186.473 144.411C84.2654 54.377 -52.9476 -18.7218 -190.377 -52.8828" stroke="#9187D4" stroke-miterlimit="10"/>
<path d="M2656.74 970.935C2615.25 905.508 2514.13 863.675 2409.97 852.819C2365.03 848.187 2319 848.476 2273.41 852.819C2214.2 858.464 2156.51 870.189 2099.25 880.755C1982.56 902.323 1869.12 918.246 1756.11 897.257C1667.94 880.9 1583.67 862.517 1506.31 833.422C1447.54 811.275 1404.32 779.141 1371.69 739.769C1357.43 722.399 1344.9 703.726 1333.45 684.185C1310.54 645.247 1290.45 604.428 1261.49 569.253C1228.43 529.158 1182.62 496.734 1111.96 484.43C1092.3 480.956 1073.07 479.074 1053.62 479.074C971.292 479.219 893.718 511.498 807.285 533.645C768.606 543.488 728.631 550.581 690.384 554.344C647.599 558.542 606.327 558.397 569.593 554.055C499.15 545.804 443.4 523.802 418.983 493.115C399.103 468.363 402.345 441.294 396.078 411.186C382.897 348.944 338.168 267.305 270.102 189.864C251.302 168.296 230.559 147.162 207.654 126.753C104.582 34.547 -38.4652 -37.828 -181.944 -67.936" stroke="#878CD5" stroke-miterlimit="10"/>
<path d="M2663.01 964.131C2619.58 899.138 2518.88 857.305 2414.51 846.304C2369.57 841.528 2323.32 841.817 2277.73 846.304C2218.52 852.094 2160.83 864.398 2103.78 875.833C1987.32 899.138 1874.09 918.535 1760.21 899.138C1671.4 884.084 1585.62 867.727 1506.31 840.37C1445.59 819.381 1401.51 787.825 1368.02 748.743C1353.33 731.518 1340.36 712.845 1328.48 693.304C1304.71 654.366 1283.96 613.546 1254.14 578.662C1220.22 538.855 1173.33 507.3 1100.94 496.588C1081.06 493.693 1061.4 492.246 1041.95 492.825C959.407 495.286 882.913 529.736 796.696 551.883C758.017 561.871 717.609 568.384 679.146 571.424C635.93 574.753 594.442 573.306 557.708 567.226C487.697 555.646 433.892 528.723 413.796 494.996C397.158 467.059 404.936 438.109 402.56 405.83C397.374 339.39 357.614 253.987 290.845 174.23C272.261 151.939 251.734 130.226 228.829 109.527C124.893 15.2946 -23.9887 -56.3566 -173.518 -82.4116" stroke="#7D91D7" stroke-miterlimit="10"/>
<path d="M2669.05 957.328C2623.68 892.625 2523.41 850.937 2418.83 839.646C2373.67 834.725 2327.43 835.014 2281.83 839.646C2222.63 845.726 2164.93 858.464 2107.89 870.912C1991.63 896.099 1878.62 918.68 1763.67 901.02C1673.99 887.269 1586.69 873.084 1505.66 847.318C1443.21 827.487 1398.05 796.511 1363.7 757.573C1348.57 740.348 1335.39 721.82 1323.07 702.278C1298.65 663.485 1277.26 622.521 1246.58 587.926C1211.57 548.409 1163.82 517.578 1089.49 508.458C1069.17 505.998 1049.51 505.129 1029.85 506.287C946.871 510.919 871.674 547.685 785.457 569.832C746.562 579.82 705.938 586.044 667.043 588.215C623.394 590.676 581.474 587.781 544.956 579.965C475.161 565.055 423.517 533.355 407.743 496.444C394.562 465.323 406.662 434.346 408.175 400.185C411.2 329.402 376.195 240.381 310.937 158.163C292.786 135.293 272.259 113.001 249.138 91.7229C144.337 -4.68056 -10.5947 -75.6081 -166.175 -97.4653" stroke="#7396D8" stroke-miterlimit="10"/>
<path d="M2675.32 950.38C2628.21 886.111 2528.17 844.278 2423.58 832.843C2378.42 827.922 2331.96 828.066 2286.15 832.988C2226.95 839.212 2169.25 852.674 2112.42 865.846C1996.39 892.77 1883.81 918.68 1767.77 902.757C1677.23 890.309 1588.64 878.15 1505.66 854.121C1441.48 835.449 1395.46 805.051 1360.02 766.403C1344.46 749.322 1330.85 730.939 1318.32 711.398C1293.25 672.605 1270.99 631.641 1239.66 597.335C1203.79 558.108 1155.17 528.144 1078.68 520.617C1057.94 518.591 1038.06 518.301 1018.39 520.038C935.201 526.986 861.085 565.779 775.083 588.071C736.188 598.203 695.133 603.849 656.022 605.296C612.157 606.744 569.804 602.691 533.286 593.137C463.707 575.043 414.44 538.566 402.772 498.181C393.048 464.02 409.471 431.017 414.873 394.685C425.893 319.56 396.073 226.92 331.897 142.386C314.178 118.791 293.65 95.9208 270.313 74.353C164.648 -24.077 3.88209 -94.4255 -157.748 -112.085" stroke="#699CD9" stroke-miterlimit="10"/>
<path d="M2681.38 943.576C2632.32 879.741 2532.71 837.908 2427.91 826.184C2382.75 821.117 2336.07 821.262 2290.26 826.328C2231.06 832.842 2173.58 846.738 2116.75 860.779C2000.93 889.584 1888.56 918.824 1771.66 904.493C1680.26 893.348 1590.15 883.215 1505.45 860.924C1439.54 843.554 1392.44 813.59 1356.14 775.232C1340.15 758.296 1326.32 739.913 1313.13 720.371C1287.42 681.723 1264.52 640.614 1232.32 606.598C1195.59 567.805 1145.89 538.42 1067.45 532.63C1046.49 531.038 1026.39 531.328 1006.51 533.644C922.888 542.908 850.068 583.872 764.067 606.164C724.956 616.296 683.684 621.652 644.141 622.231C599.844 622.81 557.275 617.309 520.757 606.019C451.611 584.596 404.504 543.342 396.942 499.772C390.675 462.572 411.635 427.542 420.711 389.183C440.158 309.86 414.877 213.312 352.212 126.607C334.71 102.433 314.398 78.9839 291.061 56.8372C184.532 -43.7641 17.9313 -113.389 -149.749 -126.851" stroke="#5FA1DB" stroke-miterlimit="10"/>
<path d="M2687.64 936.774C2636.64 873.373 2537.46 831.54 2432.45 819.526C2387.07 814.315 2340.39 814.46 2294.59 819.671C2235.16 826.474 2177.9 840.804 2121.07 855.858C2005.47 886.401 1893.32 918.969 1775.34 906.376C1683.07 896.533 1591.67 888.572 1505.02 867.872C1437.17 851.66 1389.2 822.276 1352.03 784.207C1335.61 767.416 1321.35 749.033 1307.95 729.491C1281.59 690.843 1258.03 649.734 1224.97 616.007C1187.16 577.504 1136.38 548.843 1056.43 544.646C1035.04 543.488 1014.72 544.356 994.844 547.106C911.003 558.686 839.264 601.822 753.262 624.113C714.151 634.246 672.663 639.167 632.688 639.023C587.959 638.733 544.958 631.93 508.656 618.902C439.725 594.15 394.996 548.409 391.755 501.221C388.946 461.125 414.228 423.779 427.193 383.394C454.635 299.873 434.323 199.562 373.172 110.396C356.101 85.4987 335.789 61.4702 312.236 39.0339C204.843 -63.5938 32.4081 -132.495 -141.323 -142.048" stroke="#55A6DC" stroke-miterlimit="10"/>
<path d="M2693.91 929.824C2640.97 866.713 2542.43 824.881 2436.98 812.722C2391.61 807.511 2344.93 807.511 2298.91 812.866C2239.48 819.814 2182.22 834.868 2125.61 850.646C2010.22 883.07 1898.29 918.823 1779.44 907.967C1686.31 899.427 1593.61 893.637 1505.02 874.53C1435.44 859.476 1386.6 830.67 1348.36 792.746C1331.5 776.1 1316.81 757.861 1303.19 738.32C1275.97 699.672 1251.77 658.563 1217.84 625.126C1179.16 586.912 1127.3 558.975 1045.41 556.514C1023.8 555.935 1003.27 557.383 983.174 560.567C898.902 574.463 828.675 619.77 742.674 642.061C703.346 652.339 661.642 656.826 621.451 655.813C576.289 654.655 533.073 646.404 496.771 631.639C428.056 603.703 385.704 553.185 386.568 502.667C387.216 459.676 416.604 420.16 433.674 377.603C469.112 289.74 453.986 185.809 393.915 94.3272C377.276 68.7065 356.965 44.2437 333.196 21.2285C224.938 -83.5705 46.4528 -151.748 -133.112 -157.104" stroke="#4BABDE" stroke-miterlimit="10"/>
<path d="M2699.95 923.021C2645.28 860.345 2546.97 818.512 2441.52 806.063C2396.14 800.707 2349.25 800.707 2303.01 806.208C2243.59 813.445 2186.32 828.934 2129.93 845.725C2014.75 879.886 1903.04 919.113 1783.11 909.849C1689.12 902.611 1594.9 898.848 1504.8 881.478C1433.49 867.727 1383.57 839.356 1344.25 801.721C1327.18 785.219 1312.05 766.981 1297.79 747.439C1269.91 708.936 1245.06 667.682 1210.27 634.534C1170.52 596.61 1117.79 569.397 1033.95 568.528C1011.91 568.384 991.166 570.41 971.286 574.174C886.798 590.386 817.651 637.864 731.65 660.3C692.323 670.577 650.186 674.63 609.563 672.893C563.969 670.867 520.32 661.313 484.235 644.812C415.736 613.69 375.76 558.541 380.73 504.404C385.052 458.518 418.545 416.83 439.505 372.247C482.938 280.042 472.782 172.492 414.223 78.5496C397.801 52.3499 377.705 27.1634 353.936 3.8586C244.814 -102.967 60.4949 -170.565 -125.337 -171.723" stroke="#41B1DF" stroke-miterlimit="10"/>
<path d="M2706.23 916.219C2649.61 853.977 2551.73 812.144 2446.06 799.551C2400.47 794.05 2353.58 794.05 2307.34 799.696C2247.91 807.078 2190.65 823.145 2134.47 840.805C2019.51 876.847 1908.01 919.259 1787.22 911.732C1692.36 905.797 1596.85 904.35 1504.8 888.427C1431.77 875.979 1380.77 848.042 1340.58 810.697C1323.08 794.34 1307.52 776.101 1293.04 756.56C1264.52 718.057 1238.8 676.803 1203.37 643.945C1162.74 606.31 1108.94 579.676 1023.15 580.689C1000.9 580.978 979.937 583.584 959.841 587.926C874.92 606.454 807.07 655.959 721.069 678.54C681.525 688.817 639.173 692.581 598.333 689.975C552.524 687.08 508.443 676.079 472.357 657.841C404.074 623.39 366.476 563.753 375.551 506.143C383.33 457.362 421.145 413.358 445.995 366.748C497.639 270.345 492.236 158.887 434.974 62.7734C418.984 35.8499 398.889 10.2291 374.903 -13.6546C264.917 -122.651 74.7637 -189.381 -117.118 -186.486" stroke="#37B6E1" stroke-miterlimit="10"/>
<path d="M2712.27 909.271C2628.43 820.684 2464.86 773.206 2311.44 792.892C2130.58 816.052 1972.62 922.154 1790.89 913.324C1695.17 908.692 1598.36 909.271 1504.37 895.085C1396.76 878.873 1336.69 829.514 1287.85 765.389C1225.19 683.027 1176.14 587.492 1011.91 592.558C893.284 596.177 816.358 668.552 710.261 696.488C626.421 718.49 528.103 708.358 460.037 670.578C391.97 632.798 356.749 568.819 369.93 507.59C381.166 455.914 423.303 409.739 452.042 360.958C528.319 232.13 506.495 79.5638 395.644 -31.4594C284.793 -142.483 88.5897 -208.633 -109.127 -201.541" stroke="#2DBBE2" stroke-miterlimit="10"/>
<path d="M2702.77 922.009C2617.63 840.37 2455.13 796.221 2302.8 814.315C2226.52 823.289 2154.13 846.16 2082.61 868.162C2009.35 890.887 1937.4 912.889 1862.2 919.403C1838 921.43 1813.37 922.009 1788.52 920.272C1694.95 913.758 1600.31 912.166 1506.74 897.401C1400.65 880.755 1339.5 833.422 1288.93 772.916C1277.26 759.02 1266.03 744.835 1254.58 730.794C1220.87 689.54 1185 650.458 1128.38 628.89C1096.62 616.731 1058.59 609.928 1011.05 611.086C893.932 613.691 817.222 679.987 714.583 703.87C700.97 707.055 686.924 709.371 672.879 710.818C602.652 718.056 528.535 704.449 474.298 672.46C409.257 634.101 375.548 570.7 387.865 510.05C398.237 458.664 437.564 412.199 464.142 363.418C509.952 279.319 515.138 185.521 482.077 100.408C464.358 54.9562 435.619 11.9654 396.724 -25.9591C325.417 -95.1496 220.616 -146.391 102.851 -173.459C35.217 -188.948 -36.7391 -196.33 -108.911 -194.303" stroke="#33B4E3" stroke-miterlimit="10"/>
<path d="M2693.04 934.747C2606.82 860.056 2445.19 819.237 2293.72 835.738C2217.66 843.989 2145.7 864.688 2075.04 884.374C2002.65 904.494 1931.99 923.746 1858.09 928.089C1834.32 929.536 1810.34 929.391 1785.92 927.22C1694.3 918.824 1602.03 915.206 1509.12 899.862C1404.75 882.927 1342.3 837.33 1290.23 780.444C1278.13 767.271 1266.46 754.099 1254.57 740.927C1219.78 702.423 1183.48 666.381 1126.87 646.405C1094.89 635.259 1057.07 628.746 1010.4 629.469C894.793 631.206 818.3 691.278 719.118 711.108C705.936 713.714 692.539 715.451 678.926 716.464C611.292 721.386 540.417 706.476 488.773 674.052C426.757 635.115 394.56 572.438 405.797 512.367C415.088 461.27 452.039 414.66 476.024 365.735C517.944 281.635 520.321 188.271 485.532 104.172C466.732 59.0096 437.129 16.5978 397.369 -20.7477C324.981 -88.7802 219.965 -138.864 101.984 -165.932C34.3495 -181.42 -37.174 -188.947 -109.13 -187.21" stroke="#38ADE5" stroke-miterlimit="10"/>
<path d="M2683.32 947.485C2595.81 879.742 2435.26 842.107 2284.86 857.016C2209.23 864.398 2137.49 883.216 2067.48 900.296C1995.74 917.956 1926.38 934.168 1853.99 936.484C1830.66 937.207 1807.1 936.484 1783.33 933.878C1693.66 923.601 1603.77 917.666 1511.28 901.888C1408.43 884.374 1344.9 840.949 1291.1 787.681C1278.78 775.377 1266.46 763.073 1254.36 750.914C1218.49 715.306 1181.76 682.013 1125.14 663.775C1093.16 653.497 1055.35 647.273 1009.54 647.707C895.447 648.431 819.386 702.568 723.228 718.201C710.48 720.227 697.515 721.53 684.333 722.109C619.292 724.714 551.658 708.502 502.391 675.644C443.185 636.272 412.717 574.174 422.873 514.682C431.3 463.73 465.441 416.976 487.266 368.051C525.08 283.951 525.08 191.021 488.346 107.935C468.466 63.0623 437.999 21.2295 397.591 -15.3922C324.123 -82.2667 218.89 -131.192 100.908 -158.26C33.4904 -173.604 -38.0332 -181.276 -109.773 -180.118" stroke="#3EA6E6" stroke-miterlimit="10"/>
<path d="M2673.59 960.223C2584.78 899.283 2425.31 865.122 2275.78 878.439C2200.37 884.953 2129.06 901.744 2059.7 916.508C1988.61 931.562 1920.76 944.879 1849.67 945.169C1826.76 945.313 1803.86 944.011 1780.52 940.826C1692.79 928.812 1605.28 920.706 1513.23 904.349C1412.1 886.4 1347.27 845.002 1291.96 795.208C1279.21 783.772 1266.46 772.337 1253.93 761.047C1216.98 728.188 1179.81 697.791 1123.2 681.289C1091 671.881 1053.4 666.38 1008.46 666.235C895.876 665.946 820.247 714.003 727.331 725.583C715.014 727.175 702.481 727.899 689.949 727.899C627.5 728.188 563.324 710.674 516.434 677.381C460.252 637.43 431.513 576.056 440.372 516.998C447.935 466.336 479.267 419.292 498.715 370.366C532.64 286.122 529.831 193.771 491.152 111.553C470.192 66.9705 438.644 25.8614 397.804 -10.3261C323.255 -76.0426 217.806 -123.955 99.6089 -150.734C32.1909 -166.077 -38.9007 -173.894 -110.424 -173.025" stroke="#43A0E8" stroke-miterlimit="10"/>
<path d="M2664.09 972.816C2573.98 918.824 2415.59 887.993 2267.14 899.573C2192.16 905.363 2120.85 920.127 2052.35 932.286C1982.13 944.879 1915.57 955.301 1845.78 953.42C1823.31 952.841 1800.83 950.959 1778.14 947.34C1692.36 933.444 1607.22 923.167 1515.82 906.231C1416.2 887.848 1350.3 848.331 1293.25 802.301C1280.07 791.589 1266.89 781.167 1253.93 770.89C1216.11 740.782 1178.08 713.424 1121.47 698.515C1089.05 689.975 1051.89 684.619 1007.59 684.329C896.524 683.461 821.111 725.004 731.653 732.531C719.768 733.544 707.667 733.689 695.783 733.4C636.144 731.518 574.992 712.556 530.695 678.829C477.323 638.299 450.312 577.504 458.091 519.17C464.79 468.797 493.313 421.608 510.599 372.538C540.419 288.293 535.017 196.377 494.609 115.172C472.569 70.8789 440.156 30.3489 398.668 -5.11485C323.039 -69.6733 217.374 -116.428 98.9604 -143.206C31.7585 -158.405 -39.1166 -166.366 -110.424 -166.077" stroke="#4999E9" stroke-miterlimit="10"/>
<path d="M2654.37 985.555C2562.96 938.511 2405.66 910.864 2258.29 920.996C2183.74 925.918 2112.65 938.656 2044.8 948.499C1975.22 958.486 1910.18 966.013 1841.68 962.105C1819.64 960.802 1797.81 958.486 1775.56 954.289C1691.72 938.511 1608.96 926.062 1517.98 908.692C1420.1 889.875 1352.9 852.385 1294.34 809.828C1280.73 799.985 1267.11 790.432 1253.93 781.023C1215.04 753.665 1176.57 729.202 1119.96 716.03C1087.55 708.358 1050.38 703.437 1006.95 702.713C897.177 700.831 822.196 736.295 736.195 739.769C724.743 740.203 713.29 739.914 701.622 739.045C644.576 734.848 586.665 714.583 544.745 680.422C494.398 639.313 468.9 579.241 475.598 521.486C481.433 471.403 507.363 423.925 522.056 374.854C547.986 290.61 539.559 199.128 497.639 118.936C474.518 74.9323 441.241 34.9813 399.105 0.096581C322.611 -63.3039 216.731 -108.9 98.1008 -135.679C30.8988 -150.878 -39.7603 -158.984 -110.852 -159.128" stroke="#4F92EA" stroke-miterlimit="10"/>
<path d="M2644.64 998.292C2552.16 958.196 2395.5 933.878 2249.21 942.418C2174.88 946.471 2104.22 957.328 2037.01 964.565C1968.08 972.092 1904.34 976.579 1837.35 970.645C1815.74 968.763 1794.35 965.723 1772.74 961.091C1690.85 943.576 1610.25 928.812 1520.14 910.863C1423.77 891.756 1355.49 856.003 1295.2 817.21C1281.15 808.09 1267.11 799.55 1253.5 791.155C1213.52 766.692 1174.41 745.124 1118.01 733.544C1085.38 726.886 1048.43 722.254 1005.86 721.096C897.607 718.345 823.058 747.73 740.298 747.006C729.278 746.861 718.258 746.137 707.237 744.835C652.784 738.321 598.331 716.753 558.788 682.158C511.466 640.47 487.481 581.122 493.099 523.801C498.069 473.863 520.974 426.24 533.723 377.025C555.331 292.78 544.527 201.733 500.662 122.554C476.46 78.8399 442.319 39.6126 399.535 5.30688C321.961 -56.9356 215.864 -101.374 97.0181 -128.008C30.0323 -143.062 -40.4107 -151.313 -111.286 -151.892" stroke="#548BEC" stroke-miterlimit="10"/>
<path d="M2634.91 1011.03C2541.13 977.882 2385.55 957.038 2240.35 963.697C2166.45 967.171 2096 975.711 2029.45 980.633C1961.38 985.554 1898.93 987.146 1833.24 979.185C1812.07 976.58 1791.32 972.961 1770.15 967.895C1690.41 948.498 1611.98 931.707 1522.3 913.179C1427.44 893.638 1357.86 859.911 1296.06 824.592C1281.58 816.341 1267.11 808.67 1253.06 801.143C1212.22 779.43 1172.46 760.902 1116.06 750.914C1083.22 745.124 1046.49 740.927 1004.78 739.479C898.036 735.86 823.703 759.02 744.401 754.244C733.813 753.665 723.224 752.362 712.852 750.625C660.992 741.795 609.781 718.925 572.83 683.895C528.317 641.628 506.06 582.86 510.814 526.262C514.92 476.613 535.016 428.846 545.388 379.486C563.106 295.241 549.493 204.628 503.9 126.463C478.618 83.0379 443.396 44.3897 400.18 10.8077C321.525 -50.2768 215.212 -93.5571 96.3664 -120.191C29.5966 -135.245 -40.8463 -143.496 -111.289 -144.654" stroke="#5A84ED" stroke-miterlimit="10"/>
<path d="M2625.41 1023.77C2530.33 997.568 2375.83 980.053 2231.49 985.119C2157.8 987.725 2087.79 994.383 2021.89 996.699C1954.47 999.16 1893.53 997.857 1829.14 987.725C1808.61 984.54 1788.08 980.342 1767.56 974.697C1689.77 953.419 1613.7 934.457 1524.68 915.494C1431.55 895.519 1360.67 863.819 1297.36 832.118C1282.45 824.736 1267.54 817.933 1253.06 811.274C1211.14 792.312 1170.73 776.679 1114.55 768.428C1081.49 763.507 1045.19 759.599 1004.13 757.862C898.9 753.23 824.784 770.31 748.938 761.48C738.783 760.322 728.627 758.441 718.903 756.269C669.636 745.124 621.665 720.95 587.308 685.487C545.82 642.785 525.076 584.596 528.749 528.433C531.775 479.073 549.493 431.016 557.272 381.656C570.886 297.412 554.679 207.233 507.141 130.081C480.779 86.9455 444.693 48.8762 400.828 15.8732C321.093 -44.0533 214.564 -86.1755 95.5022 -112.81C28.7324 -127.719 -41.2784 -136.259 -111.722 -137.707" stroke="#607DEE" stroke-miterlimit="10"/>
<path d="M2615.69 1036.51C2519.31 1017.11 2365.9 1003.07 2222.63 1006.54C2149.38 1008.28 2079.58 1012.91 2014.33 1012.91C1947.56 1012.91 1888.13 1008.57 1825.04 996.41C1804.94 992.502 1785.06 987.725 1764.97 981.646C1689.12 958.486 1615.44 937.497 1526.84 917.811C1435.22 897.546 1363.05 867.583 1298.23 839.646C1282.89 832.987 1267.54 827.197 1252.85 821.552C1210.07 805.34 1168.79 792.747 1112.83 786.088C1079.55 782.18 1043.47 778.562 1003.27 776.39C899.554 770.89 825.653 781.601 753.265 768.863C743.542 767.126 734.034 764.81 724.526 762.205C677.852 748.888 633.339 723.267 601.143 687.369C562.464 644.089 543.448 586.623 546.041 531.039C548.202 481.969 563.112 433.767 568.73 384.262C578.454 300.018 559.222 210.273 510.172 134.134C482.513 91.4332 445.779 53.7983 401.05 21.519C320.234 -37.2495 213.489 -78.2137 94.2113 -104.848C27.6576 -119.757 -42.1375 -128.297 -112.365 -130.324" stroke="#6576F0" stroke-miterlimit="10"/>
<path d="M2605.96 1049.1C2508.29 1036.65 2355.95 1025.79 2213.55 1027.68C2140.52 1028.69 2071.15 1031.29 2006.76 1028.69C1940.86 1026.08 1882.73 1018.85 1820.93 1004.66C1801.27 1000.03 1781.82 994.673 1762.37 988.159C1688.47 963.117 1617.16 939.957 1529 919.837C1438.89 899.137 1365.43 871.201 1299.3 846.738C1283.53 840.948 1267.97 835.882 1252.63 831.25C1208.77 817.788 1167.06 808.234 1111.1 803.168C1077.6 800.128 1041.73 796.944 1002.19 794.483C899.983 787.969 826.515 792.601 757.368 775.81C748.076 773.494 739.001 770.744 730.141 767.56C686.06 751.927 644.788 725.003 615.185 688.671C579.531 644.812 562.028 587.925 563.541 533.065C564.837 484.139 576.938 435.793 580.18 386.288C585.798 301.899 563.973 212.733 513.194 137.608C484.455 95.1961 446.64 58.2848 401.478 26.4398C319.583 -31.1707 212.622 -70.977 93.3435 -97.4662C26.7899 -112.231 -42.7891 -121.06 -112.584 -123.376" stroke="#6B70F1" stroke-miterlimit="10"/>
<path d="M2596.23 1061.84C2497.48 1056.34 2346.01 1048.81 2204.69 1049.1C2132.09 1049.24 2062.94 1049.97 1999.2 1044.76C1933.94 1039.69 1877.11 1029.56 1816.82 1013.2C1797.59 1007.99 1778.57 1002.06 1759.78 994.962C1687.82 968.039 1618.89 942.852 1531.38 922.008C1443 901.02 1368.23 874.964 1300.38 854.12C1284.18 849.199 1268.19 845.001 1252.41 841.383C1207.68 830.671 1165.11 824.157 1109.36 820.828C1075.87 818.802 1040 815.907 1001.32 813.012C900.628 805.629 827.376 804.037 761.687 783.193C752.827 780.298 744.184 777.114 735.973 773.495C694.485 755.546 656.67 727.32 629.444 690.553C596.815 646.115 580.825 589.952 581.257 535.526C581.689 486.89 590.981 438.399 592.061 388.749C593.79 304.36 568.94 215.628 516.432 141.516C486.613 99.3941 447.934 63.0619 402.124 31.9406C319.148 -24.6566 211.971 -63.1601 92.4766 -89.6494C26.139 -104.414 -43.224 -113.244 -113.019 -116.139" stroke="#7069F3" stroke-miterlimit="10"/>
<path d="M2586.73 1074.58C2486.69 1076.02 2336.29 1071.68 2196.06 1070.52C2123.88 1069.8 2054.95 1068.5 1991.86 1060.97C1927.25 1053.3 1871.93 1040.27 1812.94 1021.89C1794.14 1015.95 1775.77 1009.44 1757.62 1001.91C1687.61 973.106 1621.06 945.748 1533.98 924.47C1447.11 903.191 1371.05 879.018 1301.9 861.648C1285.26 857.45 1268.84 854.266 1252.85 851.516C1207.26 843.554 1163.83 840.08 1108.29 838.343C1074.58 837.185 1038.93 834.58 1001.11 831.395C901.932 823 828.896 815.328 766.664 790.286C758.237 786.957 750.026 783.049 742.247 778.996C703.352 758.731 668.778 729.202 643.929 692.001C614.109 646.984 599.848 591.544 599.199 537.697C598.551 489.351 605.466 440.57 603.953 390.921C601.576 306.532 574.134 218.234 519.897 145.136C488.997 103.303 449.454 67.5495 402.996 37.0073C318.939 -18.432 211.546 -55.7775 91.8357 -82.2667C25.4981 -96.8865 -43.4326 -106.006 -113.011 -109.335" stroke="#7662F4" stroke-miterlimit="10"/>
<path d="M2577.01 1087.31C2475.66 1095.71 2326.14 1094.7 2186.98 1091.8C2115.02 1090.35 2046.52 1087.02 1984.08 1076.89C1920.33 1066.76 1866.31 1050.84 1808.62 1030.28C1790.25 1023.77 1772.31 1016.53 1754.81 1008.57C1686.96 977.882 1622.57 948.498 1536.13 926.496C1450.78 904.783 1373.42 882.637 1302.76 868.886C1285.69 865.556 1268.84 863.24 1252.42 861.358C1205.74 856.147 1161.88 854.7 1106.34 855.568C1072.42 856.003 1037.2 853.108 1000.03 849.489C902.362 840.225 829.758 826.184 770.767 797.234C762.772 793.326 755.209 788.984 747.863 784.496C711.561 761.915 680.229 731.084 657.972 693.449C631.178 647.852 618.429 592.992 616.7 539.869C615.187 491.812 619.293 442.742 615.619 393.092C609.353 308.703 578.885 220.84 523.136 148.61C490.94 107.066 450.748 72.0368 403.642 42.0736C318.505 -12.2077 210.895 -48.3952 91.1853 -74.7397C25.0638 -89.3594 -43.8667 -98.4787 -113.013 -102.242" stroke="#7C5BF5" stroke-miterlimit="10"/>
<path d="M2567.28 1100.05C2464.64 1115.39 2316.19 1117.42 2178.12 1113.22C2106.59 1110.76 2038.09 1105.55 1976.51 1093.1C1913.41 1080.37 1860.9 1061.55 1804.51 1038.97C1786.57 1031.73 1769.29 1024.06 1752.21 1015.52C1686.31 982.804 1624.08 951.538 1538.29 928.957C1454.67 906.955 1375.8 886.834 1303.63 876.412C1286.12 873.952 1268.84 872.504 1251.98 871.636C1204.44 869.175 1159.71 871.925 1104.18 873.228C1070.04 874.096 1035.03 871.925 998.732 868.162C902.575 857.884 830.187 837.764 774.654 804.761C767.091 800.274 759.96 795.497 753.261 790.576C719.552 765.823 691.678 733.544 671.798 695.475C647.813 649.3 636.793 595.163 634.2 542.474C631.607 494.562 633.335 445.492 627.069 395.553C617.129 311.164 583.636 223.735 525.942 152.518C492.665 111.264 451.393 76.8134 403.854 47.5739C317.637 -5.54938 210.028 -40.7236 89.8855 -66.9234C23.764 -81.3984 -44.7342 -90.8071 -113.881 -95.0049" stroke="#8154F7" stroke-miterlimit="10"/>
<path d="M2557.77 1112.79C2453.84 1135.08 2306.47 1140.44 2169.26 1134.5C2097.95 1131.32 2029.88 1124.08 1968.95 1109.03C1906.5 1093.83 1855.29 1072.11 1800.4 1047.22C1782.9 1039.4 1766.04 1031.01 1749.62 1022.03C1685.66 987.435 1625.81 954.143 1540.45 930.838C1458.34 908.547 1378.17 890.308 1304.71 883.505C1286.77 881.913 1269.05 881.478 1251.77 881.334C1203.36 880.899 1157.77 887.413 1102.45 890.308C1068.09 892.045 1033.31 890.308 997.868 886.11C903.223 874.82 831.268 848.475 778.975 811.564C771.845 806.498 765.146 801.142 758.879 795.786C727.98 768.718 703.13 735.136 685.627 696.633C664.667 650.023 655.16 596.466 651.486 544.356C648.029 496.733 646.948 447.373 638.521 397.434C624.476 313.045 588.174 226.05 528.967 155.847C494.609 115.027 452.473 81.0108 404.287 52.3503C317.205 0.385041 209.163 -33.6312 88.805 -59.831C22.8996 -74.1612 -45.383 -83.7147 -114.314 -88.3467" stroke="#874DF8" stroke-miterlimit="10"/>
<path d="M2548.05 1125.53C2443.03 1154.62 2296.53 1163.45 2160.39 1155.92C2089.52 1151.87 2021.67 1142.61 1961.38 1125.24C1899.8 1107.43 1849.88 1082.83 1796.29 1055.9C1779.22 1047.36 1763.02 1038.39 1747.03 1028.98C1685.01 992.502 1627.53 957.038 1542.83 933.299C1462.23 910.573 1380.76 894.506 1305.78 891.032C1287.42 890.163 1269.27 890.598 1251.76 891.611C1202.28 894.506 1156.25 903.48 1100.94 907.968C1066.36 910.718 1031.79 909.27 997.217 904.638C904.085 892.335 832.345 859.911 783.51 818.946C776.812 813.301 770.545 807.511 764.927 801.721C736.62 772.337 715.012 737.452 700.102 698.514C682.167 651.326 674.172 598.347 669.418 546.961C665.096 499.628 661.207 450.123 650.403 400.04C632.468 315.651 593.141 229.235 532.421 159.9C496.767 119.37 453.983 85.9324 404.932 57.9956C316.77 7.1884 208.512 -25.6699 88.1539 -51.8696C22.2484 -66.1999 -45.818 -75.8981 -114.316 -80.9644" stroke="#8D46F9" stroke-miterlimit="10"/>
<path d="M2538.33 1138.12C2432.02 1174.16 2286.59 1186.18 2151.54 1177.2C2081.1 1172.28 2013.46 1161.14 1953.82 1141.16C1892.89 1120.9 1844.27 1093.39 1792.19 1064.3C1775.55 1055.18 1760 1045.48 1744.44 1035.64C1684.58 997.134 1629.27 959.789 1544.99 935.326C1465.91 912.31 1383.36 897.546 1306.87 898.27C1288.07 898.414 1269.49 899.428 1251.55 901.454C1201.2 907.099 1154.31 919.258 1099.21 925.193C1064.64 928.957 1030.28 927.654 996.357 922.732C904.738 909.56 833.43 870.767 787.837 825.895C781.57 819.815 775.952 813.446 770.766 807.077C745.052 775.377 726.901 739.189 714.369 699.817C699.243 652.05 692.976 599.795 687.142 548.843C681.74 501.799 675.473 452.005 662.076 401.922C640.036 317.533 597.9 231.551 535.451 163.229C498.717 122.989 454.852 90.2751 405.369 62.7726C316.127 13.1234 207.653 -18.5769 87.0784 -44.6319C21.3891 -58.8174 -46.4608 -68.6604 -114.959 -74.3057" stroke="#9240FB" stroke-miterlimit="10"/>
<path d="M2528.6 1150.86C2420.99 1193.85 2276.65 1209.19 2142.46 1198.48C2072.23 1192.83 2005.03 1179.52 1946.04 1157.23C1885.75 1134.36 1838.65 1103.96 1787.87 1072.84C1771.88 1062.99 1756.54 1052.86 1741.63 1042.44C1683.72 1002.05 1630.56 962.683 1547.15 937.641C1469.58 914.336 1385.74 902.177 1307.73 905.796C1288.5 906.664 1269.7 908.691 1251.12 911.731C1199.69 919.981 1152.37 935.325 1097.27 942.852C1062.48 947.629 1028.34 946.615 995.274 941.404C905.168 927.219 834.292 882.346 791.94 833.421C786.106 826.762 780.919 819.959 776.382 813.156C753.261 779.14 738.351 741.649 728.411 701.843C716.311 653.497 711.341 601.965 704.642 551.592C698.16 504.693 689.3 454.755 673.742 404.671C647.812 320.282 602.651 234.879 538.69 167.426C500.659 127.62 456.146 95.3405 406.015 68.5617C315.692 20.0705 207.002 -10.4718 86.2115 -36.5268C20.7383 -50.7123 -46.8957 -60.5553 -115.178 -66.6348" stroke="#9839FC" stroke-miterlimit="10"/>
<path d="M2519.09 1163.6C2410.19 1213.54 2266.92 1232.21 2133.82 1219.9C2064.02 1213.39 1997.04 1198.19 1938.69 1173.3C1879.27 1147.96 1833.46 1114.67 1783.98 1081.38C1768.42 1070.96 1753.73 1060.1 1739.25 1049.24C1683.5 1006.98 1632.5 965.724 1549.53 939.958C1473.47 916.509 1388.55 906.231 1309.03 913.179C1289.36 914.916 1270.13 917.811 1251.33 921.72C1199.04 932.576 1150.85 951.249 1095.97 960.223C1060.96 966.013 1027.04 965.145 994.842 959.644C906.247 944.301 835.804 893.349 796.693 840.515C791.291 833.277 786.537 825.895 782.432 818.658C761.904 782.47 750.235 743.532 742.672 703.292C733.381 654.366 730.139 603.414 722.36 553.765C715.014 507.156 703.345 457.072 685.41 406.844C655.375 322.31 607.404 237.486 541.931 171.046C502.82 131.529 457.442 99.8292 406.663 73.6294C315.259 26.2962 206.353 -3.08806 85.5628 -29.1431C20.0895 -43.1838 -47.3285 -53.3163 -115.179 -59.8301" stroke="#9D32FE" stroke-miterlimit="10"/>
<path d="M2509.37 1176.33C2341.25 1263.04 2097.94 1268.68 1931.13 1189.36C1872.35 1161.42 1828.06 1125.24 1779.87 1089.92C1705.75 1035.49 1655.41 975.276 1551.9 942.128C1458.99 912.31 1347.7 906.954 1251.11 931.707C1197.74 945.313 1149.12 967.025 1094.24 977.592C948.381 1005.53 827.158 908.257 788.263 824.447C748.504 739.044 756.283 645.825 740.077 556.225C717.82 432.174 652.563 279.318 545.169 174.809C432.158 64.9436 272.904 18.913 84.6959 -21.3275C19.4387 -35.3682 -47.7631 -45.5007 -115.613 -52.4487" stroke="#A32BFF" stroke-miterlimit="10"/>
</g>
</g>
</g>
<defs>
<linearGradient id="paint0_linear_2018_11022" x1="-11.0082" y1="916.996" x2="-11.0082" y2="478.988" gradientUnits="userSpaceOnUse">
<stop stop-color="#737373"/>
<stop offset="1" stop-color="#311996"/>
</linearGradient>
<clipPath id="clip0_2018_11022">
<rect width="1920" height="4705" fill="white"/>
</clipPath>
</defs>
</svg>
