<svg width="1920" height="1909" viewBox="0 0 1920 1909" fill="none" xmlns="http://www.w3.org/2000/svg">
<path d="M19 1481C139.95 1481 238 1382.95 238 1262C238 1141.05 139.95 1043 19 1043C-101.95 1043 -200 1141.05 -200 1262C-200 1382.95 -101.95 1481 19 1481Z" fill="url(#paint0_linear_2018_11029)" fill-opacity="0.7"/>
<mask id="mask0_2018_11029" style="mask-type:luminance" maskUnits="userSpaceOnUse" x="-124" y="0" width="2074" height="1909">
<path d="M-124 0H1950V1909H-124V0Z" fill="white"/>
</mask>
<g mask="url(#mask0_2018_11029)">
<path d="M3263.88 1904.84C3240.2 1798.03 3106.43 1734.36 2977.33 1721.93C2848.22 1709.36 2716.69 1733.8 2586.2 1733.8C2236.56 1733.66 1906.97 1539.3 1792.55 1265.78C1755.91 1178.09 1739.84 1084.68 1704.06 996.718C1668.29 908.754 1607.62 823.164 1509.11 781.277C1367.38 721.098 1189.88 767.454 1046.95 834.753C904.016 902.052 770.07 991.133 611.582 1021.99C403.318 1062.48 187.104 992.809 27.7512 880.41C-131.428 768.012 -243.943 616.938 -353.865 468.377" stroke="#D4E8F7" stroke-miterlimit="10"/>
<path d="M3271.66 1894.51C3245.74 1788.25 3112.31 1724.72 2983.03 1711.88C2927.2 1706.29 2870.69 1707.69 2814.17 1711.46C2740.02 1716.35 2665.71 1725 2591.91 1726.26C2441.37 1728.91 2294.63 1697.78 2165.7 1637.32C2066.15 1590.68 1977.48 1529.11 1906.8 1455.25C1856.16 1402.75 1815.88 1343.55 1787.71 1279.32C1775.1 1250.56 1764.73 1221.1 1755.22 1191.36C1735.86 1130.9 1719.96 1069.46 1694.9 1010.96C1666.38 944.639 1623.35 880.411 1559.4 836.709C1539.52 823.026 1517.92 811.297 1494.24 802.082C1394.86 763.545 1279.93 776.81 1170.01 809.622C1122.48 823.863 1075.81 841.596 1032.43 860.724C983.865 882.087 936.336 905.125 888.979 927.046C795.995 970.33 704.221 1010.12 604.842 1024.64C540.202 1034 476.426 1031.63 413.342 1020.18C285.1 996.998 159.104 935.144 54.0216 856.256C25.1584 834.614 -2.32207 811.856 -28.9384 788.119C-147.156 682.702 -246.017 560.81 -343.495 445.898" stroke="#D4E8F7" stroke-miterlimit="10"/>
<path d="M3279.44 1884.04C3251.09 1778.34 3118.18 1714.81 2988.73 1701.55C2932.73 1695.82 2876.22 1697.22 2819.53 1701.13C2745.38 1706.29 2671.06 1715.79 2597.44 1718.44C2447.24 1723.89 2300.68 1697.78 2170.54 1639.83C2069.95 1595.15 1979.9 1536.51 1906.45 1465.44C1853.91 1414.62 1812.08 1356.39 1782.7 1292.58C1769.57 1264.1 1758.85 1234.64 1748.83 1204.9C1728.6 1144.58 1711.84 1083.01 1685.74 1025.06C1656.01 959.159 1611.42 896.467 1545.4 854.859C1525.01 842.014 1503.23 830.983 1479.38 822.606C1379.48 787.56 1266.1 804.036 1156.35 836.987C1108.65 851.229 1061.64 868.403 1017.74 886.275C968.655 906.241 920.608 927.185 873.424 946.453C780.785 984.71 691.431 1018.36 597.755 1026.74C537.09 1032.18 479.191 1025.9 420.947 1011.38C302.901 981.639 183.128 914.2 79.7734 831.681C51.4288 809.062 23.9482 785.326 -2.84099 761.031C-122.269 652.403 -228.561 531.627 -333.471 422.859" stroke="#D4E8F7" stroke-miterlimit="10"/>
<path d="M3287.21 1873.56C3256.45 1768.43 3124.06 1704.9 2994.44 1691.35C2938.44 1685.49 2881.57 1686.75 2824.89 1690.93C2750.57 1696.52 2676.59 1706.85 2602.97 1710.76C2452.95 1719 2306.9 1697.92 2175.38 1642.48C2073.75 1599.76 1982.15 1544.05 1906.1 1475.77C1851.49 1426.62 1808.28 1369.38 1777.69 1305.85C1764.03 1277.51 1752.8 1248.32 1742.26 1218.44C1721.17 1158.27 1703.54 1096.55 1676.41 1039.03C1645.47 973.541 1599.5 912.386 1531.23 872.872C1510.32 860.864 1488.37 850.532 1464.51 843.132C1364.27 811.576 1252.27 831.403 1142.7 864.355C1094.82 878.736 1047.64 895.212 1003.22 911.827C953.619 930.397 905.226 949.247 858.042 966.002C765.749 998.953 678.641 1026.74 590.842 1028.97C533.979 1030.37 481.957 1020.46 428.897 1002.72C321.049 966.7 207.497 893.257 106.044 807.248C78.2179 783.512 50.9102 759.077 23.9482 734.085C-96.5166 622.245 -210.241 502.586 -322.928 400.102" stroke="#D4E8F7" stroke-miterlimit="10"/>
<path d="M3294.99 1863.09C3261.81 1758.65 3129.94 1694.98 2999.97 1681.16C2943.79 1675.16 2886.93 1676.27 2830.07 1680.88C2755.75 1686.75 2681.78 1697.92 2608.33 1703.22C2458.65 1714.11 2312.78 1698.2 2180.22 1645.42C2077.38 1604.65 1984.22 1552.01 1905.93 1486.38C1849.07 1438.91 1804.65 1382.64 1773.02 1319.53C1758.85 1291.47 1747.1 1262.29 1736.21 1232.41C1714.26 1172.23 1695.77 1110.65 1667.42 1053.41C1635.27 988.482 1587.92 928.582 1517.4 891.442C1495.97 880.133 1473.85 870.778 1449.82 864.076C1349.06 836.011 1238.79 859.189 1129.04 892.14C1081.17 906.661 1033.47 922.439 988.704 937.937C938.582 955.251 889.67 971.866 842.833 986.108C750.885 1014.03 666.024 1035.54 584.274 1031.77C531.214 1029.25 485.067 1015.43 437.02 994.485C339.196 952.039 232.212 872.872 132.315 783.372C104.834 758.659 77.6993 733.247 50.5645 707.556C-70.9374 592.645 -192.093 473.824 -312.385 377.762" stroke="#D4E8F7" stroke-miterlimit="10"/>
<path d="M3302.77 1852.62C3267.17 1748.74 3135.81 1685.07 3005.67 1670.97C2949.5 1664.82 2892.46 1665.94 2835.43 1670.69C2761.11 1676.83 2687.14 1688.84 2613.86 1695.54C2464.53 1709.22 2319 1698.19 2185.06 1648.07C2081.18 1609.25 1986.47 1559.69 1905.58 1496.86C1846.65 1451.06 1800.85 1395.63 1768.01 1332.94C1753.32 1305.01 1741.05 1275.97 1729.81 1246.23C1707 1186.19 1687.64 1124.48 1658.26 1067.79C1624.9 1003.28 1576.16 944.918 1503.4 909.872C1481.62 899.4 1459.16 890.743 1435.13 884.879C1334.02 860.445 1225.14 886.694 1115.56 919.925C1067.52 934.446 1019.47 949.665 974.186 963.907C923.546 979.824 874.288 994.345 827.45 1005.93C735.849 1028.69 652.889 1044.19 577.361 1034.28C527.93 1027.85 488.006 1010.12 444.797 986.107C356.998 937.099 256.409 852.346 158.24 759.216C131.278 733.525 104.143 707.276 76.8353 680.887C-45.7035 562.764 -174.465 445.06 -302.361 355.281" stroke="#D4E8F7" stroke-miterlimit="10"/>
<path d="M3310.72 1842.29C3272.7 1738.96 3141.86 1675.44 3011.54 1660.91C2955.2 1654.63 2897.99 1655.61 2840.96 1660.64C2766.47 1667.2 2692.84 1680.04 2619.56 1688C2470.4 1704.34 2325.22 1698.47 2190.07 1650.86C2085.16 1614.14 1988.72 1567.51 1905.41 1507.33C1844.23 1463.21 1797.22 1408.75 1763.17 1346.48C1748.13 1318.69 1735.34 1289.79 1723.42 1260.05C1699.74 1200.15 1679.34 1138.3 1649.1 1082.03C1614.53 1018.08 1564.41 960.974 1489.4 928.163C1467.11 918.389 1444.46 910.57 1420.27 905.543C1318.81 884.6 1211.48 914.2 1101.91 947.431C1053.69 962.092 1005.29 976.612 959.666 989.598C908.508 1004.12 858.905 1016.55 812.067 1025.62C720.811 1043.35 639.579 1052.43 570.446 1036.65C524.472 1026.18 490.77 1004.68 452.746 977.45C375.144 922.019 280.777 831.402 184.336 734.782C157.893 707.974 130.758 680.887 103.277 653.939C-20.4715 532.605 -156.491 416.018 -291.993 332.383" stroke="#D4E8F7" stroke-miterlimit="10"/>
<path d="M3318.5 1831.82C3278.05 1729.19 3147.74 1665.52 3017.25 1650.58C2960.9 1644.16 2903.52 1645.14 2846.32 1650.44C2771.82 1657.29 2698.2 1670.97 2625.09 1680.32C2476.28 1699.45 2331.27 1698.61 2194.91 1653.52C2088.96 1618.75 1990.79 1575.19 1905.06 1517.66C1841.81 1475.21 1793.41 1421.74 1758.16 1359.88C1742.6 1332.38 1729.29 1303.48 1717.02 1273.74C1692.48 1213.84 1671.22 1151.98 1639.94 1096.13C1604.16 1032.6 1552.66 976.893 1475.4 946.455C1452.76 937.519 1429.77 930.398 1405.58 926.209C1303.6 908.756 1197.83 941.707 1088.43 974.938C1040.21 989.599 991.295 1003.56 945.321 1015.29C893.817 1028.41 843.522 1038.75 796.857 1045.17C705.947 1057.74 626.444 1060.39 563.878 1038.89C521.188 1024.23 494.053 999.093 460.869 968.795C393.291 906.801 305.319 810.599 210.607 710.349C184.509 682.563 157.72 654.638 129.893 626.993C5.10773 502.447 -138.517 386.838 -281.623 309.625" stroke="#D4E8F7" stroke-miterlimit="10"/>
<path d="M3326.27 1821.34C3283.41 1719.28 3153.61 1655.61 3022.78 1640.39C2966.26 1633.83 2908.71 1634.67 2851.5 1640.25C2777.01 1647.51 2703.38 1662.03 2630.62 1672.64C2482.16 1694.56 2337.49 1698.75 2199.75 1656.31C2092.76 1623.5 1993.04 1583 1904.72 1528.13C1839.22 1487.36 1789.61 1434.86 1753.14 1373.29C1737.07 1345.92 1723.24 1317.16 1710.45 1287.42C1685.05 1227.66 1662.93 1165.66 1630.61 1110.23C1593.62 1047.12 1540.9 992.809 1461.23 964.605C1438.07 956.367 1414.91 950.084 1390.54 946.873C1288.22 932.91 1184 969.073 1074.6 1002.44C1026.21 1017.24 976.95 1030.51 930.457 1041.12C878.435 1052.99 827.795 1061.09 781.13 1065C690.565 1072.54 612.444 1068.49 556.619 1041.4C517.213 1022.41 496.473 993.787 468.474 960.416C411.093 891.86 329.343 790.074 236.532 686.193C210.952 657.43 184.163 628.528 156.164 600.323C30.3414 472.566 -120.715 358.074 -271.425 287.145" stroke="#D4E8F7" stroke-miterlimit="10"/>
<path d="M3334.05 1810.87C3288.77 1709.37 3159.49 1645.7 3028.48 1630.2C2971.96 1623.5 2914.24 1624.19 2856.86 1630.06C2782.37 1637.6 2708.91 1652.96 2636.15 1665.1C2487.86 1689.68 2343.54 1699.03 2204.58 1659.1C2096.56 1628.24 1995.11 1590.82 1904.37 1538.74C1836.62 1499.79 1785.81 1448.13 1748.13 1386.97C1731.54 1359.88 1717.37 1331.12 1704.06 1301.38C1677.62 1241.76 1654.8 1179.63 1621.45 1124.76C1583.25 1062.2 1529.15 1009.15 1447.23 983.316C1423.72 975.916 1400.22 970.47 1375.85 967.957C1273.19 957.485 1170.35 996.999 1061.12 1030.37C1012.55 1045.17 963.123 1057.88 916.112 1067.23C863.571 1077.7 812.585 1083.71 766.093 1084.96C675.874 1087.34 599.481 1076.31 550.051 1044.05C514.102 1020.6 499.757 988.622 476.597 952.04C429.241 876.922 354.058 769.41 262.802 662.039C237.569 632.299 210.952 602.558 182.78 573.516C55.9206 442.548 -102.74 329.173 -261.055 264.387" stroke="#D4E8F7" stroke-miterlimit="10"/>
<path d="M3341.83 1800.4C3294.3 1699.45 3165.37 1635.92 3034.18 1620C2977.5 1613.16 2919.77 1613.86 2862.39 1619.87C2787.72 1627.82 2714.44 1643.88 2641.85 1657.42C2493.91 1684.79 2349.94 1699.03 2209.6 1661.75C2100.37 1632.85 1997.18 1598.64 1904.2 1549.08C1834.2 1511.8 1782.18 1461.11 1743.29 1400.24C1726.18 1373.29 1711.49 1344.66 1697.84 1314.92C1670.53 1255.3 1646.85 1193.17 1612.46 1138.72C1573.05 1076.58 1517.74 1024.78 1433.4 1001.33C1409.38 994.625 1385.7 990.017 1361.16 988.342C1257.98 981.5 1156.87 1024.09 1047.64 1057.74C999.072 1072.67 949.123 1084.68 901.767 1092.78C848.707 1101.86 797.375 1105.91 750.883 1104.51C661.183 1101.86 586.346 1083.43 543.483 1046.29C510.818 1018.08 502.867 983.036 484.893 943.382C447.734 861.702 378.773 748.605 289.245 637.603C264.53 606.746 238.087 576.308 209.569 546.568C81.4996 412.388 -84.4204 300.13 -250.513 241.627" stroke="#D4E8F7" stroke-miterlimit="10"/>
<path d="M3349.61 1790.07C3299.66 1689.82 3171.24 1626.15 3039.89 1609.95C2983.2 1602.97 2925.13 1603.53 2867.75 1609.95C2793.08 1618.19 2719.8 1635.22 2647.38 1650.02C2499.61 1680.18 2355.99 1699.45 2214.44 1664.68C2104.17 1637.88 1999.26 1606.6 1903.85 1559.69C1831.78 1524.22 1778.38 1474.38 1738.28 1413.92C1720.65 1387.25 1705.44 1358.63 1691.27 1328.89C1663.1 1269.41 1638.56 1207.27 1602.95 1153.1C1562.34 1091.52 1505.82 1040.98 1418.88 1019.76C1394.51 1013.75 1370.49 1009.98 1345.78 1009.14C1242.25 1005.79 1142.52 1051.73 1033.47 1085.38C984.727 1100.46 934.432 1111.77 886.557 1118.75C832.979 1126.43 781.129 1128.38 734.81 1124.48C645.455 1116.8 572.692 1090.97 535.879 1049.08C507.015 1016.13 505.114 978.008 491.979 935.144C465.017 846.901 402.278 728.219 314.479 613.727C290.282 581.892 263.839 550.477 235.321 520.178C106.215 382.927 -67.1368 271.506 -240.834 219.426" stroke="#D4E8F7" stroke-miterlimit="10"/>
<path d="M3357.38 1779.6C3305.01 1679.91 3177.12 1616.24 3045.42 1599.62C2988.56 1592.5 2930.48 1592.92 2872.93 1599.62C2798.27 1608.14 2725.16 1626.01 2652.74 1642.21C2505.31 1675.02 2361.86 1699.45 2219.28 1667.34C2107.97 1642.49 2001.33 1614.42 1903.68 1570.02C1829.36 1536.23 1774.75 1487.36 1733.44 1427.32C1715.29 1400.79 1699.57 1372.31 1685.05 1342.57C1656.01 1283.23 1630.6 1220.96 1593.96 1167.34C1552.31 1106.19 1494.41 1056.9 1405.06 1038.19C1380.17 1033.02 1355.97 1029.95 1331.26 1029.95C1227.38 1030.09 1129.22 1079.38 1020.16 1113.03C971.246 1128.11 920.605 1138.86 872.385 1144.58C818.288 1151.01 766.092 1150.73 719.773 1144.16C630.764 1131.46 560.248 1098.09 529.311 1051.45C504.25 1013.61 508.398 972.565 500.275 926.628C483.51 831.823 426.993 707.417 340.922 589.434C317.071 556.622 290.801 524.369 262.11 493.372C131.967 352.909 -48.9893 242.606 -230.291 196.809" stroke="#D4E8F7" stroke-miterlimit="10"/>
<path d="M3365.34 1769.13C3310.55 1669.99 3183.34 1606.32 3051.3 1589.43C2994.44 1582.17 2936.02 1582.59 2878.46 1589.43C2803.63 1598.36 2730.69 1616.93 2658.45 1634.53C2511.37 1670.13 2368.26 1699.59 2224.29 1669.99C2111.95 1647.09 2003.58 1622.1 1903.51 1580.49C1826.95 1548.52 1771.12 1500.49 1728.6 1440.73C1709.94 1414.34 1693.86 1385.99 1678.66 1356.25C1648.76 1296.91 1622.48 1234.64 1584.81 1181.44C1541.94 1120.85 1482.84 1072.68 1391.06 1056.34C1365.83 1051.87 1341.28 1049.78 1316.4 1050.62C1212.01 1054.25 1115.39 1106.74 1006.33 1140.53C957.422 1155.75 906.263 1165.81 857.697 1170.27C803.082 1175.3 750.54 1173.07 704.221 1163.85C615.73 1146.12 547.634 1105.35 522.227 1053.83C501.315 1011.24 511.166 967.12 507.882 917.972C501.314 816.604 451.193 686.613 366.85 565C343.518 531.071 317.247 497.98 288.384 466.425C157.03 322.75 -31.185 213.564 -220.092 173.91" stroke="#D4E8F7" stroke-miterlimit="10"/>
<path d="M3373.11 1758.65C3315.91 1660.22 3189.22 1596.41 3057 1579.23C2999.97 1571.83 2941.55 1572.11 2883.82 1579.37C2808.99 1588.59 2736.22 1608.14 2664.15 1626.98C2517.24 1665.38 2374.48 1699.87 2229.3 1672.78C2115.92 1651.84 2005.66 1630.06 1903.34 1590.96C1824.53 1560.8 1767.49 1513.61 1723.76 1454.27C1704.58 1428.16 1687.99 1399.81 1672.43 1370.21C1641.67 1311.01 1614.53 1248.6 1575.82 1195.82C1531.75 1135.64 1471.43 1088.73 1377.23 1074.77C1351.48 1071 1326.77 1069.74 1301.88 1071.42C1197.14 1078.54 1102.08 1134.39 993.025 1168.18C943.941 1183.4 892.609 1192.89 843.352 1196.1C788.391 1199.73 735.331 1195.4 689.184 1183.54C601.039 1160.92 535.708 1112.61 515.832 1056.2C499.068 1008.86 514.45 961.672 516.351 909.452C519.98 801.661 476.081 665.946 393.466 540.702C370.48 505.796 344.555 471.867 315.346 439.474C182.955 292.589 -12.8649 184.379 -209.376 151.148" stroke="#D4E8F7" stroke-miterlimit="10"/>
<path d="M3380.89 1748.18C3321.26 1650.3 3195.09 1586.63 3062.7 1569.04C3005.67 1561.5 2946.91 1561.78 2889.18 1569.18C2814.34 1578.82 2741.58 1599.06 2669.68 1619.31C2523.12 1660.36 2380.7 1699.87 2234.14 1675.58C2119.73 1656.73 2007.73 1638.02 1902.99 1601.43C1821.76 1573.09 1763.52 1526.74 1718.75 1467.67C1699.05 1441.7 1681.94 1413.64 1666.04 1383.9C1634.41 1324.84 1606.24 1262.29 1566.66 1210.07C1521.38 1150.31 1459.68 1104.51 1363.23 1093.2C1337.14 1090.13 1311.9 1089.71 1287.01 1092.22C1181.76 1102.83 1088.26 1162.03 979.371 1195.96C930.114 1211.32 878.437 1220.12 828.834 1222.21C773.354 1224.45 719.776 1218.16 673.802 1203.64C586.003 1176 523.61 1120.43 508.919 1058.99C496.475 1006.91 517.388 956.646 524.128 901.355C538.128 787.002 500.277 645.562 419.391 516.827C396.923 480.944 370.998 446.038 341.616 413.086C208.189 262.989 4.93725 155.897 -199.179 128.949" stroke="#D4E8F7" stroke-miterlimit="10"/>
<path d="M3388.67 1737.85C3326.62 1640.53 3200.97 1576.86 3068.23 1558.99C3011.03 1551.31 2952.26 1551.45 2894.36 1559.13C2819.35 1569.04 2746.76 1590.27 2675.04 1611.77C2528.82 1655.61 2386.58 1700.15 2238.81 1678.37C2123.18 1661.47 2009.63 1645.98 1902.47 1611.91C1819 1585.38 1759.54 1539.72 1713.57 1481.22C1693.35 1455.53 1675.72 1427.46 1659.3 1397.72C1626.8 1338.66 1597.77 1276.11 1557.15 1224.31C1510.66 1165.11 1447.75 1120.29 1348.89 1111.49C1322.45 1109.12 1296.87 1109.54 1271.98 1112.89C1166.38 1127.13 1074.43 1189.4 965.544 1223.47C916.114 1238.83 864.091 1247.07 814.142 1247.9C758.144 1248.88 704.22 1240.37 658.246 1223.19C570.793 1190.52 511.338 1127.83 501.832 1061.23C493.882 1004.68 520.325 951.062 531.905 892.559C556.448 771.644 524.474 624.619 445.316 492.255C423.366 455.394 397.441 419.649 367.886 386C233.595 232.692 22.9111 126.577 -188.983 105.912" stroke="#D4E8F7" stroke-miterlimit="10"/>
<path d="M3396.45 1727.38C3331.98 1630.62 3206.85 1566.95 3073.94 1548.66C3016.73 1540.84 2957.79 1540.84 2899.72 1548.8C2824.71 1559.13 2752.3 1581.05 2680.57 1603.95C2534.53 1650.58 2392.8 1700.15 2243.65 1680.88C2126.98 1665.94 2011.53 1653.8 1902.13 1622.1C1816.4 1597.39 1755.74 1552.57 1708.55 1494.48C1687.99 1468.93 1669.84 1441.01 1652.9 1411.27C1619.37 1352.34 1589.65 1289.79 1547.99 1238.27C1500.29 1179.49 1436.17 1135.93 1334.89 1129.5C1307.93 1127.83 1282.17 1129.22 1257.11 1133.27C1151.17 1151.01 1060.6 1216.63 951.89 1250.7C902.46 1266.2 849.919 1273.74 799.624 1273.32C743.108 1272.9 688.838 1262.43 642.865 1242.6C555.756 1204.9 499.24 1135.09 495.092 1063.32C491.635 1002.17 523.436 945.338 539.856 883.763C574.422 756.425 549.016 603.675 471.414 467.681C449.81 429.703 424.23 393.121 394.33 358.913C259.002 202.672 40.8859 97.6743 -178.612 83.293" stroke="#D4E8F7" stroke-miterlimit="10"/>
<path d="M3404.22 1716.9C3337.34 1620.84 3212.72 1557.03 3079.64 1538.46C3022.26 1530.5 2963.15 1530.5 2905.08 1538.74C2830.07 1549.35 2757.65 1572.11 2686.1 1596.41C2540.4 1645.69 2398.85 1700.43 2248.49 1683.67C2130.79 1670.69 2013.61 1661.75 1901.78 1632.71C1813.81 1609.81 1751.94 1565.83 1703.54 1508.02C1682.46 1482.75 1663.79 1454.83 1646.33 1425.09C1611.94 1366.31 1581.35 1303.61 1538.49 1252.65C1489.57 1194.43 1424.24 1151.7 1320.54 1148.07C1293.24 1147.09 1267.14 1149.33 1242.08 1154.35C1135.61 1175.58 1046.78 1244.55 938.063 1278.62C888.46 1294.26 835.573 1301.1 784.76 1299.42C727.725 1297.61 672.937 1285.18 627.136 1262.7C540.374 1220.12 486.796 1143.18 487.833 1066.11C488.697 1000.49 525.856 940.309 547.46 875.523C592.224 741.623 573.039 583.149 497.338 443.803C476.253 404.848 450.673 367.428 420.6 332.382C283.889 172.791 58.3416 68.7701 -168.761 60.6719" stroke="#D4E8F7" stroke-miterlimit="10"/>
<path d="M3412 1706.43C3342.87 1610.93 3218.6 1547.26 3085.34 1528.27C3027.96 1520.17 2968.68 1520.03 2910.44 1528.55C2835.43 1539.44 2763.01 1563.18 2691.63 1588.73C2546.28 1640.81 2404.9 1700.57 2253.5 1686.47C2134.76 1675.44 2015.85 1669.71 1901.61 1643.18C1811.39 1622.1 1748.31 1578.96 1698.88 1521.57C1677.27 1496.44 1658.09 1468.65 1640.29 1438.91C1605.03 1380.13 1573.57 1317.44 1529.67 1266.89C1479.55 1209.09 1412.84 1167.48 1306.89 1166.36C1279.06 1166.08 1252.79 1169.16 1227.56 1175.02C1120.75 1199.73 1033.29 1271.92 924.755 1306.13C874.979 1321.77 821.747 1328.05 770.588 1325.26C713.034 1322.05 657.728 1307.66 612.273 1282.39C525.683 1234.92 475.216 1151 481.438 1068.49C486.796 998.534 529.313 934.865 555.756 867.007C610.717 726.545 597.755 562.485 523.782 419.509C503.215 379.576 477.636 341.319 447.563 305.575C309.814 142.772 76.6619 39.8688 -158.046 37.9141" stroke="#D4E8F7" stroke-miterlimit="10"/>
<path d="M3419.95 1696.1C3348.4 1601.16 3224.65 1537.49 3091.05 1518.22C3033.49 1509.98 2974.04 1509.7 2915.79 1518.5C2840.61 1529.81 2768.54 1554.24 2697.33 1581.19C2552.15 1636.06 2411.29 1700.71 2258.51 1689.26C2138.74 1680.32 2017.93 1677.95 1901.61 1653.66C1809.14 1634.67 1744.85 1592.08 1694.21 1534.98C1672.09 1509.98 1652.56 1482.34 1634.24 1452.6C1598.11 1393.95 1565.79 1331.12 1520.86 1281C1469.53 1223.61 1401.6 1183.12 1293.24 1184.52C1265.06 1184.94 1238.45 1188.84 1213.21 1195.55C1106.06 1223.75 1020.16 1299.29 911.619 1333.64C861.843 1349.41 808.265 1355 756.588 1350.95C698.516 1346.48 642.863 1329.87 597.408 1302.08C511.164 1249.58 463.635 1158.83 475.215 1070.86C485.066 996.442 532.941 929.561 564.397 858.492C629.555 711.607 622.815 541.823 550.57 395.216C530.349 354.306 505.115 315.072 474.696 278.769C335.911 112.755 95.3271 10.9685 -146.985 15.2968" stroke="#D4E8F7" stroke-miterlimit="10"/>
<path d="M3427.73 1685.63C3321.78 1550.61 3115.24 1478.29 2921.15 1508.3C2692.67 1543.63 2492.87 1705.18 2263.35 1691.91C2142.54 1684.93 2020 1685.77 1901.26 1663.99C1765.24 1639.13 1689.37 1564.02 1627.67 1466.28C1548.34 1340.75 1486.46 1195.27 1279.06 1202.81C1129.04 1208.25 1031.74 1318.69 897.792 1361.14C791.672 1394.79 667.578 1379.29 581.68 1321.77C495.782 1264.24 451.018 1166.64 467.955 1073.23C482.128 994.485 535.36 924.114 571.828 849.833C668.269 653.521 640.616 421.045 500.621 251.819C360.626 82.594 112.783 -18.2153 -137.307 -7.46413" stroke="#D4E8F7" stroke-miterlimit="10"/>
<path d="M3415.46 1704.9C3307.95 1580.49 3102.63 1513.19 2909.92 1540.7C2813.48 1554.38 2722.05 1589.15 2631.83 1622.8C2539.36 1657.42 2448.28 1691.07 2353.22 1700.85C2322.63 1704.06 2291.52 1704.76 2260.07 1702.1C2141.68 1692.19 2022.25 1689.82 1904.03 1667.34C1770.08 1641.93 1692.65 1569.88 1628.88 1477.59C1614.19 1456.36 1600.02 1434.72 1585.5 1413.36C1542.98 1350.53 1497.7 1291.05 1425.97 1257.96C1385.87 1239.53 1337.65 1229.05 1277.68 1230.73C1129.56 1234.78 1032.78 1335.73 902.979 1372.03C885.695 1376.78 868.066 1380.27 850.264 1382.5C761.601 1393.39 667.752 1372.73 599.31 1324.14C517.042 1265.78 474.525 1169.16 489.907 1076.72C502.869 998.394 552.818 927.604 586.348 853.323C644.247 725.148 650.815 582.311 609.162 452.46C586.694 383.066 550.571 317.582 501.141 259.778C411.095 154.221 278.532 76.1707 129.722 34.9813C44.1696 11.2451 -46.7407 0.0750995 -137.824 3.28647" stroke="#D4E8F7" stroke-miterlimit="10"/>
<path d="M3403.18 1724.3C3294.13 1610.37 3090.01 1548.24 2898.68 1573.37C2802.59 1585.94 2711.5 1617.49 2622.15 1647.37C2530.55 1678.09 2441.37 1707.27 2347.86 1713.97C2317.79 1716.21 2287.37 1715.93 2256.61 1712.58C2140.81 1699.87 2024.15 1694.29 1906.62 1670.83C1774.58 1644.86 1695.94 1575.6 1629.91 1488.9C1614.7 1468.93 1599.84 1448.68 1584.98 1428.72C1541.08 1370.08 1495.28 1315.06 1423.55 1284.63C1383.28 1267.59 1335.41 1257.68 1276.47 1258.79C1130.25 1261.45 1033.81 1353.04 908.162 1383.2C891.397 1387.11 874.459 1389.9 857.176 1391.44C771.796 1398.84 682.095 1376.08 616.764 1326.93C538.298 1267.73 497.682 1172.09 511.855 1080.49C523.78 1002.58 570.1 931.514 600.691 857.094C653.578 728.918 656.516 586.64 612.617 458.325C588.766 389.49 551.434 324.843 501.312 268.016C409.883 164.274 277.147 87.8996 128.165 46.8498C42.785 23.2532 -47.7793 11.8039 -138.69 14.3172" stroke="#D4E8F7" stroke-miterlimit="10"/>
<path d="M3391.09 1743.71C3280.47 1640.39 3077.57 1583.14 2887.45 1605.9C2791.87 1617.21 2701.14 1645.7 2612.64 1671.94C2521.91 1698.75 2434.45 1723.61 2342.85 1727.1C2313.3 1728.21 2283.74 1727.1 2253.5 1723.05C2140.12 1707.41 2026.57 1698.47 1909.73 1674.32C1779.76 1647.51 1699.57 1581.47 1631.64 1500.21C1615.91 1481.5 1600.53 1462.65 1585.15 1444.08C1539.87 1389.76 1493.38 1339.08 1421.82 1311.29C1381.38 1295.52 1333.68 1286.3 1275.78 1286.86C1131.46 1287.98 1035.54 1370.49 914.038 1394.23C897.965 1397.44 881.373 1399.26 864.954 1400.09C782.858 1404.14 697.478 1379.29 635.258 1329.3C560.421 1269.27 521.879 1174.6 534.669 1083.84C545.385 1006.21 588.42 935.004 616.074 860.444C663.948 732.129 663.775 590.689 617.283 463.909C592.222 395.493 553.508 331.824 502.695 275.974C409.883 173.908 276.974 99.3481 127.646 58.2984C42.4395 34.8414 -47.9524 23.2525 -138.517 25.0676" stroke="#D4E8F7" stroke-miterlimit="10"/>
<path d="M3378.82 1763.12C3266.65 1670.41 3064.95 1618.19 2876.22 1638.44C2780.99 1648.49 2690.77 1674.04 2603.14 1696.38C2513.44 1719.42 2427.54 1739.66 2337.67 1739.94C2308.81 1740.08 2279.77 1738.13 2250.21 1733.24C2139.43 1714.95 2028.64 1702.52 1912.5 1677.67C1784.6 1650.3 1702.85 1587.19 1632.85 1511.38C1616.61 1493.92 1600.71 1476.47 1584.81 1459.44C1538.14 1409.31 1490.96 1363.1 1419.58 1337.82C1378.96 1323.44 1331.43 1315.06 1274.57 1314.79C1132.16 1314.23 1036.58 1387.53 919.398 1405.12C903.843 1407.5 887.942 1408.61 872.041 1408.75C793.229 1409.31 711.997 1382.36 652.888 1331.82C581.854 1270.94 545.559 1177.25 556.793 1087.48C566.472 1010.26 605.878 938.635 630.593 863.936C673.455 735.621 669.826 594.739 621.087 469.635C594.643 401.638 554.892 338.946 503.215 283.934C409.021 183.683 275.766 110.799 126.438 69.8887C41.4039 46.5714 -48.6424 34.7032 -139.034 35.8202" stroke="#D4E8F7" stroke-miterlimit="10"/>
<path d="M3366.54 1782.53C3252.65 1700.29 3052.5 1653.23 2864.98 1670.97C2770.27 1679.76 2680.22 1702.24 2593.46 1720.81C2504.62 1739.94 2420.63 1755.86 2332.31 1752.93C2303.96 1752.09 2275.62 1749.16 2246.93 1743.57C2138.56 1722.49 2030.89 1706.71 1915.43 1681.02C1789.61 1652.95 1706.31 1592.78 1634.23 1522.54C1617.47 1506.21 1600.88 1490.29 1584.63 1474.65C1536.76 1428.72 1488.88 1387.11 1417.33 1364.35C1376.54 1351.36 1329.36 1343.27 1273.36 1342.71C1132.84 1341.31 1037.79 1404.7 924.754 1416.15C909.717 1417.69 894.508 1417.97 879.298 1417.41C803.77 1414.48 726.687 1385.57 670.689 1334.33C603.284 1272.48 569.063 1179.91 578.914 1090.96C587.383 1014.17 623.505 942.263 645.109 867.424C682.787 739.109 675.874 598.926 624.888 475.218C597.062 407.639 556.1 345.925 503.732 291.89C408.328 193.455 274.727 122.385 125.054 81.4753C40.0195 58.2976 -49.5079 46.1502 -139.554 46.5691" stroke="#D4E8F7" stroke-miterlimit="10"/>
<path d="M3354.45 1801.8C3238.99 1730.17 3040.06 1688 2853.75 1703.5C2759.38 1711.04 2669.85 1730.45 2583.95 1745.39C2495.98 1760.75 2413.71 1772.06 2327.3 1766.05C2299.47 1764.1 2271.82 1760.47 2243.82 1754.05C2138.04 1730.03 2033.13 1711.04 1918.37 1684.51C1794.62 1655.89 1709.76 1598.64 1635.62 1533.86C1618.33 1518.78 1601.22 1504.26 1584.46 1490.02C1535.2 1448.41 1486.64 1411.13 1415.26 1391.02C1374.12 1379.43 1327.28 1371.89 1272.32 1370.78C1133.71 1367.98 1039 1422.02 930.285 1427.18C915.767 1427.88 901.249 1427.46 886.731 1426.21C814.486 1419.78 741.551 1388.93 688.664 1336.99C625.061 1274.29 592.914 1182.84 601.383 1094.6C608.815 1018.22 641.48 945.897 660.146 871.058C692.812 742.742 682.442 603.257 629.209 481.085C600 414.065 557.829 353.189 504.596 300.131C407.81 203.371 274.036 134.117 124.19 93.3466C39.3287 70.1688 -50.0261 57.8818 -139.727 57.7422" stroke="#D4E8F7" stroke-miterlimit="10"/>
<path d="M3342.18 1821.2C3225.17 1760.05 3027.45 1723.05 2842.51 1736.03C2748.67 1742.32 2659.31 1758.65 2574.45 1769.82C2487.34 1781.27 2406.97 1788.11 2322.11 1779.04C2294.98 1776.1 2267.84 1771.5 2240.54 1764.52C2137.18 1737.71 2035.38 1715.37 1921.31 1688C1799.47 1658.82 1713.22 1604.51 1637 1545.3C1619.2 1531.48 1601.57 1518.22 1584.29 1505.51C1533.82 1468.09 1484.39 1435.42 1413.18 1417.83C1371.88 1407.63 1325.21 1400.65 1271.46 1398.98C1134.75 1394.79 1040.38 1439.47 935.99 1438.35C921.99 1438.21 907.991 1436.96 894.164 1435C825.376 1425.09 756.416 1392.14 706.64 1339.64C646.667 1276.11 616.594 1185.63 623.68 1098.37C629.902 1022.41 658.938 949.804 674.839 874.826C702.146 746.371 688.492 607.583 633.186 487.087C602.594 420.486 559.386 360.587 505.289 308.367C407.12 213.422 273.001 145.843 122.982 105.073C38.2933 82.0349 -50.7159 69.6082 -140.244 68.6309" stroke="#D4E8F7" stroke-miterlimit="10"/>
<path d="M3329.9 1840.61C3211.34 1790.07 3014.83 1758.37 2831.28 1768.57C2737.78 1773.73 2648.94 1787 2564.77 1794.26C2478.7 1801.8 2399.89 1804.17 2316.75 1792.02C2290.14 1788.11 2263.69 1782.67 2237.08 1774.85C2136.14 1745.25 2037.28 1719.7 1923.9 1691.49C1804.13 1661.75 1716.16 1610.37 1638.21 1556.62C1619.89 1544.05 1601.74 1532.18 1583.94 1520.87C1532.26 1487.78 1481.97 1459.44 1410.93 1444.36C1369.45 1435.56 1323.13 1429 1270.25 1426.9C1135.44 1421.32 1041.42 1456.64 941.345 1449.38C928.037 1448.41 914.556 1446.45 901.421 1443.8C835.917 1430.39 771.277 1395.49 724.439 1342.15C668.269 1277.78 640.097 1188.28 645.973 1101.86C651.158 1026.18 676.737 953.435 689.7 878.317C711.995 749.862 694.885 611.773 637.159 492.673C605.184 426.491 560.766 367.569 505.978 316.326C406.426 223.057 272.135 157.294 121.942 116.663C37.4269 93.7642 -51.2367 81.0583 -140.592 79.3828" stroke="#D4E8F7" stroke-miterlimit="10"/>
<path d="M3317.8 1860.02C3197.69 1819.95 3002.56 1793.42 2820.04 1801.1C2727.06 1805.01 2638.4 1815.2 2555.26 1818.69C2470.06 1822.46 2393.15 1820.37 2311.74 1805.01C2285.64 1800.12 2259.89 1793.7 2233.97 1785.18C2135.62 1752.65 2039.7 1723.89 1926.84 1694.84C1809.14 1664.55 1719.61 1615.96 1639.59 1567.79C1620.75 1556.48 1601.92 1546 1583.77 1536.09C1530.88 1507.19 1479.72 1483.45 1408.69 1470.89C1367.03 1463.49 1320.89 1457.48 1269.04 1454.83C1136.13 1447.85 1042.45 1473.68 946.531 1460.27C933.741 1458.46 920.952 1455.67 908.335 1452.32C846.115 1435.42 785.623 1398.42 741.896 1344.52C689.355 1279.32 663.43 1190.8 667.751 1105.35C671.726 1030.09 693.849 956.926 703.873 881.668C721.156 753.213 700.416 615.822 640.616 498.258C607.259 432.634 561.631 374.55 506.152 324.285C405.39 232.831 270.753 168.743 120.215 128.251C35.8723 105.493 -52.6186 92.5074 -141.628 90.2734" stroke="#D4E8F7" stroke-miterlimit="10"/>
<path d="M3305.54 1879.43C3183.86 1849.97 2989.94 1828.33 2808.81 1833.63C2716.17 1836.29 2628.03 1843.41 2545.76 1843.27C2461.42 1843.13 2386.23 1836.7 2306.56 1817.99C2281.15 1811.99 2255.92 1804.73 2230.68 1795.52C2134.76 1760.19 2041.78 1728.22 1929.78 1698.2C1813.98 1667.34 1722.9 1621.68 1640.98 1578.96C1621.62 1568.9 1602.26 1559.83 1583.6 1551.31C1529.5 1526.6 1477.48 1507.47 1406.62 1497.42C1364.62 1491.41 1318.99 1485.97 1268 1482.76C1137 1474.38 1043.67 1490.85 952.063 1471.17C939.792 1468.51 927.694 1465.02 915.768 1460.97C856.832 1440.59 800.489 1401.63 759.873 1347.04C711.134 1281 687.11 1193.45 690.221 1108.84C692.986 1034 711.825 960.558 718.911 885.16C731.01 756.705 706.986 619.873 644.939 503.984C610.026 438.779 563.534 381.673 507.19 332.245C405.046 242.606 270.236 180.194 119.525 139.702C35.3553 117.083 -52.7897 103.958 -141.453 100.887" stroke="#D4E8F7" stroke-miterlimit="10"/>
<path d="M3293.26 1898.7C3170.03 1879.85 2977.32 1863.23 2797.58 1866.16C2705.46 1867.7 2617.66 1871.61 2536.08 1867.7C2452.77 1863.79 2379.32 1852.76 2301.2 1830.98C2276.31 1824 2251.77 1815.9 2227.4 1805.85C2134.07 1767.59 2043.85 1732.4 1932.54 1701.69C1818.82 1670.27 1726.01 1627.55 1642.18 1590.27C1622.31 1581.47 1602.43 1573.79 1583.25 1566.67C1527.94 1546.28 1475.05 1531.62 1404.37 1523.94C1362.19 1519.34 1316.74 1514.45 1266.96 1510.68C1137.86 1500.77 1044.87 1507.89 957.592 1482.2C945.839 1478.71 934.259 1474.38 923.198 1469.63C867.546 1445.75 815.35 1404.84 778.018 1349.55C732.908 1282.67 710.959 1196.1 712.687 1112.33C714.242 1037.91 729.625 964.187 733.773 888.65C740.859 760.195 713.205 624.06 649.084 509.568C612.789 444.922 565.087 388.653 508.052 340.203C404.525 252.239 269.369 191.642 118.486 151.29C34.4889 128.811 -53.4832 115.407 -141.801 111.637" stroke="#D4E8F7" stroke-miterlimit="10"/>
<path d="M3281.16 1918.11C3156.21 1909.73 2964.88 1898.28 2786.34 1898.7C2694.57 1898.98 2607.11 1899.95 2526.57 1892.13C2444.13 1884.32 2372.41 1868.96 2296.19 1843.96C2271.82 1836.01 2247.97 1826.93 2224.29 1816.18C2133.38 1775.13 2046.27 1736.73 1935.66 1705.04C1823.83 1673.06 1729.47 1633.41 1643.74 1601.44C1623.35 1593.9 1602.95 1587.61 1583.25 1581.89C1526.73 1565.69 1472.98 1555.64 1402.47 1550.47C1360.12 1547.4 1314.84 1542.79 1266.1 1538.46C1138.89 1527.15 1046.26 1524.78 963.296 1492.95C952.062 1488.62 941.173 1483.59 930.631 1478.15C878.262 1450.78 830.387 1407.78 795.993 1351.79C754.686 1284.07 734.637 1198.48 735.156 1115.68C735.502 1041.54 747.6 967.538 748.81 892.001C750.884 763.546 719.601 628.109 653.406 515.153C615.728 450.925 566.816 395.634 508.917 348.161C404.007 262.013 268.679 203.231 117.622 162.879C33.7983 140.399 -53.8284 126.856 -141.973 122.527" stroke="#D4E8F7" stroke-miterlimit="10"/>
<path d="M3268.89 1937.51C3142.38 1939.74 2952.26 1933.18 2775.11 1931.23C2683.85 1930.25 2596.74 1928.16 2517.07 1916.71C2435.49 1904.98 2365.49 1885.15 2291 1857.09C2267.32 1848.15 2243.99 1838.1 2221 1826.65C2132.68 1782.67 2048.34 1741.2 1938.42 1708.53C1828.67 1675.99 1732.4 1639.27 1645.12 1612.88C1624.04 1606.6 1603.3 1601.71 1583.07 1597.52C1525.35 1585.52 1470.56 1580.21 1400.22 1577.42C1357.53 1575.74 1312.76 1571.69 1264.89 1566.81C1139.41 1554.1 1047.29 1542.23 968.652 1504.25C957.936 1499.09 947.739 1493.22 937.887 1487.08C888.803 1456.22 845.076 1411.26 813.793 1354.58C776.115 1286.02 758.141 1201.41 757.277 1119.45C756.585 1045.73 765.054 971.445 763.326 895.769C760.388 767.174 725.648 632.575 657.206 521.155C618.146 457.346 568.197 403.032 509.433 356.537C403.314 272.203 267.64 215.097 116.238 174.885C32.4134 152.545 -54.6945 138.722 -142.667 133.695" stroke="#D4E8F7" stroke-miterlimit="10"/>
<path d="M3256.62 1956.92C3128.55 1969.63 2939.64 1968.23 2763.87 1963.76C2672.96 1961.53 2586.2 1956.36 2507.39 1941.14C2426.68 1925.64 2358.58 1901.35 2285.64 1870.07C2262.48 1860.16 2239.84 1849.13 2217.55 1836.98C2131.65 1790.07 2050.42 1745.39 1941.19 1712.02C1833.34 1678.93 1735.51 1645.28 1646.33 1624.19C1624.73 1619.17 1603.47 1615.68 1582.73 1612.88C1523.79 1604.92 1468.14 1602.83 1397.97 1603.95C1355.11 1604.65 1310.52 1600.18 1263.68 1594.73C1140.1 1580.49 1048.33 1559.27 974.011 1515.15C963.814 1509.14 954.308 1502.58 944.975 1495.74C899.174 1461.39 859.595 1414.34 831.423 1357.09C797.548 1287.7 781.475 1204.06 779.401 1122.94C777.5 1049.64 782.684 975.076 778.018 899.12C770.068 770.526 731.699 636.625 661.01 526.601C620.394 463.351 569.408 409.874 509.953 364.217C402.451 281.559 266.431 226.267 115.029 186.055C31.3779 163.855 -55.5574 149.893 -143.184 144.168" stroke="#D4E8F7" stroke-miterlimit="10"/>
<path d="M3244.52 1976.19C3114.9 1999.51 2927.37 2002.72 2752.64 1996.15C2662.25 1992.52 2575.83 1984.57 2497.88 1965.44C2418.21 1946.03 2351.67 1917.41 2280.63 1882.78C2257.99 1871.75 2236.04 1860.02 2214.44 1847.04C2131.13 1797.33 2052.66 1749.44 1944.13 1715.09C1838.35 1681.58 1738.8 1650.72 1647.72 1635.08C1625.59 1631.31 1603.82 1629.08 1582.56 1627.82C1522.58 1624.05 1465.9 1628.24 1395.9 1630.2C1352.69 1631.45 1308.62 1628.38 1262.82 1622.38C1141.14 1606.74 1049.71 1576.02 979.543 1525.9C970.037 1519.06 960.877 1511.66 952.408 1504.12C909.891 1466.28 874.46 1417.27 849.399 1359.33C819.153 1289.09 805.327 1206.44 801.87 1126.29C798.759 1053.41 800.833 978.428 792.883 902.472C780.266 773.878 737.922 640.675 665.159 532.187C623.16 469.355 570.965 416.856 510.819 372.176C401.934 291.334 265.741 237.718 113.993 197.645C30.5149 175.584 -56.0749 161.343 -143.356 154.92" stroke="#D4E8F7" stroke-miterlimit="10"/>
<path d="M3232.25 1995.6C3101.07 2029.52 2914.76 2037.76 2741.41 2028.83C2651.36 2023.94 2565.46 2012.91 2488.38 1990.15C2409.57 1966.97 2344.93 1933.74 2275.45 1896.04C2253.5 1884.03 2232.24 1871.33 2211.15 1857.65C2130.27 1805.01 2054.74 1754.04 1946.89 1718.72C1843.02 1684.65 1741.91 1657 1648.93 1646.53C1626.29 1644.02 1603.99 1643.46 1582.21 1643.32C1521.03 1642.76 1463.48 1652.54 1393.65 1657C1350.27 1659.66 1306.37 1657 1261.61 1650.58C1141.83 1633.41 1050.92 1593.2 984.902 1537.07C975.914 1529.39 967.446 1521.29 959.668 1513.05C920.435 1471.72 889.152 1420.62 867.202 1362.12C840.759 1291.05 828.833 1209.37 823.994 1130.06C819.673 1057.45 818.29 982.337 807.575 906.241C789.773 777.646 743.972 645.142 669.135 538.05C625.581 475.777 572.521 424.116 511.511 380.413C401.416 301.385 264.878 249.445 112.957 209.512C29.6517 187.591 -56.5922 173.07 -143.7 165.949" stroke="#D4E8F7" stroke-miterlimit="10"/>
<path d="M3219.98 2015C3087.24 2059.4 2902.14 2072.81 2730.17 2061.36C2640.64 2055.22 2554.92 2041.11 2478.7 2014.58C2400.75 1987.5 2337.67 1950.08 2270.09 1909.03C2248.66 1896.04 2228.09 1882.36 2207.87 1867.98C2129.57 1812.41 2056.81 1758.37 1949.83 1722.07C1848.03 1687.58 1745.19 1662.87 1650.31 1657.7C1627.15 1656.45 1604.33 1657.01 1582.04 1658.54C1519.65 1663.01 1461.23 1676.69 1391.58 1683.39C1348.02 1687.58 1304.3 1685.35 1260.57 1678.37C1142.7 1659.66 1052.3 1610.09 990.43 1547.82C981.961 1539.3 974.184 1530.37 966.925 1521.43C931.148 1476.61 904.013 1423.55 885.001 1364.21C862.187 1292.17 852.336 1211.6 846.287 1133.13C840.756 1060.95 836.09 985.549 822.263 909.313C799.449 780.719 750.019 648.913 673.108 543.356C628.171 481.642 573.901 430.679 512.2 387.954C400.722 310.602 264.011 260.476 111.745 220.683C28.612 198.901 -57.4592 184.241 -144.222 176.422" stroke="#D4E8F7" stroke-miterlimit="10"/>
<path d="M3207.88 2034.41C3073.59 2089.42 2889.7 2107.71 2718.94 2093.89C2629.76 2086.49 2544.55 2069.32 2469.19 2039.02C2392.28 2008.16 2330.93 1966.13 2264.9 1922.01C2243.99 1908.05 2224.12 1893.39 2204.59 1878.31C2129.06 1819.67 2058.89 1762.84 1952.59 1725.56C1852.7 1690.51 1748.31 1667.9 1651.69 1669.15C1627.84 1669.43 1604.51 1670.97 1581.69 1674.04C1518.09 1682.56 1458.81 1701.13 1389.16 1710.2C1345.43 1715.93 1302.05 1713.97 1259.19 1706.57C1143.22 1686.47 1053.17 1627.4 995.616 1559.13C987.665 1549.77 980.579 1540.14 974.012 1530.5C941.519 1482.19 918.532 1427.18 902.631 1367.14C883.62 1294.26 875.497 1214.67 868.238 1137.18C861.497 1065.41 853.374 989.597 836.609 913.362C808.783 784.627 755.55 653.659 676.738 549.638C630.246 488.343 574.939 438.357 512.547 396.609C399.686 321.072 262.629 272.622 110.363 232.829C27.4032 211.187 -58.3221 196.248 -144.912 187.73" stroke="#D4E8F7" stroke-miterlimit="10"/>
<path d="M3195.61 2053.82C3059.59 2119.3 2877.08 2142.76 2707.7 2126.43C2619.04 2117.77 2534.01 2097.66 2459.52 2063.59C2383.47 2028.83 2323.84 1982.47 2259.72 1935.14C2239.33 1920.2 2220.14 1904.7 2201.3 1888.78C2128.19 1827.35 2060.96 1767.31 1955.53 1729.05C1857.54 1693.59 1751.59 1675.02 1653.08 1680.46C1628.71 1681.86 1604.86 1684.93 1581.52 1689.4C1516.54 1701.97 1456.74 1725.42 1387.09 1736.87C1343.19 1744.13 1299.98 1742.6 1258.32 1734.64C1144.25 1713 1054.73 1644.58 1001.32 1570.16C993.889 1559.97 987.321 1549.49 981.445 1539.16C952.236 1487.36 933.397 1430.26 920.781 1369.66C905.398 1295.94 899.349 1217.33 890.881 1140.67C882.757 1069.32 871.523 993.229 851.82 916.714C818.982 787.98 761.947 657.85 681.234 555.086C633.186 494.349 577.015 445.201 513.585 404.43C399.342 330.569 262.113 284.074 109.501 244.28C26.7137 222.639 -58.8387 207.559 -144.91 198.344" stroke="#D4E8F7" stroke-miterlimit="10"/>
<path d="M3183.34 2073.09C3045.76 2149.18 2864.64 2177.67 2696.47 2158.96C2608.15 2149.04 2523.63 2125.87 2450.01 2088.03C2374.83 2049.35 2316.93 1998.67 2254.53 1947.98C2234.83 1932.07 2216.16 1915.59 2198.02 1899.12C2127.5 1834.75 2063.03 1771.78 1958.3 1732.4C1862.2 1696.52 1754.87 1681.02 1654.28 1691.63C1629.4 1694.29 1605.03 1698.61 1581.17 1704.62C1514.98 1721.23 1454.32 1749.58 1384.84 1763.4C1340.59 1772.2 1297.9 1770.94 1257.11 1762.56C1145.12 1739.25 1056.11 1661.47 1006.68 1581.05C999.936 1570.02 993.887 1558.85 988.702 1547.82C962.777 1492.53 948.086 1433.47 938.58 1372.17C927.001 1297.61 922.853 1219.98 913.001 1144.16C903.668 1073.23 888.977 996.859 866.336 920.205C828.486 791.471 767.821 662.038 684.861 560.81C635.258 500.632 578.05 452.322 513.929 412.389C398.476 340.342 260.901 295.523 108.116 255.869C25.329 234.367 -59.7048 219.008 -145.603 209.234" stroke="#D4E8F7" stroke-miterlimit="10"/>
<path d="M3171.07 2092.5C2958.66 2224.72 2651.19 2233.1 2440.33 2112.46C2366.19 2070.02 2310.01 2014.72 2249.18 1960.97C2155.33 1877.89 2091.73 1786.3 1961.06 1735.75C1843.71 1690.38 1703.2 1682.14 1581 1719.98C1513.6 1740.78 1452.07 1773.87 1382.76 1789.93C1198.52 1832.51 1045.22 1684.23 995.963 1556.47C945.841 1426.34 955.52 1284.21 935.125 1147.65C906.954 958.461 824.685 725.566 688.838 566.534C546.078 399.263 344.727 329.031 107.081 267.457C24.4665 246.094 -60.2221 230.596 -145.947 219.984" stroke="#D4E8F7" stroke-miterlimit="10"/>
</g>
<g opacity="0.85">
<mask id="mask1_2018_11029" style="mask-type:luminance" maskUnits="userSpaceOnUse" x="-124" y="658" width="1955" height="1057">
<path d="M-124 658H1831V1715H-124V658Z" fill="white"/>
</mask>
<g mask="url(#mask1_2018_11029)">
<path d="M-449 1289.78C-404.835 1224.39 -354.246 1160.98 -287.276 1110.39C-220.306 1059.79 -135.51 1022.54 -44.9319 1017.12C45.6462 1011.71 141.524 1041.56 194.522 1102.33C223.751 1135.75 238.526 1175.91 257.156 1214.08C275.785 1252.26 300.196 1290.7 341.631 1313.69C383.065 1336.67 445.378 1338.66 478.943 1308.14C515.56 1274.72 504.639 1219.24 538.686 1183.97C576.909 1144.34 650.303 1148.96 711.009 1157.28C771.716 1165.6 844.949 1170.62 883.654 1131.39C914.649 1099.95 906.459 1050.15 872.893 1020.56C839.328 990.966 786.652 980.001 737.669 983.832C688.686 987.663 642.594 1004.31 599.072 1023.07C543.504 1046.98 478.622 1075.38 422.091 1053.32C390.774 1041.16 370.217 1015.54 357.691 988.984C345.164 962.432 339.061 934.162 327.819 907.213C291.845 821.215 199.018 753.051 91.0957 733.236C9.02947 718.177 -80.2637 729.141 -156.548 700.211C-218.058 676.961 -261.902 631.122 -303.176 587L-449 1289.78Z" fill="#002E58" fill-opacity="0.68"/>
</g>
</g>
<g opacity="0.7">
<mask id="mask2_2018_11029" style="mask-type:luminance" maskUnits="userSpaceOnUse" x="242" y="541" width="1776" height="1116">
<path d="M242.822 600.592L1981.8 541L2018 1597.38L279.022 1656.97L242.822 600.592Z" fill="white"/>
</mask>
<g mask="url(#mask2_2018_11029)">
<path d="M2326.02 1720.09C2189.31 1744.6 2042.9 1718.42 1927.19 1648.61C1833.72 1592.33 1756.39 1507.72 1647.85 1481.83C1591.53 1468.42 1532.18 1472.44 1474.18 1477.47C1416.17 1482.5 1357.33 1488.61 1300.13 1479.2C1242.94 1469.79 1186.28 1442.12 1159.14 1395.33C1137.55 1358.12 1137.39 1311.07 1158.88 1273.44C1180.37 1235.82 1222.67 1208.73 1268.62 1203.19C1336.82 1195.03 1400.59 1231.05 1457.07 1266.27C1513.56 1301.48 1575.77 1338.88 1644.23 1333.89C1740.47 1326.89 1809 1239.4 1903.56 1221.35C1986.15 1205.57 2067.61 1245.74 2140.17 1284.37L2326.02 1720.09Z" fill="#D4E8F7"/>
</g>
</g>
<g opacity="0.4">
<mask id="mask3_2018_11029" style="mask-type:luminance" maskUnits="userSpaceOnUse" x="-72" y="341" width="2593" height="1401">
<path d="M-72 341H2521V1742H-72V341Z" fill="white"/>
</mask>
<g mask="url(#mask3_2018_11029)">
<path d="M2612.62 1617.15C2594.04 1547.09 2487.94 1505.26 2385.95 1497.16C2283.96 1489.05 2179.81 1504.97 2076.52 1504.97C1799.93 1504.83 1539.12 1377.3 1448.58 1197.81C1419.62 1140.35 1406.88 1078.97 1378.57 1021.22C1350.26 963.607 1302.29 907.299 1224.29 879.941C1112.14 840.425 971.684 870.822 858.456 914.971C745.229 959.119 639.348 1017.6 514.02 1037.86C349.364 1064.5 178.01 1018.61 52.0333 944.934C-73.9433 871.256 -162.97 772.103 -249.835 674.541" stroke="#FF4DC4" stroke-miterlimit="10"/>
<path d="M2618.89 1610.35C2598.36 1540.58 2492.69 1498.89 2390.49 1490.5C2346.19 1486.88 2301.68 1487.75 2256.95 1490.21C2198.17 1493.39 2139.4 1499.04 2081.06 1499.9C1961.99 1501.64 1845.74 1481.23 1743.75 1441.57C1664.88 1410.88 1594.87 1370.5 1538.9 1322.01C1498.93 1287.56 1466.95 1248.76 1444.69 1206.64C1434.75 1187.82 1426.54 1168.43 1418.98 1148.89C1403.63 1109.22 1391.1 1068.98 1371.22 1030.63C1348.75 987.055 1314.61 944.933 1264.04 916.273C1248.27 907.298 1231.2 899.626 1212.4 893.547C1133.75 868.216 1042.77 876.901 955.693 898.468C918.094 907.732 881.144 919.457 846.787 931.906C808.324 945.946 770.726 961 733.343 975.475C659.875 1003.85 587.055 1030.05 508.4 1039.45C457.189 1045.68 406.841 1043.94 356.71 1036.56C255.367 1021.36 155.536 980.831 72.3443 929.011C49.6556 914.825 27.8311 899.771 6.65493 884.283C-86.9092 815.092 -165.131 735.19 -242.273 659.631" stroke="#F552C5" stroke-miterlimit="10"/>
<path d="M2624.94 1603.55C2602.46 1534.21 2497.23 1492.52 2394.81 1483.84C2350.51 1480.07 2305.78 1480.94 2260.84 1483.55C2202.06 1487.02 2143.5 1493.25 2084.95 1494.98C1966.1 1498.6 1850.28 1481.38 1747.21 1443.45C1667.47 1414.07 1596.38 1375.57 1538.25 1328.96C1496.77 1295.52 1463.71 1257.3 1440.37 1215.47C1430 1196.8 1421.35 1177.4 1413.57 1157.86C1397.58 1118.34 1384.4 1077.96 1363.66 1039.89C1340.11 996.61 1304.88 955.501 1252.59 928.288C1236.39 919.892 1219.1 912.655 1200.3 907.154C1121.21 884.139 1031.54 894.995 944.673 916.563C906.859 925.972 869.692 937.117 835.119 948.842C796.224 961.87 758.193 975.766 721.027 988.359C647.775 1013.4 577.115 1035.55 502.999 1041.05C455.028 1044.67 409.003 1040.47 362.977 1030.92C269.629 1011.37 174.768 967.081 93.0889 913.089C70.6162 898.18 49.008 882.691 27.8318 866.769C-66.5966 795.552 -150.653 716.229 -233.845 644.867" stroke="#EB57C7" stroke-miterlimit="10"/>
<path d="M2631.2 1596.6C2606.79 1527.7 2502.2 1485.86 2399.56 1477.03C2355.26 1473.27 2310.32 1473.99 2265.37 1476.74C2206.6 1480.36 2148.04 1487.17 2089.7 1489.77C1971.07 1495.13 1855.46 1481.38 1751.31 1445.04C1670.93 1416.96 1598.32 1380.49 1538.25 1335.61C1495.04 1303.33 1460.9 1265.7 1436.69 1224.16C1425.89 1205.63 1417.03 1186.38 1408.6 1166.83C1391.97 1127.32 1377.92 1086.93 1356.53 1049.15C1332.11 1006.16 1295.59 966.067 1241.79 940.157C1225.15 932.195 1207.86 925.537 1188.85 920.615C1109.54 899.916 1020.95 912.943 934.085 934.511C896.27 943.92 858.888 954.776 823.666 965.632C784.339 977.791 746.092 990.095 708.926 1001.24C635.89 1022.95 566.959 1041.05 497.596 1042.49C452.651 1043.51 411.379 1036.85 369.459 1025.27C284.106 1001.68 194.215 953.474 114.048 897.021C92.0078 881.533 70.3995 865.321 49.0073 848.964C-46.2855 775.576 -136.392 696.977 -225.418 629.812" stroke="#E15DC8" stroke-miterlimit="10"/>
<path d="M2637.47 1589.79C2611.11 1521.18 2506.95 1479.5 2404.1 1470.38C2359.59 1466.47 2314.64 1467.19 2269.69 1470.23C2210.92 1474.14 2152.36 1481.38 2094.24 1485C1975.82 1492.09 1860.43 1481.67 1755.42 1447.07C1674.17 1420.29 1600.27 1385.84 1538.25 1342.71C1493.31 1311.59 1458.09 1274.53 1433.02 1233.28C1421.78 1214.75 1412.49 1195.64 1403.85 1176.1C1386.56 1136.73 1371.87 1096.2 1349.4 1058.71C1323.9 1016.15 1286.52 976.778 1230.77 952.46C1213.91 945.078 1196.19 938.854 1177.39 934.511C1097.66 916.128 1010.36 931.327 923.712 953.039C885.897 962.593 848.082 972.87 812.645 983.003C773.102 994.293 734.206 1005.29 697.256 1014.56C624.436 1032.8 557.234 1046.98 492.625 1044.52C450.705 1042.93 414.187 1033.81 376.156 1020.06C298.799 992.122 214.094 940.301 135.007 881.533C113.399 865.321 91.7907 848.675 70.1824 831.884C-25.9747 756.469 -121.916 678.593 -216.992 615.482" stroke="#D762CA" stroke-miterlimit="10"/>
<path d="M2643.52 1582.99C2615.43 1514.81 2511.49 1473.13 2408.42 1463.72C2363.91 1459.66 2318.75 1460.39 2273.8 1463.57C2215.03 1467.63 2156.47 1475.59 2098.56 1479.93C1980.36 1488.9 1865.19 1481.67 1759.09 1448.81C1676.98 1423.33 1602 1390.76 1537.82 1349.51C1491.15 1319.4 1455.06 1283.07 1428.92 1241.96C1417.25 1223.58 1407.52 1204.47 1398.66 1184.93C1380.51 1145.56 1365.17 1105.03 1342.05 1067.83C1315.69 1025.56 1277.01 987.2 1219.53 964.185C1202.24 957.237 1184.52 951.592 1165.51 947.828C1085.56 931.761 999.342 948.986 912.692 970.843C874.661 980.397 836.631 990.385 800.761 999.649C760.785 1010.07 721.674 1019.62 684.724 1027.3C612.12 1042.21 546.647 1052.34 486.792 1045.82C447.681 1041.63 416.132 1030.05 381.991 1014.12C312.628 981.989 232.894 926.26 155.32 865.176C133.928 848.24 112.535 831.015 90.927 813.79C-6.09444 736.204 -107.869 659.052 -209.213 600.139" stroke="#CD67CB" stroke-miterlimit="10"/>
<path d="M2649.79 1576.04C2619.75 1508.3 2516.25 1466.47 2412.96 1457.06C2368.44 1453.01 2323.07 1453.59 2278.12 1456.91C2219.13 1461.26 2160.79 1469.65 2102.88 1474.86C1984.9 1485.58 1869.94 1481.81 1762.98 1450.55C1680 1426.37 1603.73 1395.83 1537.6 1356.31C1489.2 1327.36 1452.03 1291.61 1425.02 1250.79C1413.14 1232.55 1402.98 1213.59 1393.48 1194.05C1374.68 1154.68 1358.69 1114.15 1334.7 1077.24C1307.48 1035.26 1267.72 997.768 1208.29 976.345C1190.57 969.976 1172.64 964.765 1153.62 961.58C1073.24 947.829 988.32 967.225 901.67 989.083C863.64 998.636 825.177 1008.19 789.091 1016.73C748.683 1026.28 709.356 1034.39 672.19 1040.32C600.018 1051.9 535.625 1057.98 480.956 1047.56C444.654 1040.61 417.86 1026.57 387.824 1008.77C326.457 972.436 251.692 912.944 175.414 849.544C154.454 832.029 133.062 814.225 111.237 796.565C13.3517 716.953 -94.4735 640.38 -201.651 585.52" stroke="#C36CCD" stroke-miterlimit="10"/>
<path d="M2655.84 1569.24C2623.86 1501.93 2520.78 1460.1 2417.5 1450.4C2372.77 1446.2 2327.39 1446.78 2282.23 1450.26C2223.24 1454.74 2165.11 1463.72 2107.2 1469.94C1989.43 1482.53 1874.69 1481.96 1766.87 1452.43C1683.03 1429.56 1605.45 1401.04 1537.6 1363.26C1487.47 1335.47 1449.23 1300.29 1421.35 1259.76C1409.03 1241.67 1398.45 1222.71 1388.72 1203.17C1369.28 1163.94 1352.64 1123.27 1327.79 1086.64C1299.48 1044.96 1258.86 1008.48 1197.49 988.358C1179.55 982.423 1161.4 977.791 1142.17 975.041C1061.57 963.606 977.732 985.174 891.299 1007.03C853.052 1016.73 814.373 1025.85 778.071 1033.52C737.232 1042.21 697.472 1048.86 660.522 1053.21C588.566 1061.46 525.686 1063.19 476.203 1049.15C442.494 1039.6 420.885 1023.1 394.739 1003.12C341.367 962.448 271.788 899.337 196.807 833.476C176.063 815.237 154.887 796.854 132.846 778.76C34.0963 696.976 -79.5637 621.272 -192.791 570.465" stroke="#B972CE" stroke-miterlimit="10"/>
<path d="M2662.1 1562.44C2628.18 1495.42 2525.54 1453.73 2422.03 1443.74C2377.3 1439.4 2331.71 1439.98 2286.55 1443.6C2227.56 1448.37 2169.43 1457.78 2111.74 1464.87C1994.19 1479.2 1879.66 1481.95 1770.76 1454.16C1686.05 1432.6 1607.18 1406.11 1537.39 1370.06C1485.53 1343.28 1446.42 1308.83 1417.46 1268.45C1404.71 1250.5 1393.91 1231.54 1383.75 1212C1363.66 1172.77 1346.15 1132.09 1320.66 1095.76C1291.48 1054.36 1249.56 1018.75 1186.68 1000.23C1168.32 994.871 1149.95 990.673 1130.72 988.502C1049.69 979.383 967.36 1003.12 880.71 1024.98C842.464 1034.68 803.568 1043.36 766.618 1050.31C725.346 1058.13 685.371 1063.48 648.421 1065.94C576.681 1070.86 515.097 1068.26 470.8 1050.46C439.684 1038.01 423.262 1019.19 401.005 997.332C355.628 952.315 291.019 885.585 217.334 817.408C197.023 798.59 175.846 779.628 153.806 760.955C54.1914 677.145 -65.3027 602.02 -184.581 555.41" stroke="#AF77CF" stroke-miterlimit="10"/>
<path d="M2668.15 1555.49C2632.28 1488.91 2530.08 1447.07 2426.36 1436.94C2381.63 1432.6 2336.03 1433.03 2290.65 1436.8C2231.66 1441.72 2173.54 1451.85 2116.06 1459.81C1998.73 1476.02 1884.63 1482.1 1774.65 1455.9C1689.08 1435.64 1608.91 1411.17 1537.17 1376.87C1483.58 1351.25 1443.39 1317.38 1413.57 1277.28C1400.39 1259.48 1389.16 1240.66 1378.57 1221.12C1357.61 1182.04 1339.67 1141.22 1313.09 1105.17C1282.84 1064.06 1240.06 1029.32 1175.23 1012.39C1156.65 1007.47 1138.07 1003.99 1118.62 1002.26C1037.37 995.452 956.124 1021.36 869.475 1043.22C831.012 1052.92 791.901 1061.31 754.734 1067.39C713.03 1074.2 672.839 1078.25 635.888 1079.12C564.581 1080.71 504.078 1073.47 464.967 1052.34C436.444 1037 425.207 1016.01 406.84 991.978C369.458 942.763 309.819 872.125 237.647 801.777C217.767 782.236 196.591 762.694 174.334 743.732C73.8556 657.895 -51.4722 583.349 -176.801 540.938" stroke="#A57CD1" stroke-miterlimit="10"/>
<path d="M2674.42 1548.69C2636.82 1482.54 2534.83 1440.7 2430.9 1430.28C2386.17 1425.79 2340.36 1426.23 2294.98 1430.28C2235.99 1435.49 2177.86 1446.06 2120.38 1454.89C2003.27 1472.84 1889.39 1482.25 1778.32 1457.78C1691.89 1438.82 1610.21 1416.39 1536.74 1383.82C1481.43 1359.35 1440.15 1326.06 1409.47 1286.25C1395.86 1268.6 1384.19 1249.78 1373.38 1230.24C1351.78 1191.15 1332.98 1150.33 1305.75 1114.58C1274.63 1073.91 1230.77 1039.89 1164 1024.4C1144.98 1020.06 1126.18 1017.02 1106.74 1015.86C1025.06 1011.37 945.107 1039.31 858.674 1061.31C820.211 1071.16 780.668 1078.97 743.285 1084.33C701.365 1090.26 660.525 1092.87 623.791 1092C552.7 1090.26 493.493 1078.25 459.568 1053.79C433.854 1035.26 427.371 1012.24 413.11 986.188C383.722 932.63 329.053 858.374 258.394 785.565C238.731 765.3 217.771 745.324 195.298 725.783C93.9548 637.775 -37.4238 564.097 -168.803 525.738" stroke="#9B81D2" stroke-miterlimit="10"/>
<path d="M2680.69 1541.88C2641.14 1476.02 2539.59 1434.33 2435.65 1423.62C2390.7 1418.99 2344.89 1419.42 2299.3 1423.62C2240.31 1428.98 2182.4 1440.12 2124.92 1449.82C2008.02 1469.65 1894.36 1482.25 1782.43 1459.52C1695.13 1441.86 1612.16 1421.45 1536.74 1390.62C1479.7 1367.31 1437.34 1334.6 1405.8 1294.94C1391.75 1277.42 1379.87 1258.61 1368.63 1239.06C1346.37 1199.98 1326.93 1159.31 1298.83 1123.7C1266.85 1083.31 1221.91 1050.17 1153.19 1036.27C1133.96 1032.36 1114.73 1029.9 1095.5 1029.32C1013.6 1027.15 934.734 1057.26 848.301 1079.26C809.622 1089.1 769.862 1096.63 732.048 1101.12C689.695 1106.18 648.64 1107.49 611.905 1104.88C541.246 1099.82 483.552 1082.88 454.381 1055.38C431.476 1033.81 429.963 1008.77 419.591 980.686C398.199 922.786 348.716 844.911 279.137 769.785C259.906 748.941 238.945 728.242 216.473 708.411C114.265 618.377 -22.9476 545.278 -160.377 511.117" stroke="#9187D4" stroke-miterlimit="10"/>
<path d="M2686.73 1534.94C2645.25 1469.51 2544.12 1427.68 2439.97 1416.82C2395.02 1412.19 2349 1412.48 2303.4 1416.82C2244.2 1422.46 2186.5 1434.19 2129.24 1444.76C2012.55 1466.32 1899.11 1482.25 1786.1 1461.26C1697.94 1444.9 1613.66 1426.52 1536.31 1397.42C1477.53 1375.28 1434.32 1343.14 1401.69 1303.77C1387.43 1286.4 1374.89 1267.73 1363.44 1248.19C1340.54 1209.25 1320.44 1168.43 1291.48 1133.25C1258.42 1093.16 1212.61 1060.73 1141.95 1048.43C1122.29 1044.96 1103.06 1043.07 1083.61 1043.07C1001.28 1043.22 923.711 1075.5 837.277 1097.65C798.598 1107.49 758.623 1114.58 720.376 1118.34C677.592 1122.54 636.32 1122.4 599.586 1118.06C529.142 1109.8 473.393 1087.8 448.975 1057.12C429.095 1032.36 432.337 1005.29 426.071 975.187C412.89 912.944 368.16 831.305 300.094 753.864C281.295 732.296 260.551 711.163 237.646 690.753C134.574 598.547 -8.47296 526.172 -151.952 496.064" stroke="#878CD5" stroke-miterlimit="10"/>
<path d="M2693 1528.13C2649.57 1463.14 2548.88 1421.31 2444.51 1410.31C2399.56 1405.53 2353.32 1405.82 2307.73 1410.31C2248.52 1416.1 2190.83 1428.4 2133.78 1439.83C2017.31 1463.14 1904.08 1482.54 1790.21 1463.14C1701.4 1448.09 1615.61 1431.73 1536.31 1404.37C1475.59 1383.38 1431.51 1351.83 1398.02 1312.74C1383.32 1295.52 1370.36 1276.85 1358.47 1257.3C1334.7 1218.37 1313.96 1177.55 1284.14 1142.66C1250.22 1102.86 1203.33 1071.3 1130.94 1060.59C1111.06 1057.69 1091.39 1056.25 1071.95 1056.83C989.403 1059.29 912.909 1093.74 826.692 1115.88C788.013 1125.87 747.605 1132.39 709.143 1135.43C665.926 1138.75 624.438 1137.31 587.704 1131.23C517.693 1119.65 463.888 1092.72 443.792 1059C427.154 1031.06 434.933 1002.11 432.556 969.832C427.37 903.391 387.61 817.989 320.841 738.232C302.258 715.94 281.73 694.228 258.825 673.528C154.889 579.296 6.00743 507.645 -143.522 481.59" stroke="#7D91D7" stroke-miterlimit="10"/>
<path d="M2699.05 1521.33C2653.68 1456.63 2553.41 1414.94 2448.83 1403.65C2403.67 1398.73 2357.43 1399.01 2311.83 1403.65C2252.63 1409.73 2194.93 1422.46 2137.89 1434.91C2021.63 1460.1 1908.62 1482.68 1793.67 1465.02C1703.99 1451.27 1616.69 1437.08 1535.66 1411.32C1473.21 1391.49 1428.05 1360.51 1393.7 1321.57C1378.57 1304.35 1365.39 1285.82 1353.07 1266.28C1328.65 1227.49 1307.26 1186.52 1276.58 1151.93C1241.57 1112.41 1193.82 1081.58 1119.49 1072.46C1099.17 1070 1079.51 1069.13 1059.85 1070.29C976.871 1074.92 901.674 1111.69 815.457 1133.83C776.562 1143.82 735.938 1150.04 697.043 1152.22C653.394 1154.68 611.474 1151.78 574.956 1143.97C505.161 1129.06 453.517 1097.36 437.743 1060.44C424.562 1029.32 436.662 998.347 438.175 964.186C441.2 893.403 406.195 804.382 340.937 722.164C322.786 699.293 302.259 677.002 279.138 655.723C174.337 559.32 19.4053 488.392 -136.175 466.535" stroke="#7396D8" stroke-miterlimit="10"/>
<path d="M2705.32 1514.38C2658.21 1450.11 2558.17 1408.28 2453.58 1396.84C2408.42 1391.92 2361.96 1392.07 2316.15 1396.99C2256.95 1403.21 2199.25 1416.67 2142.42 1429.85C2026.39 1456.77 1913.81 1482.68 1797.77 1466.76C1707.23 1454.31 1618.64 1442.15 1535.66 1418.12C1471.48 1399.45 1425.46 1369.05 1390.02 1330.4C1374.46 1313.32 1360.85 1294.94 1348.32 1275.4C1323.25 1236.61 1300.99 1195.64 1269.66 1161.34C1233.79 1122.11 1185.17 1092.15 1108.68 1084.62C1087.94 1082.59 1068.06 1082.3 1048.39 1084.04C965.201 1090.99 891.085 1129.78 805.083 1152.07C766.188 1162.2 725.133 1167.85 686.022 1169.3C642.157 1170.74 599.804 1166.69 563.286 1157.14C493.707 1139.04 444.44 1102.57 432.772 1062.18C423.048 1028.02 439.471 995.018 444.873 958.686C455.893 883.561 426.073 790.921 361.897 706.387C344.178 682.792 323.65 659.922 300.313 638.354C194.648 539.924 33.8821 469.576 -127.748 451.916" stroke="#699CD9" stroke-miterlimit="10"/>
<path d="M2711.37 1507.58C2662.32 1443.74 2562.71 1401.91 2457.91 1390.18C2412.74 1385.12 2366.07 1385.26 2320.26 1390.33C2261.05 1396.84 2203.58 1410.74 2146.75 1424.78C2030.92 1453.59 1918.56 1482.82 1801.66 1468.49C1710.26 1457.35 1620.15 1447.22 1535.45 1424.92C1469.54 1407.55 1422.43 1377.59 1386.13 1339.23C1370.14 1322.3 1356.31 1303.91 1343.13 1284.37C1317.42 1245.72 1294.51 1204.62 1262.32 1170.6C1225.58 1131.81 1175.88 1102.42 1097.44 1096.63C1076.48 1095.04 1056.39 1095.33 1036.51 1097.64C952.884 1106.91 880.064 1147.87 794.063 1170.16C754.952 1180.3 713.68 1185.65 674.137 1186.23C629.84 1186.81 587.272 1181.31 550.753 1170.02C481.607 1148.6 434.501 1107.34 426.938 1063.77C420.671 1026.57 441.631 991.543 450.707 953.184C470.154 873.861 444.873 777.313 382.209 690.608C364.706 666.434 344.394 642.985 321.057 620.838C214.528 520.237 47.9274 450.612 -119.753 437.15" stroke="#5FA1DB" stroke-miterlimit="10"/>
<path d="M2717.64 1500.78C2666.64 1437.37 2567.46 1395.54 2462.44 1383.53C2417.06 1378.32 2370.39 1378.46 2324.58 1383.67C2265.16 1390.48 2207.9 1404.81 2151.07 1419.86C2035.46 1450.4 1923.31 1482.97 1805.33 1470.38C1713.07 1460.53 1621.66 1452.57 1535.01 1431.87C1467.16 1415.66 1419.19 1386.28 1382.03 1348.21C1365.6 1331.42 1351.34 1313.03 1337.94 1293.49C1311.58 1254.84 1288.03 1213.74 1254.97 1180.01C1217.15 1141.51 1166.37 1112.84 1086.42 1108.65C1065.03 1107.49 1044.72 1108.36 1024.84 1111.11C940.999 1122.69 869.26 1165.82 783.259 1188.11C744.147 1198.25 702.659 1203.17 662.684 1203.02C617.955 1202.73 574.954 1195.93 538.652 1182.9C469.721 1158.15 424.992 1112.41 421.751 1065.22C418.942 1025.13 444.224 987.781 457.189 947.396C484.631 863.875 464.319 763.563 403.168 674.397C386.097 649.5 365.786 625.472 342.233 603.035C234.839 500.408 62.4042 431.507 -111.327 421.953" stroke="#55A6DC" stroke-miterlimit="10"/>
<path d="M2723.9 1493.82C2670.96 1430.71 2572.43 1388.88 2466.98 1376.72C2421.6 1371.51 2374.93 1371.51 2328.9 1376.87C2269.48 1383.81 2212.22 1398.87 2155.6 1414.65C2040.21 1447.07 1928.28 1482.82 1809.44 1471.97C1716.31 1463.43 1623.61 1457.64 1535.01 1438.53C1465.43 1423.48 1416.6 1394.67 1378.35 1356.75C1361.5 1340.1 1346.8 1321.86 1333.19 1302.32C1305.96 1263.67 1281.76 1222.56 1247.84 1189.13C1209.16 1150.91 1157.3 1122.97 1075.4 1120.51C1053.79 1119.93 1033.27 1121.38 1013.17 1124.57C928.898 1138.46 858.671 1183.77 772.67 1206.06C733.342 1216.34 691.638 1220.83 651.447 1219.81C606.285 1218.65 563.069 1210.4 526.767 1195.64C458.052 1167.7 415.7 1117.18 416.564 1066.67C417.212 1023.68 446.6 984.16 463.67 941.603C499.108 853.74 483.982 749.809 423.911 658.327C407.273 632.706 386.961 608.244 363.192 585.228C254.934 480.429 76.4489 412.252 -103.116 406.896" stroke="#4BABDE" stroke-miterlimit="10"/>
<path d="M2729.95 1487.02C2675.28 1424.34 2576.97 1382.51 2471.52 1370.06C2426.14 1364.71 2379.25 1364.71 2333.01 1370.21C2273.59 1377.45 2216.32 1392.93 2159.93 1409.73C2044.75 1443.89 1933.04 1483.11 1813.11 1473.85C1719.12 1466.61 1624.9 1462.85 1534.8 1445.48C1463.49 1431.73 1413.57 1403.36 1374.25 1365.72C1357.18 1349.22 1342.05 1330.98 1327.79 1311.44C1299.91 1272.94 1275.06 1231.68 1240.27 1198.53C1200.52 1160.61 1147.79 1133.4 1063.95 1132.53C1041.91 1132.38 1021.17 1134.41 1001.29 1138.17C916.798 1154.39 847.651 1201.86 761.65 1224.3C722.323 1234.58 680.186 1238.63 639.563 1236.89C593.969 1234.87 550.32 1225.31 514.235 1208.81C445.736 1177.69 405.76 1122.54 410.73 1068.4C415.052 1022.52 448.545 980.831 469.505 936.248C512.938 844.042 502.782 736.493 444.223 642.55C427.801 616.35 407.705 591.164 383.936 567.859C274.814 461.034 90.4949 393.435 -95.3368 392.277" stroke="#41B1DF" stroke-miterlimit="10"/>
<path d="M2736.22 1480.22C2679.6 1417.98 2581.72 1376.14 2476.05 1363.55C2430.46 1358.05 2383.57 1358.05 2337.33 1363.7C2277.91 1371.08 2220.64 1387.15 2164.46 1404.81C2049.51 1440.85 1938.01 1483.26 1817.22 1475.73C1722.36 1469.8 1626.85 1468.35 1534.8 1452.43C1461.76 1439.98 1410.76 1412.04 1370.57 1374.7C1353.07 1358.34 1337.51 1340.1 1323.03 1320.56C1294.51 1282.06 1268.8 1240.8 1233.36 1207.95C1192.74 1170.31 1138.93 1143.68 1053.15 1144.69C1030.89 1144.98 1009.93 1147.58 989.833 1151.93C904.912 1170.45 837.062 1219.96 751.061 1242.54C711.518 1252.82 669.165 1256.58 628.325 1253.98C582.516 1251.08 538.435 1240.08 502.349 1221.84C434.067 1187.39 396.468 1127.75 405.543 1070.14C413.322 1021.36 451.137 977.358 475.987 930.749C527.631 834.345 522.228 722.888 464.966 626.774C448.976 599.85 428.881 574.23 404.896 550.346C294.909 441.349 104.756 374.619 -87.1261 377.514" stroke="#37B6E1" stroke-miterlimit="10"/>
<path d="M2742.27 1473.27C2658.43 1384.68 2494.85 1337.21 2341.43 1356.89C2160.57 1380.05 2002.62 1486.15 1820.89 1477.32C1725.17 1472.69 1628.36 1473.27 1534.36 1459.09C1426.75 1442.87 1366.68 1393.51 1317.85 1329.39C1255.18 1247.03 1206.13 1151.49 1041.91 1156.56C923.28 1160.18 846.354 1232.55 740.257 1260.49C656.417 1282.49 558.099 1272.36 490.033 1234.58C421.967 1196.8 386.745 1132.82 399.926 1071.59C411.163 1019.91 453.299 973.739 482.038 924.958C558.315 796.131 536.491 643.564 425.64 532.541C314.789 421.518 118.586 355.367 -79.1305 362.46" stroke="#2DBBE2" stroke-miterlimit="10"/>
<path d="M2732.76 1486.01C2647.62 1404.37 2485.13 1360.22 2332.79 1378.31C2256.51 1387.29 2184.13 1410.16 2112.6 1432.16C2039.35 1454.89 1967.39 1476.89 1892.2 1483.4C1868 1485.43 1843.36 1486.01 1818.51 1484.27C1724.95 1477.76 1630.3 1476.17 1536.74 1461.4C1430.64 1444.75 1369.49 1397.42 1318.93 1336.92C1307.26 1323.02 1296.02 1308.83 1284.57 1294.79C1250.86 1253.54 1214.99 1214.46 1158.38 1192.89C1126.61 1180.73 1088.58 1173.93 1041.05 1175.09C923.928 1177.69 847.219 1243.99 744.579 1267.87C730.966 1271.05 716.92 1273.37 702.875 1274.82C632.648 1282.06 558.531 1268.45 504.294 1236.46C439.253 1198.1 405.544 1134.7 417.861 1074.05C428.233 1022.66 467.56 976.199 494.138 927.418C539.948 843.318 545.134 749.52 512.073 664.407C494.355 618.956 465.615 575.965 426.72 538.04C355.413 468.85 250.613 417.608 132.847 390.54C65.213 375.052 -6.74297 367.67 -78.9148 369.696" stroke="#33B4E3" stroke-miterlimit="10"/>
<path d="M2723.04 1498.75C2636.82 1424.06 2475.19 1383.24 2323.72 1399.74C2247.66 1407.99 2175.7 1428.69 2105.04 1448.37C2032.65 1468.49 1961.99 1487.75 1888.09 1492.09C1864.32 1493.54 1840.34 1493.39 1815.92 1491.22C1724.3 1482.82 1632.03 1479.21 1539.12 1463.86C1434.75 1446.93 1372.3 1401.33 1320.23 1344.44C1308.13 1331.27 1296.46 1318.1 1284.57 1304.93C1249.78 1266.42 1213.48 1230.38 1156.87 1210.41C1124.89 1199.26 1087.07 1192.75 1040.4 1193.47C924.793 1195.21 848.3 1255.28 749.118 1275.11C735.936 1277.71 722.539 1279.45 708.926 1280.46C641.292 1285.39 570.417 1270.48 518.773 1238.05C456.757 1199.12 424.56 1136.44 435.797 1076.37C445.088 1025.27 482.039 978.661 506.024 929.735C547.944 845.636 550.321 752.272 515.532 668.172C496.732 623.01 467.129 580.598 427.369 543.253C354.981 475.22 249.965 425.137 131.984 398.069C64.3495 382.58 -7.17403 375.053 -79.1298 376.79" stroke="#38ADE5" stroke-miterlimit="10"/>
<path d="M2713.31 1511.49C2625.8 1443.74 2465.25 1406.11 2314.85 1421.02C2239.23 1428.4 2167.49 1447.22 2097.47 1464.3C2025.74 1481.96 1956.37 1498.17 1883.98 1500.49C1860.65 1501.21 1837.09 1500.49 1813.33 1497.88C1723.65 1487.6 1633.76 1481.67 1541.28 1465.89C1438.42 1448.38 1374.89 1404.95 1321.09 1351.68C1308.77 1339.38 1296.45 1327.07 1284.35 1314.92C1248.48 1279.31 1211.75 1246.01 1155.14 1227.78C1123.16 1217.5 1085.34 1211.27 1039.53 1211.71C925.439 1212.43 849.378 1266.57 753.221 1282.2C740.472 1284.23 727.507 1285.53 714.326 1286.11C649.285 1288.72 581.651 1272.5 532.384 1239.65C473.177 1200.27 442.709 1138.18 452.865 1078.68C461.292 1027.73 495.433 980.977 517.258 932.052C555.072 847.952 555.072 755.023 518.338 671.936C498.458 627.064 467.991 585.231 427.583 548.609C354.115 481.735 248.882 432.809 130.901 405.741C63.4826 390.397 -8.04098 382.726 -79.7806 383.884" stroke="#3EA6E6" stroke-miterlimit="10"/>
<path d="M2703.59 1524.22C2614.78 1463.28 2455.31 1429.12 2305.78 1442.44C2230.37 1448.95 2159.06 1465.74 2089.7 1480.51C2018.61 1495.56 1950.76 1508.88 1879.66 1509.17C1856.76 1509.31 1833.85 1508.01 1810.52 1504.83C1722.79 1492.81 1635.27 1484.71 1543.22 1468.35C1442.1 1450.4 1377.27 1409 1321.95 1359.21C1309.2 1347.77 1296.46 1336.34 1283.92 1325.05C1246.97 1292.19 1209.81 1261.79 1153.19 1245.29C1121 1235.88 1083.4 1230.38 1038.45 1230.24C925.872 1229.95 850.243 1278 757.327 1289.58C745.01 1291.18 732.477 1291.9 719.945 1291.9C657.497 1292.19 593.32 1274.67 546.43 1241.38C490.248 1201.43 461.509 1140.06 470.368 1081C477.931 1030.34 509.263 983.292 528.711 934.367C562.636 850.122 559.827 757.772 521.148 675.554C500.188 630.971 468.64 589.862 427.8 553.674C353.251 487.958 247.803 440.046 129.605 413.267C62.187 397.923 -8.90463 390.107 -80.4282 390.975" stroke="#43A0E8" stroke-miterlimit="10"/>
<path d="M2694.08 1536.82C2603.98 1482.82 2445.59 1451.99 2297.14 1463.57C2222.16 1469.36 2150.85 1484.13 2082.35 1496.29C2012.12 1508.88 1945.57 1519.3 1875.77 1517.42C1853.3 1516.84 1830.83 1514.96 1808.14 1511.34C1722.36 1497.44 1637.22 1487.17 1545.82 1470.23C1446.2 1451.85 1380.3 1412.33 1323.25 1366.3C1310.07 1355.59 1296.89 1345.17 1283.92 1334.89C1246.11 1304.78 1208.08 1277.42 1151.46 1262.52C1119.05 1253.98 1081.88 1248.62 1037.59 1248.33C926.52 1247.46 851.107 1289 761.649 1296.53C749.764 1297.54 737.664 1297.69 725.779 1297.4C666.14 1295.52 604.988 1276.56 560.691 1242.83C507.319 1202.3 480.308 1141.5 488.087 1083.17C494.786 1032.8 523.309 985.609 540.595 936.538C570.415 852.294 565.013 760.378 524.605 679.173C502.565 634.879 470.153 594.349 428.665 558.886C353.035 494.327 247.37 447.573 128.957 420.794C61.7546 405.595 -9.1205 397.634 -80.428 397.924" stroke="#4999E9" stroke-miterlimit="10"/>
<path d="M2684.36 1549.55C2592.96 1502.51 2435.65 1474.86 2288.28 1485C2213.73 1489.92 2142.64 1502.66 2074.79 1512.5C2005.21 1522.49 1940.17 1530.01 1871.67 1526.1C1849.63 1524.8 1827.8 1522.49 1805.55 1518.29C1721.71 1502.51 1638.95 1490.06 1547.98 1472.69C1450.09 1453.87 1382.89 1416.38 1324.33 1373.83C1310.72 1363.98 1297.1 1354.43 1283.92 1345.02C1245.03 1317.66 1206.57 1293.2 1149.95 1280.03C1117.54 1272.36 1080.37 1267.44 1036.94 1266.71C927.169 1264.83 852.188 1300.29 766.187 1303.77C754.735 1304.2 743.282 1303.91 731.614 1303.04C674.568 1298.85 616.658 1278.58 574.737 1244.42C524.39 1203.31 498.892 1143.24 505.591 1085.49C511.425 1035.4 537.355 987.924 552.049 938.854C577.979 854.609 569.551 763.127 527.631 682.936C504.51 638.932 471.233 598.981 429.097 564.096C352.604 500.696 246.723 455.099 128.093 428.321C60.891 413.122 -9.76814 405.016 -80.8596 404.871" stroke="#4F92EA" stroke-miterlimit="10"/>
<path d="M2674.64 1562.29C2582.15 1522.2 2425.49 1497.88 2279.2 1506.42C2204.87 1510.47 2134.21 1521.33 2067.01 1528.57C1998.08 1536.09 1934.34 1540.58 1867.35 1534.65C1845.74 1532.76 1824.35 1529.72 1802.74 1525.09C1720.84 1507.58 1640.25 1492.81 1550.14 1474.86C1453.77 1455.76 1385.48 1420 1325.2 1381.21C1311.15 1372.09 1297.11 1363.55 1283.49 1355.16C1243.52 1330.69 1204.41 1309.13 1148.01 1297.55C1115.38 1290.89 1078.43 1286.25 1035.86 1285.1C927.603 1282.35 853.054 1311.73 770.294 1311.01C759.274 1310.86 748.254 1310.14 737.233 1308.84C682.78 1302.32 628.328 1280.75 588.784 1246.16C541.462 1204.47 517.477 1145.12 523.095 1087.8C528.065 1037.86 550.97 990.241 563.719 941.026C585.327 856.781 574.523 765.734 530.658 686.555C506.457 642.841 472.315 603.614 429.531 569.308C351.957 507.065 245.86 462.627 127.014 435.993C60.0284 420.939 -10.4146 412.688 -81.2899 412.109" stroke="#548BEC" stroke-miterlimit="10"/>
<path d="M2664.91 1575.03C2571.13 1541.88 2415.55 1521.04 2270.35 1527.7C2196.45 1531.17 2126 1539.71 2059.45 1544.63C1991.38 1549.56 1928.93 1551.15 1863.24 1543.19C1842.07 1540.58 1821.32 1536.96 1800.15 1531.9C1720.41 1512.5 1641.98 1495.71 1552.3 1477.18C1457.44 1457.64 1387.86 1423.91 1326.06 1388.59C1311.58 1380.34 1297.11 1372.67 1283.06 1365.14C1242.22 1343.43 1202.46 1324.9 1146.06 1314.92C1113.22 1309.13 1076.49 1304.93 1034.78 1303.48C928.036 1299.86 853.703 1323.02 774.401 1318.25C763.813 1317.67 753.224 1316.36 742.852 1314.63C690.992 1305.8 639.781 1282.93 602.83 1247.9C558.317 1205.63 536.06 1146.86 540.814 1090.26C544.92 1040.61 565.016 992.847 575.388 943.487C593.106 859.243 579.493 768.629 533.9 690.464C508.618 647.039 473.396 608.391 430.18 574.809C351.525 513.725 245.212 470.444 126.366 443.81C59.5966 428.756 -10.8463 420.506 -81.2894 419.348" stroke="#5A84ED" stroke-miterlimit="10"/>
<path d="M2655.4 1587.77C2560.33 1561.57 2405.83 1544.05 2261.48 1549.12C2187.8 1551.72 2117.79 1558.38 2051.88 1560.7C1984.46 1563.16 1923.53 1561.86 1859.14 1551.72C1838.61 1548.54 1818.08 1544.34 1797.55 1538.7C1719.76 1517.42 1643.7 1498.46 1554.67 1479.49C1461.54 1459.52 1390.67 1427.82 1327.35 1396.12C1312.44 1388.74 1297.53 1381.93 1283.06 1375.27C1241.14 1356.31 1200.73 1340.68 1144.55 1332.43C1111.49 1327.51 1075.18 1323.6 1034.13 1321.86C928.896 1317.23 854.78 1334.31 778.935 1325.48C768.779 1324.32 758.623 1322.44 748.899 1320.27C699.632 1309.12 651.661 1284.95 617.304 1249.49C575.816 1206.78 555.072 1148.6 558.746 1092.43C561.771 1043.07 579.489 995.016 587.268 945.656C600.882 861.411 584.676 771.232 537.137 694.08C510.775 650.945 474.689 612.876 430.824 579.873C351.089 519.946 244.56 477.824 125.498 451.19C58.7285 436.281 -11.2823 427.74 -81.7255 426.293" stroke="#607DEE" stroke-miterlimit="10"/>
<path d="M2645.68 1600.51C2549.31 1581.11 2395.89 1567.07 2252.62 1570.54C2179.37 1572.28 2109.58 1576.91 2044.32 1576.91C1977.55 1576.91 1918.13 1572.57 1855.03 1560.41C1834.94 1556.5 1815.06 1551.72 1794.96 1545.65C1719.11 1522.49 1645.43 1501.5 1556.84 1481.81C1465.22 1461.55 1393.04 1431.58 1328.22 1403.65C1312.88 1396.99 1297.54 1391.2 1282.84 1385.55C1240.06 1369.34 1198.79 1356.75 1142.82 1350.09C1109.54 1346.18 1073.46 1342.56 1033.27 1340.39C929.546 1334.89 855.645 1345.6 783.257 1332.86C773.534 1331.13 764.026 1328.81 754.518 1326.2C707.844 1312.89 663.331 1287.27 631.135 1251.37C592.456 1208.09 573.441 1150.62 576.034 1095.04C578.194 1045.97 593.104 997.766 598.722 948.262C608.446 864.017 589.215 774.273 540.164 698.134C512.505 655.433 475.771 617.798 431.042 585.519C350.227 526.75 243.481 485.786 124.203 459.152C57.6498 444.243 -12.1453 435.702 -82.3724 433.676" stroke="#6576F0" stroke-miterlimit="10"/>
<path d="M2635.96 1613.1C2538.29 1600.65 2385.95 1589.8 2243.55 1591.68C2170.51 1592.69 2101.15 1595.3 2036.76 1592.69C1970.85 1590.08 1912.73 1582.85 1850.93 1568.66C1831.26 1564.03 1811.82 1558.67 1792.37 1552.16C1718.47 1527.12 1647.16 1503.96 1559 1483.84C1468.89 1463.14 1395.42 1435.2 1329.3 1410.74C1313.53 1404.95 1297.97 1399.88 1282.63 1395.25C1238.76 1381.79 1197.06 1372.24 1141.09 1367.17C1107.6 1364.13 1071.73 1360.95 1032.19 1358.48C929.979 1351.97 856.511 1356.6 787.364 1339.81C778.072 1337.5 768.997 1334.75 760.137 1331.56C716.056 1315.93 674.784 1289 645.181 1252.67C609.527 1208.81 592.025 1151.93 593.537 1097.07C594.834 1048.14 606.934 999.794 610.176 950.29C615.794 865.901 593.969 776.735 543.19 701.609C514.451 659.198 476.636 622.286 431.475 590.441C349.579 532.831 242.618 493.024 123.34 466.535C56.7859 451.771 -12.793 442.941 -82.5879 440.625" stroke="#6B70F1" stroke-miterlimit="10"/>
<path d="M2626.23 1625.84C2527.48 1620.34 2376.01 1612.81 2234.69 1613.1C2162.08 1613.24 2092.94 1613.97 2029.19 1608.76C1963.93 1603.69 1907.11 1593.56 1846.82 1577.2C1827.59 1571.99 1808.57 1566.06 1789.77 1558.96C1717.82 1532.04 1648.89 1506.85 1561.37 1486.01C1472.99 1465.02 1398.23 1438.96 1330.38 1418.12C1314.17 1413.2 1298.18 1409 1282.41 1405.38C1237.68 1394.67 1195.11 1388.16 1139.36 1384.83C1105.87 1382.8 1070 1379.91 1031.32 1377.01C930.624 1369.63 857.372 1368.04 791.683 1347.19C782.823 1344.3 774.18 1341.11 765.969 1337.49C724.481 1319.55 686.666 1291.32 659.44 1254.55C626.811 1210.11 610.821 1153.95 611.253 1099.53C611.685 1050.89 620.977 1002.4 622.057 952.749C623.786 868.36 598.937 779.628 546.428 705.516C516.609 663.394 477.93 627.062 432.12 595.941C349.144 539.343 241.967 500.84 122.473 474.351C56.1351 459.586 -13.2279 450.756 -83.0228 447.861" stroke="#7069F3" stroke-miterlimit="10"/>
<path d="M2616.73 1638.58C2516.68 1640.02 2366.29 1635.68 2226.05 1634.52C2153.88 1633.8 2084.95 1632.5 2021.85 1624.97C1957.24 1617.3 1901.92 1604.27 1842.93 1585.89C1824.13 1579.95 1805.77 1573.44 1787.61 1565.91C1717.6 1537.11 1651.05 1509.75 1563.97 1488.47C1477.1 1467.19 1401.04 1443.02 1331.89 1425.65C1315.26 1421.45 1298.83 1418.27 1282.84 1415.52C1237.25 1407.56 1193.82 1404.08 1138.28 1402.34C1104.57 1401.19 1068.92 1398.58 1031.11 1395.4C931.924 1387 858.888 1379.33 796.656 1354.29C788.229 1350.96 780.018 1347.05 772.239 1343C733.344 1322.73 698.771 1293.2 673.921 1256C644.101 1210.98 629.84 1155.55 629.191 1101.7C628.543 1053.35 635.458 1004.57 633.945 954.922C631.569 870.533 604.126 782.235 549.889 709.137C518.989 667.304 479.446 631.551 432.988 601.008C348.932 545.569 241.538 508.223 121.828 481.734C55.4903 467.114 -13.4404 457.995 -83.0193 454.666" stroke="#7662F4" stroke-miterlimit="10"/>
<path d="M2607 1651.31C2505.66 1659.71 2356.13 1658.7 2216.97 1655.8C2145.02 1654.35 2076.52 1651.02 2014.07 1640.89C1950.33 1630.76 1896.31 1614.84 1838.61 1594.28C1820.24 1587.77 1802.31 1580.53 1784.81 1572.57C1716.96 1541.88 1652.56 1512.5 1566.13 1490.5C1480.78 1468.78 1403.42 1446.64 1332.76 1432.89C1315.69 1429.56 1298.84 1427.24 1282.41 1425.36C1235.74 1420.15 1191.87 1418.7 1136.34 1419.57C1102.42 1420 1067.19 1417.11 1030.03 1413.49C932.358 1404.23 859.754 1390.18 800.763 1361.23C792.768 1357.33 785.206 1352.98 777.859 1348.5C741.557 1325.92 710.225 1295.08 687.968 1257.45C661.174 1211.85 648.425 1156.99 646.696 1103.87C645.183 1055.81 649.289 1006.74 645.616 957.092C639.349 872.703 608.882 784.84 553.132 712.61C520.936 671.066 480.744 636.037 433.638 606.074C348.501 551.792 240.892 515.605 121.181 489.26C55.0599 474.641 -13.8706 465.521 -83.0173 461.758" stroke="#7C5BF5" stroke-miterlimit="10"/>
<path d="M2597.28 1664.05C2494.64 1679.4 2346.19 1681.42 2208.11 1677.22C2136.59 1674.76 2068.09 1669.55 2006.51 1657.1C1943.41 1644.37 1890.9 1625.55 1834.5 1602.97C1816.57 1595.73 1799.28 1588.06 1782.21 1579.52C1716.31 1546.8 1654.07 1515.54 1568.29 1492.96C1484.66 1470.96 1405.79 1450.84 1333.62 1440.41C1316.12 1437.95 1298.83 1436.51 1281.98 1435.64C1234.44 1433.18 1189.71 1435.93 1134.18 1437.23C1100.04 1438.1 1065.03 1435.93 1028.73 1432.16C932.571 1421.89 860.183 1401.77 804.65 1368.76C797.087 1364.27 789.956 1359.5 783.258 1354.58C749.549 1329.82 721.674 1297.55 701.794 1259.48C677.809 1213.3 666.789 1159.16 664.196 1106.48C661.603 1058.56 663.331 1009.49 657.065 959.554C647.125 875.165 613.632 787.736 555.938 716.519C522.661 675.265 481.389 640.814 433.851 611.575C347.633 558.452 240.024 523.277 119.882 497.078C53.7601 482.603 -14.7382 473.194 -83.8848 468.996" stroke="#8154F7" stroke-miterlimit="10"/>
<path d="M2587.77 1676.79C2483.83 1699.08 2336.46 1704.44 2199.25 1698.5C2127.94 1695.32 2059.88 1688.08 1998.94 1673.03C1936.49 1657.83 1885.28 1636.12 1830.4 1611.22C1812.89 1603.4 1796.04 1595.01 1779.62 1586.03C1715.66 1551.44 1655.8 1518.14 1570.45 1494.84C1488.34 1472.55 1408.17 1454.31 1334.7 1447.51C1316.77 1445.91 1299.05 1445.48 1281.76 1445.33C1233.36 1444.9 1187.77 1451.41 1132.45 1454.31C1098.09 1456.05 1063.3 1454.31 1027.86 1450.11C933.219 1438.82 861.264 1412.48 808.971 1375.56C801.841 1370.5 795.142 1365.14 788.876 1359.79C757.976 1332.72 733.126 1299.14 715.623 1260.63C694.663 1214.02 685.156 1160.47 681.482 1108.36C678.025 1060.73 676.944 1011.37 668.517 961.435C654.472 877.046 618.17 790.051 558.963 719.848C524.606 679.028 482.469 645.012 434.283 616.351C347.201 564.386 239.16 530.37 118.801 504.17C52.8957 489.84 -15.3869 480.286 -84.3175 475.654" stroke="#874DF8" stroke-miterlimit="10"/>
<path d="M2578.05 1689.53C2473.03 1718.62 2326.53 1727.45 2190.39 1719.92C2119.52 1715.87 2051.67 1706.61 1991.38 1689.24C1929.8 1671.43 1879.88 1646.83 1826.29 1619.9C1809.22 1611.36 1793.02 1602.39 1777.03 1592.98C1715.01 1556.5 1657.53 1521.04 1572.83 1497.3C1492.23 1474.57 1410.76 1458.51 1335.78 1455.03C1317.42 1454.16 1299.27 1454.6 1281.76 1455.61C1232.28 1458.51 1186.25 1467.48 1130.94 1471.97C1096.36 1474.72 1061.79 1473.27 1027.22 1468.64C934.085 1456.33 862.345 1423.91 813.51 1382.95C806.812 1377.3 800.545 1371.51 794.927 1365.72C766.62 1336.34 745.012 1301.45 730.102 1262.51C712.167 1215.33 704.172 1162.35 699.418 1110.96C695.096 1063.63 691.207 1014.12 680.403 964.039C662.468 879.65 623.141 793.234 562.421 723.899C526.767 683.369 483.983 649.932 434.932 621.995C346.77 571.188 238.512 538.33 118.154 512.13C52.2484 497.8 -15.818 488.101 -84.3164 483.035" stroke="#8D46F9" stroke-miterlimit="10"/>
<path d="M2568.32 1702.12C2462.01 1738.16 2316.59 1750.18 2181.54 1741.2C2111.09 1736.28 2043.46 1725.14 1983.82 1705.16C1922.88 1684.9 1874.26 1657.39 1822.19 1628.3C1805.55 1619.18 1789.99 1609.48 1774.43 1599.64C1714.58 1561.13 1659.26 1523.79 1574.99 1499.33C1495.9 1476.31 1413.36 1461.55 1336.87 1462.27C1318.07 1462.42 1299.48 1463.43 1281.55 1465.46C1231.2 1471.1 1184.31 1483.26 1129.21 1489.19C1094.64 1492.96 1060.28 1491.65 1026.35 1486.73C934.734 1473.56 863.427 1434.77 817.833 1389.9C811.567 1383.82 805.948 1377.45 800.762 1371.08C775.048 1339.38 756.897 1303.19 744.365 1263.82C729.239 1216.05 722.972 1163.8 717.138 1112.84C711.736 1065.8 705.469 1016.01 692.072 965.923C670.032 881.534 627.896 795.552 565.448 727.23C528.713 686.99 484.849 654.276 435.365 626.774C346.123 577.124 237.649 545.424 117.075 519.369C51.3852 505.184 -16.4647 495.341 -84.9631 489.695" stroke="#9240FB" stroke-miterlimit="10"/>
<path d="M2558.6 1714.86C2450.99 1757.85 2306.64 1773.19 2172.46 1762.48C2102.23 1756.83 2035.03 1743.52 1976.04 1721.23C1915.75 1698.36 1868.64 1667.96 1817.86 1636.84C1801.87 1626.99 1786.53 1616.86 1771.62 1606.44C1713.71 1566.05 1660.56 1526.68 1577.15 1501.64C1499.57 1478.34 1415.73 1466.18 1337.73 1469.8C1318.5 1470.66 1299.7 1472.69 1281.11 1475.73C1229.69 1483.98 1182.36 1499.32 1127.26 1506.85C1092.47 1511.63 1058.33 1510.62 1025.27 1505.4C935.164 1491.22 864.288 1446.35 821.936 1397.42C816.102 1390.76 810.916 1383.96 806.378 1377.16C783.257 1343.14 768.347 1305.65 758.407 1265.84C746.307 1217.5 741.337 1165.97 734.638 1115.59C728.156 1068.69 719.296 1018.75 703.738 968.671C677.808 884.282 632.647 798.879 568.686 731.426C530.655 691.62 486.142 659.34 436.011 632.562C345.688 584.07 236.998 553.528 116.208 527.473C50.7344 513.288 -16.8996 503.445 -85.182 497.365" stroke="#9839FC" stroke-miterlimit="10"/>
<path d="M2549.09 1727.6C2440.19 1777.54 2296.92 1796.21 2163.82 1783.9C2094.02 1777.39 2027.04 1762.19 1968.69 1737.3C1909.27 1711.96 1863.46 1678.67 1813.98 1645.38C1798.42 1634.96 1783.73 1624.1 1769.25 1613.24C1713.5 1570.98 1662.5 1529.72 1579.53 1503.96C1503.47 1480.51 1418.55 1470.23 1339.03 1477.18C1319.36 1478.92 1300.13 1481.81 1281.33 1485.72C1229.04 1496.58 1180.85 1515.25 1125.97 1524.22C1090.96 1530.01 1057.04 1529.14 1024.84 1523.64C936.247 1508.3 865.804 1457.35 826.693 1404.51C821.291 1397.28 816.537 1389.9 812.432 1382.66C791.904 1346.47 780.235 1307.53 772.672 1267.29C763.381 1218.37 760.139 1167.41 752.36 1117.77C745.014 1071.16 733.345 1021.07 715.41 970.844C685.375 886.31 637.404 801.486 571.931 735.046C532.82 695.529 487.442 663.829 436.663 637.629C345.259 590.296 236.353 560.912 115.563 534.857C50.0895 520.816 -17.3285 510.684 -85.1787 504.17" stroke="#9D32FE" stroke-miterlimit="10"/>
<path d="M2539.37 1740.33C2371.25 1827.04 2127.94 1832.68 1961.13 1753.36C1902.35 1725.42 1858.06 1689.24 1809.87 1653.92C1735.75 1599.49 1685.41 1539.28 1581.9 1506.13C1488.99 1476.31 1377.7 1470.95 1281.11 1495.71C1227.74 1509.31 1179.12 1531.02 1124.24 1541.59C978.381 1569.53 857.158 1472.26 818.263 1388.45C778.504 1303.04 786.283 1209.82 770.077 1120.22C747.82 996.174 682.563 843.318 575.169 738.808C462.158 628.943 302.904 582.913 114.696 542.672C49.4387 528.631 -17.7631 518.499 -85.6133 511.551" stroke="#A32BFF" stroke-miterlimit="10"/>
</g>
</g>
<defs>
<linearGradient id="paint0_linear_2018_11029" x1="18.9918" y1="1481" x2="18.9918" y2="1042.99" gradientUnits="userSpaceOnUse">
<stop stop-color="#737373"/>
<stop offset="1" stop-color="#311996"/>
</linearGradient>
</defs>
</svg>
