<svg width="1920" height="711" viewBox="0 0 1920 711" fill="none" xmlns="http://www.w3.org/2000/svg">
<g opacity="0.24">
<path d="M-359.172 668.189C-275.546 678.797 -184.357 671.71 -104.153 648.166C-8.7671 620.216 67.5876 571.375 135.975 521.104C204.362 470.833 268.41 417.465 349.891 375.375C431.536 333.273 535.55 302.794 637.017 309.507C700.661 313.736 759.078 332.184 823.22 334.471C1026.14 341.68 1196.42 190.377 1398.38 201.867C1484.65 206.769 1556.5 241.597 1641.36 251.214C1752.3 263.862 1878.55 227.264 1939.09 164.922" stroke="#62A8B2" stroke-width="2" stroke-miterlimit="10"/>
<path d="M-366.745 659.506C-296.037 666.133 -219.168 661.986 -147.847 647.909C-133.837 645.192 -120.029 641.988 -106.571 638.509C-51.1457 624.076 -2.0755 603.883 42.0526 581.24C75.8196 563.958 106.855 545.268 137.013 525.84C154.736 514.431 172.434 502.722 190.596 490.679C232.019 462.915 273.752 432.923 317.647 405.381C330.253 397.451 343.046 389.807 356.027 382.451C388.558 364.055 424.187 347.541 461.74 334.599C514.891 316.318 572.047 305.07 630.074 306.596C691.874 308.25 750.066 323.905 814.638 325.46C824.306 325.664 833.786 325.581 843.25 325.299C904.58 323.176 962.713 309.851 1020.29 291.752C1112.17 262.852 1202.06 221.559 1295.85 204.254C1328.09 198.316 1360.72 195.257 1394.34 196.439C1461.27 198.826 1519.93 218.259 1582.66 231.28C1601.12 235.062 1620.04 238.409 1639.5 240.413C1751.54 252.48 1877.78 219.694 1938.18 163.782" stroke="#69A3AE" stroke-width="2" stroke-miterlimit="10"/>
<path d="M-374.313 650.925C-302.635 655.377 -224.197 650.414 -151.315 637.428C-136.964 634.887 -122.961 632.07 -109.154 628.867C-52.6313 615.859 -2.38331 598.088 42.166 578.624C76.1188 563.635 107.056 547.761 138.058 530.679C156.219 520.642 174.51 510.194 193.712 498.878C237.411 472.956 281.209 442.213 324.682 413.498C337.102 405.28 349.537 397.261 362.314 389.418C393.79 370.095 427.361 352.426 462.688 338.241C512.921 318.266 566.606 304.56 622.968 303.699C682.753 302.691 741.059 315.73 805.901 316.563C815.56 316.668 825.203 316.573 834.822 316.179C896.64 314.021 954.942 302.79 1013.12 286.052C1106.01 259.486 1197.56 218.574 1291.76 200.237C1323.97 193.999 1356.89 190.419 1390.46 190.903C1457.44 191.882 1516.9 209.15 1580.51 221.004C1599.28 224.463 1618.33 227.5 1637.96 229.492C1750.93 240.891 1877.33 212.105 1937.75 162.509" stroke="#719DAA" stroke-width="2" stroke-miterlimit="10"/>
<path d="M-381.878 642.346C-309.24 644.522 -229.215 638.943 -154.611 627.036C-139.918 624.671 -125.566 622.13 -111.564 619.314C-53.7897 607.619 -2.35591 592.371 42.4439 575.997C76.5907 563.402 107.583 550.231 139.097 535.419C157.533 526.766 176.742 517.556 196.822 506.979C242.634 482.91 288.823 451.392 331.548 421.529C343.781 413.023 356.014 404.517 368.279 396.41C398.69 376.061 430.213 357.337 463.475 341.896C510.619 320.138 560.899 302.767 615.693 300.715C673.421 298.552 731.721 307.48 796.994 307.579C806.645 307.585 816.443 307.378 826.069 307.084C888.376 304.891 946.847 295.754 1005.48 280.488C1099.37 256.256 1192.43 215.836 1287.37 196.444C1319.71 189.895 1352.59 185.816 1386.27 185.59C1453.46 185.15 1513.57 200.266 1577.9 210.964C1596.8 214.113 1616.17 216.926 1635.95 218.807C1750.02 229.625 1876.39 204.651 1936.85 161.472" stroke="#7898A6" stroke-width="2" stroke-miterlimit="10"/>
<path d="M-389.45 633.666C-316.014 633.578 -234.241 627.371 -158.085 616.455C-143.205 614.378 -128.511 612.013 -114.151 609.572C-55.118 599.291 -2.66099 586.576 42.5438 573.182C76.8846 562.979 107.924 552.413 139.965 540.07C158.84 532.79 178.642 524.841 199.762 514.991C247.842 492.664 296.105 460.495 338.416 429.558C350.616 420.653 362.337 411.883 374.236 403.302C403.59 382.026 433.22 362.134 464.255 345.451C508.318 322.009 555.241 303.577 608.581 297.719C664.189 291.596 722.702 299.105 788.251 298.583C798.057 298.477 807.854 298.27 817.473 297.877C880.267 295.648 938.908 288.605 998.139 274.699C1093.03 252.702 1187.6 212.775 1283.11 192.338C1315.59 185.479 1348.43 180.901 1382.05 179.978C1449.46 178.218 1510.21 191.081 1575.27 200.724C1594.47 203.549 1613.99 206.152 1633.92 207.922C1749.09 218.158 1875.62 197.085 1935.77 160.246" stroke="#8092A2" stroke-width="2" stroke-miterlimit="10"/>
</g>
<path opacity="0.2" d="M-397.018 625.087C-322.621 622.722 -239.108 615.788 -161.545 606.075C-146.324 604.173 -131.281 602.084 -116.564 600.018C-56.2706 591.15 -2.63595 580.858 42.8194 570.555C77.354 562.745 108.287 554.895 141.172 544.898C160.485 538.99 180.872 532.202 203.041 523.179C253.233 502.705 303.733 469.873 345.613 437.663C357.627 428.471 369.152 419.315 380.532 410.369C408.667 388.178 436.403 367.12 465.21 349.193C506.185 323.969 549.653 303.278 601.474 294.822C655.076 286.137 713.532 290.942 779.513 289.687C789.31 289.48 799.262 289.163 809.052 288.857C872.334 286.593 931.137 281.544 990.984 269.199C1086.86 249.337 1183.12 209.99 1279.04 188.621C1311.67 181.45 1344.46 176.374 1378.19 174.741C1445.81 171.562 1507.2 182.272 1573.15 190.748C1592.66 193.251 1612.31 195.642 1632.57 197.288C1748.67 206.956 1875.34 189.684 1935.52 159.261" stroke="#878D9E" stroke-width="2" stroke-miterlimit="10"/>
<path opacity="0.2" d="M-404.58 616.505C-329.378 611.977 -244.124 604.315 -164.846 595.581C-149.284 593.855 -133.883 592.141 -118.987 590.263C-57.5971 582.821 -2.78465 574.951 43.0838 567.727C77.9669 562.199 108.963 557.152 142.205 549.536C161.957 545 182.937 539.474 206.145 531.178C258.605 512.446 311.179 478.962 352.645 445.679C364.464 436.1 375.802 426.656 386.653 417.248C413.724 394.031 439.403 371.817 466.154 352.735C504.211 325.816 543.892 302.791 594.527 291.813C645.966 280.676 704.685 282.654 770.934 280.677C780.886 280.36 790.676 280.054 800.62 279.637C864.552 277.326 923.362 274.383 983.648 263.409C1080.53 245.882 1178.31 207.028 1274.79 184.514C1307.38 176.945 1340.47 171.447 1374.14 169.115C1441.97 164.517 1504 173.075 1570.68 180.395C1590.32 182.587 1610.28 184.656 1630.7 186.29C1747.9 195.377 1874.56 182.017 1934.76 157.812" stroke="#8F8799" stroke-width="2" stroke-miterlimit="10"/>
<path opacity="0.09" d="M-412.155 607.828C-335.992 601.023 -249.153 592.746 -168.314 585.103C-152.41 583.553 -136.823 582.126 -121.569 580.623C-58.9195 574.594 -3.09195 569.158 43.1896 565.013C78.2667 561.878 109.327 559.635 143.08 554.289C163.27 551.126 184.842 546.86 209.1 539.391C263.673 522.512 318.474 488.266 359.518 453.81C371.313 443.932 382.123 434.025 392.625 424.34C418.638 400.197 442.262 376.828 466.786 356.502C501.591 327.813 537.98 302.518 587.104 289.042C636.382 275.454 695.191 274.516 761.88 271.906C771.824 271.489 781.768 271.071 791.883 270.742C856.311 268.496 915.282 267.547 976.177 258.034C1074.06 242.741 1173.51 204.367 1270.41 180.922C1303.14 173.042 1336.18 167.045 1369.96 164.004C1438.01 157.986 1500.68 164.391 1568.08 170.556C1588.03 172.425 1608.13 174.282 1628.7 175.806C1747 184.312 1873.64 174.764 1933.71 156.987" stroke="#968295" stroke-width="2" stroke-miterlimit="10"/>
<path opacity="0.09" d="M-419.72 599.247C-342.597 590.166 -254.18 581.173 -171.781 574.621C-155.527 573.346 -139.599 572.096 -124.15 570.98C-60.2408 566.364 -3.23545 563.351 43.134 562.309C78.3969 561.467 109.521 562.027 143.947 558.939C164.576 557.148 186.733 554.044 212.039 547.402C268.879 532.265 325.754 497.368 366.376 461.739C377.976 451.473 388.6 441.279 398.573 431.131C423.522 405.961 445.097 381.536 467.556 359.956C499.273 329.483 532.053 302.043 579.974 285.845C626.937 269.917 686.162 266.04 753.282 262.697C763.218 262.18 773.324 261.751 783.439 261.422C848.355 259.141 907.497 260.285 968.83 252.145C1067.72 239.186 1168.68 201.305 1266.14 176.716C1299.01 168.525 1332.01 162.029 1365.9 158.278C1433.99 150.853 1497.3 155.006 1565.77 160.191C1585.85 161.749 1606.27 163.384 1626.98 164.696C1746.21 172.533 1873.01 166.986 1933.1 155.526" stroke="#9E7D91" stroke-width="2" stroke-miterlimit="10"/>
<path opacity="0.09" d="M-427.286 590.665C-349.364 579.321 -259.199 569.7 -175.077 564.227C-158.644 563.14 -142.358 562.265 -126.397 561.413C-61.2369 558.111 -3.20837 557.631 43.5742 559.668C79.0311 561.219 110.21 564.484 145.156 563.765C166.223 563.347 188.973 561.503 215.319 555.589C274.273 542.305 333.547 506.733 373.422 469.954C384.834 459.402 395.263 448.82 404.716 438.309C428.446 412.224 448.127 386.632 468.522 363.797C497.32 331.629 526.491 302.042 572.886 283.146C617.695 264.866 677.011 258.075 744.554 253.899C754.645 253.271 764.743 252.742 775.02 252.401C840.424 250.084 899.728 253.223 961.678 246.643C1061.57 235.918 1164.04 198.53 1262.08 172.996C1294.92 164.506 1328.21 157.489 1361.87 153.052C1430.18 144.207 1494.14 146.207 1563.33 150.237C1583.7 151.373 1604.27 152.896 1625.31 154.085C1745.63 161.342 1872.42 159.606 1932.53 154.563" stroke="#A5778D" stroke-width="2" stroke-miterlimit="10"/>
<path opacity="0.09" d="M-434.858 581.986C-355.976 568.366 -264.225 558.13 -178.55 553.647C-161.776 552.736 -145.141 552.137 -128.985 551.672C-62.5649 549.784 -3.52133 551.737 43.6744 556.854C79.3252 560.798 110.568 566.866 146.025 568.417C167.693 569.36 190.873 568.789 218.26 563.601C279.319 552.071 340.829 515.836 380.281 477.884C391.669 467.033 401.578 456.087 410.673 445.201C433.347 418.189 450.971 391.442 469.139 367.364C494.849 333.413 520.411 301.68 565.441 280.075C608.267 259.531 667.658 249.625 735.478 244.827C745.56 244.099 755.822 243.559 766.099 243.218C831.991 240.866 891.463 246.098 954.023 240.979C1054.92 232.589 1159.06 195.582 1257.5 169.015C1290.48 160.214 1323.73 152.698 1357.5 147.551C1426.03 137.287 1490.62 137.135 1560.54 140.009C1581.05 140.834 1601.92 142.035 1623.12 143.212C1744.54 149.888 1871.32 152.065 1931.29 153.35" stroke="#AD7289" stroke-width="2" stroke-miterlimit="10"/>
<path opacity="0.09" d="M-442.423 573.406C-362.735 557.622 -269.252 546.558 -182.009 543.266C-164.885 542.631 -148.071 542.219 -131.558 542.129C-64.0407 541.666 -3.65678 546.031 43.7894 554.238C79.6261 560.475 111.095 569.335 147.071 573.256C169.177 575.571 193.106 576.149 221.378 571.801C284.704 562.012 348.288 525.126 387.318 486.001C398.511 474.762 408.225 463.43 416.963 452.168C438.572 424.13 454.148 396.328 470.251 370.994C492.88 335.361 515.004 301.569 558.661 277.154C599.342 254.358 658.816 241.438 727.067 235.907C737.304 235.067 747.557 234.427 757.997 234.074C824.539 231.676 884.019 239.014 947.017 235.266C1048.92 229.211 1154.57 192.696 1253.58 165.086C1286.71 155.974 1319.91 147.86 1353.79 142.103C1422.52 130.419 1487.77 128.115 1558.57 129.921C1579.39 130.423 1600.41 131.413 1621.76 132.478C1744.11 138.585 1871.03 144.563 1931.03 152.265" stroke="#B46C85" stroke-width="2" stroke-miterlimit="10"/>
<path opacity="0.09" d="M-449.988 564.825C-369.34 546.765 -274.27 535.085 -185.312 532.772C-167.847 532.313 -150.683 532.177 -133.975 532.475C-65.1988 533.425 -3.79975 540.223 44.0596 551.51C80.0821 560.041 111.623 571.804 148.11 577.994C170.663 581.781 195.176 583.521 224.488 579.9C289.919 571.865 355.739 534.315 394.355 494.118C405.362 482.591 414.881 470.872 423.098 459.246C443.488 430.293 457.333 401.312 471.209 374.735C490.92 337.407 509.598 301.458 551.557 274.257C590.255 249.197 649.812 233.262 718.332 227.009C728.561 226.07 738.976 225.418 749.416 225.065C816.446 222.631 876.096 232.064 939.703 229.776C1042.77 225.943 1149.77 189.933 1249.35 161.279C1282.45 151.868 1315.77 143.243 1349.76 136.777C1418.71 123.674 1484.59 119.217 1556.12 119.867C1577.24 120.047 1598.4 120.826 1619.91 121.78C1743.36 127.306 1870.44 137.184 1930.3 151.214" stroke="#BC6781" stroke-width="2" stroke-miterlimit="10"/>
<path opacity="0.09" d="M-457.563 556.147C-376.116 535.823 -279.299 523.515 -188.78 522.293C-170.974 522.01 -153.452 522.249 -136.395 522.822C-66.3586 525.186 -3.78992 534.307 44.3361 548.884C80.5526 559.808 112.157 574.374 149.147 582.735C172.138 587.894 197.236 590.795 227.597 588.001C295.141 581.819 363.189 543.507 401.383 502.136C412.358 490.211 421.364 478.228 429.216 466.127C448.541 436.148 460.338 406.111 471.986 378.291C488.609 339.18 504.019 301.26 544.443 271.262C581.166 244.038 640.627 224.9 709.586 218.015C719.807 216.976 730.377 216.212 740.817 215.859C808.343 213.49 868.154 224.916 932.362 223.99C1036.44 222.491 1145.1 186.862 1245.1 157.275C1278.33 147.454 1311.78 138.418 1345.55 131.266C1414.71 116.743 1481.24 110.133 1553.49 109.628C1574.75 109.498 1596.22 110.053 1618.04 110.884C1742.59 115.829 1869.65 129.52 1929.54 149.967" stroke="#C3617D" stroke-width="2" stroke-miterlimit="10"/>
<path opacity="0.09" d="M-465.127 547.565C-382.72 524.965 -284.325 511.942 -192.246 511.81C-174.09 511.803 -156.39 512.23 -138.975 513.178C-67.6874 516.856 -4.09546 528.51 44.4437 546.166C80.846 559.384 112.522 576.853 150.186 587.472C173.461 594.115 199.306 598.166 230.708 596.099C300.519 591.659 370.649 552.795 408.258 510.263C419.045 498.051 427.857 485.68 435.189 473.216C453.458 442.31 463.198 411.118 472.782 382.043C486.323 341.249 498.458 301.259 537.184 268.475C572.088 238.975 631.468 216.835 700.696 209.227C711.072 208.077 721.479 207.325 732.244 206.949C800.258 204.544 860.239 218.064 924.894 218.61C1029.97 219.446 1140.15 184.309 1240.71 153.578C1274.08 143.446 1307.49 133.912 1341.37 126.05C1410.73 110.008 1477.91 101.346 1551.06 99.7733C1572.61 99.3198 1594.39 99.5525 1616.21 100.384C1741.69 104.66 1868.91 122.351 1928.65 149.126" stroke="#CB5C79" stroke-width="2" stroke-miterlimit="10"/>
<g opacity="0.19">
<path d="M-472.694 538.984C-389.319 514.208 -289.183 500.457 -195.543 501.417C-177.209 501.597 -158.997 502.288 -141.386 503.624C-69.0019 508.726 -4.07776 522.691 44.7199 543.538C81.4707 559.037 112.894 579.434 151.231 592.31C174.944 600.326 201.374 605.538 233.832 604.397C305.749 601.711 378.278 562.173 415.302 518.479C425.902 505.98 434.348 493.134 441.323 480.294C458.527 448.362 466.218 416.115 473.738 385.785C484.353 343.196 493.05 301.147 530.078 265.577C562.999 233.814 622.3 208.671 691.959 200.33C702.326 199.08 712.888 198.217 723.653 197.841C792.318 195.389 852.306 211.015 917.561 212.921C1023.64 215.991 1135.49 181.336 1236.47 149.672C1269.97 139.229 1303.34 129.197 1337.33 120.625C1406.74 103.175 1474.72 92.3481 1548.6 89.6203C1570.29 88.8559 1592.38 88.8658 1614.34 89.4856C1740.92 93.1816 1868.12 114.684 1927.89 147.777" stroke="#D25775" stroke-width="2" stroke-miterlimit="10"/>
<path d="M-480.265 530.303C-396.091 503.262 -294.207 488.884 -199.015 490.835C-180.339 491.191 -161.932 492.268 -143.972 493.88C-70.3281 500.396 -4.38883 516.795 44.6594 540.733C81.6041 558.625 113.091 581.825 151.939 596.971C176.091 606.36 203.114 612.833 236.612 612.419C310.634 611.486 385.398 571.285 422.001 526.419C432.569 513.52 440.665 500.399 447.119 487.195C463.104 454.349 469.065 420.922 474.194 389.361C481.729 345.089 487.313 300.958 522.643 262.602C553.752 228.663 612.957 200.317 683.055 191.343C693.577 189.982 704.139 189.119 715.067 188.731C784.219 186.244 844.385 204.063 910.079 207.342C1017.17 212.846 1130.53 178.583 1232.07 145.776C1265.54 135.034 1299.2 124.479 1333.13 115.209C1402.75 96.3408 1471.38 83.3609 1545.98 79.4776C1567.98 78.3906 1590.2 78.1893 1612.33 78.6977C1740 81.8129 1867.19 107.228 1926.98 146.637" stroke="#DA5170" stroke-width="2" stroke-miterlimit="10"/>
<path d="M-487.833 521.724C-402.699 492.408 -299.237 477.314 -202.314 480.444C-183.288 481.076 -164.54 482.329 -146.23 484.216C-71.3269 492.145 -4.20995 510.967 45.0888 537.996C82.2194 558.181 113.769 584.185 153.292 601.589C177.89 612.45 205.489 619.984 240.036 620.398C316.325 621.206 393.164 580.354 429.352 534.414C439.733 521.228 447.635 507.72 453.561 494.053C468.489 460.28 472.393 425.698 475.458 392.882C479.904 346.827 482.383 300.715 515.845 259.485C545.296 223.259 604.096 191.933 674.617 182.126C685.131 180.665 695.848 179.69 706.776 179.302C776.416 176.78 836.751 196.693 903.046 201.333C1011.15 209.171 1126.01 175.301 1228.12 141.55C1261.74 130.497 1295.35 119.344 1329.23 109.476C1399.05 89.0879 1468.33 74.0552 1543.82 69.0046C1565.95 67.5071 1588.49 67.1825 1610.77 67.5794C1739.38 70.1256 1866.72 99.441 1926.37 145.179" stroke="#E14C6C" stroke-width="2" stroke-miterlimit="10"/>
<path d="M-495.235 513.132C-409.303 481.552 -304.093 465.829 -205.617 469.95C-186.25 470.758 -167.315 472.299 -148.648 474.561C-72.4852 483.904 -4.35304 505.16 45.3588 535.268C82.846 557.834 114.297 586.653 154.331 606.327C179.367 618.56 207.551 627.256 243.147 628.496C321.533 630.959 400.624 589.643 436.381 542.431C446.568 528.858 454.12 515.074 459.688 501.032C473.552 466.232 475.407 430.594 476.245 396.535C477.611 348.797 477.131 300.491 508.74 256.587C536.371 218.085 595.083 183.657 665.882 173.228C676.387 171.667 687.267 170.681 698.357 170.281C768.485 167.724 828.99 189.731 895.894 195.831C1005 206.004 1121.53 172.515 1224.21 137.719C1257.97 126.355 1291.54 114.704 1325.52 104.126C1395.4 82.3305 1465.48 65.0337 1541.7 59.027C1564.13 57.2069 1586.81 56.5715 1609.42 56.9449C1739.12 58.9103 1866.45 92.0381 1926.13 144.193" stroke="#E94668" stroke-width="2" stroke-miterlimit="10"/>
<path d="M-502.809 504.452C-415.908 470.696 -309.12 454.258 -209.084 459.47C-189.375 460.453 -170.082 462.37 -151.229 464.919C-73.9688 475.687 -4.49639 499.353 45.466 532.552C83.1471 557.512 114.499 589.146 155.206 611.079C180.518 624.696 209.458 634.641 246.094 636.608C326.756 640.912 407.912 598.846 443.256 550.56C453.418 536.687 460.604 522.428 465.653 508.023C478.46 472.297 478.251 435.404 477.032 400.189C475.309 350.669 471.724 300.381 501.465 253.603C527.438 212.814 585.745 175.406 656.975 164.244C667.635 162.571 678.507 161.485 689.597 161.086C760.221 158.593 820.888 182.594 888.238 190.166C998.345 202.573 1116.39 169.677 1219.65 133.837C1253.38 122.174 1287.07 110.013 1321.16 98.7249C1391.25 75.51 1461.97 56.0606 1538.92 48.8984C1561.65 46.7556 1584.48 45.9091 1607.24 46.1711C1738.04 47.5558 1865.52 84.5839 1925.05 143.067" stroke="#F04164" stroke-width="2" stroke-miterlimit="10"/>
<path d="M-510.371 495.871C-422.673 459.851 -314.137 442.786 -212.385 448.977C-192.49 450.248 -172.693 452.328 -153.644 455.265C-75.1329 467.346 -4.63723 493.546 45.7382 529.824C83.6052 557.077 115.029 591.615 156.41 615.805C182.168 630.895 211.856 641.989 249.369 644.696C332.136 650.753 415.529 608.023 450.287 558.576C460.263 544.417 467.254 529.771 471.945 514.99C483.525 478.249 481.43 440.289 478.147 403.819C473.506 352.604 466.8 300.134 494.525 250.694C518.841 207.617 576.906 167.218 648.405 155.335C659.057 153.563 670.09 152.465 681.343 152.053C752.618 149.514 813.292 175.62 881.243 184.553C992.357 199.295 1112.07 166.779 1215.74 130.007C1249.61 118.033 1283.26 105.373 1317.46 93.3756C1387.76 68.7413 1459.12 47.1393 1536.96 38.8099C1559.83 36.3562 1582.97 35.2868 1605.88 35.4373C1737.61 36.1533 1865.24 77.0818 1924.64 141.993" stroke="#F83B60" stroke-width="2" stroke-miterlimit="10"/>
<path d="M-517.881 487.287C-429.227 449.007 -319.113 431.245 -215.797 438.544C-112.48 445.842 -17.1077 478.184 45.9235 527.198C107.735 575.297 151.889 643.623 252.424 652.927C337.462 660.741 423.085 617.363 457.25 566.762C491.416 516.161 486.571 460.548 478.831 407.55C471.091 354.552 461.424 299.989 487.288 247.879C513.153 195.77 585.679 146.216 672.607 143.062C744.37 140.499 805.221 168.709 873.785 179.113C985.904 196.107 1107.13 164.106 1211.36 126.308C1315.59 88.5096 1417.73 43.0399 1534.2 29.0318C1690.04 10.3817 1853.85 57.5503 1923.62 141.18" stroke="#FF365C" stroke-width="2" stroke-miterlimit="10"/>
<path d="M-518.376 481.907C-430.554 443.371 -321.464 425.062 -218.566 431.27C-179.11 433.736 -140.679 439.686 -104.6 448.915C-46.8069 463.696 4.62398 486.76 44.1323 516.1C93.028 552.284 131.454 600.558 192.039 625.568C209.638 632.822 229.035 638.04 251.149 640.455C334.5 649.68 417.818 610.065 454.99 562.148C483.116 525.717 490.592 484.759 490.076 444.077C489.985 430.845 489.073 417.573 488.014 404.511C483.699 351.266 477.612 296.345 505.762 244.065C533.335 192.73 605.12 144.019 691.339 140.199C762.557 136.961 823.759 163.531 891.978 173.749C1003.59 190.561 1122.49 162.215 1224.45 128.575C1235.93 124.838 1247.22 120.913 1258.53 117.088C1348.77 86.1998 1438.5 53.0417 1539.92 43.109C1565.56 40.5554 1591.68 39.8728 1617.42 40.6213C1744.68 44.7689 1868.23 87.7975 1928.07 152.076" stroke="#FF3B5C" stroke-width="2" stroke-miterlimit="10"/>
<path d="M-518.82 476.422C-431.836 437.645 -323.778 418.709 -221.286 423.943C-182.025 426.022 -143.627 431.573 -107.588 440.304C-49.8513 454.387 1.99479 476.518 42.2515 505.002C92.0422 540.119 131.517 587.214 191.639 612.558C208.913 619.835 228.001 625.277 249.659 628.125C331.489 638.764 412.658 602.914 452.334 557.625C482.898 523.023 493.976 482.106 496.224 441.225C496.946 427.935 497.01 414.591 496.764 401.471C496.019 347.868 493.51 292.688 523.782 240.356C552.898 189.912 624.098 142.045 709.431 137.387C780.104 133.486 841.494 158.338 909.542 168.467C1020.48 185.027 1137.24 160.448 1237.08 130.972C1248.26 127.657 1259.44 124.342 1270.45 120.939C1358.55 93.9165 1446 64.835 1545.33 57.36C1570.53 55.4399 1596.03 55.2031 1621.32 56.4854C1746.62 62.5803 1870.56 104.377 1932.26 163.306" stroke="#FF415D" stroke-width="2" stroke-miterlimit="10"/>
<path d="M-519.093 471.028C-433.1 432.122 -325.912 412.546 -223.835 416.708C-184.613 418.288 -146.41 423.452 -110.404 431.783C-52.5691 445.057 -0.46244 466.367 40.5427 493.995C91.2283 528.044 131.915 573.948 191.411 599.639C208.53 607.027 227.301 612.592 248.496 615.775C328.796 627.727 407.655 595.655 450.175 553.169C483.006 520.309 498.011 479.41 502.878 438.54C504.576 425.179 505.452 411.777 506.02 398.597C508.681 344.649 509.912 289.198 542.298 236.713C572.959 187.161 643.565 140.039 728.191 134.73C798.482 130.155 860.068 153.388 927.783 163.441C1038.05 179.848 1152.65 158.935 1250.23 133.735C1261.12 130.942 1272.01 128.05 1282.89 125.057C1369.01 101.788 1454.01 76.8949 1551.1 71.9891C1575.69 70.7142 1600.74 71.0112 1625.57 72.6279C1748.74 80.682 1873.23 121.235 1936.79 174.815" stroke="#FF465D" stroke-width="2" stroke-miterlimit="10"/>
</g>
<g opacity="0.14">
<path d="M-519.531 465.644C-434.376 426.498 -328.221 406.295 -226.541 409.583C-187.514 410.776 -149.344 415.541 -113.223 423.262C-55.2905 435.727 -2.92322 456.216 38.8304 482.987C90.4109 515.969 132.31 560.682 191.179 586.718C207.973 594.131 226.435 599.918 247.166 603.435C325.783 616.813 402.81 588.384 447.679 548.637C483.095 517.395 501.718 476.736 509.186 435.678C511.697 422.258 513.395 408.897 514.93 395.548C521.169 341.341 525.807 285.544 560.478 232.994C592.683 184.333 662.703 138.056 746.443 131.908C816.198 126.77 877.972 148.284 945.508 158.15C1055.26 174.293 1167.56 157.157 1263.01 136.122C1273.62 133.752 1284.22 131.381 1294.81 128.911C1378.79 109.507 1461.5 88.6903 1556.5 86.2422C1580.66 85.6008 1605.1 86.4433 1629.64 88.4823C1750.67 98.4956 1875.72 137.806 1940.97 186.048" stroke="#FF4C5E" stroke-width="2" stroke-miterlimit="10"/>
<path d="M-519.967 460.261C-435.649 420.874 -330.518 400.143 -229.252 402.358C-190.42 403.164 -152.29 407.43 -116.202 414.753C-58.163 426.508 -5.38057 446.064 36.9589 471.99C89.6049 503.993 132.545 547.427 190.788 573.81C207.428 581.333 225.58 587.344 245.686 591.207C322.773 605.899 397.815 581.223 445.202 544.303C483.049 514.792 505.274 474.173 515.677 433.004C519.001 419.525 521.674 406.094 524.185 392.674C533.831 338.12 542.047 282.065 579.157 229.339C612.736 181.482 682.332 136.038 765.366 129.239C834.739 123.426 896.701 143.222 963.912 153.111C1073 169.102 1183.13 155.532 1276.31 138.773C1286.79 136.913 1297.11 134.964 1307.42 133.016C1389.41 117.367 1469.68 100.738 1562.59 100.747C1586.14 100.751 1610.13 102.028 1634.21 104.501C1753.11 116.473 1878.71 154.54 1945.82 197.432" stroke="#FF515E" stroke-width="2" stroke-miterlimit="10"/>
<path d="M-520.403 454.877C-436.922 415.25 -332.661 393.88 -232.126 395.144C-193.49 395.563 -155.4 399.331 -119.181 406.243C-61.2072 417.2 -7.99355 436.023 35.0863 460.993C88.6272 491.928 132.78 534.172 190.396 560.901C206.873 568.436 224.554 574.681 244.358 578.867C319.925 594.972 392.972 573.951 442.871 539.758C483.465 511.854 509.145 471.487 522.15 430.13C526.458 416.68 529.937 403.09 533.261 389.612C546.484 334.8 558.107 278.398 597.502 225.608C632.625 178.642 701.635 134.042 783.791 126.504C852.62 120.029 914.778 138.206 981.81 147.907C1090.22 163.646 1198.2 153.842 1289.27 141.247C1299.46 139.809 1309.49 138.383 1319.67 136.845C1399.52 125.061 1477.5 112.509 1568.16 114.988C1591.11 115.637 1614.65 117.447 1638.27 120.255C1755.04 134.186 1881.18 170.91 1949.99 208.564" stroke="#FF575F" stroke-width="2" stroke-miterlimit="10"/>
<path d="M-520.685 449.38C-438.204 409.524 -334.804 387.615 -234.684 387.806C-196.242 387.837 -158.184 391.207 -122.014 397.52C-63.9423 407.668 -10.468 425.67 33.5229 449.772C87.9587 479.639 133.161 520.704 190.314 547.767C206.473 555.426 224 561.782 243.178 566.315C317.06 583.845 388.61 566.542 440.532 535.112C483.881 508.914 513.009 468.699 528.624 427.254C533.745 413.746 538.199 400.085 542.336 386.548C559.129 331.378 574.004 274.742 615.838 221.775C652.335 175.612 720.931 131.946 802.363 123.557C870.656 116.519 933.001 132.977 999.855 142.491C1107.76 157.966 1213.42 151.939 1302.22 143.521C1312.12 142.605 1322.01 141.589 1331.75 140.585C1409.45 132.567 1485.15 124.091 1573.72 129.127C1596.23 130.41 1619.16 132.766 1642.32 136.007C1757.13 151.886 1883.66 187.378 1954.33 219.684" stroke="#FF5C5F" stroke-width="2" stroke-miterlimit="10"/>
<path d="M-521.119 443.996C-439.467 403.999 -337.108 381.362 -237.393 380.58C-198.984 380.213 -161.13 383.095 -124.992 389.01C-66.8138 398.448 -13.0871 415.529 31.6522 438.775C86.983 467.575 133.397 507.448 189.924 534.858C205.921 542.528 222.976 549.119 241.861 554.074C314.222 573.018 384.111 559.446 438.211 530.666C484.315 506.175 516.72 466.024 535.107 424.479C541.204 410.901 546.472 397.181 551.422 383.585C571.63 328.169 589.911 271.186 634.193 218.143C671.909 172.895 740.244 130.049 820.961 120.91C888.872 113.197 951.405 127.937 1017.93 137.474C1125.17 152.797 1228.68 150.436 1315.36 146.282C1324.97 145.788 1334.58 145.295 1344.2 144.801C1419.92 140.636 1493.17 136.249 1579.5 143.854C1601.41 145.782 1623.89 148.672 1646.75 152.236C1759.42 170.074 1886.51 204.322 1958.87 231.29" stroke="#FF6160" stroke-width="2" stroke-miterlimit="10"/>
<path d="M-521.557 438.613C-440.742 398.376 -339.407 375.211 -240.107 373.355C-201.892 372.601 -164.07 375.085 -127.81 380.489C-69.6968 389.13 -15.5469 405.378 29.9409 427.767C86.1665 455.499 133.63 494.194 189.693 521.938C205.373 529.731 222.273 536.434 240.532 541.735C311.372 562.093 379.764 552.239 435.724 526.233C484.746 503.437 520.435 463.45 541.425 421.717C548.335 408.08 554.423 394.402 560.341 380.635C584.119 324.861 605.645 267.544 652.374 214.424C691.463 169.979 759.383 128.066 839.215 118.089C906.581 109.713 969.31 122.834 1035.66 132.183C1142.22 147.254 1243.58 148.659 1328.15 148.669C1337.64 148.686 1346.96 148.615 1356.27 148.543C1429.85 148.144 1500.82 147.933 1585.06 157.996C1606.37 160.569 1628.39 163.893 1650.8 167.891C1761.34 187.689 1888.82 220.705 1963.19 242.312" stroke="#FF6760" stroke-width="2" stroke-miterlimit="10"/>
<path d="M-521.992 433.228C-442.016 392.751 -341.712 368.958 -242.818 366.129C-204.799 364.988 -167.18 366.984 -130.797 371.879C-72.5861 379.71 -18.1755 395.137 28.0688 416.769C85.352 443.422 133.865 480.938 189.302 509.028C204.819 516.833 221.256 523.87 239.205 529.394C308.354 551.077 375.426 545.13 433.393 521.688C485.342 500.685 524.299 460.664 547.907 418.942C555.63 405.246 562.694 391.497 569.425 377.672C596.618 321.651 621.551 263.987 670.727 210.791C711.028 167.162 778.687 126.07 857.811 115.441C924.641 106.503 987.721 117.893 1053.73 127.067C1159.79 141.973 1258.66 146.968 1341.12 151.242C1350.31 151.681 1359.35 152.132 1368.38 152.583C1439.98 156.037 1508.5 159.914 1590.64 172.435C1611.51 175.642 1632.93 179.511 1654.88 183.943C1763.29 205.7 1891.31 237.373 1967.39 253.742" stroke="#FF6C61" stroke-width="2" stroke-miterlimit="10"/>
<path d="M-522.268 427.832C-443.291 387.126 -343.85 362.794 -245.37 358.891C-207.545 357.363 -169.966 358.861 -133.617 363.357C-75.2992 370.478 -20.4654 385.072 26.3566 405.761C84.5347 431.346 134.26 467.671 189.062 496.007C204.263 503.936 220.545 511.084 237.876 517.053C305.503 540.151 371.248 538.01 430.905 517.254C485.951 498.134 527.852 458.1 554.224 416.179C562.931 402.512 570.8 388.605 578.344 374.721C609.106 318.342 637.283 260.344 689.069 207.059C730.581 164.245 797.988 124.074 876.235 112.706C942.683 103.093 1005.79 112.777 1071.63 121.963C1177.01 136.617 1273.74 145.377 1354.08 153.816C1362.99 154.777 1371.9 155.639 1380.64 156.611C1450.09 163.831 1516.34 171.885 1596.23 186.875C1616.5 190.727 1637.46 195.13 1659.11 199.885C1765.56 223.589 1893.97 254.03 1971.9 264.951" stroke="#FF7261" stroke-width="2" stroke-miterlimit="10"/>
<path d="M-522.702 422.447C-444.554 381.6 -346.153 356.541 -248.079 351.665C-210.45 349.749 -172.903 350.849 -136.439 354.734C-78.0236 361.046 -22.9292 374.819 24.6413 394.651C83.7143 419.169 134.651 454.303 188.828 482.985C203.865 490.926 219.676 498.309 236.544 504.612C302.658 529.223 367.084 530.989 428.569 512.608C486.711 495.371 531.71 455.213 560.855 413.192C570.374 399.467 579.219 385.489 587.576 371.547C621.753 314.92 653.175 256.588 707.571 203.215C750.294 161.216 817.44 121.866 894.972 109.748C960.876 99.4722 1024.18 107.537 1089.84 116.535C1194.56 131.037 1289.13 143.463 1367.19 156.078C1375.97 157.45 1384.43 158.845 1393.04 160.228C1460.35 171.314 1524.31 183.444 1602.12 200.992C1621.95 205.477 1642.3 210.425 1663.5 215.614C1767.81 241.278 1896.78 270.475 1976.56 276.046" stroke="#FF7762" stroke-width="2" stroke-miterlimit="10"/>
<path d="M-523.149 416.964C-445.839 375.877 -348.462 350.291 -250.802 344.341C-213.367 342.038 -175.861 342.639 -139.429 346.126C-81.0787 351.64 -25.5612 364.58 22.7578 383.556C82.7337 407.106 134.875 440.95 188.425 469.978C203.308 478.03 218.801 485.536 235.205 492.174C299.636 518.21 362.905 523.87 426.072 508.076C487.311 492.721 535.416 452.54 567.171 410.431C577.666 396.635 587.324 382.598 596.494 368.597C634.241 311.613 668.744 252.957 725.75 199.497C769.684 158.313 836.578 119.884 913.232 107.027C978.754 96.0764 1042.25 102.523 1107.42 111.456C1211.62 125.693 1303.88 141.897 1379.84 158.777C1388.33 160.67 1396.66 162.476 1404.83 164.393C1470.15 179.233 1531.5 195.562 1607.22 215.568C1626.45 220.698 1646.35 226.081 1667.09 231.704C1769.27 259.326 1898.79 287.281 1980.27 287.514" stroke="#FF7D62" stroke-width="2" stroke-miterlimit="10"/>
<path d="M-523.42 411.568C-446.947 370.241 -350.602 344.027 -253.348 337.103C-215.946 334.402 -178.635 334.616 -142.244 337.604C-83.7868 342.408 -28.0168 354.427 21.0506 372.547C82.0841 395.017 135.275 427.682 188.198 457.057C202.756 465.132 217.949 472.961 233.889 479.933C296.798 507.383 358.765 517.149 423.752 503.63C487.942 490.369 539.128 449.865 573.655 407.656C584.964 393.801 595.443 379.806 605.744 365.622C646.905 308.392 684.636 249.202 744.268 195.852C789.414 155.484 856.047 117.876 931.985 104.268C996.963 92.6551 1060.66 97.4826 1125.65 106.228C1229.18 120.214 1319.28 140.083 1392.96 161.239C1401.17 163.555 1409.21 165.982 1417.25 168.31C1480.44 187.015 1539.5 207.421 1613.13 229.884C1631.75 235.66 1651.21 241.576 1671.48 247.534C1771.53 277.115 1901.6 303.727 1984.94 298.71" stroke="#FF8263" stroke-width="2" stroke-miterlimit="10"/>
<path d="M-523.856 406.183C-448.383 364.627 -352.9 337.873 -256.06 329.876C-218.853 326.788 -181.582 326.503 -145.069 328.981C-86.5138 332.976 -30.4832 344.174 19.3326 361.437C81.261 382.84 135.664 414.314 187.961 444.034C202.364 452.221 217.24 460.173 232.717 467.48C293.942 496.355 354.606 510.227 421.583 499.072C488.886 487.892 543.162 447.165 580.291 404.768C592.413 390.855 603.868 376.789 614.981 362.547C659.712 304.958 700.525 245.446 762.768 192.008C808.953 152.366 875.496 115.668 950.728 101.409C1015.16 89.1331 1079.2 92.2303 1143.86 100.9C1246.89 114.721 1334.67 138.268 1406.24 163.588C1414.16 166.426 1422.07 169.264 1429.66 172.026C1490.86 194.585 1547.48 219.079 1619.02 244C1637.2 250.409 1656.05 256.871 1676.03 263.251C1774.11 294.78 1904.57 320.16 1989.6 309.806" stroke="#FF8763" stroke-width="2" stroke-miterlimit="10"/>
<path d="M-524.292 400.798C-449.656 359.002 -355.205 331.621 -258.771 322.651C-221.759 319.175 -184.521 318.492 -148.048 320.471C-89.3948 323.657 -32.9409 334.021 17.4607 350.44C80.284 370.775 135.899 401.059 187.57 431.125C201.811 439.324 216.214 447.51 231.228 455.151C290.769 485.452 350.138 503.53 418.928 494.55C489.181 485.464 546.709 444.502 586.44 401.917C599.546 388.033 611.806 373.809 623.732 359.508C671.87 301.573 715.757 241.638 780.788 188.3C828.022 149.485 894.467 113.596 968.829 98.6977C1032.72 85.7593 1096.96 87.2377 1161.44 95.8189C1263.79 109.388 1349.43 136.701 1418.72 166.197C1426.51 169.446 1433.98 172.818 1441.44 176.09C1500.5 202.414 1554.83 230.985 1624.13 258.575C1641.7 265.53 1660.1 272.526 1679.62 279.339C1775.56 312.728 1906.59 336.963 1993.48 321.261" stroke="#FF8D64" stroke-width="2" stroke-miterlimit="10"/>
<path d="M-524.728 395.414C-450.922 353.477 -357.503 325.469 -261.484 315.425C-224.666 311.562 -187.468 310.38 -150.865 311.949C-92.2688 314.437 -35.3917 323.969 15.7503 339.431C79.4685 358.699 136.295 387.792 187.34 418.204C201.264 426.526 215.358 434.936 230.071 442.899C288.091 474.614 345.994 496.809 416.775 490.192C490.149 483.289 550.588 441.916 593.1 399.33C607.019 385.387 620.254 371.093 632.994 356.733C684.71 298.54 731.67 238.182 799.311 184.756C847.747 146.657 913.94 111.688 987.587 96.0393C1051.09 82.4265 1115.37 82.2977 1179.68 90.6912C1281.36 104.108 1364.84 135.087 1432.01 168.748C1439.51 172.519 1446.85 176.301 1454.03 180.095C1510.95 210.285 1562.99 242.932 1630.2 272.98C1647.34 280.568 1665.28 288.098 1684.19 295.357C1778 330.705 1909.58 353.697 1998.16 332.657" stroke="#FF9264" stroke-width="2" stroke-miterlimit="10"/>
<path d="M-525.003 390.019C-452.034 347.842 -359.648 319.206 -264.197 308.2C-227.574 303.95 -190.417 302.27 -153.854 303.34C-95.1597 305.018 -38.022 313.729 13.8685 328.335C78.4816 346.535 136.35 374.349 186.939 405.196C200.7 413.529 214.485 422.162 228.572 430.472C284.916 463.711 341.518 488.006 414.117 485.671C490.302 483.178 554.134 439.253 599.247 396.48C614.142 382.467 628.028 368.125 641.743 353.695C696.865 295.155 746.891 234.276 817.491 181.036C866.969 143.665 933.079 109.705 1005.85 93.3171C1068.81 79.0416 1133.43 77.1826 1197.42 85.5996C1298.59 98.7525 1379.76 133.509 1444.65 171.346C1451.86 175.539 1458.92 179.843 1465.8 184.06C1520.73 218.003 1570.33 254.839 1635.29 287.356C1651.82 295.589 1669.32 303.653 1687.93 311.235C1779.61 348.542 1911.74 370.29 2002.18 343.901" stroke="#FF9865" stroke-width="2" stroke-miterlimit="10"/>
<path d="M-525.447 384.534C-453.478 342.128 -361.954 312.952 -266.917 300.873C-230.489 296.237 -193.364 294.157 -156.841 294.729C-98.0412 295.697 -40.6511 303.487 11.9878 317.237C77.6584 334.358 136.576 360.993 186.539 392.186C199.983 400.642 213.451 409.398 227.074 418.042C281.735 452.707 336.886 483.325 411.615 481.037C490.752 478.631 557.826 436.378 605.713 393.504C621.42 379.432 636.282 365.02 650.81 350.532C709.51 291.733 762.439 230.343 835.828 177.203C886.346 140.559 952.375 107.608 1024.42 90.3698C1087 75.4197 1151.66 71.9537 1215.46 80.183C1315.97 93.1835 1394.97 131.506 1457.77 173.707C1464.69 178.422 1471.62 183.137 1478.21 187.876C1531 225.685 1578.32 266.597 1641.19 301.571C1657.12 310.45 1674.17 319.047 1692.31 326.964C1781.86 366.23 1914.37 386.647 2006.68 355.008" stroke="#FF9D65" stroke-width="2" stroke-miterlimit="10"/>
<path d="M-525.885 379.15C-454.753 336.503 -364.261 306.7 -269.63 293.647C-233.235 288.612 -196.312 286.046 -159.667 286.107C-100.932 286.278 -43.1186 293.235 10.2687 306.128C76.8343 322.181 136.964 347.626 186.301 379.165C199.582 387.633 212.587 396.723 225.908 405.69C278.894 441.88 332.579 476.615 409.291 476.591C491.232 476.49 561.542 433.803 612.201 390.829C628.722 376.698 644.567 362.316 659.901 347.669C722.008 288.524 778.002 226.611 854.18 173.571C905.738 137.654 971.677 105.612 1042.85 87.7346C1104.89 72.1219 1169.9 67.0252 1233.37 75.0786C1333.2 87.827 1410.05 129.915 1470.57 176.293C1477.36 181.418 1483.84 186.667 1490.32 191.916C1541.12 233.479 1586 278.579 1646.77 316.011C1662.26 325.523 1678.7 334.566 1696.4 343.016C1783.97 384.23 1916.88 403.416 2011.04 366.427" stroke="#FFA366" stroke-width="2" stroke-miterlimit="10"/>
<path d="M-526.158 373.755C-428.894 314.478 -294.705 278.912 -162.484 277.587C-30.271 276.162 98.3309 308.896 186.072 366.245C251.714 409.244 308.452 469.534 406.961 472.047C491.543 474.263 565.407 431.018 618.676 387.956C706.782 316.604 774.006 235.828 872.525 169.841C971.207 103.843 1115.58 52.6968 1251.43 69.8645C1361.82 83.7557 1441.53 138.876 1502.58 195.846C1563.63 252.816 1615.18 315.687 1700.63 358.959C1786.09 402.232 1919.53 420.074 2015.55 377.736" stroke="#FFA866" stroke-width="2" stroke-miterlimit="10"/>
</g>
</svg>
