<svg width="365" height="116" viewBox="0 0 365 116" fill="none" xmlns="http://www.w3.org/2000/svg">
<path d="M2.39833 115.121C3.7229 115.121 4.79667 114.047 4.79667 112.723C4.79667 111.398 3.7229 110.324 2.39833 110.324C1.07377 110.324 0 111.398 0 112.723C0 114.047 1.07377 115.121 2.39833 115.121Z" fill="#695C4C"/>
<path d="M2.39833 87.5389C3.7229 87.5389 4.79667 86.4651 4.79667 85.1405C4.79667 83.816 3.7229 82.7422 2.39833 82.7422C1.07377 82.7422 0 83.816 0 85.1405C0 86.4651 1.07377 87.5389 2.39833 87.5389Z" fill="#695C4C"/>
<path d="M2.39833 59.9588C3.7229 59.9588 4.79667 58.885 4.79667 57.5604C4.79667 56.2359 3.7229 55.1621 2.39833 55.1621C1.07377 55.1621 0 56.2359 0 57.5604C0 58.885 1.07377 59.9588 2.39833 59.9588Z" fill="#695C4C"/>
<path d="M2.39833 32.3767C3.7229 32.3767 4.79667 31.303 4.79667 29.9784C4.79667 28.6538 3.7229 27.5801 2.39833 27.5801C1.07377 27.5801 0 28.6538 0 29.9784C0 31.303 1.07377 32.3767 2.39833 32.3767Z" fill="#695C4C"/>
<path d="M2.39833 4.79667C3.7229 4.79667 4.79667 3.7229 4.79667 2.39833C4.79667 1.07377 3.7229 0 2.39833 0C1.07377 0 0 1.07377 0 2.39833C0 3.7229 1.07377 4.79667 2.39833 4.79667Z" fill="#695C4C"/>
<path d="M32.3778 115.121C33.7024 115.121 34.7762 114.047 34.7762 112.723C34.7762 111.398 33.7024 110.324 32.3778 110.324C31.0533 110.324 29.9795 111.398 29.9795 112.723C29.9795 114.047 31.0533 115.121 32.3778 115.121Z" fill="#695C4C"/>
<path d="M32.3778 87.5389C33.7024 87.5389 34.7762 86.4651 34.7762 85.1405C34.7762 83.816 33.7024 82.7422 32.3778 82.7422C31.0533 82.7422 29.9795 83.816 29.9795 85.1405C29.9795 86.4651 31.0533 87.5389 32.3778 87.5389Z" fill="#695C4C"/>
<path d="M32.3778 59.9588C33.7024 59.9588 34.7762 58.885 34.7762 57.5604C34.7762 56.2359 33.7024 55.1621 32.3778 55.1621C31.0533 55.1621 29.9795 56.2359 29.9795 57.5604C29.9795 58.885 31.0533 59.9588 32.3778 59.9588Z" fill="#695C4C"/>
<path d="M32.3778 32.3767C33.7024 32.3767 34.7762 31.303 34.7762 29.9784C34.7762 28.6538 33.7024 27.5801 32.3778 27.5801C31.0533 27.5801 29.9795 28.6538 29.9795 29.9784C29.9795 31.303 31.0533 32.3767 32.3778 32.3767Z" fill="#695C4C"/>
<path d="M32.3778 4.79667C33.7024 4.79667 34.7762 3.7229 34.7762 2.39833C34.7762 1.07377 33.7024 0 32.3778 0C31.0533 0 29.9795 1.07377 29.9795 2.39833C29.9795 3.7229 31.0533 4.79667 32.3778 4.79667Z" fill="#695C4C"/>
<path d="M62.3573 115.121C63.6819 115.121 64.7557 114.047 64.7557 112.723C64.7557 111.398 63.6819 110.324 62.3573 110.324C61.0328 110.324 59.959 111.398 59.959 112.723C59.959 114.047 61.0328 115.121 62.3573 115.121Z" fill="#695C4C"/>
<path d="M62.3573 87.5389C63.6819 87.5389 64.7557 86.4651 64.7557 85.1405C64.7557 83.816 63.6819 82.7422 62.3573 82.7422C61.0328 82.7422 59.959 83.816 59.959 85.1405C59.959 86.4651 61.0328 87.5389 62.3573 87.5389Z" fill="#695C4C"/>
<path d="M62.3573 59.9588C63.6819 59.9588 64.7557 58.885 64.7557 57.5604C64.7557 56.2359 63.6819 55.1621 62.3573 55.1621C61.0328 55.1621 59.959 56.2359 59.959 57.5604C59.959 58.885 61.0328 59.9588 62.3573 59.9588Z" fill="#695C4C"/>
<path d="M62.3573 32.3767C63.6819 32.3767 64.7557 31.303 64.7557 29.9784C64.7557 28.6538 63.6819 27.5801 62.3573 27.5801C61.0328 27.5801 59.959 28.6538 59.959 29.9784C59.959 31.303 61.0328 32.3767 62.3573 32.3767Z" fill="#695C4C"/>
<path d="M62.3573 4.79667C63.6819 4.79667 64.7557 3.7229 64.7557 2.39833C64.7557 1.07377 63.6819 0 62.3573 0C61.0328 0 59.959 1.07377 59.959 2.39833C59.959 3.7229 61.0328 4.79667 62.3573 4.79667Z" fill="#695C4C"/>
<path d="M92.3358 115.121C93.6604 115.121 94.7342 114.047 94.7342 112.723C94.7342 111.398 93.6604 110.324 92.3358 110.324C91.0113 110.324 89.9375 111.398 89.9375 112.723C89.9375 114.047 91.0113 115.121 92.3358 115.121Z" fill="#695C4C"/>
<path d="M92.3358 87.5389C93.6604 87.5389 94.7342 86.4651 94.7342 85.1405C94.7342 83.816 93.6604 82.7422 92.3358 82.7422C91.0113 82.7422 89.9375 83.816 89.9375 85.1405C89.9375 86.4651 91.0113 87.5389 92.3358 87.5389Z" fill="#695C4C"/>
<path d="M92.3358 59.9588C93.6604 59.9588 94.7342 58.885 94.7342 57.5604C94.7342 56.2359 93.6604 55.1621 92.3358 55.1621C91.0113 55.1621 89.9375 56.2359 89.9375 57.5604C89.9375 58.885 91.0113 59.9588 92.3358 59.9588Z" fill="#695C4C"/>
<path d="M92.3358 32.3767C93.6604 32.3767 94.7342 31.303 94.7342 29.9784C94.7342 28.6538 93.6604 27.5801 92.3358 27.5801C91.0113 27.5801 89.9375 28.6538 89.9375 29.9784C89.9375 31.303 91.0113 32.3767 92.3358 32.3767Z" fill="#695C4C"/>
<path d="M92.3358 4.79667C93.6604 4.79667 94.7342 3.7229 94.7342 2.39833C94.7342 1.07377 93.6604 0 92.3358 0C91.0113 0 89.9375 1.07377 89.9375 2.39833C89.9375 3.7229 91.0113 4.79667 92.3358 4.79667Z" fill="#695C4C"/>
<path d="M122.315 115.121C123.64 115.121 124.714 114.047 124.714 112.723C124.714 111.398 123.64 110.324 122.315 110.324C120.991 110.324 119.917 111.398 119.917 112.723C119.917 114.047 120.991 115.121 122.315 115.121Z" fill="#695C4C"/>
<path d="M122.315 87.5389C123.64 87.5389 124.714 86.4651 124.714 85.1405C124.714 83.816 123.64 82.7422 122.315 82.7422C120.991 82.7422 119.917 83.816 119.917 85.1405C119.917 86.4651 120.991 87.5389 122.315 87.5389Z" fill="#695C4C"/>
<path d="M122.315 59.9588C123.64 59.9588 124.714 58.885 124.714 57.5604C124.714 56.2359 123.64 55.1621 122.315 55.1621C120.991 55.1621 119.917 56.2359 119.917 57.5604C119.917 58.885 120.991 59.9588 122.315 59.9588Z" fill="#695C4C"/>
<path d="M122.315 32.3767C123.64 32.3767 124.714 31.303 124.714 29.9784C124.714 28.6538 123.64 27.5801 122.315 27.5801C120.991 27.5801 119.917 28.6538 119.917 29.9784C119.917 31.303 120.991 32.3767 122.315 32.3767Z" fill="#695C4C"/>
<path d="M122.315 4.79667C123.64 4.79667 124.714 3.7229 124.714 2.39833C124.714 1.07377 123.64 0 122.315 0C120.991 0 119.917 1.07377 119.917 2.39833C119.917 3.7229 120.991 4.79667 122.315 4.79667Z" fill="#695C4C"/>
<path d="M152.295 115.121C153.619 115.121 154.693 114.047 154.693 112.723C154.693 111.398 153.619 110.324 152.295 110.324C150.97 110.324 149.896 111.398 149.896 112.723C149.896 114.047 150.97 115.121 152.295 115.121Z" fill="#695C4C"/>
<path d="M152.295 87.5389C153.619 87.5389 154.693 86.4651 154.693 85.1405C154.693 83.816 153.619 82.7422 152.295 82.7422C150.97 82.7422 149.896 83.816 149.896 85.1405C149.896 86.4651 150.97 87.5389 152.295 87.5389Z" fill="#695C4C"/>
<path d="M152.295 59.9588C153.619 59.9588 154.693 58.885 154.693 57.5604C154.693 56.2359 153.619 55.1621 152.295 55.1621C150.97 55.1621 149.896 56.2359 149.896 57.5604C149.896 58.885 150.97 59.9588 152.295 59.9588Z" fill="#695C4C"/>
<path d="M152.295 32.3767C153.619 32.3767 154.693 31.303 154.693 29.9784C154.693 28.6538 153.619 27.5801 152.295 27.5801C150.97 27.5801 149.896 28.6538 149.896 29.9784C149.896 31.303 150.97 32.3767 152.295 32.3767Z" fill="#695C4C"/>
<path d="M152.295 4.79667C153.619 4.79667 154.693 3.7229 154.693 2.39833C154.693 1.07377 153.619 0 152.295 0C150.97 0 149.896 1.07377 149.896 2.39833C149.896 3.7229 150.97 4.79667 152.295 4.79667Z" fill="#695C4C"/>
<path d="M182.273 115.121C183.598 115.121 184.672 114.047 184.672 112.723C184.672 111.398 183.598 110.324 182.273 110.324C180.949 110.324 179.875 111.398 179.875 112.723C179.875 114.047 180.949 115.121 182.273 115.121Z" fill="#695C4C"/>
<path d="M182.273 87.5389C183.598 87.5389 184.672 86.4651 184.672 85.1405C184.672 83.816 183.598 82.7422 182.273 82.7422C180.949 82.7422 179.875 83.816 179.875 85.1405C179.875 86.4651 180.949 87.5389 182.273 87.5389Z" fill="#695C4C"/>
<path d="M182.273 59.9588C183.598 59.9588 184.672 58.885 184.672 57.5604C184.672 56.2359 183.598 55.1621 182.273 55.1621C180.949 55.1621 179.875 56.2359 179.875 57.5604C179.875 58.885 180.949 59.9588 182.273 59.9588Z" fill="#695C4C"/>
<path d="M182.273 32.3767C183.598 32.3767 184.672 31.303 184.672 29.9784C184.672 28.6538 183.598 27.5801 182.273 27.5801C180.949 27.5801 179.875 28.6538 179.875 29.9784C179.875 31.303 180.949 32.3767 182.273 32.3767Z" fill="#695C4C"/>
<path d="M182.273 4.79667C183.598 4.79667 184.672 3.7229 184.672 2.39833C184.672 1.07377 183.598 0 182.273 0C180.949 0 179.875 1.07377 179.875 2.39833C179.875 3.7229 180.949 4.79667 182.273 4.79667Z" fill="#695C4C"/>
<path d="M212.253 115.121C213.577 115.121 214.651 114.047 214.651 112.723C214.651 111.398 213.577 110.324 212.253 110.324C210.928 110.324 209.854 111.398 209.854 112.723C209.854 114.047 210.928 115.121 212.253 115.121Z" fill="#695C4C"/>
<path d="M212.253 87.5389C213.577 87.5389 214.651 86.4651 214.651 85.1405C214.651 83.816 213.577 82.7422 212.253 82.7422C210.928 82.7422 209.854 83.816 209.854 85.1405C209.854 86.4651 210.928 87.5389 212.253 87.5389Z" fill="#695C4C"/>
<path d="M212.253 59.9588C213.577 59.9588 214.651 58.885 214.651 57.5604C214.651 56.2359 213.577 55.1621 212.253 55.1621C210.928 55.1621 209.854 56.2359 209.854 57.5604C209.854 58.885 210.928 59.9588 212.253 59.9588Z" fill="#695C4C"/>
<path d="M212.253 32.3767C213.577 32.3767 214.651 31.303 214.651 29.9784C214.651 28.6538 213.577 27.5801 212.253 27.5801C210.928 27.5801 209.854 28.6538 209.854 29.9784C209.854 31.303 210.928 32.3767 212.253 32.3767Z" fill="#695C4C"/>
<path d="M212.253 4.79667C213.577 4.79667 214.651 3.7229 214.651 2.39833C214.651 1.07377 213.577 0 212.253 0C210.928 0 209.854 1.07377 209.854 2.39833C209.854 3.7229 210.928 4.79667 212.253 4.79667Z" fill="#695C4C"/>
<path d="M242.232 115.121C243.557 115.121 244.631 114.047 244.631 112.723C244.631 111.398 243.557 110.324 242.232 110.324C240.908 110.324 239.834 111.398 239.834 112.723C239.834 114.047 240.908 115.121 242.232 115.121Z" fill="#695C4C"/>
<path d="M242.232 87.5389C243.557 87.5389 244.631 86.4651 244.631 85.1405C244.631 83.816 243.557 82.7422 242.232 82.7422C240.908 82.7422 239.834 83.816 239.834 85.1405C239.834 86.4651 240.908 87.5389 242.232 87.5389Z" fill="#695C4C"/>
<path d="M242.232 59.9588C243.557 59.9588 244.631 58.885 244.631 57.5604C244.631 56.2359 243.557 55.1621 242.232 55.1621C240.908 55.1621 239.834 56.2359 239.834 57.5604C239.834 58.885 240.908 59.9588 242.232 59.9588Z" fill="#695C4C"/>
<path d="M242.232 32.3767C243.557 32.3767 244.631 31.303 244.631 29.9784C244.631 28.6538 243.557 27.5801 242.232 27.5801C240.908 27.5801 239.834 28.6538 239.834 29.9784C239.834 31.303 240.908 32.3767 242.232 32.3767Z" fill="#695C4C"/>
<path d="M242.232 4.79667C243.557 4.79667 244.631 3.7229 244.631 2.39833C244.631 1.07377 243.557 0 242.232 0C240.908 0 239.834 1.07377 239.834 2.39833C239.834 3.7229 240.908 4.79667 242.232 4.79667Z" fill="#695C4C"/>
<path d="M272.211 115.121C273.535 115.121 274.609 114.047 274.609 112.723C274.609 111.398 273.535 110.324 272.211 110.324C270.886 110.324 269.812 111.398 269.812 112.723C269.812 114.047 270.886 115.121 272.211 115.121Z" fill="#695C4C"/>
<path d="M272.211 87.5389C273.535 87.5389 274.609 86.4651 274.609 85.1405C274.609 83.816 273.535 82.7422 272.211 82.7422C270.886 82.7422 269.812 83.816 269.812 85.1405C269.812 86.4651 270.886 87.5389 272.211 87.5389Z" fill="#695C4C"/>
<path d="M272.211 59.9588C273.535 59.9588 274.609 58.885 274.609 57.5604C274.609 56.2359 273.535 55.1621 272.211 55.1621C270.886 55.1621 269.812 56.2359 269.812 57.5604C269.812 58.885 270.886 59.9588 272.211 59.9588Z" fill="#695C4C"/>
<path d="M272.211 32.3767C273.535 32.3767 274.609 31.303 274.609 29.9784C274.609 28.6538 273.535 27.5801 272.211 27.5801C270.886 27.5801 269.812 28.6538 269.812 29.9784C269.812 31.303 270.886 32.3767 272.211 32.3767Z" fill="#695C4C"/>
<path d="M272.211 4.79667C273.535 4.79667 274.609 3.7229 274.609 2.39833C274.609 1.07377 273.535 0 272.211 0C270.886 0 269.812 1.07377 269.812 2.39833C269.812 3.7229 270.886 4.79667 272.211 4.79667Z" fill="#695C4C"/>
<path d="M302.19 115.121C303.515 115.121 304.589 114.047 304.589 112.723C304.589 111.398 303.515 110.324 302.19 110.324C300.866 110.324 299.792 111.398 299.792 112.723C299.792 114.047 300.866 115.121 302.19 115.121Z" fill="#695C4C"/>
<path d="M302.19 87.5389C303.515 87.5389 304.589 86.4651 304.589 85.1405C304.589 83.816 303.515 82.7422 302.19 82.7422C300.866 82.7422 299.792 83.816 299.792 85.1405C299.792 86.4651 300.866 87.5389 302.19 87.5389Z" fill="#695C4C"/>
<path d="M302.19 59.9588C303.515 59.9588 304.589 58.885 304.589 57.5604C304.589 56.2359 303.515 55.1621 302.19 55.1621C300.866 55.1621 299.792 56.2359 299.792 57.5604C299.792 58.885 300.866 59.9588 302.19 59.9588Z" fill="#695C4C"/>
<path d="M302.19 32.3767C303.515 32.3767 304.589 31.303 304.589 29.9784C304.589 28.6538 303.515 27.5801 302.19 27.5801C300.866 27.5801 299.792 28.6538 299.792 29.9784C299.792 31.303 300.866 32.3767 302.19 32.3767Z" fill="#695C4C"/>
<path d="M302.19 4.79667C303.515 4.79667 304.589 3.7229 304.589 2.39833C304.589 1.07377 303.515 0 302.19 0C300.866 0 299.792 1.07377 299.792 2.39833C299.792 3.7229 300.866 4.79667 302.19 4.79667Z" fill="#695C4C"/>
<path d="M332.17 115.121C333.494 115.121 334.568 114.047 334.568 112.723C334.568 111.398 333.494 110.324 332.17 110.324C330.845 110.324 329.771 111.398 329.771 112.723C329.771 114.047 330.845 115.121 332.17 115.121Z" fill="#695C4C"/>
<path d="M332.17 87.5389C333.494 87.5389 334.568 86.4651 334.568 85.1405C334.568 83.816 333.494 82.7422 332.17 82.7422C330.845 82.7422 329.771 83.816 329.771 85.1405C329.771 86.4651 330.845 87.5389 332.17 87.5389Z" fill="#695C4C"/>
<path d="M332.17 59.9588C333.494 59.9588 334.568 58.885 334.568 57.5604C334.568 56.2359 333.494 55.1621 332.17 55.1621C330.845 55.1621 329.771 56.2359 329.771 57.5604C329.771 58.885 330.845 59.9588 332.17 59.9588Z" fill="#695C4C"/>
<path d="M332.17 32.3767C333.494 32.3767 334.568 31.303 334.568 29.9784C334.568 28.6538 333.494 27.5801 332.17 27.5801C330.845 27.5801 329.771 28.6538 329.771 29.9784C329.771 31.303 330.845 32.3767 332.17 32.3767Z" fill="#695C4C"/>
<path d="M332.17 4.79667C333.494 4.79667 334.568 3.7229 334.568 2.39833C334.568 1.07377 333.494 0 332.17 0C330.845 0 329.771 1.07377 329.771 2.39833C329.771 3.7229 330.845 4.79667 332.17 4.79667Z" fill="#695C4C"/>
<path d="M362.148 115.121C363.473 115.121 364.547 114.047 364.547 112.723C364.547 111.398 363.473 110.324 362.148 110.324C360.824 110.324 359.75 111.398 359.75 112.723C359.75 114.047 360.824 115.121 362.148 115.121Z" fill="#695C4C"/>
<path d="M362.148 87.5389C363.473 87.5389 364.547 86.4651 364.547 85.1405C364.547 83.816 363.473 82.7422 362.148 82.7422C360.824 82.7422 359.75 83.816 359.75 85.1405C359.75 86.4651 360.824 87.5389 362.148 87.5389Z" fill="#695C4C"/>
<path d="M362.148 59.9588C363.473 59.9588 364.547 58.885 364.547 57.5604C364.547 56.2359 363.473 55.1621 362.148 55.1621C360.824 55.1621 359.75 56.2359 359.75 57.5604C359.75 58.885 360.824 59.9588 362.148 59.9588Z" fill="#695C4C"/>
<path d="M362.148 32.3767C363.473 32.3767 364.547 31.303 364.547 29.9784C364.547 28.6538 363.473 27.5801 362.148 27.5801C360.824 27.5801 359.75 28.6538 359.75 29.9784C359.75 31.303 360.824 32.3767 362.148 32.3767Z" fill="#695C4C"/>
<path d="M362.148 4.79667C363.473 4.79667 364.547 3.7229 364.547 2.39833C364.547 1.07377 363.473 0 362.148 0C360.824 0 359.75 1.07377 359.75 2.39833C359.75 3.7229 360.824 4.79667 362.148 4.79667Z" fill="#695C4C"/>
</svg>
