<svg width="1920" height="1227" viewBox="0 0 1920 1227" fill="none" xmlns="http://www.w3.org/2000/svg">
<mask id="mask0_2018_9173" style="mask-type:luminance" maskUnits="userSpaceOnUse" x="-350" y="10" width="2351" height="1186">
<path d="M1999.69 70.6354L1850.39 1195.33L-348.526 1135.95L-199.23 11.2587L1999.69 70.6354Z" fill="white" stroke="white"/>
</mask>
<g mask="url(#mask0_2018_9173)">
<path d="M-356.606 1382.12C-287.785 1246.46 -72.2292 1127.01 135.535 1109.15C233.958 1100.7 332.496 1112.08 428.983 1082.35C533.496 1050.03 606.192 977.614 646.293 908.255C686.394 838.896 703.461 768.07 746.987 699.085C790.514 630.099 870.898 559.017 977.473 533.215C1052.12 515.127 1126.72 522.206 1201.71 508.345C1304.64 489.334 1395.27 433.433 1466.31 374.893C1537.17 316.349 1595.96 252.276 1674.35 197.591C1790.03 116.917 1946.69 60.9738 2098.05 46.3658" stroke="#737373" stroke-miterlimit="10"/>
<path d="M-373.089 1353.39C-322.383 1258.23 -200.782 1171.17 -60.4571 1121.07C-1.82848 1100.14 60.343 1085.64 121.872 1080.13C183.401 1074.61 244.985 1076.98 305.341 1073.4C342.245 1071.31 378.533 1066.94 414.452 1057.07C476.228 1040.03 526.815 1009.31 567.435 972.276C594.301 947.814 616.211 920.685 633.32 893.848C655.321 859.123 671.229 823.388 687.666 787.809C703.057 754.594 718.832 721.248 740.755 688.49C759.692 660.296 784.707 631.843 815.17 606.493C858.379 570.652 912.466 541.156 974.783 526.94C1015.94 517.639 1056.84 515.789 1097.92 513.944C1131.63 512.463 1165.15 510.977 1198.84 505.555C1259.86 495.525 1316.47 473.274 1367.64 445.106C1402.59 425.928 1434.98 404.008 1464.34 381.442C1507.36 348.41 1546.1 313.152 1587.48 278.669C1615.47 255.363 1644.36 232.222 1676.53 210.577C1723.2 179.051 1775.64 150.918 1831.3 127.515C1916.28 91.5366 2008.44 66.3063 2098.52 55.3729" stroke="#737373" stroke-miterlimit="10"/>
<path d="M-389.586 1324.81C-336.699 1230.18 -214.822 1143.48 -74.4508 1092.91C-15.7127 1071.68 46.2071 1056.88 108.032 1051.09C169.674 1045.29 231.918 1047.39 292.017 1044.93C328.892 1043.39 364.692 1040.28 399.921 1031.79C460.726 1017.1 510.216 989.563 551.867 954.775C579.293 931.856 602.012 905.711 620.146 879.583C643.505 845.85 660.6 810.962 678.262 775.948C694.694 743.296 711.529 710.373 734.318 678.174C753.953 650.396 779.674 622.361 810.832 597.57C855.078 562.571 909.631 534.188 972.077 520.946C1013.39 512.204 1054.47 510.779 1095.32 509.629C1129 508.708 1162.49 507.783 1196.14 502.917C1257.06 494.282 1313.47 473.977 1364.99 447.765C1400 429.839 1432.78 409.458 1462.56 388.152C1506.28 357.082 1545.96 323.367 1588.33 290.007C1617 267.403 1646.56 244.964 1678.92 223.586C1726.11 192.61 1778.99 164.463 1834.59 140.615C1919.56 104.04 2010.38 77.3407 2099.56 64.399" stroke="#737373" stroke-miterlimit="10"/>
<path d="M-406.07 1296.07C-350.796 1201.85 -228.663 1115.64 -88.4325 1064.59C-29.7878 1043.2 32.2628 1027.96 94.1996 1021.88C156.136 1015.8 218.657 1017.77 278.497 1016.43C315.506 1015.6 350.652 1013.59 385.188 1006.48C444.835 994.141 493.572 969.944 536.293 937.126C564.297 915.611 587.828 890.45 606.97 865.172C631.489 832.567 650.176 798.255 668.7 763.797C686.376 731.571 704.071 699.205 727.746 667.424C748.283 639.928 774.674 612.589 806.343 588.354C851.445 554.191 906.628 527.066 969.221 514.661C1010.49 506.613 1051.74 505.613 1092.59 504.884C1126.26 504.384 1159.71 504.019 1193.11 499.987C1253.73 492.744 1310.32 474.398 1361.8 450.274C1397.04 433.747 1430.03 414.763 1460.41 394.721C1504.67 365.469 1545.45 333.445 1588.83 301.209C1618.15 279.447 1648.23 257.565 1680.95 236.459C1728.88 205.896 1781.98 177.87 1837.32 153.71C1922.11 116.531 2011.96 88.2289 2099.84 73.4054" stroke="#737373" stroke-miterlimit="10"/>
<path d="M-422.557 1267.34C-365.076 1173.51 -242.687 1087.79 -102.232 1036.27C-43.4981 1014.72 18.4812 999.181 80.7129 992.819C142.761 986.452 205.907 988.44 265.341 987.928C302.319 987.657 336.992 986.759 370.834 981.042C429.301 971.192 477.301 950.196 520.892 919.486C549.457 899.516 573.985 875.346 593.99 850.631C619.69 819.014 639.589 785.407 659.506 751.659C678.045 719.99 697.006 687.91 721.532 656.826C742.771 629.745 769.869 602.823 802.216 579.287C848.176 545.96 904.009 519.955 966.748 508.386C1008.18 500.898 1049.4 500.46 1090.05 500.287C1123.69 500.208 1156.91 500.541 1190.26 497.209C1250.76 491.365 1307.16 474.969 1358.99 452.806C1394.27 437.674 1427.66 420.093 1458.64 401.317C1503.61 374.031 1545.15 343.548 1589.53 312.436C1619.35 291.371 1650.11 270.05 1683.35 249.502C1731.99 219.493 1785.36 191.304 1840.44 166.83C1925.24 128.909 2013.9 99.2748 2100.68 82.4296" stroke="#737373" stroke-miterlimit="10"/>
<path d="M-439.042 1238.61C-379.348 1145.17 -256.705 1059.93 -116.21 1007.93C-57.5704 986.213 4.5388 970.236 66.882 963.586C129.225 956.936 192.648 958.79 251.819 959.399C288.749 959.831 322.946 960.048 356.275 955.722C413.761 948.235 460.655 930.435 505.466 901.985C534.429 883.418 559.936 860.379 580.972 836.372C608.02 805.89 629.334 772.851 650.282 739.803C670.052 708.7 689.896 677.034 715.312 646.366C737.436 619.705 765.245 593.198 798.105 570.216C845.108 537.73 901.408 512.839 964.274 502.249C1005.86 495.322 1047.06 495.446 1087.68 495.836C1121.29 496.32 1154.5 497.075 1187.76 494.584C1247.97 490.136 1304.36 475.699 1356.36 455.494C1391.85 441.764 1425.47 425.582 1456.87 408.069C1502.57 382.61 1545.03 353.815 1590.42 323.827C1620.89 303.606 1652.17 282.841 1685.77 262.563C1735.15 232.966 1788.75 204.895 1843.56 180.105C1928.17 141.573 2015.66 110.462 2101.52 91.5953" stroke="#737373" stroke-miterlimit="10"/>
<path d="M-455.728 1210C-393.836 1117.09 -270.922 1032.18 -130.206 979.707C-71.4789 957.822 -9.6079 941.395 53.0108 934.602C115.446 927.805 179.625 928.689 238.274 930.979C275.097 932.539 308.875 933.451 341.505 930.514C397.822 925.389 443.772 910.936 489.659 884.463C519.184 867.446 545.527 845.253 567.577 822.095C595.791 792.742 618.506 760.412 640.524 727.781C661.343 697.238 682.256 665.991 708.728 635.884C731.74 609.642 760.076 583.544 793.616 561.262C841.498 529.471 898.43 505.841 961.423 496.231C1003.15 490.005 1044.38 490.27 1084.93 491.506C1118.51 492.554 1151.7 493.733 1184.73 491.938C1244.84 488.754 1301.01 476.414 1353.34 458.316C1388.87 445.985 1423.07 431.214 1454.89 414.966C1501.14 391.33 1544.71 364.23 1591.08 335.508C1622.21 316.13 1654.02 295.781 1687.98 275.914C1737.91 246.723 1791.93 218.632 1846.48 193.524C1931.1 154.241 2017.41 121.649 2101.96 100.886" stroke="#737373" stroke-miterlimit="10"/>
<path d="M-472.213 1181.26C-408.101 1088.72 -284.752 1004.3 -144.185 951.331C-85.5552 929.275 -23.5564 912.407 39.356 905.329C102.085 898.246 166.63 899.706 224.924 902.412C261.955 904.119 294.811 906.704 326.943 905.024C382.089 902.266 427.091 891.166 474.036 866.814C504.143 851.207 531.102 830.137 554.554 807.699C583.957 779.334 608.074 747.713 631.31 715.785C653.2 685.661 675.349 654.977 702.531 625.279C726.267 599.309 755.295 573.766 789.534 552.043C838.279 521.087 895.862 498.578 958.999 489.808C1000.88 484.145 1042.25 485.12 1082.61 486.775C1116.19 488.106 1149.12 490.128 1182.09 489.036C1241.9 487.253 1298.06 476.88 1350.56 460.745C1386.13 449.815 1420.73 436.454 1453.15 421.476C1500.11 399.813 1544.45 374.258 1591.83 346.662C1623.63 327.987 1655.94 308.335 1690.24 288.879C1740.89 260.239 1795.16 232.121 1849.45 206.693C1934.05 166.796 2019.18 132.717 2102.62 109.916" stroke="#737373" stroke-miterlimit="10"/>
<path d="M-488.696 1152.52C-422.176 1060.36 -298.781 976.532 -158.145 922.793C-99.5953 900.424 -37.5074 883.393 25.5325 875.883C88.5538 868.515 153.376 869.839 211.402 873.673C248.381 876.088 280.775 879.655 312.186 879.511C366.32 879.271 410.206 871.386 458.415 849.021C488.902 834.964 516.883 814.746 541.352 793.158C571.926 765.924 597.468 734.869 621.924 703.644C645.052 674.083 668.089 643.812 696.147 614.668C720.773 589.116 750.495 564.126 785.25 542.957C835.041 512.841 893.276 491.455 956.353 483.663C998.392 478.562 1039.75 479.962 1079.88 482.32C1113.42 484.217 1146.33 486.665 1179.05 486.414C1238.76 485.9 1294.51 477.627 1347.54 463.469C1383.34 453.949 1418.16 441.993 1451.02 428.142C1498.52 408.309 1543.97 384.452 1592.36 357.982C1624.82 340.152 1657.66 320.916 1692.5 301.874C1743.7 273.638 1798.2 245.633 1852.42 219.746C1936.83 179.227 2020.76 143.655 2103.11 118.669" stroke="#737373" stroke-miterlimit="10"/>
<path d="M-505.181 1123.77C-436.432 1031.97 -312.79 948.614 -171.939 894.381C-113.304 871.842 -51.2745 854.36 11.8554 846.699C74.9853 839.038 140.433 840.379 198.044 845.056C234.99 848.039 266.884 852.873 297.589 854.128C350.545 856.266 393.497 851.608 442.748 831.511C473.635 818.865 502.602 799.782 528.129 778.761C559.896 752.516 586.846 722.169 612.544 691.504C636.727 662.501 660.839 632.644 689.774 604.053C715.293 578.917 745.545 554.335 780.982 533.865C831.637 504.583 890.524 484.321 953.744 477.372C995.756 472.83 1037.27 474.802 1077.39 477.587C1110.91 479.911 1143.78 482.927 1176.42 483.524C1236.02 484.423 1291.57 478.118 1344.76 465.932C1380.59 457.818 1415.64 447.27 1449.29 434.698C1497.5 416.844 1543.91 394.542 1593.11 369.194C1626.26 352.068 1659.78 333.533 1694.8 314.755C1746.73 287.068 1801.49 258.89 1855.6 232.823C1940.01 191.54 2022.76 154.469 2103.97 127.573" stroke="#737373" stroke-miterlimit="10"/>
<path d="M-521.667 1095.01C-450.705 1003.72 -326.797 920.674 -185.917 865.936C-127.384 843.219 -65.4128 825.283 -1.80604 817.338C61.6163 809.388 127.34 810.594 184.681 816.404C221.574 820.1 252.985 826.063 283.187 828.583C335.145 833.111 376.771 831.819 427.272 813.858C458.539 802.767 488.532 784.536 515.081 764.366C548.024 739.253 576.403 709.47 603.142 679.501C628.568 651.059 653.572 621.611 683.405 593.43C709.633 568.704 740.6 544.532 776.738 524.621C828.278 496.031 887.799 477.035 950.959 471.067C993.126 467.09 1034.61 469.631 1074.7 472.986C1108.18 475.879 1140.83 479.46 1173.44 480.624C1232.72 482.935 1288.26 478.608 1341.79 468.544C1377.67 461.698 1413.1 452.708 1447.36 441.413C1496.12 425.394 1543.45 404.79 1593.84 380.716C1627.64 364.436 1661.68 346.457 1697.07 327.946C1749.74 300.666 1804.91 272.6 1858.58 246.058C1942.96 204.288 2024.53 165.568 2104.43 136.607" stroke="#737373" stroke-miterlimit="10"/>
<path d="M-538.163 1066.4C-464.965 975.454 -340.811 892.857 -199.719 837.611C-141.101 814.718 -79.2088 796.467 -15.4938 788.226C48.0366 779.98 114.388 781.202 171.31 787.861C208.335 792.276 239.095 799.225 268.57 803.294C319.344 810.214 360.03 812.166 411.781 796.345C443.634 786.675 474.433 769.577 502.025 750.115C536.164 725.992 566.124 697.06 593.943 667.501C620.448 639.473 646.531 610.436 677.226 582.947C704.35 558.635 736.013 535.014 772.671 515.655C825.262 487.903 885.252 470.028 948.535 465.048C990.84 461.779 1032.34 464.606 1072.37 468.675C1105.84 471.998 1138.45 476.151 1170.79 478.163C1229.95 481.894 1285.29 479.546 1338.98 471.461C1375.09 466.032 1410.76 458.315 1445.6 448.441C1495.1 434.266 1543.37 415.363 1594.76 392.417C1629.05 376.978 1663.8 359.418 1699.71 341.461C1753.12 314.585 1808.33 286.62 1861.94 259.607C1946.32 217.061 2026.49 176.962 2105.45 145.938" stroke="#737373" stroke-miterlimit="10"/>
<path d="M-554.65 1037.63C-479.212 947.026 -354.631 864.876 -213.699 809.107C-155.185 786.03 -93.1689 767.324 -29.3473 758.785C34.4743 750.247 101.286 751.338 157.75 759.134C194.721 764.265 224.995 772.351 253.778 777.689C303.363 787.009 342.903 792.352 395.906 778.676C428.158 770.425 459.783 754.319 488.586 735.713C523.905 712.723 555.299 684.354 584.348 655.493C611.915 628.018 639.263 599.397 670.673 572.31C698.712 548.268 730.889 525.193 768.25 506.391C821.709 479.473 882.353 462.725 945.776 458.594C988.237 455.892 1029.89 459.297 1069.71 463.935C1103.13 467.83 1135.71 472.558 1167.8 475.278C1226.68 480.288 1282 479.928 1336.02 473.976C1372.16 469.963 1408.23 463.669 1443.5 455.072C1493.52 442.883 1542.93 425.546 1595.16 403.725C1630.12 388.992 1665.37 372.128 1701.66 354.437C1755.6 328.102 1811.24 300.102 1864.57 272.752C1948.75 229.56 2027.92 187.801 2105.55 154.836" stroke="#737373" stroke-miterlimit="10"/>
<path d="M-571.132 1008.86C-493.47 918.733 -368.626 836.873 -227.672 780.574C-169.075 757.315 -107.121 738.144 -43.0074 729.311C20.9211 720.473 88.1753 721.575 144.384 730.374C181.32 736.083 211.087 745.453 239.158 752.208C287.718 764.084 325.962 772.541 380.386 761.161C413.04 754.334 445.658 739.368 475.527 721.329C512.047 699.33 544.861 671.662 574.956 643.493C603.772 616.575 632.018 588.356 664.496 561.821C693.249 538.185 726.329 515.521 764.191 497.413C818.705 471.331 879.818 455.707 943.363 452.569C985.98 450.436 1027.6 454.416 1067.2 459.625C1100.61 463.954 1133.14 469.258 1165.16 472.836C1223.91 479.276 1279.03 480.908 1333.21 476.946C1369.39 474.354 1405.87 469.485 1441.74 462.174C1492.32 451.833 1542.66 436.203 1596.09 415.517C1631.72 401.632 1667.51 385.18 1704.15 367.896C1758.83 341.961 1814.71 313.917 1867.77 286.226C1951.93 242.385 2029.89 199.09 2106.39 164.036" stroke="#737373" stroke-miterlimit="10"/>
<path d="M-587.809 980.082C-507.715 890.277 -382.816 808.834 -241.656 752.002C-183.145 728.41 -121.272 708.913 -56.8867 699.925C7.33275 690.789 75.048 691.761 130.814 701.563C167.696 707.995 196.993 718.369 224.331 726.688C271.696 740.984 308.806 752.714 364.487 743.491C397.544 738.091 431.175 724.124 462.258 706.942C499.963 686.077 534.217 658.968 565.566 631.352C595.447 604.983 624.777 577.169 658.159 551.038C687.811 527.81 721.425 505.547 759.973 488.137C815.358 462.887 877.126 448.393 940.792 446.251C983.545 444.832 1025.17 449.103 1064.74 454.892C1098.11 459.798 1130.42 465.677 1162.38 469.973C1221 477.851 1275.72 481.475 1330.42 479.663C1366.82 478.501 1403.52 475.058 1440.01 469.035C1491.13 460.547 1542.6 446.633 1597.04 427.079C1633.36 413.9 1669.83 398.15 1706.65 381.123C1762.06 355.73 1818.19 327.639 1870.97 299.601C1955.13 254.96 2031.67 210.257 2107.05 172.96" stroke="#737373" stroke-miterlimit="10"/>
<path d="M-604.294 951.299C-521.949 861.8 -396.811 780.768 -255.632 723.387C-197.226 699.598 -135.251 679.775 -70.7409 670.34C-6.24957 661.048 61.927 661.887 117.435 672.703C154.447 679.866 183.068 691.389 209.895 701C256.063 717.726 292.056 732.601 348.958 725.826C382.416 721.858 416.859 709.03 449.178 692.562C488.088 672.689 523.933 646.428 556.351 619.357C587.486 593.541 617.716 566.124 651.984 540.537C682.537 517.715 716.852 495.998 755.94 478.996C812.382 454.581 874.62 441.215 938.426 439.93C981.148 439.078 1022.93 443.934 1062.47 450.305C1095.81 455.649 1128.08 462.111 1159.79 467.124C1218.1 476.44 1272.81 482.074 1327.67 482.267C1364.12 482.393 1401.21 480.529 1438.12 475.794C1489.98 469.17 1542.39 456.971 1597.65 438.687C1634.63 426.357 1671.62 411.162 1708.98 394.544C1765.13 369.548 1821.48 341.547 1874.01 313.013C1957.95 267.7 2033.49 221.3 2107.71 182.031" stroke="#737373" stroke-miterlimit="10"/>
<path d="M-620.789 922.646C-536.191 833.439 -410.628 752.809 -269.617 694.86C-211.132 670.875 -149.222 650.574 -84.6251 640.974C-20.0286 631.373 48.5908 632.224 103.859 643.916C140.815 651.81 168.945 664.493 195.054 675.54C240.208 694.716 275.063 712.894 333.226 708.291C367.106 705.617 402.547 693.935 435.9 678.319C476.016 659.439 513.289 633.875 546.963 607.352C579.187 581.938 610.672 555.068 645.642 530.016C677.098 507.598 711.948 486.278 751.539 469.969C808.854 446.383 871.749 434.151 935.675 433.869C978.552 433.592 1020.3 439.03 1059.8 445.988C1093.11 451.916 1125.33 458.963 1156.99 464.703C1215.17 475.469 1269.69 482.976 1324.88 485.331C1361.37 486.892 1398.89 486.326 1436.39 483.032C1488.8 478.273 1542.15 467.794 1598.61 450.649C1636.26 439.171 1673.79 424.386 1711.5 408.17C1768.19 383.705 1825 355.509 1877.4 326.763C1961.35 280.629 2035.64 232.797 2108.54 191.391" stroke="#737373" stroke-miterlimit="10"/>
<path d="M-637.274 893.841C-550.438 805.054 -424.619 724.664 -283.409 666.143C-225.031 641.951 -163.001 621.169 -98.1143 611.263C-33.2279 601.357 35.8529 602.075 90.6557 614.932C127.556 623.561 155.211 637.268 180.583 649.905C224.534 671.539 258.266 692.896 317.654 690.76C351.938 689.528 388.212 678.848 422.805 663.947C464.111 646.203 502.832 621.191 537.56 595.351C571.041 570.486 603.43 544.006 639.307 519.349C671.5 497.184 707.239 476.411 747.352 460.651C805.726 437.899 869.259 426.948 933.137 427.525C976.15 427.969 1017.89 433.85 1057.17 441.392C1090.45 447.764 1122.45 455.397 1154.02 462.01C1211.91 474.087 1266.39 483.768 1321.73 488.289C1358.44 491.298 1395.98 492.171 1434.28 490.184C1487.24 487.298 1541.72 478.549 1599.21 462.54C1637.55 451.771 1675.57 437.683 1713.66 421.724C1771.07 397.794 1827.95 369.386 1880.27 340.279C1964.02 293.305 2037.08 244.026 2109 200.476" stroke="#737373" stroke-miterlimit="10"/>
<path d="M-653.761 865.027C-564.665 776.496 -438.611 696.472 -297.388 637.358C-238.933 612.957 -176.989 591.826 -111.98 581.461C-46.9895 571.24 22.5339 571.968 77.0939 585.716C113.938 595.087 140.913 609.964 165.769 623.918C208.681 648.178 241.122 672.586 301.924 672.934C336.611 673.152 373.886 663.623 409.535 649.431C451.866 632.678 492.186 608.508 528.175 583.21C562.729 558.883 596.209 532.795 632.976 508.673C666.074 486.906 702.331 466.668 743.152 451.461C802.421 429.392 866.591 419.726 930.608 421.171C973.775 422.196 1015.68 428.528 1054.73 436.803C1087.97 443.766 1119.94 451.85 1151.25 459.339C1209.01 472.884 1263.27 484.604 1318.96 491.164C1355.73 495.48 1393.66 497.951 1432.41 497.124C1486.11 496.125 1541.53 489.109 1599.85 474.232C1638.86 464.317 1677.41 450.781 1716.04 435.227C1774.19 411.684 1831.3 383.349 1883.33 353.866C1966.87 306.182 2038.9 255.154 2109.66 209.577" stroke="#737373" stroke-miterlimit="10"/>
<path d="M-670.245 836.198C-578.701 747.908 -452.601 668.227 -311.183 608.507C-252.819 583.741 -190.961 562.254 -125.682 551.719C-60.4035 541.183 9.56205 541.922 63.6728 556.708C100.646 566.831 126.939 582.889 151.073 598.31C192.777 625.066 223.788 655.006 286.14 655.393C321.421 655.626 359.529 648.552 396.216 635.214C439.759 619.456 481.7 595.982 518.764 571.218C554.393 547.428 589.151 521.732 626.829 497.998C660.833 476.625 697.813 456.78 739.138 442.265C799.469 421.027 864.091 412.645 928.059 414.958C971.361 416.711 1013.26 423.493 1052.28 432.224C1085.5 439.64 1117.41 448.467 1148.49 456.548C1205.91 471.714 1260 485.197 1316.03 493.954C1352.82 499.729 1391.19 503.52 1430.53 504.152C1484.78 505.044 1541.15 499.768 1600.68 486.036C1640.19 476.829 1679.63 463.855 1718.42 448.692C1777.31 425.678 1834.67 397.12 1886.42 367.253C1969.95 318.702 2040.73 266.187 2110.15 218.413" stroke="#737373" stroke-miterlimit="10"/>
<path d="M-686.74 807.493C-592.929 719.409 -466.615 640.196 -325.169 579.693C-266.729 554.7 -204.94 532.703 -139.372 521.847C-73.8036 510.991 -3.58112 511.735 50.2662 527.576C87.1826 538.454 112.997 555.567 136.576 572.619C177.071 601.896 207.442 632.785 270.536 637.983C306.071 640.836 345.168 633.619 383.082 621.14C427.84 606.379 471.218 583.591 509.342 559.499C546.234 536.246 581.9 510.925 620.47 487.717C655.382 466.733 692.882 447.417 734.937 433.308C796.125 413.038 861.426 405.66 925.53 408.853C968.987 411.194 1010.85 418.576 1049.84 427.913C1083.01 435.93 1114.7 445.36 1145.89 454.195C1203.21 470.71 1257.07 486.406 1313.45 497.232C1350.3 504.332 1389.05 509.742 1429 511.697C1483.81 514.492 1541.31 510.97 1601.67 498.52C1641.84 490.17 1681.81 477.747 1720.98 462.834C1780.59 440.342 1838.19 411.695 1889.66 381.429C1972.97 332.13 2042.52 277.955 2110.96 227.962" stroke="#737373" stroke-miterlimit="10"/>
<path d="M-703.414 778.622C-607.355 690.863 -480.607 611.809 -339.342 550.64C-281.014 525.406 -219.109 502.893 -153.458 491.85C-87.7887 480.663 -16.9375 481.423 36.4771 498.179C73.3358 509.822 98.6526 528.147 121.525 546.551C160.994 578.379 190.048 612.548 254.58 620.132C290.521 624.462 330.642 618.264 369.803 606.502C415.778 592.739 460.575 570.781 499.964 547.218C537.935 524.492 574.697 499.546 614.179 476.715C649.813 456.111 688.224 437.186 730.784 423.767C793.037 404.324 858.809 398.095 923.031 402.319C966.454 405.248 1008.47 413.241 1047.42 423.191C1080.55 431.817 1112.21 441.715 1143.14 451.447C1200.32 469.472 1254 487.11 1310.5 500.307C1347.57 508.894 1386.56 515.639 1426.92 519.068C1482.47 523.785 1540.92 522.021 1602.3 510.717C1643.17 503.082 1683.64 491.355 1723.18 476.688C1783.53 454.57 1841.36 425.97 1892.56 395.149C1975.84 345.085 2044.15 289.222 2111.26 236.824" stroke="#737373" stroke-miterlimit="10"/>
<path d="M-719.9 749.74C-621.569 662.118 -494.592 583.327 -353.136 521.467C-294.734 495.982 -232.919 473.078 -167.147 461.551C-101.189 450.029 -30.0626 450.649 23.0678 468.633C59.8692 481.051 84.6874 500.606 106.835 520.527C145.089 554.937 173.217 592.29 238.779 602.564C275.332 608.243 316.087 603.205 356.48 592.305C403.486 579.535 450.098 558.266 490.569 535.22C529.806 513.019 567.666 488.438 607.856 466.116C644.401 445.89 683.332 427.486 726.623 414.468C789.756 395.845 856.187 390.775 920.527 396.039C964.086 399.713 1006.09 408.175 1044.81 418.742C1077.92 427.839 1109.52 438.505 1140.2 449C1197.06 468.549 1250.71 488.304 1307.56 503.609C1344.67 513.693 1384.07 521.937 1425.05 526.712C1481.15 533.362 1540.55 533.369 1603.15 523.219C1644.69 516.447 1685.68 505.27 1725.76 490.995C1786.66 469.383 1844.75 440.524 1895.83 409.424C1979.09 358.42 2046.16 300.828 2112.09 246.278" stroke="#737373" stroke-miterlimit="10"/>
<path d="M-736.387 720.831C-635.784 633.307 -508.581 554.742 -367.106 492.004C-308.817 466.249 -247.075 442.794 -180.83 430.929C-114.771 419.058 -43.015 419.693 9.68095 438.626C46.4242 451.831 70.7619 472.489 92.1633 494.096C129.369 531.277 156.382 571.856 223.182 584.705C260.161 591.742 301.925 587.882 343.363 577.84C391.589 566.071 439.625 545.623 481.366 523.092C521.871 501.41 560.643 477.181 601.728 455.367C639.184 435.513 678.842 417.483 722.639 405.152C786.839 387.35 853.743 383.442 918.218 389.612C961.931 393.892 1003.9 402.976 1042.59 414.175C1075.65 423.899 1107.04 435.046 1137.82 446.471C1194.55 467.572 1248.01 489.319 1305 506.899C1342.35 518.356 1381.98 528.111 1423.55 534.391C1480.42 542.853 1540.75 544.793 1604.19 535.791C1646.4 529.886 1688.12 519.116 1728.37 505.219C1790.02 483.966 1848.33 455.125 1899.32 423.437C1982.37 371.601 2048.19 312.237 2112.94 255.345" stroke="#737373" stroke-miterlimit="10"/>
<path d="M-752.871 691.889C-649.826 604.562 -522.566 526.025 -380.907 462.512C-322.734 436.469 -260.878 412.447 -194.552 400.37C-128.226 388.293 -56.1955 388.785 -3.76691 408.839C32.9182 422.847 56.7556 444.779 77.6351 467.812C113.623 507.662 139.688 551.674 207.56 566.978C244.946 575.538 287.739 572.718 330.225 563.535C379.673 552.77 429.154 532.991 471.979 510.961C513.567 489.784 553.439 465.9 595.439 444.438C633.807 424.946 674.005 407.278 718.497 395.638C783.596 378.503 851.141 375.917 915.733 383.151C959.599 388.045 1001.74 397.621 1040.2 409.461C1073.24 419.675 1104.56 431.614 1135.12 443.681C1191.52 466.356 1244.98 490.133 1302.29 510.173C1339.69 523.018 1379.71 534.457 1421.9 542.113C1479.32 552.55 1540.81 556.153 1605.26 548.458C1648.17 543.277 1690.4 533.201 1731.02 519.534C1793.39 498.777 1851.96 469.641 1902.64 437.629C1985.67 384.779 2050.22 323.738 2113.8 264.444" stroke="#737373" stroke-miterlimit="10"/>
<path d="M-769.364 663.033C-664.043 575.684 -536.375 497.272 -394.907 432.916C-336.645 406.416 -274.902 382.094 -208.458 369.496C-142.033 357.046 -69.5783 357.696 -17.3794 378.602C19.2476 393.433 42.5844 416.67 62.7355 441.306C97.5045 483.885 122.641 531.255 191.548 549.349C229.55 559.311 272.981 557.678 316.702 549.363C367.374 539.603 418.49 520.489 462.381 499.096C505.073 478.265 546.214 454.864 588.925 433.885C628.205 414.744 669.131 397.432 714.149 386.328C780.131 370.001 848.525 368.606 913.046 376.917C957.047 382.584 999.168 392.659 1037.6 405.16C1070.6 416.026 1101.89 428.48 1132.17 441.501C1188.47 465.642 1241.69 491.78 1299.17 514.021C1336.79 528.432 1377.05 541.281 1419.66 550.477C1477.84 562.777 1540.08 568.35 1605.73 561.974C1649.32 557.669 1692.07 548.138 1733.25 534.698C1796.37 514.279 1855.16 485.118 1905.57 452.457C1988.55 398.687 2051.87 335.606 2114.06 273.981" stroke="#737373" stroke-miterlimit="10"/>
<path d="M-785.85 633.998C-678.252 546.546 -550.366 468.184 -408.907 402.92C-350.763 376.079 -288.91 351.136 -222.2 338.302C-155.489 325.469 -82.5734 325.979 -30.849 348.21C69.2279 391.082 65.1106 499.046 175.885 531.734C258.91 556.324 369.019 526.123 453.159 487.124C537.299 448.124 614.649 398.909 710.182 376.839C822.965 350.754 940.771 368.067 1035.2 400.605C1129.63 433.142 1207.56 480.045 1296.44 517.819C1385.33 555.443 1491.29 584.556 1606.64 575.307C1718.75 566.417 1825.95 522.065 1908.72 467.161C1991.5 412.256 2053.54 347.351 2114.73 283.171" stroke="#737373" stroke-miterlimit="10"/>
<path d="M-768.47 626.959C-662.301 540.391 -536.388 462.746 -397.015 397.594C-337.428 369.753 -273.815 344.267 -205.626 331.628C-139.369 319.384 -67.4304 320.167 -16.045 342.083C82.9792 384.315 81.6579 489.482 190.929 522.12C257.425 542.057 340.93 527.295 414.985 501.05C432.519 494.798 449.566 487.935 465.714 480.747C549.475 443.245 626.502 395.083 721.282 373C785.631 358.01 851.443 356.678 913.701 364.078C959.466 369.528 1003.14 379.559 1042.88 392.475C1136.66 422.741 1214.57 466.787 1302.92 502.74C1328.32 513.016 1355.13 522.583 1383.03 530.983C1452.62 551.754 1529.43 564.493 1610.66 558.797C1625.07 557.847 1639.4 556.146 1653.57 554.142C1748.66 539.998 1838.27 502.358 1910.51 456.309C1993.02 403.509 2056.01 339.995 2116.75 276.42" stroke="#737373" stroke-miterlimit="10"/>
<path d="M-750.899 619.941C-646.142 534.125 -522.205 457.212 -384.939 392.334C-324.099 363.494 -258.52 337.328 -188.687 325.04C-122.884 313.388 -51.9059 314.294 -0.673423 335.897C97.5018 377.338 98.9379 479.986 206.534 512.413C272.276 532.32 354.668 518.882 428.212 493.682C445.707 487.732 462.528 481.165 478.656 474.13C561.867 437.978 638.719 391.181 732.575 368.934C796.19 353.782 861.324 351.835 922.96 358.168C968.068 362.849 1011.48 371.971 1050.98 383.827C1143.92 411.663 1221.8 452.994 1309.83 486.976C1335.12 496.647 1361.77 505.906 1389.54 513.85C1459.05 533.711 1534.9 546.567 1615.3 541.45C1629.51 540.645 1643.62 539.088 1657.59 537.229C1751.39 524.254 1840.52 488.864 1912.74 444.482C1995.17 393.8 2059.13 331.542 2119.23 268.579" stroke="#737373" stroke-miterlimit="10"/>
<path d="M-733.507 612.767C-630.179 527.839 -508.384 451.493 -373.223 386.879C-311.147 357.187 -243.415 330.341 -172.292 318.243C-106.942 307.181 -36.9424 308.359 13.9507 329.646C111.072 370.446 115.304 470.295 221.583 502.674C286.76 522.56 367.873 510.287 441.055 486.433C458.324 480.777 475.126 474.361 491.215 467.627C573.877 432.819 650.762 387.236 743.49 364.966C806.54 349.804 870.81 347.236 931.826 352.503C976.464 356.422 1019.43 364.632 1058.68 375.43C1150.97 400.996 1228.83 439.472 1316.14 471.629C1341.48 480.849 1367.84 489.499 1395.46 497.136C1464.7 516.087 1539.8 528.919 1619.14 524.672C1633.14 524.01 1647.22 522.753 1661 520.889C1753.71 509.085 1841.99 475.927 1914.38 433.21C1996.72 384.637 2061.44 323.768 2121.09 261.412" stroke="#737373" stroke-miterlimit="10"/>
<path d="M-715.94 605.745C-614.043 521.714 -494.205 445.949 -361.131 381.458C-297.614 350.774 -228.104 323.243 -155.336 311.495C-90.4413 301.024 -21.4018 302.325 29.1511 323.294C125.424 363.305 132.225 460.637 237.018 492.812C301.628 512.672 381.441 501.715 454.299 478.91C471.53 473.555 488.292 467.44 504.156 461.002C586.268 427.54 662.997 383.171 754.802 360.737C817.098 345.562 880.709 342.23 941.105 346.432C985.273 349.589 1027.79 356.886 1066.6 366.622C1158.07 389.762 1235.87 425.678 1322.88 455.72C1348.11 464.335 1374.52 472.534 1401.8 479.86C1470.76 498.047 1545.12 510.703 1623.43 507.177C1637.43 506.516 1651.09 505.547 1664.83 503.982C1756.43 493.499 1843.88 462.426 1916.43 421.379C1998.52 374.765 2064.17 315.444 2123.37 253.704" stroke="#737373" stroke-miterlimit="10"/>
<path d="M-698.558 598.716C-598.072 515.427 -480.395 440.379 -349.24 376.159C-284.468 344.475 -212.993 316.262 -138.58 304.863C-74.1383 294.982 -6.07704 296.554 44.1363 317.207C139.543 356.582 148.952 451.11 252.427 483.237C316.265 503.219 395.193 493.288 467.521 471.672C484.544 466.463 501.249 460.797 517.093 454.51C598.824 422.545 675.23 379.23 766.281 356.784C828.013 341.6 890.778 337.499 950.535 340.786C994.046 343.177 1036.11 349.563 1074.87 358.248C1165.71 378.822 1243.25 412.328 1329.94 440.408C1355.04 448.568 1381.32 456.312 1408.46 463.184C1477.14 480.609 1550.96 493.097 1628.21 490.44C1642 489.923 1655.65 489.103 1669.18 487.682C1759.5 478.363 1846.29 449.526 1918.83 409.988C2000.84 365.482 2067.44 307.555 2126 246.418" stroke="#737373" stroke-miterlimit="10"/>
<path d="M-681.174 591.672C-582.118 509.265 -466.375 434.636 -337.53 370.821C-271.485 337.987 -198.082 309.388 -122.192 298.183C-58.1842 288.741 8.69314 290.729 58.7548 311.073C153.128 349.661 165.294 441.696 267.284 473.624C330.558 493.584 408.187 484.965 479.986 464.536C496.971 459.627 513.469 454.106 529.255 448.268C610.438 417.642 686.69 375.531 776.8 353.067C837.78 337.867 899.869 333.152 958.82 335.37C1001.84 337.15 1043.47 342.476 1081.97 350.255C1172.16 368.566 1249.68 399.223 1335.84 425.488C1360.83 433.045 1386.98 440.335 1413.97 446.902C1482.38 463.419 1555.45 475.882 1631.66 473.945C1645.25 473.572 1658.87 472.901 1672.18 471.774C1761.39 463.772 1847.16 437.006 1920.05 399.134C2001.81 356.576 2069.37 300.038 2127.45 239.654" stroke="#737373" stroke-miterlimit="10"/>
<path d="M-663.607 584.654C-565.962 502.996 -452.382 429.091 -325.437 365.405C-257.952 331.582 -182.772 302.3 -105.238 291.444C-41.6849 282.592 24.2323 284.702 74.1411 304.734C167.647 342.683 182.419 431.909 282.904 463.78C345.611 483.716 421.941 476.409 493.416 457.027C510.174 452.412 526.633 447.192 542.399 441.505C623.032 412.223 699.128 371.323 788.296 348.844C848.522 333.631 909.953 328.154 968.282 329.31C1010.83 330.33 1052.01 334.746 1090.27 341.47C1179.63 357.361 1257.29 385.321 1342.95 409.619C1367.8 416.721 1393.82 423.557 1420.68 429.669C1488.81 445.424 1561.14 457.712 1636.32 456.495C1649.7 456.265 1663.12 455.738 1676.4 454.76C1764.5 448.075 1849.44 423.391 1922.49 387.183C2003.98 346.73 2072.49 291.589 2130.12 231.819" stroke="#737373" stroke-miterlimit="10"/>
<path d="M-646.214 577.483C-549.998 496.711 -438.541 423.223 -313.532 359.955C-244.793 325.135 -167.648 295.172 -88.6568 284.659C-25.5386 276.247 39.3818 278.777 88.9511 298.493C181.422 335.654 198.951 422.387 298.138 454.062C360.073 474.118 435.498 467.984 506.444 449.788C523.163 445.473 539.396 440.547 555.143 435.01C635.396 407.222 711.168 367.373 799.414 344.728C859.075 329.505 919.661 323.261 977.352 323.504C1019.27 323.611 1060.18 327.123 1097.99 332.937C1186.71 346.418 1264.15 371.675 1349.46 394.165C1374.39 400.67 1400.09 407.046 1426.8 412.854C1494.67 427.701 1566.24 439.965 1640.56 439.619C1653.92 439.539 1667.13 439.156 1680.2 438.321C1767.21 432.803 1851.29 410.343 1924.51 375.795C2005.73 337.439 2075.19 283.687 2132.37 224.525" stroke="#737373" stroke-miterlimit="10"/>
<path d="M-628.645 570.455C-533.859 490.572 -424.524 417.503 -301.452 354.656C-231.46 318.841 -152.35 288.198 -71.7148 278.033C-9.05043 270.209 54.9107 272.861 104.14 292.262C195.745 328.788 215.88 412.724 313.563 444.345C374.933 464.378 449.059 459.553 519.681 442.401C536.174 438.379 552.388 433.604 568.077 428.516C647.78 402.066 723.397 363.422 810.702 340.762C869.61 325.525 929.538 318.52 986.59 317.85C1028.02 317.347 1068.5 319.802 1106.06 324.563C1193.95 335.629 1271.55 358.197 1356.17 378.719C1380.96 384.771 1406.74 390.55 1433.11 396.048C1500.9 409.993 1571.53 422.226 1644.81 422.598C1657.96 422.661 1670.96 422.422 1684 421.885C1769.73 417.528 1853.15 397.296 1926.53 364.408C2007.69 328.005 2078.1 275.644 2134.43 217.228" stroke="#737373" stroke-miterlimit="10"/>
<path d="M-611.263 563.42C-517.887 484.276 -410.695 411.774 -289.727 349.193C-218.482 312.383 -137.221 281.067 -55.1285 271.244C6.91372 263.853 70.0651 266.93 118.955 286.016C209.713 321.759 232.416 403.197 328.614 434.617C389.418 454.627 462.246 451.111 532.544 435C548.999 431.277 565.173 426.801 580.655 421.859C659.809 396.747 735.271 359.307 821.822 336.635C880.184 321.241 939.229 313.767 995.493 311.883C1036.45 310.623 1076.3 312.165 1113.78 316.027C1201.02 324.835 1278.4 344.555 1362.68 363.272C1387.37 368.721 1412.99 374.196 1439.42 379.246C1506.92 392.432 1576.82 404.492 1649.04 405.73C1661.99 405.936 1674.97 405.846 1687.81 405.453C1772.42 402.409 1855.01 384.251 1928.36 353.016C2009.27 318.558 2080.61 267.735 2136.49 209.927" stroke="#737373" stroke-miterlimit="10"/>
<path d="M-593.691 556.392C-501.744 478.129 -396.673 406.039 -277.641 343.873C-205.122 305.918 -121.916 274.069 -38.3852 264.737C23.2228 257.784 85.3969 261.131 133.929 280.052C223.634 315.159 249.319 393.821 344.013 425.19C404.065 445.173 475.989 442.826 545.551 428.042C561.78 424.612 577.916 420.435 593.36 415.791C671.965 392.014 747.46 355.78 832.883 333.085C890.494 317.675 948.881 309.441 1004.51 306.646C1044.99 304.627 1084.39 305.262 1121.63 308.074C1208.04 314.472 1285.56 331.655 1369.33 348.415C1393.89 353.412 1419.4 358.286 1445.67 363.032C1512.91 375.313 1582.29 387.056 1653.44 389.308C1666.36 389.663 1679.12 389.864 1691.77 389.466C1775.29 387.587 1856.84 371.642 1930.54 342.066C2011.19 309.7 2083.48 260.261 2138.9 203.055" stroke="#737373" stroke-miterlimit="10"/>
<path d="M-576.313 549.356C-485.795 471.98 -382.847 400.308 -265.751 338.561C-191.979 299.612 -106.809 267.086 -21.6351 258.101C39.5192 251.734 100.715 255.352 148.927 273.81C237.785 308.136 266.037 384.304 359.246 415.471C418.714 435.579 489.358 434.39 558.597 420.647C574.787 417.515 590.716 413.483 606.121 409.138C684.158 386.845 759.497 351.814 844.017 328.805C901.063 313.386 958.586 304.536 1013.59 300.682C1053.42 297.902 1092.56 297.636 1129.37 299.392C1215.14 303.386 1292.43 317.875 1375.88 332.682C1400.51 337.083 1425.68 341.649 1451.81 346.091C1518.78 357.466 1587.37 369.481 1657.5 372.301C1670.22 372.799 1682.77 373.143 1695.38 373.043C1777.62 372.321 1858.51 358.6 1932.37 330.68C2012.76 300.257 2086.17 252.359 2140.96 195.754" stroke="#737373" stroke-miterlimit="10"/>
<path d="M-558.93 542.327C-469.823 465.691 -368.997 394.44 -254.025 333.109C-178.982 293.021 -91.849 259.819 -5.05113 251.33C55.668 245.401 115.886 249.288 163.926 267.585C251.749 301.123 282.775 374.654 374.667 405.771C433.569 425.856 502.915 425.972 571.829 413.269C587.812 410.282 603.683 406.697 619.068 402.502C696.743 381.55 771.739 347.717 855.317 324.693C911.611 309.26 968.476 299.652 1022.86 294.741C1062.22 291.204 1100.91 290.032 1137.47 290.738C1222.4 292.474 1299.86 304.132 1382.79 317.132C1407.3 320.932 1432.53 325.05 1458.31 329.184C1525.19 339.807 1592.85 351.643 1661.95 355.178C1674.46 355.819 1686.99 356.312 1699.39 356.355C1780.52 356.944 1860.58 345.291 1934.61 319.026C2014.75 290.547 2089.11 244.036 2143.42 188.189" stroke="#737373" stroke-miterlimit="10"/>
<path d="M-541.349 535.158C-453.671 459.407 -354.968 388.575 -241.931 327.663C-165.636 286.585 -76.5398 252.706 11.7136 244.558C71.9979 239.067 131.219 243.372 178.938 261.207C265.895 294.112 299.507 365.004 389.914 395.919C448.063 415.975 516.317 417.253 584.87 405.885C600.814 403.197 616.459 399.904 631.805 396.008C708.931 376.39 783.771 343.758 866.408 320.718C922.137 305.276 978.157 294.904 1031.72 289.08C1070.61 284.788 1108.65 282.706 1145.16 282.368C1229.45 281.704 1306.87 290.677 1389.09 301.866C1413.47 305.215 1438.58 308.733 1464.22 312.563C1530.83 322.281 1597.74 334.092 1665.99 338.347C1678.29 339.132 1690.62 339.768 1703 339.959C1783.03 341.709 1862.07 332.117 1936.26 307.506C2016.13 281.115 2091.44 235.99 2145.3 180.749" stroke="#737373" stroke-miterlimit="10"/>
<path d="M-523.967 528.124C-437.699 453.108 -341.305 382.685 -230.035 322.343C-152.469 280.125 -61.4089 245.569 28.4687 237.916C88.1311 232.856 146.543 237.584 193.923 255.106C280.033 287.232 316.232 355.49 405.154 386.205C462.719 406.386 529.694 408.82 597.736 398.484C613.454 396.088 629.079 392.945 644.387 389.347C720.963 371.061 795.648 339.627 877.532 316.576C932.509 301.119 987.853 290.138 1040.79 283.257C1079.03 278.205 1116.81 275.224 1153.06 273.986C1236.5 271.067 1313.9 277.21 1395.8 286.451C1420.07 289.201 1445.05 292.267 1470.53 295.794C1536.88 304.609 1603.04 316.395 1670.23 321.513C1682.52 322.446 1694.64 323.225 1706.79 323.707C1785.55 326.612 1863.92 319.239 1938.28 296.279C2017.9 271.826 2094.14 228.232 2147.54 173.594" stroke="#737373" stroke-miterlimit="10"/>
<path d="M-506.397 521.095C-421.746 446.959 -327.286 376.96 -218.14 317.033C-139.321 273.826 -46.2994 238.596 45.0331 231.284C104.26 226.662 161.694 231.659 208.715 249.014C293.772 280.503 332.744 346.13 420.368 376.648C477.367 396.806 543.25 400.399 610.762 391.243C626.441 389.145 641.841 386.295 657.109 382.995C733.136 366.041 807.665 335.807 888.627 312.591C942.851 297.121 997.537 285.383 1049.86 277.447C1087.61 271.789 1124.96 267.756 1160.77 265.466C1243.58 260.152 1320.96 263.465 1402.31 271.052C1426.63 273.356 1451.48 275.971 1476.65 279.042C1542.71 287.102 1608.11 298.863 1674.29 304.546C1686.37 305.621 1698.28 306.543 1710.42 307.173C1788.08 311.238 1865.44 305.923 1940.12 284.767C2019.49 262.252 2096.85 220.195 2149.61 166.158" stroke="#737373" stroke-miterlimit="10"/>
<path d="M-489.018 514.061C-405.609 440.816 -313.627 371.076 -206.229 311.573C-126.139 267.23 -31.1553 231.325 61.8002 224.508C120.612 220.173 176.843 225.731 223.73 242.629C307.94 273.339 349.497 336.333 435.617 366.798C491.864 386.927 556.636 391.826 623.805 383.855C639.258 382.048 654.618 379.496 669.867 376.346C745.344 360.722 819.718 331.686 899.738 308.456C953.397 292.977 1007.22 280.625 1058.92 271.635C1096.2 265.224 1132.91 260.283 1168.67 256.952C1250.63 249.387 1328 249.873 1409.02 255.516C1433.23 257.221 1457.95 259.386 1482.97 262.154C1548.77 269.311 1613.6 281.052 1678.73 287.597C1690.6 288.814 1702.49 289.884 1714.23 290.652C1790.78 296.023 1867.31 292.77 1942.15 273.263C2021.27 252.684 2099.58 212.009 2151.87 158.726" stroke="#737373" stroke-miterlimit="10"/>
<path d="M-471.445 507.033C-389.445 434.52 -299.585 365.195 -194.14 306.256C-112.78 260.776 -15.8335 224.196 78.7454 217.872C137.122 213.973 192.376 219.799 238.905 236.533C322.062 266.608 366.391 326.979 451.028 357.244C506.709 377.35 570.183 383.55 637.029 376.614C652.443 375.104 667.784 372.701 682.807 369.843C757.735 355.548 831.953 327.709 911.033 304.461C963.959 288.82 1017.11 275.86 1067.98 265.96C1104.6 258.789 1141.05 252.952 1176.57 248.575C1257.89 238.618 1335.22 236.428 1415.72 240.271C1439.82 241.378 1464.4 243.092 1489.27 245.558C1554.99 251.819 1618.89 263.53 1682.98 270.787C1694.83 272.153 1706.51 273.365 1718.03 274.424C1793.3 280.947 1868.99 279.753 1944.17 262.047C2022.85 243.396 2102.27 204.255 2154.11 151.574" stroke="#737373" stroke-miterlimit="10"/>
<path d="M-454.067 499.994C-373.496 428.363 -285.925 359.301 -182.434 300.927C-99.9907 254.308 -1.08266 217.054 95.119 211.223C152.874 207.755 207.318 214.003 253.714 230.281C336.024 259.578 383.126 317.326 466.259 347.538C521.356 367.768 583.57 374.971 650.073 369.218C665.28 367.852 680.563 365.894 695.547 363.333C770.113 350.372 844.175 323.729 922.127 300.46C974.488 284.81 1026.77 271.238 1077.05 260.137C1113.2 252.214 1149.2 245.475 1184.28 240.048C1264.76 227.844 1342.18 223.429 1422.23 224.882C1446.24 225.243 1470.65 226.804 1495.38 228.819C1560.84 234.18 1623.98 245.865 1687.02 253.982C1698.67 255.49 1710.14 256.845 1721.64 258.052C1795.82 265.731 1870.66 266.744 1945.81 250.678C2024.24 233.96 2104.59 196.346 2155.98 144.27" stroke="#737373" stroke-miterlimit="10"/>
<path d="M-436.674 492.821C-357.53 422.069 -272.08 353.421 -170.506 295.314C-86.7911 247.559 14.0788 209.631 111.903 204.293C169.223 201.26 222.691 207.776 268.728 223.89C350.173 252.558 399.878 307.535 481.509 337.694C535.854 357.897 597.145 366.409 662.931 361.827C678.099 360.757 693.156 359.091 708.12 356.679C782.137 345.045 856.044 319.596 933.242 296.316C984.852 280.651 1036.48 266.324 1086.12 254.318C1121.8 245.643 1157.35 238.004 1192.17 231.681C1272.01 217.088 1349.28 209.404 1428.75 209.503C1452.79 209.568 1477.11 210.384 1501.51 212.092C1566.7 216.553 1629.09 228.214 1691.28 237.047C1702.72 238.698 1714.17 240.2 1725.44 241.697C1798.53 250.532 1872.36 253.596 1947.84 239.329C2026.02 224.541 2107.5 188.309 2158.23 136.977" stroke="#737373" stroke-miterlimit="10"/>
<path d="M-419.103 485.796C-341.37 415.779 -258.228 347.542 -158.42 290.006C-73.4355 241.119 29.3953 202.519 128.655 197.668C185.559 194.923 238.01 202.002 283.708 217.803C364.12 245.689 416.577 298.195 496.91 328.158C550.69 348.337 610.702 357.998 676.145 354.596C691.087 353.818 706.124 352.3 721.031 350.334C794.498 340.026 868.229 315.919 944.525 292.328C995.57 276.655 1046.33 261.716 1095.37 248.512C1130.38 239.228 1165.68 230.546 1200.26 223.181C1279.26 206.344 1356.71 195.7 1435.64 194.152C1459.56 193.62 1483.75 193.986 1508 195.393C1572.91 199.102 1634.54 210.738 1695.72 220.134C1706.95 221.927 1718.2 223.571 1729.45 225.216C1801.26 235.2 1874.44 240.324 1950.06 227.848C2028.01 214.842 2110.41 180.284 2160.68 129.555" stroke="#737373" stroke-miterlimit="10"/>
<path d="M-401.721 478.759C-325.416 409.621 -244.563 341.646 -146.521 284.679C-60.4541 234.655 44.5438 195.24 145.387 191.178C201.857 188.867 253.331 196.213 298.689 211.702C378.235 238.96 433.295 288.697 512.125 318.607C565.321 338.911 624.073 349.573 689.173 347.35C704.077 346.868 718.888 345.642 733.775 343.824C806.692 334.841 880.268 311.927 955.623 288.32C1005.92 272.633 1056.02 256.941 1104.23 242.829C1138.77 232.795 1173.44 223.209 1207.96 214.806C1286.3 195.733 1363.55 182.268 1442.13 178.931C1465.93 177.951 1490.01 177.721 1514.1 178.826C1578.93 181.641 1639.61 193.395 1699.75 203.502C1710.96 205.441 1721.99 207.376 1733.05 209.014C1803.76 220.152 1875.93 227.324 1951.9 216.496C2029.59 205.418 2112.92 172.384 2162.74 122.256" stroke="#737373" stroke-miterlimit="10"/>
<path d="M-384.151 471.728C-309.255 403.322 -230.71 335.758 -134.622 279.355C-47.4723 228.194 59.6733 188.114 162.138 184.543C218.005 182.513 268.651 190.428 313.67 205.604C392.369 232.087 449.994 279.352 527.34 309.061C579.784 329.337 637.425 341.299 702.183 340.255C716.879 339.916 731.651 338.986 746.312 337.459C818.68 329.8 892.1 308.079 966.514 284.456C1016.06 268.755 1065.49 252.458 1113.08 237.297C1147.15 226.512 1181.37 216.028 1215.45 206.579C1292.97 185.118 1370.37 168.994 1448.45 163.716C1472.32 162.145 1496.06 161.609 1520.02 162.266C1584.58 164.183 1644.51 175.911 1703.8 186.733C1714.81 188.814 1725.81 190.896 1736.65 192.824C1806.27 205.115 1877.6 214.338 1953.71 205.298C2031.16 196.147 2115.6 164.641 2164.8 114.962" stroke="#737373" stroke-miterlimit="10"/>
<path d="M-366.773 464.691C-293.305 397.162 -217.029 329.71 -122.707 273.873C-34.2682 221.433 74.838 180.68 178.719 177.743C234.151 176.148 283.801 184.477 328.668 199.348C406.315 225.199 466.73 269.706 542.761 299.368C594.639 319.62 651.003 332.73 715.23 332.858C729.888 332.815 744.434 332.176 759.056 330.945C830.875 324.609 904.139 304.078 977.801 280.444C1026.78 264.734 1075.36 247.678 1122.34 231.469C1155.94 219.934 1189.69 208.7 1223.53 198.209C1300.38 174.663 1377.61 155.426 1455.32 148.511C1479.08 146.344 1502.88 145.365 1526.5 145.716C1590.82 146.588 1649.97 158.439 1708.21 170.118C1719.01 172.341 1729.81 174.564 1740.63 176.64C1809.16 190.083 1879.47 201.35 1955.73 194.098C2032.94 186.723 2118.31 156.738 2167.04 107.807" stroke="#737373" stroke-miterlimit="10"/>
<path d="M-349.202 457.664C-277.162 391.018 -203.176 323.832 -110.62 268.567C-21.0997 214.996 90.1524 173.582 195.653 171.136C250.668 169.826 299.323 178.569 343.85 193.127C420.649 218.202 483.627 260.239 558.174 289.699C609.467 310.074 664.739 324.334 728.455 325.486C742.886 325.733 757.394 325.389 771.996 324.307C843.264 319.293 916.371 299.954 989.111 276.158C1037.34 260.435 1085.24 242.777 1131.6 225.521C1164.54 213.233 1198.05 200.96 1231.63 189.578C1307.84 163.655 1385.03 141.759 1462.05 132.901C1485.7 130.14 1509.36 128.714 1532.83 128.764C1596.87 128.887 1655.47 140.57 1712.49 152.951C1723.27 155.321 1733.86 157.686 1744.47 159.903C1811.72 174.491 1881.39 187.81 1957.78 182.344C2034.76 176.746 2121.04 148.43 2169.32 100.103" stroke="#737373" stroke-miterlimit="10"/>
<path d="M-331.808 450.487C-261.178 384.567 -189.498 317.787 -98.8944 263.081C-8.29135 208.375 105.127 166.146 212.043 164.333C424.734 160.823 532.89 310.308 741.108 318.232C871.766 323.143 1011.8 271.124 1140.28 219.826C1268.76 168.527 1405.74 113.906 1538.75 112.215C1614.56 111.328 1681.73 127.982 1748.07 143.725C1814.23 159.463 1882.88 174.825 1959.61 171.148C2036.34 167.471 2123.55 140.673 2171.37 92.9439" stroke="#737373" stroke-miterlimit="10"/>
</g>
<g opacity="0.35">
<mask id="mask1_2018_9173" style="mask-type:luminance" maskUnits="userSpaceOnUse" x="-7" y="64" width="2108" height="1042">
<path d="M2100.62 64.127H-6.07031V1105.77H2100.62V64.127Z" fill="white"/>
</mask>
<g mask="url(#mask1_2018_9173)">
<path d="M2309.18 258.001C2303.74 285.475 2293.38 312.427 2267.4 331.698C2241.41 350.838 2203.84 358.91 2167.15 360.473C2130.64 362.035 2094.12 357.999 2057.6 356.437C1937 351.359 1814.46 375.186 1712.81 423.492C1633.63 460.991 1566.04 513.204 1478.27 538.333C1438.94 549.531 1396.46 554.739 1354.5 553.828C1316.93 552.916 1276.55 538.594 1240.39 547.317C1169.28 564.504 1141.2 622.315 1125.4 671.012C1110.12 717.756 1094.67 769.447 1042.53 797.832C1013.57 813.587 970.203 821.139 943.518 798.353C915.78 774.786 936.847 749.005 949.838 725.047C975.118 678.434 947.029 642.628 932.633 598.097C918.238 553.828 946.151 520.886 988.987 491.72C1036.21 459.559 1076.59 441.461 1093.27 391.332C1106.79 350.708 1105.21 308.13 1118.02 267.376C1131.54 224.278 1170.86 171.936 1238.28 171.415C1289.01 171.024 1329.92 200.06 1372.58 220.633C1437.01 251.882 1516.36 265.684 1592.9 259.304C1670.85 252.793 1745.11 225.32 1798.83 183.003C1844.65 146.936 1872.22 99.9324 1920.85 66.079C1966.84 34.0486 2027.58 12.9553 2091.14 11.9137C2184.18 10.221 2278.1 54.8814 2306.37 120.635C2321.82 156.311 2318.31 194.852 2313.74 232.221C2312.16 240.684 2310.93 249.408 2309.18 258.001Z" fill="#010268"/>
<path d="M-205.855 1070.35C-86.8276 1086.89 40.8026 1065.67 138.939 1013.06C182.828 989.626 221.802 959.027 239.533 921.268C252.525 893.795 253.578 864.108 264.989 836.244C293.956 765.673 395.253 715.674 494.092 722.966C546.408 726.741 594.686 744.449 642.964 759.683C691.242 774.917 743.383 788.328 795.348 782.99C847.313 777.652 898.4 748.095 901.033 709.164C903.14 678.175 875.929 650.832 852.58 625.051C829.231 599.271 807.813 567.37 822.384 538.204C843.275 496.799 918.063 490.68 965.287 463.727C995.308 446.54 1014.62 417.895 1008.3 390.161C1001.98 362.427 966.341 338.86 928.596 341.725C886.462 344.98 859.777 375.578 839.588 403.182C818.873 431.436 798.332 460.342 767.434 482.997C736.536 505.523 693.174 521.148 650.338 516.33C572.917 507.476 535.874 441.592 473.2 406.697C412.809 373.234 331.526 370.63 256.387 374.667C99.0876 383.26 -55.5784 415.942 -195.498 469.977L-205.855 1070.35Z" fill="#010268"/>
</g>
</g>
<path d="M351.055 556.094C352.435 556.094 353.555 554.974 353.555 553.594C353.555 552.213 352.435 551.094 351.055 551.094C349.674 551.094 348.555 552.213 348.555 553.594C348.555 554.974 349.674 556.094 351.055 556.094Z" fill="#737373"/>
<path d="M310.676 556.094C312.056 556.094 313.176 554.974 313.176 553.594C313.176 552.213 312.056 551.094 310.676 551.094C309.295 551.094 308.176 552.213 308.176 553.594C308.176 554.974 309.295 556.094 310.676 556.094Z" fill="#737373"/>
<path d="M270.301 556.094C271.681 556.094 272.801 554.974 272.801 553.594C272.801 552.213 271.681 551.094 270.301 551.094C268.92 551.094 267.801 552.213 267.801 553.594C267.801 554.974 268.92 556.094 270.301 556.094Z" fill="#737373"/>
<path d="M229.922 556.094C231.303 556.094 232.422 554.974 232.422 553.594C232.422 552.213 231.303 551.094 229.922 551.094C228.541 551.094 227.422 552.213 227.422 553.594C227.422 554.974 228.541 556.094 229.922 556.094Z" fill="#737373"/>
<path d="M189.543 556.094C190.924 556.094 192.043 554.974 192.043 553.594C192.043 552.213 190.924 551.094 189.543 551.094C188.162 551.094 187.043 552.213 187.043 553.594C187.043 554.974 188.162 556.094 189.543 556.094Z" fill="#737373"/>
<path d="M351.055 523.543C352.435 523.543 353.555 522.424 353.555 521.043C353.555 519.662 352.435 518.543 351.055 518.543C349.674 518.543 348.555 519.662 348.555 521.043C348.555 522.424 349.674 523.543 351.055 523.543Z" fill="#737373"/>
<path d="M310.676 523.543C312.056 523.543 313.176 522.424 313.176 521.043C313.176 519.662 312.056 518.543 310.676 518.543C309.295 518.543 308.176 519.662 308.176 521.043C308.176 522.424 309.295 523.543 310.676 523.543Z" fill="#737373"/>
<path d="M270.301 523.543C271.681 523.543 272.801 522.424 272.801 521.043C272.801 519.662 271.681 518.543 270.301 518.543C268.92 518.543 267.801 519.662 267.801 521.043C267.801 522.424 268.92 523.543 270.301 523.543Z" fill="#737373"/>
<path d="M229.922 523.543C231.303 523.543 232.422 522.424 232.422 521.043C232.422 519.662 231.303 518.543 229.922 518.543C228.541 518.543 227.422 519.662 227.422 521.043C227.422 522.424 228.541 523.543 229.922 523.543Z" fill="#737373"/>
<path d="M189.543 523.543C190.924 523.543 192.043 522.424 192.043 521.043C192.043 519.662 190.924 518.543 189.543 518.543C188.162 518.543 187.043 519.662 187.043 521.043C187.043 522.424 188.162 523.543 189.543 523.543Z" fill="#737373"/>
<path d="M351.055 490.99C352.435 490.99 353.555 489.871 353.555 488.49C353.555 487.11 352.435 485.99 351.055 485.99C349.674 485.99 348.555 487.11 348.555 488.49C348.555 489.871 349.674 490.99 351.055 490.99Z" fill="#737373"/>
<path d="M310.676 490.99C312.056 490.99 313.176 489.871 313.176 488.49C313.176 487.11 312.056 485.99 310.676 485.99C309.295 485.99 308.176 487.11 308.176 488.49C308.176 489.871 309.295 490.99 310.676 490.99Z" fill="#737373"/>
<path d="M270.301 490.99C271.681 490.99 272.801 489.871 272.801 488.49C272.801 487.11 271.681 485.99 270.301 485.99C268.92 485.99 267.801 487.11 267.801 488.49C267.801 489.871 268.92 490.99 270.301 490.99Z" fill="#737373"/>
<path d="M229.922 490.99C231.303 490.99 232.422 489.871 232.422 488.49C232.422 487.11 231.303 485.99 229.922 485.99C228.541 485.99 227.422 487.11 227.422 488.49C227.422 489.871 228.541 490.99 229.922 490.99Z" fill="#737373"/>
<path d="M189.543 490.99C190.924 490.99 192.043 489.871 192.043 488.49C192.043 487.11 190.924 485.99 189.543 485.99C188.162 485.99 187.043 487.11 187.043 488.49C187.043 489.871 188.162 490.99 189.543 490.99Z" fill="#737373"/>
<path d="M351.055 458.439C352.435 458.439 353.555 457.32 353.555 455.939C353.555 454.559 352.435 453.439 351.055 453.439C349.674 453.439 348.555 454.559 348.555 455.939C348.555 457.32 349.674 458.439 351.055 458.439Z" fill="#737373"/>
<path d="M310.676 458.439C312.056 458.439 313.176 457.32 313.176 455.939C313.176 454.559 312.056 453.439 310.676 453.439C309.295 453.439 308.176 454.559 308.176 455.939C308.176 457.32 309.295 458.439 310.676 458.439Z" fill="#737373"/>
<path d="M270.301 458.439C271.681 458.439 272.801 457.32 272.801 455.939C272.801 454.559 271.681 453.439 270.301 453.439C268.92 453.439 267.801 454.559 267.801 455.939C267.801 457.32 268.92 458.439 270.301 458.439Z" fill="#737373"/>
<path d="M229.922 458.439C231.303 458.439 232.422 457.32 232.422 455.939C232.422 454.559 231.303 453.439 229.922 453.439C228.541 453.439 227.422 454.559 227.422 455.939C227.422 457.32 228.541 458.439 229.922 458.439Z" fill="#737373"/>
<path d="M189.543 458.439C190.924 458.439 192.043 457.32 192.043 455.939C192.043 454.559 190.924 453.439 189.543 453.439C188.162 453.439 187.043 454.559 187.043 455.939C187.043 457.32 188.162 458.439 189.543 458.439Z" fill="#737373"/>
<path d="M351.055 425.889C352.435 425.889 353.555 424.769 353.555 423.389C353.555 422.008 352.435 420.889 351.055 420.889C349.674 420.889 348.555 422.008 348.555 423.389C348.555 424.769 349.674 425.889 351.055 425.889Z" fill="#737373"/>
<path d="M310.676 425.889C312.056 425.889 313.176 424.769 313.176 423.389C313.176 422.008 312.056 420.889 310.676 420.889C309.295 420.889 308.176 422.008 308.176 423.389C308.176 424.769 309.295 425.889 310.676 425.889Z" fill="#737373"/>
<path d="M270.301 425.889C271.681 425.889 272.801 424.769 272.801 423.389C272.801 422.008 271.681 420.889 270.301 420.889C268.92 420.889 267.801 422.008 267.801 423.389C267.801 424.769 268.92 425.889 270.301 425.889Z" fill="#737373"/>
<path d="M229.922 425.889C231.303 425.889 232.422 424.769 232.422 423.389C232.422 422.008 231.303 420.889 229.922 420.889C228.541 420.889 227.422 422.008 227.422 423.389C227.422 424.769 228.541 425.889 229.922 425.889Z" fill="#737373"/>
<path d="M189.543 425.889C190.924 425.889 192.043 424.769 192.043 423.389C192.043 422.008 190.924 420.889 189.543 420.889C188.162 420.889 187.043 422.008 187.043 423.389C187.043 424.769 188.162 425.889 189.543 425.889Z" fill="#737373"/>
<path d="M351.055 393.336C352.435 393.336 353.555 392.217 353.555 390.836C353.555 389.455 352.435 388.336 351.055 388.336C349.674 388.336 348.555 389.455 348.555 390.836C348.555 392.217 349.674 393.336 351.055 393.336Z" fill="#737373"/>
<path d="M310.676 393.336C312.056 393.336 313.176 392.217 313.176 390.836C313.176 389.455 312.056 388.336 310.676 388.336C309.295 388.336 308.176 389.455 308.176 390.836C308.176 392.217 309.295 393.336 310.676 393.336Z" fill="#737373"/>
<path d="M270.301 393.336C271.681 393.336 272.801 392.217 272.801 390.836C272.801 389.455 271.681 388.336 270.301 388.336C268.92 388.336 267.801 389.455 267.801 390.836C267.801 392.217 268.92 393.336 270.301 393.336Z" fill="#737373"/>
<path d="M229.922 393.336C231.303 393.336 232.422 392.217 232.422 390.836C232.422 389.455 231.303 388.336 229.922 388.336C228.541 388.336 227.422 389.455 227.422 390.836C227.422 392.217 228.541 393.336 229.922 393.336Z" fill="#737373"/>
<path d="M189.543 393.336C190.924 393.336 192.043 392.217 192.043 390.836C192.043 389.455 190.924 388.336 189.543 388.336C188.162 388.336 187.043 389.455 187.043 390.836C187.043 392.217 188.162 393.336 189.543 393.336Z" fill="#737373"/>
<path d="M351.055 360.785C352.435 360.785 353.555 359.666 353.555 358.285C353.555 356.904 352.435 355.785 351.055 355.785C349.674 355.785 348.555 356.904 348.555 358.285C348.555 359.666 349.674 360.785 351.055 360.785Z" fill="#737373"/>
<path d="M310.676 360.785C312.056 360.785 313.176 359.666 313.176 358.285C313.176 356.904 312.056 355.785 310.676 355.785C309.295 355.785 308.176 356.904 308.176 358.285C308.176 359.666 309.295 360.785 310.676 360.785Z" fill="#737373"/>
<path d="M270.301 360.785C271.681 360.785 272.801 359.666 272.801 358.285C272.801 356.904 271.681 355.785 270.301 355.785C268.92 355.785 267.801 356.904 267.801 358.285C267.801 359.666 268.92 360.785 270.301 360.785Z" fill="#737373"/>
<path d="M229.922 360.785C231.303 360.785 232.422 359.666 232.422 358.285C232.422 356.904 231.303 355.785 229.922 355.785C228.541 355.785 227.422 356.904 227.422 358.285C227.422 359.666 228.541 360.785 229.922 360.785Z" fill="#737373"/>
<path d="M189.543 360.785C190.924 360.785 192.043 359.666 192.043 358.285C192.043 356.904 190.924 355.785 189.543 355.785C188.162 355.785 187.043 356.904 187.043 358.285C187.043 359.666 188.162 360.785 189.543 360.785Z" fill="#737373"/>
<path d="M351.055 328.234C352.435 328.234 353.555 327.115 353.555 325.734C353.555 324.354 352.435 323.234 351.055 323.234C349.674 323.234 348.555 324.354 348.555 325.734C348.555 327.115 349.674 328.234 351.055 328.234Z" fill="#737373"/>
<path d="M310.676 328.234C312.056 328.234 313.176 327.115 313.176 325.734C313.176 324.354 312.056 323.234 310.676 323.234C309.295 323.234 308.176 324.354 308.176 325.734C308.176 327.115 309.295 328.234 310.676 328.234Z" fill="#737373"/>
<path d="M270.301 328.234C271.681 328.234 272.801 327.115 272.801 325.734C272.801 324.354 271.681 323.234 270.301 323.234C268.92 323.234 267.801 324.354 267.801 325.734C267.801 327.115 268.92 328.234 270.301 328.234Z" fill="#737373"/>
<path d="M229.922 328.234C231.303 328.234 232.422 327.115 232.422 325.734C232.422 324.354 231.303 323.234 229.922 323.234C228.541 323.234 227.422 324.354 227.422 325.734C227.422 327.115 228.541 328.234 229.922 328.234Z" fill="#737373"/>
<path d="M189.543 328.234C190.924 328.234 192.043 327.115 192.043 325.734C192.043 324.354 190.924 323.234 189.543 323.234C188.162 323.234 187.043 324.354 187.043 325.734C187.043 327.115 188.162 328.234 189.543 328.234Z" fill="#737373"/>
<path d="M351.055 295.684C352.435 295.684 353.555 294.564 353.555 293.184C353.555 291.803 352.435 290.684 351.055 290.684C349.674 290.684 348.555 291.803 348.555 293.184C348.555 294.564 349.674 295.684 351.055 295.684Z" fill="#737373"/>
<path d="M310.676 295.684C312.056 295.684 313.176 294.564 313.176 293.184C313.176 291.803 312.056 290.684 310.676 290.684C309.295 290.684 308.176 291.803 308.176 293.184C308.176 294.564 309.295 295.684 310.676 295.684Z" fill="#737373"/>
<path d="M270.301 295.684C271.681 295.684 272.801 294.564 272.801 293.184C272.801 291.803 271.681 290.684 270.301 290.684C268.92 290.684 267.801 291.803 267.801 293.184C267.801 294.564 268.92 295.684 270.301 295.684Z" fill="#737373"/>
<path d="M229.922 295.684C231.303 295.684 232.422 294.564 232.422 293.184C232.422 291.803 231.303 290.684 229.922 290.684C228.541 290.684 227.422 291.803 227.422 293.184C227.422 294.564 228.541 295.684 229.922 295.684Z" fill="#737373"/>
<path d="M189.543 295.684C190.924 295.684 192.043 294.564 192.043 293.184C192.043 291.803 190.924 290.684 189.543 290.684C188.162 290.684 187.043 291.803 187.043 293.184C187.043 294.564 188.162 295.684 189.543 295.684Z" fill="#737373"/>
<path d="M351.055 263.133C352.435 263.133 353.555 262.014 353.555 260.633C353.555 259.252 352.435 258.133 351.055 258.133C349.674 258.133 348.555 259.252 348.555 260.633C348.555 262.014 349.674 263.133 351.055 263.133Z" fill="#737373"/>
<path d="M310.676 263.133C312.056 263.133 313.176 262.014 313.176 260.633C313.176 259.252 312.056 258.133 310.676 258.133C309.295 258.133 308.176 259.252 308.176 260.633C308.176 262.014 309.295 263.133 310.676 263.133Z" fill="#737373"/>
<path d="M270.301 263.133C271.681 263.133 272.801 262.014 272.801 260.633C272.801 259.252 271.681 258.133 270.301 258.133C268.92 258.133 267.801 259.252 267.801 260.633C267.801 262.014 268.92 263.133 270.301 263.133Z" fill="#737373"/>
<path d="M229.922 263.133C231.303 263.133 232.422 262.014 232.422 260.633C232.422 259.252 231.303 258.133 229.922 258.133C228.541 258.133 227.422 259.252 227.422 260.633C227.422 262.014 228.541 263.133 229.922 263.133Z" fill="#737373"/>
<path d="M189.543 263.133C190.924 263.133 192.043 262.014 192.043 260.633C192.043 259.252 190.924 258.133 189.543 258.133C188.162 258.133 187.043 259.252 187.043 260.633C187.043 262.014 188.162 263.133 189.543 263.133Z" fill="#737373"/>
<path d="M351.055 230.58C352.435 230.58 353.555 229.461 353.555 228.08C353.555 226.699 352.435 225.58 351.055 225.58C349.674 225.58 348.555 226.699 348.555 228.08C348.555 229.461 349.674 230.58 351.055 230.58Z" fill="#737373"/>
<path d="M310.676 230.58C312.056 230.58 313.176 229.461 313.176 228.08C313.176 226.699 312.056 225.58 310.676 225.58C309.295 225.58 308.176 226.699 308.176 228.08C308.176 229.461 309.295 230.58 310.676 230.58Z" fill="#737373"/>
<path d="M270.301 230.58C271.681 230.58 272.801 229.461 272.801 228.08C272.801 226.699 271.681 225.58 270.301 225.58C268.92 225.58 267.801 226.699 267.801 228.08C267.801 229.461 268.92 230.58 270.301 230.58Z" fill="#737373"/>
<path d="M229.922 230.58C231.303 230.58 232.422 229.461 232.422 228.08C232.422 226.699 231.303 225.58 229.922 225.58C228.541 225.58 227.422 226.699 227.422 228.08C227.422 229.461 228.541 230.58 229.922 230.58Z" fill="#737373"/>
<path d="M189.543 230.58C190.924 230.58 192.043 229.461 192.043 228.08C192.043 226.699 190.924 225.58 189.543 225.58C188.162 225.58 187.043 226.699 187.043 228.08C187.043 229.461 188.162 230.58 189.543 230.58Z" fill="#737373"/>
</svg>
