<svg width="2468" height="1246" viewBox="0 0 2468 1246" fill="none" xmlns="http://www.w3.org/2000/svg">
<g opacity="0.24">
<path d="M189.331 879.192C268.275 889.801 354.356 882.714 430.069 859.169C520.113 831.219 592.192 782.379 656.75 732.107C721.307 681.836 781.768 628.469 858.686 586.379C935.758 544.277 1033.95 513.798 1129.73 520.511C1189.81 524.74 1244.96 543.187 1305.51 545.475C1497.06 552.683 1657.81 401.38 1848.46 412.871C1929.9 417.772 1997.72 452.6 2077.83 462.218C2182.56 474.865 2301.74 438.267 2358.89 375.926" stroke="#62A8B2" stroke-width="2" stroke-miterlimit="10"/>
<path d="M182.184 870.511C248.933 877.138 321.497 872.991 388.824 858.914C402.05 856.197 415.084 852.994 427.788 849.514C480.11 835.081 526.432 814.889 568.089 792.245C599.965 774.963 629.263 756.274 657.732 736.845C674.462 725.436 691.169 713.727 708.313 701.684C747.417 673.921 786.813 643.928 828.249 616.387C840.15 608.456 852.227 600.812 864.48 593.456C895.19 575.06 928.823 558.546 964.273 545.604C1014.45 527.324 1068.4 516.075 1123.18 517.601C1181.52 519.255 1236.45 534.911 1297.41 536.465C1306.53 536.67 1315.48 536.587 1324.42 536.304C1382.31 534.182 1437.19 520.857 1491.55 502.758C1578.28 473.857 1663.13 432.564 1751.67 415.259C1782.1 409.321 1812.9 406.262 1844.65 407.444C1907.83 409.832 1963.21 429.264 2022.42 442.285C2039.84 446.067 2057.7 449.414 2076.08 451.419C2181.84 463.485 2301.01 430.7 2358.03 374.787" stroke="#69A3AE" stroke-width="2" stroke-miterlimit="10"/>
<path d="M175.042 861.931C242.705 866.382 316.751 861.419 385.551 848.433C399.099 845.892 412.317 843.076 425.351 839.872C478.708 826.864 526.142 809.094 568.197 789.629C600.248 774.64 629.453 758.766 658.719 741.684C675.863 731.647 693.129 721.199 711.256 709.884C752.508 683.961 793.853 653.218 834.891 624.504C846.616 616.285 858.355 608.267 870.416 600.424C900.129 581.101 931.821 563.432 965.169 549.246C1012.59 529.271 1063.27 515.565 1116.47 514.704C1172.91 513.696 1227.95 526.735 1289.16 527.568C1298.28 527.673 1307.38 527.578 1316.46 527.185C1374.82 525.027 1429.86 513.796 1484.78 497.057C1572.46 470.491 1658.89 429.579 1747.81 411.242C1778.22 405.005 1809.29 401.424 1840.98 401.908C1904.21 402.887 1960.35 420.156 2020.39 432.01C2038.11 435.469 2056.1 438.505 2074.62 440.498C2181.27 451.896 2300.58 423.11 2357.63 373.514" stroke="#719DAA" stroke-width="2" stroke-miterlimit="10"/>
<path d="M167.9 853.35C236.47 855.525 312.013 849.946 382.439 838.039C396.31 835.674 409.858 833.134 423.076 830.317C477.614 818.623 526.168 803.374 568.459 787.001C600.693 774.405 629.95 761.235 659.699 746.422C677.103 737.769 695.236 728.559 714.191 717.983C757.438 693.914 801.04 662.396 841.373 632.532C852.921 624.026 864.468 615.521 876.046 607.414C904.754 587.065 934.512 568.34 965.911 552.9C1010.42 531.141 1057.88 513.77 1109.6 511.718C1164.1 509.555 1219.14 518.483 1280.75 518.583C1289.86 518.588 1299.11 518.382 1308.2 518.088C1367.02 515.895 1422.21 506.757 1477.56 491.491C1566.19 467.259 1654.05 426.84 1743.66 407.447C1774.2 400.898 1805.23 396.819 1837.02 396.594C1900.45 396.154 1957.2 411.269 2017.93 421.968C2035.77 425.116 2054.05 427.929 2072.72 429.811C2180.4 440.628 2299.7 415.655 2356.78 372.475" stroke="#7898A6" stroke-width="2" stroke-miterlimit="10"/>
<path d="M160.751 844.67C230.074 844.581 307.267 838.375 379.159 827.459C393.206 825.381 407.077 823.016 420.632 820.575C476.36 810.294 525.879 797.58 568.552 784.185C600.97 773.983 630.272 763.417 660.518 751.073C678.336 743.793 697.029 735.844 716.966 725.994C762.353 703.667 807.913 671.498 847.855 640.561C859.372 631.656 870.436 622.887 881.669 614.305C909.38 593.029 937.35 573.137 966.647 556.454C1008.24 533.013 1052.54 514.58 1102.89 508.722C1155.38 502.6 1210.62 510.108 1272.5 509.586C1281.76 509.48 1291 509.274 1300.08 508.88C1359.36 506.652 1414.72 499.608 1470.63 485.703C1560.21 463.706 1649.49 423.779 1739.64 403.342C1770.31 396.482 1801.31 391.905 1833.04 390.981C1896.68 389.221 1954.02 402.085 2015.44 411.727C2033.57 414.553 2051.99 417.155 2070.81 418.925C2179.53 429.162 2298.97 408.089 2355.76 371.25" stroke="#8092A2" stroke-width="2" stroke-miterlimit="10"/>
</g>
<path opacity="0.2" d="M153.608 836.09C223.838 833.726 302.675 826.792 375.894 817.078C390.263 815.176 404.463 813.087 418.356 811.021C475.273 802.154 525.904 791.861 568.814 781.558C601.414 773.748 630.615 765.898 661.658 755.901C679.89 749.993 699.135 743.205 720.062 734.182C767.444 713.708 815.115 680.876 854.651 648.666C865.991 639.475 876.872 630.318 887.614 621.372C914.173 599.182 940.356 578.123 967.55 560.196C1006.23 534.972 1047.26 514.282 1096.18 505.826C1146.78 497.14 1201.97 501.945 1264.25 500.69C1273.5 500.484 1282.89 500.166 1292.14 499.86C1351.87 497.597 1407.38 492.548 1463.88 480.202C1554.39 460.34 1645.26 420.993 1735.81 399.624C1766.6 392.454 1797.56 387.377 1829.4 385.744C1893.24 382.565 1951.19 393.276 2013.44 401.751C2031.86 404.254 2050.41 406.645 2069.53 408.292C2179.13 417.959 2298.71 400.687 2355.52 370.265" stroke="#878D9E" stroke-width="2" stroke-miterlimit="10"/>
<path opacity="0.2" d="M146.468 827.509C217.459 822.98 297.938 815.319 372.776 806.584C387.468 804.859 402.005 803.145 416.067 801.267C474.019 793.824 525.762 785.954 569.062 778.73C601.992 773.202 631.252 768.155 662.632 760.539C681.278 756.004 701.083 750.477 722.992 742.181C772.514 723.449 822.143 689.966 861.287 656.683C872.444 647.104 883.148 637.66 893.391 628.251C918.946 605.034 943.187 582.82 968.44 563.738C1004.37 536.819 1041.82 513.795 1089.62 502.816C1138.18 491.68 1193.61 493.657 1256.15 491.681C1265.55 491.363 1274.79 491.057 1284.17 490.64C1344.53 488.329 1400.04 485.386 1456.95 474.413C1548.41 456.885 1640.71 418.031 1731.79 395.518C1762.56 387.949 1793.79 382.45 1825.57 380.119C1889.61 375.52 1948.17 384.078 2011.11 391.398C2029.65 393.59 2048.49 395.659 2067.77 397.294C2178.4 406.381 2297.97 393.02 2354.8 368.815" stroke="#8F8799" stroke-width="2" stroke-miterlimit="10"/>
<path opacity="0.09" d="M139.319 818.831C211.216 812.027 293.192 803.749 369.504 796.106C384.517 794.556 399.231 793.129 413.631 791.627C472.772 785.598 525.473 780.162 569.163 776.017C602.276 772.882 631.596 770.639 663.459 765.292C682.518 762.129 702.883 757.863 725.782 750.395C777.299 733.516 829.031 699.27 867.777 664.814C878.91 654.936 889.116 645.028 899.029 635.344C923.586 611.2 945.886 587.831 969.037 567.506C1001.89 538.816 1036.24 513.522 1082.62 500.045C1129.14 486.457 1184.65 485.519 1247.61 482.909C1256.99 482.492 1266.38 482.075 1275.93 481.745C1336.75 479.499 1392.42 478.55 1449.9 469.037C1542.3 453.744 1636.18 415.371 1727.65 391.925C1758.55 384.045 1789.75 378.048 1821.63 375.007C1885.87 368.989 1945.03 375.394 2008.66 381.559C2027.49 383.428 2046.47 385.286 2065.88 386.809C2177.55 395.315 2297.11 385.767 2353.81 367.99" stroke="#968295" stroke-width="2" stroke-miterlimit="10"/>
<path opacity="0.09" d="M132.177 810.25C204.981 801.17 288.447 792.177 366.231 785.624C381.575 784.35 396.611 783.099 411.195 781.983C471.525 777.368 525.338 774.354 569.11 773.312C602.398 772.47 631.779 773.03 664.278 769.942C683.751 768.152 704.667 765.047 728.556 758.405C782.214 743.268 835.903 708.371 874.251 672.742C885.2 662.477 895.229 652.282 904.644 642.134C928.196 616.964 948.562 592.539 969.764 570.959C999.704 540.487 1030.65 513.046 1075.89 496.848C1120.22 480.92 1176.13 477.044 1239.49 473.701C1248.87 473.184 1258.41 472.755 1267.96 472.425C1329.24 470.144 1385.07 471.288 1442.97 463.148C1536.32 450.189 1631.63 412.308 1723.63 387.719C1754.65 379.528 1785.81 373.032 1817.79 369.282C1882.08 361.856 1941.84 366.009 2006.48 371.194C2025.43 372.753 2044.7 374.387 2064.26 375.699C2176.81 383.537 2296.51 377.989 2353.23 366.529" stroke="#9E7D91" stroke-width="2" stroke-miterlimit="10"/>
<path opacity="0.09" d="M125.035 801.669C198.593 790.325 283.709 780.704 363.12 775.23C378.632 774.144 394.006 773.268 409.073 772.416C470.585 769.115 525.364 768.634 569.526 770.672C602.998 772.223 632.431 775.487 665.42 774.768C685.306 774.35 706.783 772.507 731.653 766.592C787.306 753.308 843.26 717.736 880.902 680.958C891.675 670.405 901.52 659.823 910.443 649.312C932.845 623.227 951.423 597.635 970.676 574.8C997.862 542.633 1025.4 513.046 1069.2 494.15C1111.5 475.87 1167.49 469.079 1231.25 464.903C1240.78 464.274 1250.31 463.745 1260.01 463.404C1321.75 461.088 1377.73 464.226 1436.21 457.646C1530.51 446.922 1627.24 409.534 1719.79 384C1750.79 375.51 1782.22 368.492 1814 364.055C1878.48 355.21 1938.86 357.211 2004.17 361.24C2023.4 362.376 2042.82 363.899 2062.68 365.088C2176.26 372.345 2295.95 370.61 2352.7 365.566" stroke="#A5778D" stroke-width="2" stroke-miterlimit="10"/>
<path opacity="0.09" d="M117.884 792.99C192.349 779.37 278.962 769.133 359.838 764.65C375.673 763.74 391.377 763.14 406.628 762.675C469.328 760.787 525.065 762.741 569.618 767.857C603.272 771.801 632.766 777.869 666.237 779.42C686.691 780.363 708.574 779.792 734.427 774.605C792.066 763.074 850.131 726.839 887.374 688.888C898.125 678.036 907.478 667.091 916.065 656.204C937.468 629.193 954.106 602.445 971.256 578.367C995.526 544.417 1019.66 512.683 1062.16 491.078C1102.59 470.534 1158.66 460.628 1222.68 455.831C1232.2 455.103 1241.88 454.562 1251.59 454.221C1313.79 451.869 1369.93 457.102 1428.99 451.982C1524.23 443.592 1622.54 406.585 1715.47 380.019C1746.6 371.218 1777.99 363.702 1809.87 358.555C1874.55 348.291 1935.54 348.138 2001.53 351.012C2020.9 351.838 2040.6 353.038 2060.61 354.215C2175.23 360.891 2294.91 363.068 2351.52 364.353" stroke="#AD7289" stroke-width="2" stroke-miterlimit="10"/>
<path opacity="0.09" d="M110.745 784.408C185.97 768.623 274.218 757.559 356.576 754.267C372.74 753.632 388.613 753.22 404.202 753.131C467.937 752.667 524.94 757.032 569.729 765.239C603.559 771.477 633.265 780.336 667.227 784.257C688.095 786.572 710.683 787.151 737.372 782.802C797.152 773.013 857.175 736.127 894.019 697.003C904.586 685.764 913.755 674.431 922.004 663.169C942.403 635.132 957.106 607.329 972.308 581.995C993.669 546.362 1014.55 512.57 1055.77 488.156C1094.17 465.36 1150.31 452.439 1214.74 446.908C1224.41 446.069 1234.08 445.429 1243.94 445.076C1306.76 442.677 1362.9 450.015 1422.37 446.268C1518.57 440.212 1618.31 403.697 1711.77 376.087C1743.04 366.975 1774.38 358.861 1806.37 353.104C1871.25 341.421 1932.84 339.116 1999.68 340.922C2019.33 341.425 2039.17 342.414 2059.33 343.48C2174.83 349.587 2294.64 355.564 2351.28 363.266" stroke="#B46C85" stroke-width="2" stroke-miterlimit="10"/>
<path opacity="0.09" d="M103.602 775.829C179.734 757.768 269.479 746.088 353.455 743.776C369.942 743.317 386.145 743.18 401.917 743.478C466.842 744.428 524.803 751.227 569.982 762.513C603.987 771.044 633.762 782.807 668.205 788.998C689.495 792.785 712.635 794.524 740.306 790.903C802.073 782.868 864.207 745.319 900.661 705.121C911.051 693.595 920.036 681.875 927.794 670.249C947.042 641.297 960.111 612.315 973.21 585.739C991.817 548.411 1009.45 512.461 1049.06 485.26C1085.59 460.2 1141.81 444.265 1206.49 438.013C1216.15 437.073 1225.98 436.422 1235.84 436.069C1299.11 433.635 1355.42 443.067 1415.47 440.78C1512.76 436.947 1613.77 400.937 1707.78 372.282C1739.02 362.872 1770.48 354.247 1802.56 347.78C1867.65 334.677 1929.84 330.22 1997.37 330.871C2017.3 331.051 2037.28 331.829 2057.58 332.783C2174.12 338.309 2294.08 348.187 2350.59 362.218" stroke="#BC6781" stroke-width="2" stroke-miterlimit="10"/>
<path opacity="0.09" d="M96.4523 767.15C173.338 746.826 264.733 734.518 350.183 733.296C366.992 733.013 383.532 733.252 399.634 733.826C465.748 736.189 524.813 745.31 570.244 759.887C604.432 770.811 634.267 785.377 669.186 793.738C690.889 798.898 714.581 801.799 743.242 799.004C807.004 792.822 871.241 754.511 907.296 713.14C917.656 701.215 926.158 689.231 933.57 677.13C951.813 647.152 962.949 617.115 973.945 589.295C989.636 550.184 1004.18 512.264 1042.34 482.265C1077.01 455.041 1133.14 435.904 1198.24 429.018C1207.89 427.979 1217.87 427.215 1227.72 426.863C1291.47 424.493 1347.93 435.919 1408.54 434.993C1506.78 433.494 1609.37 397.865 1703.76 368.278C1735.13 358.457 1766.71 349.422 1798.59 342.269C1863.87 327.746 1926.68 321.137 1994.89 320.632C2014.95 320.501 2035.22 321.056 2055.82 321.887C2173.39 326.833 2293.34 340.523 2349.87 360.97" stroke="#C3617D" stroke-width="2" stroke-miterlimit="10"/>
<path opacity="0.09" d="M89.3114 758.568C167.103 735.968 259.988 722.945 346.911 722.814C364.05 722.806 380.759 723.233 397.199 724.182C464.494 727.859 524.525 739.514 570.346 757.17C604.709 770.387 634.612 787.857 670.166 798.475C692.138 805.119 716.536 809.169 746.178 807.102C812.081 802.662 878.283 763.799 913.786 721.267C923.969 709.054 932.287 696.684 939.209 684.219C956.454 653.314 965.649 622.121 974.696 593.047C987.479 552.253 998.935 512.262 1035.49 479.478C1068.44 449.979 1124.5 427.838 1189.85 420.231C1199.64 419.08 1209.47 418.329 1219.63 417.952C1283.83 415.548 1340.46 429.068 1401.49 429.613C1500.68 430.449 1604.69 395.313 1699.62 364.582C1731.12 354.45 1762.66 344.916 1794.64 337.053C1860.12 321.012 1923.53 312.349 1992.59 310.777C2012.94 310.323 2033.49 310.556 2054.09 311.387C2172.54 315.664 2292.64 333.354 2349.04 360.13" stroke="#CB5C79" stroke-width="2" stroke-miterlimit="10"/>
<g opacity="0.19">
<path d="M82.1694 749.988C160.876 725.212 255.404 711.461 343.8 712.42C361.107 712.601 378.3 713.291 394.924 714.627C463.254 719.729 524.543 733.695 570.608 754.542C605.3 770.04 634.963 790.437 671.154 803.314C693.539 811.33 718.489 816.541 749.129 815.401C817.019 812.714 885.485 773.176 920.436 729.483C930.443 716.983 938.416 704.137 945 691.298C961.241 659.366 968.501 627.118 975.6 596.788C985.621 554.2 993.83 512.151 1028.78 476.581C1059.86 444.818 1115.84 419.674 1181.6 411.333C1191.39 410.083 1201.36 409.22 1211.52 408.844C1276.34 406.392 1332.97 422.018 1394.57 423.924C1494.71 426.994 1600.3 392.339 1695.62 360.675C1727.24 350.232 1758.75 340.2 1790.83 331.628C1856.35 314.179 1920.53 303.351 1990.27 300.624C2010.75 299.859 2031.59 299.869 2052.33 300.489C2171.82 304.185 2291.89 325.688 2348.32 358.78" stroke="#D25775" stroke-width="2" stroke-miterlimit="10"/>
<path d="M75.0208 741.308C154.48 714.268 250.659 699.889 340.52 701.84C358.15 702.196 375.526 703.274 392.48 704.885C462 711.401 524.247 727.8 570.548 751.738C605.424 769.63 635.147 792.83 671.82 807.977C694.619 817.365 720.129 823.838 751.751 823.424C821.627 822.491 892.205 782.29 926.758 737.424C936.734 724.525 944.377 711.404 950.47 698.201C965.56 665.354 971.186 631.927 976.029 600.366C983.141 556.094 988.412 511.964 1021.76 473.608C1051.13 439.669 1107.02 411.323 1173.19 402.349C1183.13 400.987 1193.1 400.124 1203.41 399.736C1268.69 397.249 1325.49 415.068 1387.5 418.347C1488.6 423.851 1595.61 389.589 1691.46 356.781C1723.06 346.039 1754.84 335.485 1786.86 326.215C1852.59 307.346 1917.37 294.366 1987.79 290.483C2008.56 289.396 2029.54 289.195 2050.42 289.703C2170.95 292.818 2291.02 318.233 2347.46 357.643" stroke="#DA5170" stroke-width="2" stroke-miterlimit="10"/>
<path d="M67.8792 732.728C148.246 703.412 245.913 688.317 337.409 691.447C355.369 692.079 373.067 693.332 390.351 695.219C461.06 703.149 524.418 721.97 570.956 748.999C606.008 769.184 635.791 795.188 673.1 812.593C696.32 823.453 722.374 830.987 754.986 831.401C827.003 832.21 899.539 791.357 933.7 745.418C943.5 732.232 950.959 718.723 956.553 705.057C970.646 671.283 974.331 636.702 977.224 603.885C981.422 557.831 983.761 511.718 1015.35 470.488C1043.15 434.262 1098.66 402.936 1165.23 393.129C1175.16 391.668 1185.27 390.694 1195.59 390.306C1261.33 387.783 1318.28 407.697 1380.87 412.336C1482.91 420.175 1591.34 386.305 1687.74 352.553C1719.47 341.5 1751.2 330.347 1783.18 320.479C1849.1 300.091 1914.5 285.059 1985.76 280.008C2006.64 278.51 2027.93 278.186 2048.96 278.583C2170.36 281.129 2290.57 310.444 2346.88 356.182" stroke="#E14C6C" stroke-width="2" stroke-miterlimit="10"/>
<path d="M60.8901 724.135C142.01 692.555 241.328 676.833 334.289 680.953C352.571 681.761 370.446 683.302 388.068 685.565C459.965 694.907 524.282 716.163 571.21 746.271C606.598 768.837 636.288 797.656 674.079 817.331C697.713 829.564 724.319 838.259 757.921 839.5C831.918 841.962 906.579 800.646 940.334 753.434C949.95 739.861 957.08 726.077 962.336 712.035C975.424 677.235 977.175 641.598 977.966 607.538C979.255 559.801 978.802 511.495 1008.64 467.59C1034.72 429.089 1090.15 394.66 1156.98 384.232C1166.9 382.671 1177.17 381.684 1187.64 381.285C1253.84 378.727 1310.96 400.734 1374.11 406.834C1477.11 417.007 1587.11 383.518 1684.05 348.722C1715.91 337.358 1747.6 325.707 1779.68 315.129C1845.65 293.334 1911.8 276.037 1983.76 270.03C2004.93 268.21 2026.34 267.575 2047.68 267.948C2170.12 269.914 2290.32 303.041 2346.65 355.196" stroke="#E94668" stroke-width="2" stroke-miterlimit="10"/>
<path d="M53.742 715.455C135.776 681.699 236.584 665.262 331.018 670.473C349.622 671.457 367.835 673.373 385.633 675.923C458.566 686.691 524.148 710.357 571.312 743.556C606.883 768.515 636.48 800.149 674.907 822.082C698.801 835.699 726.121 845.644 760.705 847.612C836.849 851.916 913.461 809.849 946.825 761.563C956.418 747.691 963.202 733.432 967.968 719.026C980.058 683.3 979.86 646.407 978.71 611.193C977.083 561.672 973.699 511.384 1001.77 464.606C1026.29 423.817 1081.34 386.409 1148.58 375.247C1158.64 373.575 1168.9 372.489 1179.37 372.089C1246.04 369.596 1303.31 393.597 1366.89 401.169C1470.83 413.577 1582.27 380.68 1679.74 344.84C1711.58 333.177 1743.38 321.016 1775.56 309.728C1841.73 286.513 1908.49 267.064 1981.13 259.902C2002.58 257.759 2024.14 256.912 2045.62 257.174C2169.1 258.559 2289.44 295.587 2345.64 354.07" stroke="#F04164" stroke-width="2" stroke-miterlimit="10"/>
<path d="M46.6001 706.875C129.387 670.855 231.845 653.789 327.899 659.98C346.68 661.251 365.368 663.331 383.35 666.268C457.464 678.35 524.012 704.55 571.567 740.828C607.313 768.08 636.977 802.618 676.04 826.809C700.356 841.898 728.381 852.992 763.794 855.699C841.925 861.756 920.648 819.027 953.46 769.58C962.877 755.42 969.477 740.774 973.905 725.993C984.836 689.252 982.859 651.292 979.76 614.823C975.378 563.608 969.048 511.138 995.221 461.697C1018.18 418.62 1072.99 378.221 1140.48 366.338C1150.54 364.566 1160.95 363.468 1171.58 363.057C1238.86 360.517 1296.14 386.624 1360.28 395.557C1465.17 410.298 1578.18 377.783 1676.05 341.01C1708.02 329.036 1739.79 316.376 1772.07 304.379C1838.43 279.745 1905.8 258.143 1979.28 249.813C2000.86 247.36 2022.71 246.29 2044.34 246.441C2168.69 247.157 2289.17 288.085 2345.25 352.997" stroke="#F83B60" stroke-width="2" stroke-miterlimit="10"/>
<path d="M39.4581 698.295C123.152 659.999 227.099 642.218 324.626 649.499C422.152 656.781 512.176 689.108 571.667 738.113C630.007 786.202 671.675 854.523 766.576 863.811C846.848 871.61 927.682 828.217 959.942 777.609C992.202 727.001 987.638 671.387 980.341 618.389C973.044 565.391 963.928 510.828 988.353 458.713C1012.78 406.598 1081.25 357.03 1163.31 353.861C1231.05 351.286 1288.49 379.487 1353.21 389.88C1459.04 406.856 1573.48 374.833 1671.88 337.017C1770.28 299.201 1866.7 253.713 1976.65 239.685C2123.76 221.008 2278.38 268.151 2344.23 351.771" stroke="#FF365C" stroke-width="2" stroke-miterlimit="10"/>
<path d="M39.0465 692.91C121.95 654.374 224.931 636.065 322.066 642.273C359.313 644.739 395.591 650.689 429.65 659.918C484.207 674.699 532.757 697.763 570.053 727.103C616.211 763.288 652.484 811.561 709.677 836.571C726.29 843.825 744.601 849.044 765.477 851.458C844.159 860.683 922.811 821.068 957.902 773.151C984.453 736.72 991.511 695.762 991.023 655.081C990.937 641.849 990.076 628.576 989.077 615.514C985.004 562.27 979.258 507.348 1005.83 455.068C1031.86 403.733 1099.62 355.022 1181.01 351.202C1248.24 347.964 1306.02 374.535 1370.42 384.752C1475.78 401.564 1588.03 373.219 1684.27 339.579C1695.11 335.841 1705.77 331.917 1716.44 328.091C1801.63 297.203 1886.33 264.045 1982.08 254.112C2006.28 251.559 2030.93 250.876 2055.23 251.625C2175.37 255.772 2292 298.801 2348.49 363.079" stroke="#FF3B5C" stroke-width="2" stroke-miterlimit="10"/>
<path d="M38.6264 687.427C120.74 648.65 222.746 629.714 319.498 634.949C356.561 637.027 392.809 642.579 426.829 651.309C481.332 665.392 530.275 687.523 568.277 716.007C615.28 751.124 652.544 798.219 709.299 823.563C725.605 830.841 743.624 836.282 764.07 839.131C841.317 849.769 917.94 813.919 955.394 768.63C984.247 734.029 994.705 693.112 996.827 652.231C997.509 638.94 997.568 625.596 997.337 612.476C996.633 558.873 994.264 503.693 1022.84 451.361C1050.33 400.917 1117.54 353.051 1198.09 348.392C1264.81 344.492 1322.76 369.343 1387 379.473C1491.72 396.032 1601.94 371.453 1696.19 341.977C1706.75 338.662 1717.3 335.348 1727.7 331.945C1810.86 304.922 1893.41 275.84 1987.18 268.365C2010.97 266.445 2035.04 266.208 2058.92 267.491C2177.2 273.586 2294.19 315.382 2352.44 374.311" stroke="#FF415D" stroke-width="2" stroke-miterlimit="10"/>
<path d="M38.3675 682.031C119.544 643.125 220.729 623.549 317.091 627.711C354.116 629.291 390.179 634.455 424.169 642.787C478.765 656.061 527.954 677.37 566.662 704.998C614.51 739.047 652.918 784.951 709.081 810.642C725.242 818.031 742.962 823.595 762.97 826.778C838.773 838.73 913.215 806.658 953.354 764.173C984.347 731.313 998.512 690.413 1003.11 649.544C1004.71 636.182 1005.54 622.78 1006.07 609.601C1008.58 555.652 1009.75 500.202 1040.32 447.717C1069.26 398.164 1135.91 351.043 1215.8 345.733C1282.16 341.158 1340.29 364.391 1404.22 374.444C1508.31 390.852 1616.49 369.938 1708.6 344.738C1718.89 341.945 1729.17 339.053 1739.44 336.061C1820.73 312.792 1900.97 287.898 1992.62 282.992C2015.84 281.718 2039.49 282.015 2062.93 283.631C2179.2 291.685 2296.72 332.239 2356.71 385.818" stroke="#FF465D" stroke-width="2" stroke-miterlimit="10"/>
</g>
<g opacity="0.14">
<path d="M37.9553 676.646C118.342 637.5 218.552 617.296 314.538 620.584C351.379 621.777 387.412 626.542 421.51 634.264C476.198 646.728 525.633 667.217 565.048 693.988C613.74 726.97 653.293 771.683 708.865 797.72C724.718 805.132 742.146 810.919 761.717 814.437C835.93 827.815 908.644 799.385 951 759.638C984.433 728.397 1002.01 687.737 1009.06 646.68C1011.43 633.26 1013.04 619.899 1014.49 606.549C1020.37 552.342 1024.75 496.545 1057.48 443.996C1087.88 395.335 1153.98 349.058 1233.03 342.91C1298.88 337.772 1357.2 359.286 1420.95 369.151C1524.56 385.295 1630.56 368.159 1720.67 347.123C1730.68 344.753 1740.69 342.382 1750.69 339.912C1829.97 320.509 1908.05 299.692 1997.73 297.244C2020.53 296.602 2043.6 297.445 2066.77 299.484C2181.02 309.497 2299.07 348.807 2360.66 397.049" stroke="#FF4C5E" stroke-width="2" stroke-miterlimit="10"/>
<path d="M37.5434 671.262C117.139 631.876 216.383 611.145 311.978 613.359C348.635 614.165 384.63 618.432 418.697 625.754C473.485 637.509 523.312 657.065 563.28 682.992C612.978 714.994 653.514 758.428 708.495 784.811C724.203 792.335 741.339 798.345 760.318 802.209C833.088 816.9 903.927 792.225 948.661 755.305C984.388 725.793 1005.37 685.174 1015.19 644.005C1018.33 630.527 1020.85 617.095 1023.22 603.675C1032.33 549.122 1040.08 493.067 1075.11 440.341C1106.81 392.483 1172.51 347.039 1250.89 340.24C1316.38 334.428 1374.88 354.223 1438.32 364.112C1541.3 380.103 1645.26 366.533 1733.23 349.774C1743.12 347.914 1752.86 345.966 1762.59 344.018C1839.99 328.368 1915.77 311.739 2003.47 311.749C2025.71 311.752 2048.35 313.029 2071.08 315.502C2183.33 327.475 2301.89 365.541 2365.24 408.434" stroke="#FF515E" stroke-width="2" stroke-miterlimit="10"/>
<path d="M37.1309 665.878C115.936 626.251 214.359 604.881 309.264 606.145C345.736 606.564 381.693 610.332 415.884 617.244C470.611 628.201 520.844 647.024 561.512 671.995C612.054 702.929 653.734 745.173 708.124 771.902C723.678 779.437 740.369 785.682 759.064 789.868C830.399 805.974 899.356 784.952 946.46 750.759C984.78 722.855 1009.02 682.488 1021.3 641.131C1025.37 627.682 1028.65 614.092 1031.79 600.613C1044.27 545.801 1055.24 489.4 1092.43 436.609C1125.59 389.643 1190.73 345.044 1268.29 337.505C1333.26 331.03 1391.94 349.207 1455.22 358.908C1557.56 374.647 1659.49 364.843 1745.46 352.248C1755.08 350.811 1764.54 349.384 1774.15 347.847C1849.53 336.063 1923.15 323.51 2008.73 325.989C2030.4 326.638 2052.61 328.449 2074.91 331.256C2185.14 345.188 2304.22 381.911 2369.18 419.566" stroke="#FF575F" stroke-width="2" stroke-miterlimit="10"/>
<path d="M36.8665 660.381C114.728 620.526 212.338 598.616 306.851 598.807C343.14 598.839 379.066 602.208 413.211 608.522C468.031 618.67 518.51 636.671 560.037 660.774C611.425 690.641 654.095 731.705 708.048 758.769C723.302 766.427 739.847 772.784 757.951 777.316C827.696 794.847 895.239 777.544 944.253 746.113C985.175 719.915 1012.67 679.701 1027.41 638.256C1032.25 624.747 1036.45 611.087 1040.36 597.549C1056.21 542.379 1070.25 485.743 1109.74 432.776C1144.2 386.614 1208.95 342.947 1285.82 334.558C1350.29 327.52 1409.14 343.979 1472.25 353.492C1574.11 368.967 1673.86 362.94 1757.68 354.522C1767.03 353.606 1776.37 352.591 1785.56 351.587C1858.91 343.568 1930.37 335.092 2013.98 340.129C2035.23 341.411 2056.88 343.767 2078.74 347.009C2187.12 362.888 2306.57 398.379 2373.27 430.685" stroke="#FF5C5F" stroke-width="2" stroke-miterlimit="10"/>
<path d="M36.4551 654.997C113.534 615.001 210.161 592.364 304.291 591.581C340.55 591.214 376.284 594.096 410.398 600.011C465.318 609.449 516.036 626.53 558.27 649.776C610.502 678.576 654.317 718.45 707.678 745.859C722.779 753.53 738.879 760.121 756.706 765.075C825.015 784.02 890.991 770.447 942.06 741.668C985.583 717.176 1016.17 677.026 1033.53 635.481C1039.29 621.902 1044.26 608.183 1048.93 594.587C1068.01 539.17 1085.27 482.187 1127.07 429.144C1162.67 383.896 1227.18 341.051 1303.38 331.912C1367.48 324.199 1426.52 338.939 1489.32 348.476C1590.55 363.798 1688.26 361.437 1770.09 357.283C1779.16 356.79 1788.24 356.296 1797.31 355.803C1868.79 351.638 1937.94 347.25 2019.43 354.856C2040.12 356.784 2061.34 359.673 2082.92 363.237C2189.28 381.076 2309.25 415.324 2377.56 442.292" stroke="#FF6160" stroke-width="2" stroke-miterlimit="10"/>
<path d="M36.0431 649.614C112.331 609.377 207.992 586.212 301.731 584.356C337.805 583.602 373.51 586.086 407.739 591.491C462.598 600.131 513.715 616.379 556.656 638.769C609.733 666.501 654.538 705.195 707.462 732.939C722.263 740.733 738.217 747.435 755.454 752.736C822.326 773.094 886.888 763.24 939.714 737.235C985.991 714.438 1019.68 674.452 1039.5 632.719C1046.02 619.081 1051.77 605.403 1057.35 591.637C1079.8 535.862 1100.12 478.545 1144.23 425.425C1181.13 380.981 1245.25 339.068 1320.61 329.09C1384.2 320.714 1443.42 333.835 1506.05 343.185C1606.65 358.255 1702.33 359.66 1782.16 359.67C1791.12 359.687 1799.92 359.616 1808.71 359.545C1878.17 359.146 1945.16 358.934 2024.68 368.998C2044.8 371.571 2065.59 374.894 2086.74 378.892C2191.09 398.69 2311.43 431.706 2381.64 453.313" stroke="#FF6760" stroke-width="2" stroke-miterlimit="10"/>
<path d="M35.6308 644.229C111.129 603.752 205.815 579.96 299.171 577.13C335.061 575.989 370.573 577.986 404.918 582.88C459.87 590.711 511.233 606.138 554.888 627.771C608.963 654.424 654.759 691.939 707.091 720.029C721.74 727.835 737.256 734.871 754.2 740.395C819.476 762.079 882.792 756.131 937.513 732.689C986.552 711.687 1023.33 671.665 1045.61 629.943C1052.9 616.247 1059.57 602.498 1065.93 588.673C1091.6 532.652 1115.13 474.989 1161.56 421.792C1199.6 378.163 1263.47 337.071 1338.16 326.443C1401.25 317.504 1460.8 328.895 1523.11 338.068C1623.23 352.974 1716.56 357.969 1794.4 362.244C1803.08 362.683 1811.61 363.134 1820.14 363.584C1887.73 367.039 1952.41 370.916 2029.96 383.437C2049.66 386.643 2069.87 390.513 2090.59 394.945C2192.93 416.701 2313.79 448.375 2385.61 464.744" stroke="#FF6C61" stroke-width="2" stroke-miterlimit="10"/>
<path d="M35.3717 638.833C109.926 598.127 203.798 573.796 296.763 569.893C332.47 568.364 367.944 569.863 402.258 574.358C457.31 581.479 509.073 596.073 553.273 616.762C608.193 642.347 655.133 678.672 706.866 707.008C721.215 714.937 736.586 722.085 752.947 728.055C816.787 751.152 878.85 749.011 935.166 728.255C987.129 709.135 1026.68 669.101 1051.58 627.18C1059.8 613.513 1067.23 599.606 1074.35 585.723C1103.39 529.343 1129.99 471.345 1178.87 418.061C1218.06 375.247 1281.69 335.075 1355.56 323.708C1418.28 314.095 1477.85 323.779 1540.01 332.964C1639.49 347.618 1730.8 356.378 1806.64 364.817C1815.06 365.778 1823.46 366.64 1831.72 367.613C1897.28 374.833 1959.81 382.886 2035.23 397.877C2054.36 401.728 2074.15 406.131 2094.59 410.886C2195.07 434.59 2316.3 465.032 2389.86 475.952" stroke="#FF7261" stroke-width="2" stroke-miterlimit="10"/>
<path d="M34.9595 633.45C108.731 592.604 201.621 567.545 294.203 562.668C329.725 560.753 365.169 561.852 399.591 565.738C454.735 572.05 506.744 585.822 551.65 605.655C607.415 630.172 655.5 665.306 706.642 693.989C720.838 701.929 735.762 709.312 751.686 715.616C814.097 740.227 874.915 741.992 932.957 723.611C987.844 706.374 1030.32 666.217 1057.83 624.195C1066.82 610.47 1075.17 596.492 1083.06 582.55C1115.32 525.924 1144.98 467.591 1196.33 414.218C1236.67 372.22 1300.05 332.87 1373.24 320.751C1435.45 310.476 1495.21 318.541 1557.2 327.538C1656.05 342.04 1745.32 354.466 1819.02 367.081C1827.3 368.453 1835.29 369.848 1843.42 371.232C1906.96 382.317 1967.34 394.447 2040.79 411.995C2059.51 416.48 2078.72 421.429 2098.73 426.618C2197.2 452.281 2318.95 481.479 2394.26 487.05" stroke="#FF7762" stroke-width="2" stroke-miterlimit="10"/>
<path d="M34.5397 627.966C107.52 586.879 199.444 561.292 291.635 555.342C326.973 553.04 362.379 553.641 396.77 557.127C451.853 562.642 504.262 575.581 549.875 594.557C606.492 618.107 655.713 651.951 706.264 680.979C720.314 689.031 734.939 696.537 750.425 703.175C811.247 729.211 870.973 734.872 930.603 719.077C988.413 703.723 1033.82 663.541 1063.8 621.432C1073.71 607.636 1082.82 593.6 1091.48 579.599C1127.11 522.614 1159.68 463.959 1213.5 410.498C1254.97 369.314 1318.12 330.885 1390.48 318.028C1452.33 307.078 1512.27 313.524 1573.8 322.457C1672.16 336.695 1759.25 352.898 1830.96 369.778C1838.98 371.672 1846.83 373.478 1854.55 375.395C1916.21 390.234 1974.13 406.564 2045.61 426.569C2063.76 431.7 2082.54 437.082 2102.12 442.705C2198.58 470.328 2320.85 498.282 2397.76 498.516" stroke="#FF7D62" stroke-width="2" stroke-miterlimit="10"/>
<path d="M34.2824 622.569C106.473 581.242 197.422 555.028 289.229 548.104C324.537 545.403 359.759 545.617 394.112 548.605C449.295 553.41 501.942 565.429 548.262 583.548C605.877 606.019 656.089 638.683 706.049 668.058C719.791 676.133 734.133 683.962 749.181 690.934C808.567 718.384 867.063 728.15 928.411 714.631C989.006 701.37 1037.33 660.866 1069.92 618.657C1080.59 604.802 1090.49 590.807 1100.21 576.624C1139.07 519.393 1174.69 460.203 1230.98 406.854C1273.59 366.485 1336.5 328.877 1408.18 315.269C1469.52 303.656 1529.65 308.484 1591 317.229C1688.73 331.215 1773.79 351.085 1843.34 372.24C1851.09 374.556 1858.69 376.984 1866.27 379.311C1925.92 398.016 1981.68 418.422 2051.18 440.886C2068.76 446.661 2087.13 452.578 2106.27 458.535C2200.71 488.117 2323.5 514.728 2402.17 509.712" stroke="#FF8263" stroke-width="2" stroke-miterlimit="10"/>
<path d="M33.8705 617.186C105.117 575.63 195.253 548.876 286.669 540.879C321.793 537.791 356.977 537.506 391.445 539.984C446.721 543.979 499.614 555.177 546.64 572.44C605.1 593.843 656.456 625.317 705.825 655.038C719.421 663.224 733.463 671.176 748.074 678.483C805.87 707.358 863.137 721.23 926.364 710.075C989.897 698.896 1041.13 658.169 1076.18 615.771C1087.63 601.858 1098.44 587.792 1108.93 573.55C1151.16 515.961 1189.68 456.449 1248.44 403.011C1292.04 363.37 1354.86 326.671 1425.88 312.412C1486.7 300.136 1547.16 303.234 1608.19 311.903C1705.45 325.724 1788.32 349.272 1855.88 374.592C1863.35 377.43 1870.83 380.268 1877.99 383.03C1935.76 405.588 1989.21 430.082 2056.74 455.003C2073.91 461.413 2091.69 467.875 2110.56 474.254C2203.15 505.783 2326.3 531.163 2406.57 520.809" stroke="#FF8763" stroke-width="2" stroke-miterlimit="10"/>
<path d="M33.4592 611.8C103.915 570.004 193.077 542.622 284.11 533.652C319.049 530.176 354.203 529.493 388.633 531.472C444.001 534.658 497.293 545.023 544.873 561.441C604.178 581.777 656.678 612.06 705.455 642.127C718.899 650.325 732.495 658.512 746.668 666.153C802.875 696.453 858.919 714.531 923.857 705.551C990.175 696.466 1044.48 655.504 1081.99 612.919C1094.36 599.034 1105.93 584.81 1117.19 570.51C1162.63 512.574 1204.06 452.639 1265.45 399.301C1310.04 360.487 1372.76 324.597 1442.96 309.699C1503.27 296.761 1563.91 298.239 1624.79 306.82C1721.41 320.39 1802.25 347.702 1867.66 377.199C1875.01 380.447 1882.06 383.819 1889.11 387.092C1944.85 413.416 1996.14 441.986 2061.56 469.576C2078.15 476.531 2095.52 483.527 2113.95 490.341C2204.52 523.729 2328.2 547.965 2410.23 532.262" stroke="#FF8D64" stroke-width="2" stroke-miterlimit="10"/>
<path d="M33.0467 606.416C102.72 564.479 190.907 536.47 281.549 526.426C316.305 522.564 351.42 521.382 385.973 522.95C441.288 525.438 494.98 534.97 543.258 550.432C603.407 569.7 657.052 598.793 705.238 629.206C718.382 637.527 731.687 645.937 745.576 653.901C800.347 685.615 855.008 707.81 921.824 701.194C991.089 694.29 1048.14 652.917 1088.27 610.332C1101.41 596.389 1113.91 582.094 1125.93 567.735C1174.75 509.541 1219.08 449.184 1282.94 395.757C1328.66 357.658 1391.15 322.69 1460.67 307.041C1520.62 293.428 1581.29 293.299 1642 301.693C1737.99 315.109 1816.79 346.088 1880.21 379.749C1887.29 383.52 1894.22 387.302 1900.99 391.097C1954.72 421.286 2003.85 453.933 2067.3 483.981C2083.47 491.569 2100.41 499.099 2118.26 506.358C2206.82 541.706 2331.03 564.698 2414.65 543.658" stroke="#FF9264" stroke-width="2" stroke-miterlimit="10"/>
<path d="M32.789 601.021C101.672 558.843 188.884 530.207 278.99 519.201C313.561 514.952 348.638 513.271 383.153 514.341C438.56 516.02 492.498 524.73 541.483 539.336C602.478 557.537 657.105 585.351 704.861 616.197C717.852 624.531 730.865 633.163 744.162 641.473C797.352 674.713 850.783 699.007 919.317 696.673C991.236 694.179 1051.49 650.255 1094.08 607.481C1108.14 593.468 1121.25 579.126 1134.2 564.697C1186.23 506.157 1233.45 445.277 1300.1 392.038C1346.81 354.666 1409.22 320.706 1477.91 304.318C1537.35 290.043 1598.35 288.184 1658.75 296.601C1754.26 309.754 1830.88 344.51 1892.14 382.347C1898.95 386.54 1905.61 390.845 1912.1 395.061C1963.96 429.005 2010.78 465.84 2072.1 498.357C2087.71 506.591 2104.23 514.654 2121.8 522.236C2208.34 559.543 2333.07 581.292 2418.45 554.902" stroke="#FF9865" stroke-width="2" stroke-miterlimit="10"/>
<path d="M32.3686 595.537C100.307 553.131 186.706 523.955 276.421 511.877C310.809 507.24 345.855 505.16 380.332 505.732C435.839 506.701 490.016 514.491 539.707 528.24C601.7 545.361 657.318 571.996 704.483 603.189C717.174 611.645 729.888 620.401 742.747 629.045C794.347 663.71 846.41 694.328 916.954 692.04C991.659 689.634 1054.98 647.381 1100.18 604.508C1115.01 590.436 1129.04 576.023 1142.75 561.535C1198.17 502.737 1248.13 441.346 1317.41 388.207C1365.1 351.562 1427.43 318.611 1495.44 301.373C1554.52 286.423 1615.55 282.957 1675.78 291.186C1770.66 304.187 1845.24 342.509 1904.52 384.71C1911.06 389.426 1917.59 394.141 1923.82 398.879C1973.66 436.688 2018.32 477.6 2077.67 512.575C2092.71 521.453 2108.8 530.05 2125.93 537.967C2210.46 577.233 2335.55 597.65 2422.69 566.011" stroke="#FF9D65" stroke-width="2" stroke-miterlimit="10"/>
<path d="M31.9574 590.151C99.1056 547.504 184.53 517.701 273.862 504.649C308.219 499.613 343.073 497.047 377.666 497.108C433.112 497.279 487.688 504.236 538.085 517.129C600.923 533.183 657.685 558.627 704.259 590.166C716.797 598.634 729.073 607.724 741.649 616.691C791.667 652.881 842.346 687.616 914.762 687.592C992.114 687.491 1058.49 644.804 1106.31 601.831C1121.9 587.7 1136.86 573.317 1151.34 558.67C1209.97 499.525 1262.82 437.613 1334.74 384.573C1383.41 348.655 1445.65 316.614 1512.84 298.736C1571.41 283.123 1632.78 278.027 1692.69 286.08C1786.93 298.828 1859.48 340.917 1916.61 387.294C1923.02 392.42 1929.14 397.668 1935.25 402.917C1983.21 444.48 2025.57 489.58 2082.94 527.013C2097.57 536.525 2113.08 545.568 2129.79 554.018C2212.46 595.231 2337.92 614.417 2426.81 577.428" stroke="#FFA366" stroke-width="2" stroke-miterlimit="10"/>
<path d="M31.6976 584.757C123.514 525.48 250.189 489.913 375.005 488.588C499.814 487.163 621.214 519.898 704.041 577.246C766.007 620.245 819.567 680.535 912.56 683.048C992.405 685.264 1062.13 642.019 1112.42 598.958C1195.59 527.605 1259.05 446.829 1352.05 380.842C1445.21 314.844 1581.5 263.698 1709.74 280.866C1813.95 294.757 1889.19 349.878 1946.82 406.848C2004.45 463.817 2053.11 526.688 2133.78 569.961C2214.45 613.233 2340.43 631.076 2431.07 588.738" stroke="#FFA866" stroke-width="2" stroke-miterlimit="10"/>
</g>
<mask id="mask0_2239_9195" style="mask-type:luminance" maskUnits="userSpaceOnUse" x="441" y="148" width="1440" height="961">
<path d="M1880.51 148.767H441.514V1108.1H1880.51V148.767Z" fill="white"/>
</mask>
<g mask="url(#mask0_2239_9195)">
<path d="M550.639 548.091C551.963 548.091 553.037 547.017 553.037 545.693C553.037 544.368 551.963 543.294 550.639 543.294C549.314 543.294 548.24 544.368 548.24 545.693C548.24 547.017 549.314 548.091 550.639 548.091Z" fill="#D9CAB8"/>
<path d="M550.639 520.509C551.963 520.509 553.037 519.435 553.037 518.111C553.037 516.786 551.963 515.712 550.639 515.712C549.314 515.712 548.24 516.786 548.24 518.111C548.24 519.435 549.314 520.509 550.639 520.509Z" fill="#D9CAB8"/>
<path d="M550.639 492.929C551.963 492.929 553.037 491.855 553.037 490.531C553.037 489.206 551.963 488.132 550.639 488.132C549.314 488.132 548.24 489.206 548.24 490.531C548.24 491.855 549.314 492.929 550.639 492.929Z" fill="#D9CAB8"/>
<path d="M550.639 465.347C551.963 465.347 553.037 464.273 553.037 462.949C553.037 461.624 551.963 460.55 550.639 460.55C549.314 460.55 548.24 461.624 548.24 462.949C548.24 464.273 549.314 465.347 550.639 465.347Z" fill="#D9CAB8"/>
<path d="M550.639 437.767C551.963 437.767 553.037 436.693 553.037 435.368C553.037 434.044 551.963 432.97 550.639 432.97C549.314 432.97 548.24 434.044 548.24 435.368C548.24 436.693 549.314 437.767 550.639 437.767Z" fill="#D9CAB8"/>
<path d="M580.618 548.091C581.943 548.091 583.016 547.017 583.016 545.693C583.016 544.368 581.943 543.294 580.618 543.294C579.293 543.294 578.22 544.368 578.22 545.693C578.22 547.017 579.293 548.091 580.618 548.091Z" fill="#D9CAB8"/>
<path d="M580.618 520.509C581.943 520.509 583.016 519.435 583.016 518.111C583.016 516.786 581.943 515.712 580.618 515.712C579.293 515.712 578.22 516.786 578.22 518.111C578.22 519.435 579.293 520.509 580.618 520.509Z" fill="#D9CAB8"/>
<path d="M580.618 492.929C581.943 492.929 583.016 491.855 583.016 490.531C583.016 489.206 581.943 488.132 580.618 488.132C579.293 488.132 578.22 489.206 578.22 490.531C578.22 491.855 579.293 492.929 580.618 492.929Z" fill="#D9CAB8"/>
<path d="M580.618 465.347C581.943 465.347 583.016 464.273 583.016 462.949C583.016 461.624 581.943 460.55 580.618 460.55C579.293 460.55 578.22 461.624 578.22 462.949C578.22 464.273 579.293 465.347 580.618 465.347Z" fill="#D9CAB8"/>
<path d="M580.618 437.767C581.943 437.767 583.016 436.693 583.016 435.368C583.016 434.044 581.943 432.97 580.618 432.97C579.293 432.97 578.22 434.044 578.22 435.368C578.22 436.693 579.293 437.767 580.618 437.767Z" fill="#D9CAB8"/>
<path d="M610.598 548.091C611.922 548.091 612.996 547.017 612.996 545.693C612.996 544.368 611.922 543.294 610.598 543.294C609.273 543.294 608.199 544.368 608.199 545.693C608.199 547.017 609.273 548.091 610.598 548.091Z" fill="#D9CAB8"/>
<path d="M610.598 520.509C611.922 520.509 612.996 519.435 612.996 518.111C612.996 516.786 611.922 515.712 610.598 515.712C609.273 515.712 608.199 516.786 608.199 518.111C608.199 519.435 609.273 520.509 610.598 520.509Z" fill="#D9CAB8"/>
<path d="M610.598 492.929C611.922 492.929 612.996 491.855 612.996 490.531C612.996 489.206 611.922 488.132 610.598 488.132C609.273 488.132 608.199 489.206 608.199 490.531C608.199 491.855 609.273 492.929 610.598 492.929Z" fill="#D9CAB8"/>
<path d="M610.598 465.347C611.922 465.347 612.996 464.273 612.996 462.949C612.996 461.624 611.922 460.55 610.598 460.55C609.273 460.55 608.199 461.624 608.199 462.949C608.199 464.273 609.273 465.347 610.598 465.347Z" fill="#D9CAB8"/>
<path d="M610.598 437.767C611.922 437.767 612.996 436.693 612.996 435.368C612.996 434.044 611.922 432.97 610.598 432.97C609.273 432.97 608.199 434.044 608.199 435.368C608.199 436.693 609.273 437.767 610.598 437.767Z" fill="#D9CAB8"/>
<path d="M640.576 548.091C641.901 548.091 642.974 547.017 642.974 545.693C642.974 544.368 641.901 543.294 640.576 543.294C639.252 543.294 638.178 544.368 638.178 545.693C638.178 547.017 639.252 548.091 640.576 548.091Z" fill="#D9CAB8"/>
<path d="M640.576 520.509C641.901 520.509 642.974 519.435 642.974 518.111C642.974 516.786 641.901 515.712 640.576 515.712C639.252 515.712 638.178 516.786 638.178 518.111C638.178 519.435 639.252 520.509 640.576 520.509Z" fill="#D9CAB8"/>
<path d="M640.576 492.929C641.901 492.929 642.974 491.855 642.974 490.531C642.974 489.206 641.901 488.132 640.576 488.132C639.252 488.132 638.178 489.206 638.178 490.531C638.178 491.855 639.252 492.929 640.576 492.929Z" fill="#D9CAB8"/>
<path d="M640.576 465.347C641.901 465.347 642.974 464.273 642.974 462.949C642.974 461.624 641.901 460.55 640.576 460.55C639.252 460.55 638.178 461.624 638.178 462.949C638.178 464.273 639.252 465.347 640.576 465.347Z" fill="#D9CAB8"/>
<path d="M640.576 437.767C641.901 437.767 642.974 436.693 642.974 435.368C642.974 434.044 641.901 432.97 640.576 432.97C639.252 432.97 638.178 434.044 638.178 435.368C638.178 436.693 639.252 437.767 640.576 437.767Z" fill="#D9CAB8"/>
<path d="M670.556 548.091C671.88 548.091 672.954 547.017 672.954 545.693C672.954 544.368 671.88 543.294 670.556 543.294C669.231 543.294 668.157 544.368 668.157 545.693C668.157 547.017 669.231 548.091 670.556 548.091Z" fill="#D9CAB8"/>
<path d="M670.556 520.509C671.88 520.509 672.954 519.435 672.954 518.111C672.954 516.786 671.88 515.712 670.556 515.712C669.231 515.712 668.157 516.786 668.157 518.111C668.157 519.435 669.231 520.509 670.556 520.509Z" fill="#D9CAB8"/>
<path d="M670.556 492.929C671.88 492.929 672.954 491.855 672.954 490.531C672.954 489.206 671.88 488.132 670.556 488.132C669.231 488.132 668.157 489.206 668.157 490.531C668.157 491.855 669.231 492.929 670.556 492.929Z" fill="#D9CAB8"/>
<path d="M670.556 465.347C671.88 465.347 672.954 464.273 672.954 462.949C672.954 461.624 671.88 460.55 670.556 460.55C669.231 460.55 668.157 461.624 668.157 462.949C668.157 464.273 669.231 465.347 670.556 465.347Z" fill="#D9CAB8"/>
<path d="M670.556 437.767C671.88 437.767 672.954 436.693 672.954 435.368C672.954 434.044 671.88 432.97 670.556 432.97C669.231 432.97 668.157 434.044 668.157 435.368C668.157 436.693 669.231 437.767 670.556 437.767Z" fill="#D9CAB8"/>
<path d="M700.535 548.091C701.86 548.091 702.933 547.017 702.933 545.693C702.933 544.368 701.86 543.294 700.535 543.294C699.21 543.294 698.137 544.368 698.137 545.693C698.137 547.017 699.21 548.091 700.535 548.091Z" fill="#D9CAB8"/>
<path d="M700.535 520.509C701.86 520.509 702.933 519.435 702.933 518.111C702.933 516.786 701.86 515.712 700.535 515.712C699.21 515.712 698.137 516.786 698.137 518.111C698.137 519.435 699.21 520.509 700.535 520.509Z" fill="#D9CAB8"/>
<path d="M700.535 492.929C701.86 492.929 702.933 491.855 702.933 490.531C702.933 489.206 701.86 488.132 700.535 488.132C699.21 488.132 698.137 489.206 698.137 490.531C698.137 491.855 699.21 492.929 700.535 492.929Z" fill="#D9CAB8"/>
<path d="M700.535 465.347C701.86 465.347 702.933 464.273 702.933 462.949C702.933 461.624 701.86 460.55 700.535 460.55C699.21 460.55 698.137 461.624 698.137 462.949C698.137 464.273 699.21 465.347 700.535 465.347Z" fill="#D9CAB8"/>
<path d="M700.535 437.767C701.86 437.767 702.933 436.693 702.933 435.368C702.933 434.044 701.86 432.97 700.535 432.97C699.21 432.97 698.137 434.044 698.137 435.368C698.137 436.693 699.21 437.767 700.535 437.767Z" fill="#D9CAB8"/>
<path d="M730.514 548.091C731.838 548.091 732.912 547.017 732.912 545.693C732.912 544.368 731.838 543.294 730.514 543.294C729.189 543.294 728.115 544.368 728.115 545.693C728.115 547.017 729.189 548.091 730.514 548.091Z" fill="#D9CAB8"/>
<path d="M730.514 520.509C731.838 520.509 732.912 519.435 732.912 518.111C732.912 516.786 731.838 515.712 730.514 515.712C729.189 515.712 728.115 516.786 728.115 518.111C728.115 519.435 729.189 520.509 730.514 520.509Z" fill="#D9CAB8"/>
<path d="M730.514 492.929C731.838 492.929 732.912 491.855 732.912 490.531C732.912 489.206 731.838 488.132 730.514 488.132C729.189 488.132 728.115 489.206 728.115 490.531C728.115 491.855 729.189 492.929 730.514 492.929Z" fill="#D9CAB8"/>
<path d="M730.514 465.347C731.838 465.347 732.912 464.273 732.912 462.949C732.912 461.624 731.838 460.55 730.514 460.55C729.189 460.55 728.115 461.624 728.115 462.949C728.115 464.273 729.189 465.347 730.514 465.347Z" fill="#D9CAB8"/>
<path d="M730.514 437.767C731.838 437.767 732.912 436.693 732.912 435.368C732.912 434.044 731.838 432.97 730.514 432.97C729.189 432.97 728.115 434.044 728.115 435.368C728.115 436.693 729.189 437.767 730.514 437.767Z" fill="#D9CAB8"/>
<path d="M760.493 548.091C761.818 548.091 762.891 547.017 762.891 545.693C762.891 544.368 761.818 543.294 760.493 543.294C759.168 543.294 758.095 544.368 758.095 545.693C758.095 547.017 759.168 548.091 760.493 548.091Z" fill="#D9CAB8"/>
<path d="M760.493 520.509C761.818 520.509 762.891 519.435 762.891 518.111C762.891 516.786 761.818 515.712 760.493 515.712C759.168 515.712 758.095 516.786 758.095 518.111C758.095 519.435 759.168 520.509 760.493 520.509Z" fill="#D9CAB8"/>
<path d="M760.493 492.929C761.818 492.929 762.891 491.855 762.891 490.531C762.891 489.206 761.818 488.132 760.493 488.132C759.168 488.132 758.095 489.206 758.095 490.531C758.095 491.855 759.168 492.929 760.493 492.929Z" fill="#D9CAB8"/>
<path d="M760.493 465.347C761.818 465.347 762.891 464.273 762.891 462.949C762.891 461.624 761.818 460.55 760.493 460.55C759.168 460.55 758.095 461.624 758.095 462.949C758.095 464.273 759.168 465.347 760.493 465.347Z" fill="#D9CAB8"/>
<path d="M760.493 437.767C761.818 437.767 762.891 436.693 762.891 435.368C762.891 434.044 761.818 432.97 760.493 432.97C759.168 432.97 758.095 434.044 758.095 435.368C758.095 436.693 759.168 437.767 760.493 437.767Z" fill="#D9CAB8"/>
<path d="M790.473 548.091C791.797 548.091 792.871 547.017 792.871 545.693C792.871 544.368 791.797 543.294 790.473 543.294C789.148 543.294 788.074 544.368 788.074 545.693C788.074 547.017 789.148 548.091 790.473 548.091Z" fill="#D9CAB8"/>
<path d="M790.473 520.509C791.797 520.509 792.871 519.435 792.871 518.111C792.871 516.786 791.797 515.712 790.473 515.712C789.148 515.712 788.074 516.786 788.074 518.111C788.074 519.435 789.148 520.509 790.473 520.509Z" fill="#D9CAB8"/>
<path d="M790.473 492.929C791.797 492.929 792.871 491.855 792.871 490.531C792.871 489.206 791.797 488.132 790.473 488.132C789.148 488.132 788.074 489.206 788.074 490.531C788.074 491.855 789.148 492.929 790.473 492.929Z" fill="#D9CAB8"/>
<path d="M790.473 465.347C791.797 465.347 792.871 464.273 792.871 462.949C792.871 461.624 791.797 460.55 790.473 460.55C789.148 460.55 788.074 461.624 788.074 462.949C788.074 464.273 789.148 465.347 790.473 465.347Z" fill="#D9CAB8"/>
<path d="M790.473 437.767C791.797 437.767 792.871 436.693 792.871 435.368C792.871 434.044 791.797 432.97 790.473 432.97C789.148 432.97 788.074 434.044 788.074 435.368C788.074 436.693 789.148 437.767 790.473 437.767Z" fill="#D9CAB8"/>
<path d="M820.451 548.091C821.776 548.091 822.849 547.017 822.849 545.693C822.849 544.368 821.776 543.294 820.451 543.294C819.127 543.294 818.053 544.368 818.053 545.693C818.053 547.017 819.127 548.091 820.451 548.091Z" fill="#D9CAB8"/>
<path d="M820.451 520.509C821.776 520.509 822.849 519.435 822.849 518.111C822.849 516.786 821.776 515.712 820.451 515.712C819.127 515.712 818.053 516.786 818.053 518.111C818.053 519.435 819.127 520.509 820.451 520.509Z" fill="#D9CAB8"/>
<path d="M820.451 492.929C821.776 492.929 822.849 491.855 822.849 490.531C822.849 489.206 821.776 488.132 820.451 488.132C819.127 488.132 818.053 489.206 818.053 490.531C818.053 491.855 819.127 492.929 820.451 492.929Z" fill="#D9CAB8"/>
<path d="M820.451 465.347C821.776 465.347 822.849 464.273 822.849 462.949C822.849 461.624 821.776 460.55 820.451 460.55C819.127 460.55 818.053 461.624 818.053 462.949C818.053 464.273 819.127 465.347 820.451 465.347Z" fill="#D9CAB8"/>
<path d="M820.451 437.767C821.776 437.767 822.849 436.693 822.849 435.368C822.849 434.044 821.776 432.97 820.451 432.97C819.127 432.97 818.053 434.044 818.053 435.368C818.053 436.693 819.127 437.767 820.451 437.767Z" fill="#D9CAB8"/>
<path d="M850.431 548.091C851.755 548.091 852.829 547.017 852.829 545.693C852.829 544.368 851.755 543.294 850.431 543.294C849.106 543.294 848.032 544.368 848.032 545.693C848.032 547.017 849.106 548.091 850.431 548.091Z" fill="#D9CAB8"/>
<path d="M850.431 520.509C851.755 520.509 852.829 519.435 852.829 518.111C852.829 516.786 851.755 515.712 850.431 515.712C849.106 515.712 848.032 516.786 848.032 518.111C848.032 519.435 849.106 520.509 850.431 520.509Z" fill="#D9CAB8"/>
<path d="M850.431 492.929C851.755 492.929 852.829 491.855 852.829 490.531C852.829 489.206 851.755 488.132 850.431 488.132C849.106 488.132 848.032 489.206 848.032 490.531C848.032 491.855 849.106 492.929 850.431 492.929Z" fill="#D9CAB8"/>
<path d="M850.431 465.347C851.755 465.347 852.829 464.273 852.829 462.949C852.829 461.624 851.755 460.55 850.431 460.55C849.106 460.55 848.032 461.624 848.032 462.949C848.032 464.273 849.106 465.347 850.431 465.347Z" fill="#D9CAB8"/>
<path d="M850.431 437.767C851.755 437.767 852.829 436.693 852.829 435.368C852.829 434.044 851.755 432.97 850.431 432.97C849.106 432.97 848.032 434.044 848.032 435.368C848.032 436.693 849.106 437.767 850.431 437.767Z" fill="#D9CAB8"/>
<path d="M880.41 548.091C881.735 548.091 882.808 547.017 882.808 545.693C882.808 544.368 881.735 543.294 880.41 543.294C879.085 543.294 878.012 544.368 878.012 545.693C878.012 547.017 879.085 548.091 880.41 548.091Z" fill="#D9CAB8"/>
<path d="M880.41 520.509C881.735 520.509 882.808 519.435 882.808 518.111C882.808 516.786 881.735 515.712 880.41 515.712C879.085 515.712 878.012 516.786 878.012 518.111C878.012 519.435 879.085 520.509 880.41 520.509Z" fill="#D9CAB8"/>
<path d="M880.41 492.929C881.735 492.929 882.808 491.855 882.808 490.531C882.808 489.206 881.735 488.132 880.41 488.132C879.085 488.132 878.012 489.206 878.012 490.531C878.012 491.855 879.085 492.929 880.41 492.929Z" fill="#D9CAB8"/>
<path d="M880.41 465.347C881.735 465.347 882.808 464.273 882.808 462.949C882.808 461.624 881.735 460.55 880.41 460.55C879.085 460.55 878.012 461.624 878.012 462.949C878.012 464.273 879.085 465.347 880.41 465.347Z" fill="#D9CAB8"/>
<path d="M880.41 437.767C881.735 437.767 882.808 436.693 882.808 435.368C882.808 434.044 881.735 432.97 880.41 432.97C879.085 432.97 878.012 434.044 878.012 435.368C878.012 436.693 879.085 437.767 880.41 437.767Z" fill="#D9CAB8"/>
<path d="M910.389 548.091C911.713 548.091 912.787 547.017 912.787 545.693C912.787 544.368 911.713 543.294 910.389 543.294C909.064 543.294 907.99 544.368 907.99 545.693C907.99 547.017 909.064 548.091 910.389 548.091Z" fill="#D9CAB8"/>
<path d="M910.389 520.509C911.713 520.509 912.787 519.435 912.787 518.111C912.787 516.786 911.713 515.712 910.389 515.712C909.064 515.712 907.99 516.786 907.99 518.111C907.99 519.435 909.064 520.509 910.389 520.509Z" fill="#D9CAB8"/>
<path d="M910.389 492.929C911.713 492.929 912.787 491.855 912.787 490.531C912.787 489.206 911.713 488.132 910.389 488.132C909.064 488.132 907.99 489.206 907.99 490.531C907.99 491.855 909.064 492.929 910.389 492.929Z" fill="#D9CAB8"/>
<path d="M910.389 465.347C911.713 465.347 912.787 464.273 912.787 462.949C912.787 461.624 911.713 460.55 910.389 460.55C909.064 460.55 907.99 461.624 907.99 462.949C907.99 464.273 909.064 465.347 910.389 465.347Z" fill="#D9CAB8"/>
<path d="M910.389 437.767C911.713 437.767 912.787 436.693 912.787 435.368C912.787 434.044 911.713 432.97 910.389 432.97C909.064 432.97 907.99 434.044 907.99 435.368C907.99 436.693 909.064 437.767 910.389 437.767Z" fill="#D9CAB8"/>
</g>
</svg>
